<svg xmlns="http://www.w3.org/2000/svg" width="262.41" height="70.16" viewBox="0 0 262.41 70.16">
  <g id="Group_12716" data-name="Group 12716" transform="translate(-136.692 -2373.5)">
    <text id="_2000_" data-name="2000+" transform="translate(220.766 2374.494)" font-size="45" font-family="NHaasGroteskDSPro-95Blk, Neue Haas Grotesk Display Pro"><tspan x="0" y="42">2000+</tspan></text>
    <text id="Individual_product_lines" data-name="Individual product lines" transform="translate(221.102 2421.66)" font-size="15" font-family="NHaasGroteskDSPro-65Md, Neue Haas Grotesk Display Pro" font-weight="500" letter-spacing="0.058em"><tspan x="0" y="14">Individual product lines</tspan></text>
    <g id="Group_12693" data-name="Group 12693" transform="translate(137.693 2373.5)">
      <circle id="Ellipse_2881" data-name="Ellipse 2881" cx="26.28" cy="26.28" r="26.28" transform="translate(4.38)" fill="#fff"/>
      <path id="Path_11591" data-name="Path 11591" d="M350.383,336.906c-.074-1.287-1.09-8.735-2.093-11.237-1.1-.163-2.621.763-3.776,2.616a7.529,7.529,0,0,0-.592,6.717l-1.342,5.041a3.049,3.049,0,0,0-2.913.966l-4.5,4.5c-.677.676-3.767.4-4.839,1.468-.476.476-2.666,2.708-3.762,3.8S325,354.237,325,355.759v8.6h12.508c0-2.19-.311-3.631.927-4.885.988-1,9.833-9.793,10.826-10.786A100.412,100.412,0,0,0,350.383,336.906Z" transform="translate(-288.865 -307.418)" fill="#fff" stroke="#161615" stroke-width="1"/>
      <path id="Path_11592" data-name="Path 11592" d="M337.644,351.6l6.309-6.311a3.034,3.034,0,1,0-4.286-4.286l-4.5,4.5c-.677.677-3.767.4-4.839,1.468-.476.476-2.666,2.708-3.762,3.8S325,354.237,325,355.759v8.6h12.508c0-2.19-.311-3.631.927-4.885.988-1,9.833-9.793,10.826-10.786a100.412,100.412,0,0,0,1.121-11.782c-.074-1.287-1.09-8.735-2.093-11.237-1.1-.163-2.621.763-3.776,2.616a7.529,7.529,0,0,0-.592,6.717l-1.4,5.267" transform="translate(-288.865 -307.418)" fill="none" stroke="#161615" stroke-miterlimit="10" stroke-width="2"/>
      <path id="Path_11593" data-name="Path 11593" d="M340.52,366.665V359H323v7.665" transform="translate(-289.055 -304.25)" fill="#e9eaeb" stroke="#161615" stroke-width="1"/>
      <path id="Path_11594" data-name="Path 11594" d="M340.52,366.665V359H323v7.665" transform="translate(-289.055 -304.25)" fill="none" stroke="#161615" stroke-miterlimit="10" stroke-width="2"/>
      <line id="Line_711" data-name="Line 711" x2="3.285" transform="translate(37.23 59.13)" fill="none" stroke="#161615" stroke-miterlimit="10" stroke-width="2"/>
      <path id="Path_11595" data-name="Path 11595" d="M315.724,350.786c-1.1-1.1-3.185-3.328-3.662-3.8-1.072-1.072-4.162-.793-4.839-1.468l-4.5-4.5a3.006,3.006,0,0,0-3.093-.909l-1.161-5.1a7.532,7.532,0,0,0-.592-6.717c-1.155-1.853-2.672-2.779-3.776-2.616-1,2.5-2.019,9.95-2.093,11.237a100.16,100.16,0,0,0,1.12,11.782c.993.993,9.839,9.786,10.826,10.786,1.238,1.254.927,2.695.927,4.885h12.306v-8.6C317.185,354.237,316.822,351.883,315.724,350.786Z" transform="translate(-292 -307.418)" fill="#fff" stroke="#161615" stroke-width="1"/>
      <path id="Path_11596" data-name="Path 11596" d="M304.745,351.6s-5.24-5.239-6.311-6.311a3.034,3.034,0,1,1,4.286-4.286l4.5,4.5c.677.677,3.767.4,4.839,1.468.476.476,2.565,2.708,3.662,3.8s1.461,3.451,1.461,4.973v8.6H304.879c0-2.19.311-3.631-.927-4.885-.988-1-9.832-9.793-10.826-10.786a100.16,100.16,0,0,1-1.12-11.782c.073-1.287,1.088-8.735,2.093-11.237,1.1-.163,2.62.763,3.776,2.616a7.532,7.532,0,0,1,.592,6.717l1.2,5.267" transform="translate(-292 -307.418)" fill="none" stroke="#161615" stroke-miterlimit="10" stroke-width="2"/>
      <path id="Path_11597" data-name="Path 11597" d="M301,366.665V359h17.52v7.665" transform="translate(-291.145 -304.25)" fill="#e9eaeb" stroke="#161615" stroke-width="1"/>
      <path id="Path_11598" data-name="Path 11598" d="M301,366.665V359h17.52v7.665" transform="translate(-291.145 -304.25)" fill="none" stroke="#161615" stroke-miterlimit="10" stroke-width="2"/>
      <line id="Line_712" data-name="Line 712" x1="3.285" transform="translate(20.805 59.13)" fill="none" stroke="#161615" stroke-miterlimit="10" stroke-width="2"/>
      <path id="Path_11599" data-name="Path 11599" d="M321.14,344.66l13.14-7.608V321.915L321.14,314,308,321.915v15.138Z" transform="translate(-290.48 -308.525)" fill="#2acbd2" stroke="#161615" stroke-miterlimit="10" stroke-width="2"/>
      <path id="Path_11600" data-name="Path 11600" d="M312.028,323l8.779,5.648L329.586,323" transform="translate(-290.098 -307.67)" fill="none" stroke="#161615" stroke-miterlimit="10" stroke-width="2"/>
      <line id="Line_713" data-name="Line 713" y2="9.855" transform="translate(30.66 21.9)" fill="none" stroke="#161615" stroke-miterlimit="10" stroke-width="2"/>
    </g>
  </g>
</svg>
