<svg xmlns="http://www.w3.org/2000/svg" width="41.509" height="41.509" viewBox="0 0 41.509 41.509">
  <g id="video_chat" data-name="video chat" transform="translate(-67 -415)">
    <g id="Group_12945" data-name="Group 12945" transform="translate(75.01 435.284)">
      <rect id="Rectangle_3813" data-name="Rectangle 3813" width="6" height="5" rx="2.5" transform="translate(3.99 0.225)" fill="none" stroke="#2acbd2" stroke-linecap="round" stroke-linejoin="round" stroke-width="2"/>
      <path id="Path_11920" data-name="Path 11920" d="M92.168,462.989s-.212-3.1-1.909-4.13l-2.17-1.16a4.281,4.281,0,0,1-5.013,0l-2.166,1.157c-1.7,1.034-1.909,4.13-1.909,4.13" transform="translate(-79 -450.411)" fill="none" stroke="#2acbd2" stroke-linecap="round" stroke-linejoin="round" stroke-width="2"/>
    </g>
    <g id="_Grupo_" data-name="&lt;Grupo&gt;" transform="translate(87.117 416)">
      <path id="Path_11921" data-name="Path 11921" d="M117.117,430.019H103.1L98,434.48V417.274A1.275,1.275,0,0,1,99.274,416h17.843a1.275,1.275,0,0,1,1.274,1.274v11.47A1.274,1.274,0,0,1,117.117,430.019Z" transform="translate(-98 -416)" fill="none" stroke="#2acbd2" stroke-linecap="round" stroke-linejoin="round" stroke-width="2"/>
      <line id="Line_969" data-name="Line 969" x2="9" transform="translate(5.883 5.509)" fill="none" stroke="#2acbd2" stroke-linecap="round" stroke-linejoin="round" stroke-width="2"/>
      <line id="Line_970" data-name="Line 970" x2="5" transform="translate(5.883 8.509)" fill="none" stroke="#2acbd2" stroke-linecap="round" stroke-linejoin="round" stroke-width="2"/>
    </g>
    <g id="Group_12946" data-name="Group 12946" transform="translate(68 424.921)">
      <line id="Line_971" data-name="Line 971" y2="14" transform="translate(38 9.587)" fill="none" stroke="#2acbd2" stroke-linecap="square" stroke-linejoin="round" stroke-width="2"/>
      <path id="Path_11922" data-name="Path 11922" d="M72,454.215V432.549A2.549,2.549,0,0,1,74.549,430h10.2" transform="translate(-69.451 -430)" fill="none" stroke="#2acbd2" stroke-linecap="square" stroke-linejoin="round" stroke-width="2"/>
      <path id="Path_11923" data-name="Path 11923" d="M103.685,475.823H71.823A3.823,3.823,0,0,1,68,472H83.294v1.274h8.921V472h15.294A3.823,3.823,0,0,1,103.685,475.823Z" transform="translate(-68 -445.236)" fill="none" stroke="#2acbd2" stroke-linecap="round" stroke-linejoin="round" stroke-width="2"/>
    </g>
  </g>
</svg>
