<svg xmlns="http://www.w3.org/2000/svg" width="262.509" height="48.167" viewBox="0 0 262.509 48.167">
  <g id="Group_7783" data-name="Group 7783" transform="translate(14613.885 550)">
    <g id="Group_7781" data-name="Group 7781" transform="translate(-14613.885 -550)">
      <path id="Path_9449" data-name="Path 9449" d="M322.165,113.969a24.084,24.084,0,1,0,24.084,24.084A24.084,24.084,0,0,0,322.165,113.969Zm-7.847,34.459H310.2V127.677l4.116,4.926Zm19.809,0h-4.116v-9.407l-5.165,6.181-2.682-3.209,11.962-14.316Z" transform="translate(-298.081 -113.969)" fill="#fff"/>
    </g>
    <g id="Group_7782" data-name="Group 7782" transform="translate(-14542.548 -533.875)">
      <rect id="Rectangle_3463" data-name="Rectangle 3463" width="1.886" height="13.202" transform="translate(0 0.264)" fill="#fff"/>
      <path id="Path_9450" data-name="Path 9450" d="M200.532,464.234,191.1,455.5v13.2h1.886v-8.732l9.43,8.732V455.5h-1.886Z" transform="translate(-178.278 -455.238)" fill="#fff"/>
      <path id="Path_9451" data-name="Path 9451" d="M246.3,457.388h4.715V468.7H252.9V457.388h4.715V455.5H246.3Z" transform="translate(-212.541 -455.238)" fill="#fff"/>
      <path id="Path_9452" data-name="Path 9452" d="M291.4,468.272h2.15l1.283-2.357h7.846l1.3,2.357h2.15l-7.374-13.466Zm4.47-4.243,2.886-5.3,2.9,5.3Z" transform="translate(-240.539 -454.806)" fill="#fff"/>
      <path id="Path_9453" data-name="Path 9453" d="M360.022,461.236l-6.412-5.734v13.2H355.5v-8.532l4.526,3.854,4.508-3.843V468.7h1.9V455.5Z" transform="translate(-279.154 -455.238)" fill="#fff"/>
      <path id="Path_9454" data-name="Path 9454" d="M410.7,468.272h2.15l1.282-2.357h7.846l1.3,2.357h2.15l-7.375-13.466Zm4.47-4.243,2.886-5.3,2.9,5.3Z" transform="translate(-314.591 -454.806)" fill="#fff"/>
      <path id="Path_9455" data-name="Path 9455" d="M483.178,460.217a4.717,4.717,0,0,0-4.715-4.715h-4.715v13.2h1.886v-3.772h2.943l2.47,3.772h2.263l-2.791-4.243A4.708,4.708,0,0,0,483.178,460.217Zm-4.715,2.829h-2.829v-5.658h2.829a2.829,2.829,0,1,1,0,5.658Z" transform="translate(-353.73 -455.238)" fill="#fff"/>
      <path id="Path_9456" data-name="Path 9456" d="M534.34,462.1a6.6,6.6,0,1,0-6.6,6.6h6.808v-1.886h-2.2A6.58,6.58,0,0,0,534.34,462.1Zm-11.316,0a4.715,4.715,0,1,1,4.715,4.715A4.717,4.717,0,0,1,523.024,462.1Z" transform="translate(-383.148 -455.238)" fill="#fff"/>
      <path id="Path_9457" data-name="Path 9457" d="M588.251,463.046a3.772,3.772,0,1,1-7.544,0V455.5h-1.886v7.544a5.658,5.658,0,1,0,11.316,0V455.5h-1.886Z" transform="translate(-418.955 -455.238)" fill="#fff"/>
      <path id="Path_9458" data-name="Path 9458" d="M645.934,457.388V455.5H636.5v13.2h9.43v-1.886h-7.544v-3.649h5.658v-1.886h-5.658v-3.9Z" transform="translate(-454.761 -455.238)" fill="#fff"/>
    </g>
  </g>
</svg>
