<svg xmlns="http://www.w3.org/2000/svg" width="118.123" height="49.493" viewBox="0 0 118.123 49.493">
  <path id="cadbury-logo" d="M117.711,27.019h-.131c-.057-.02-.186-.231-.261-.261a1.931,1.931,0,0,0-1.83.392,4.354,4.354,0,0,0-.85,1.242c-.069.108-.416.413-.457.523-.029.069.041.13,0,.2-.11.167-.349.347-.457.523-.131.209-.129.372-.262.588-.069.11-.251.214-.326.327-.147.21-.184.433-.327.653-.065.1-.492.5-.523.588-.029.069.041.131,0,.2h-.131c-.035.018-.043.222-.065.261s-.161.084-.2.13c-.192.251-.271.529-.457.784-.533.719-3.308,4.047-4.574,3.464-.4-.184-.321-.917-.261-1.372a7.579,7.579,0,0,1,.588-2.222c.051-.114.216-.28.261-.392.062-.165-.006-.188.065-.327l.131-.065c.035-.055.259-.458.261-.458.028-.075-.039-.127,0-.2.027-.053.165-.08.2-.13.055-.1.247-.425.261-.458.027-.074-.041-.13,0-.2s.155-.078.2-.13c.145-.192.131-.376.262-.588.069-.119.255-.217.326-.327.084-.137.053-.251.131-.392s.314-.321.392-.458a2.59,2.59,0,0,0,.261-2.091,1.048,1.048,0,0,0-.784-.588,2.579,2.579,0,0,0-1.764.523c-.029.02-.1.184-.131.2h-.13c-.059.049-.065.206-.131.261a16.214,16.214,0,0,0-1.96,2.287,44.388,44.388,0,0,1-6.143,6.6c-.384.3-1.323,1.113-1.96.523v-.131l-.13-.065a2.3,2.3,0,0,1,0-.98,8.414,8.414,0,0,1,1.046-3.2c.084-.153.31-.372.392-.523s.043-.253.13-.392c.106-.174.337-.294.457-.457.063-.09.065-.239.131-.327.245-.335.631-.629.85-.98.13-.217.147-.431.261-.653.014-.029.19-.182.2-.2a1.458,1.458,0,0,0-.392-1.764,1.322,1.322,0,0,0-1.111-.261c-.076.012-.319.169-.392.2a13.6,13.6,0,0,1-1.7.523,2.353,2.353,0,0,1-.784,0,8.74,8.74,0,0,0,.784-1.83c.182-1.048-.245-1.954-.98-2.091-2.083-.39-3.427,2.15-3.594,3.79-.09.872.2,1.789-.065,2.418-.01.018-.123.049-.131.065-.072.108-.008.2-.065.327-.1.2-.345.453-.457.653-.041.068.027.12,0,.2-.017.039-.17.085-.2.13-.133.21-.131.376-.261.588-.047.074-.147.055-.2.13-.161.239-.222.486-.392.719-.333.449-.737.927-1.111,1.372-.123.143-.351.237-.458.392-.008.008-.059.192-.065.2h-.131c-.149.174-.6.85-.784.915h-.13v.131s-1.007.7-1.046.719a2.078,2.078,0,0,1-1.176,0c-.355-.165-.4-.613-.457-1.111-.039.059-.039-.137,0-.2.108-.18.388-.349.523-.523.057-.078.071-.186.13-.261.041-.055.145-.139.2-.2.068-.082.127-.172.2-.261s.124-.176.2-.261c.241-.3.558-.543.784-.849.813-1.1,2.706-4.191,2.091-6.143a1.176,1.176,0,0,0-.784-.915c-2.777-.592-5.113,4.533-5.685,6.535-.208.723-.194,1.437-.457,2.156-.272.737-2.348,3.161-3.594,2.353-.374-.243-.378-.815-.327-1.307a9.964,9.964,0,0,1,1.764-4.378c.182-.316.267-.6.457-.915.245-.408.653-.786.915-1.176.072-.11.053-.225.13-.327.053-.074.2-.129.262-.2a6.556,6.556,0,0,0,.849-1.307,2.064,2.064,0,0,0-.065-1.5,2.03,2.03,0,0,0-2.418-.457,3.928,3.928,0,0,0-.98,1.046c-.255.3-.592.486-.85.784a12.284,12.284,0,0,1-1.5,1.5,8.482,8.482,0,0,1-3.333,1.569c-.182-2.309-.4-4.248-1.83-5.293a2.776,2.776,0,0,0-1.176-.588,4.1,4.1,0,0,0-1.372.065c-.078.014-.455.2-.523.2-.118-.01-.08-.122-.2-.13.259-.854.523-1.662.85-2.483.055-.145.361-.607.392-.719.019-.072-.033-.2,0-.261.006-.017.119-.047.131-.065a3.833,3.833,0,0,0,.2-.523h.13c.115-.212.084-.39.2-.588s.347-.4.457-.588c.039-.069-.029-.124,0-.2.063-.165.351-.376.458-.523.139-.2.182-.4.326-.588.069-.094.319-.243.392-.327v-.13c.079-.237.637-.419.719-.653v-.131c.063-.063.2-.068.261-.131.117-.135.145-.323.261-.457a8.251,8.251,0,0,0,.719-.784c.055-.092.008-.17.065-.261a3.4,3.4,0,0,0,.327-.458,1.737,1.737,0,0,0-.653-2.091c-1.425-.678-2.763.766-3.333,1.438-.106.123-.359.264-.457.392a7.531,7.531,0,0,1-.653.98,5.2,5.2,0,0,1-1.9.915,12.052,12.052,0,0,1-4.966.131,8.25,8.25,0,0,1-2.614-1.372c-.582-.492-.994-1.138-1.568-1.634V12.9l-.523-.326a1.941,1.941,0,0,0-1.111,0,2.508,2.508,0,0,0-.2.2c-.071.027-.133-.043-.2,0s-.125.235-.2.261h-.13a1.994,1.994,0,0,0-.523,1.83,3.8,3.8,0,0,0,.327.588c.294.627.6,1.183.915,1.764.068.129,0,.182.065.326.059.125.263.317.327.458a12.246,12.246,0,0,1,1.111,5.424,12.432,12.432,0,0,0-7.515,7.254c-.118.278-.353.625-.457.915a10.266,10.266,0,0,0-.392,1.7c-.027.127-.176.449-.2.588-.059.361.017.594-.13.85l-.458.523h-.13v.13c-.035.1-.308.186-.392.261-.2.17-.319.429-.523.588a3.643,3.643,0,0,1-2.679.784A1.8,1.8,0,0,1,43.8,35.579c-.825-2.836.3-6.222.98-8.43.174-.572.212-1,.392-1.569l.13-.13a16.8,16.8,0,0,0,.588-2.418,2.578,2.578,0,0,0-.784-2.222,3.352,3.352,0,0,0-2.156-.327,7.017,7.017,0,0,0-3.725,1.634c-.241.176-.494.266-.719.458v.13a2.4,2.4,0,0,0-.457.392c-.17.141-.355.184-.523.327-.129.106-.3.468-.457.523h-.131c-.053.047-.084.206-.131.261h-.131c-.022.012-.245.429-.327.457h-.13v.13c-.055.155-.414.327-.523.458v.13c-.055.153-.541.506-.653.653-.259.335-.408.7-.653,1.046-.184.257-.482.519-.653.784-.049.072-.025.182-.065.261s-.21.178-.261.261c-.151.237-.186.472-.327.719-.251.431-.613.921-.85,1.372a10.341,10.341,0,0,0-.523,1.046c-.008.029.018.17,0,.2h-.131c-.086.028-.241.269-.327.327-.2.129-.376.137-.588.261s-.429.4-.653.523c-.033.016-.161-.01-.2,0-.161.039-.425.308-.588.392-.363.18-.684.276-1.046.457a3.949,3.949,0,0,1-.523.327c-.055.012-.143-.027-.2,0s-.141.17-.2.2a37.128,37.128,0,0,1-4.378,1.634,21.313,21.313,0,0,1-9.867.392,11.754,11.754,0,0,1-4.052-2.091c-.27-.227-.468-.543-.719-.784a6.267,6.267,0,0,1-.588-.523c-.1-.125-.1-.264-.2-.392a11.573,11.573,0,0,1-.719-.915,11.664,11.664,0,0,1-1.111-6.861A16.616,16.616,0,0,1,6.818,19.9a17.27,17.27,0,0,1,1.046-2.614l.131-.065c.112-.176.1-.343.2-.523.11-.2.343-.392.457-.588A23.3,23.3,0,0,1,13.94,9.767c.163-.141.292-.384.457-.523.139-.118.317-.145.457-.261.114-.1.2-.3.327-.392.1-.078.223-.051.327-.131s.161-.249.261-.327c.163-.133.345-.137.523-.261.088-.065.106-.2.2-.261.4-.292.811-.46,1.242-.719.257-.157.521-.441.784-.588.068-.041.12.027.2,0l.065-.13c.133-.088.249-.055.392-.131.106-.057.284-.272.392-.327.247-.129.49-.114.719-.261.019-.012.049-.124.065-.13.033-.018.159.008.2,0,.161-.041.363-.267.523-.327s.237-.008.392-.065c.174-.067.4-.264.588-.327.072-.026.186.018.261,0,.2-.055.519-.261.719-.327.568-.19,1-.243,1.634-.392.564-.135,1.3-.414,1.9-.523A21.178,21.178,0,0,1,32.106,3.1a13.029,13.029,0,0,1,3.921.784c.123.051.27.206.392.261.227.1.39.067.588.2l.065.131c.118.059.21-.008.327.065.235.145.382.369.653.523v.131a3.923,3.923,0,0,1,.392.261,7.317,7.317,0,0,1,1.7,4.836,8.476,8.476,0,0,1-.457,1.9,14.351,14.351,0,0,1-2.353,4.836c-.2.261-.508.468-.719.719v.13c-.078.222-.578.363-.653.588v.13h-.131a11.1,11.1,0,0,1-.98.98c-.1.072-.229.057-.327.13-.312.229-.584.578-.915.784-.067.041-.2.02-.261.065-.094.063-.221.284-.327.327-.074.027-.129-.041-.2,0-.051.028-.082.163-.131.2-.292.18-.58.372-.85.523a24.275,24.275,0,0,1-4.966,2.091,23.821,23.821,0,0,1-2.549.458,8.162,8.162,0,0,1-5.685-.784,5.145,5.145,0,0,1-2.026-5.1c.566-4.905,5.685-8.174,10-9.41.329-.1.5-.049.85-.131A22.076,22.076,0,0,1,29.951,8.2a7.7,7.7,0,0,0,1.96-.261A1.271,1.271,0,0,0,32.3,6.173c-.386-.554-1.821-.388-2.614-.327a23.323,23.323,0,0,0-3.006.327c-.3.057-.7.249-.98.326a22.6,22.6,0,0,0-2.353.719c-.039.014-.028.114-.065.13-.2.086-.325.041-.523.131-.11.049-.235.214-.327.261-.445.221-.823.29-1.242.523-.2.11-.453.345-.653.457-.176.1-.353.094-.523.2-.069.039-.065.153-.131.2-.235.145-.414.19-.653.327v.13a15.761,15.761,0,0,0-6.012,7.319c-.117.306-.357.713-.457,1.046a10.363,10.363,0,0,0,0,6.143,7.686,7.686,0,0,0,.523,1.046c.035.057.155.072.2.131,1.282,1.907,2.7,2.755,5.489,3.2A17.576,17.576,0,0,0,26.1,27.8c.637-.184,1.3-.468,1.96-.719l.065-.131c.233-.094.372-.041.588-.13s.443-.3.653-.392c.053-.027.141.012.2,0a5.035,5.035,0,0,0,.653-.392c.531-.267.991-.435,1.5-.719.106-.059.284-.269.392-.326a28.192,28.192,0,0,0,2.679-1.634c.28-.2.506-.517.784-.719.1-.074.229-.055.327-.131.075-.061.061-.2.131-.261.1-.1.4-.225.523-.327.388-.329.684-.755,1.046-1.111.288-.286.653-.541.915-.85.227-.269.366-.576.588-.849.119-.149.349-.3.457-.458.072-.11.053-.225.131-.327.047-.067.212-.13.261-.2A19.448,19.448,0,0,0,42.563,13.1a12.267,12.267,0,0,0-.13-7.058,10.451,10.451,0,0,0-.653-1.307c-.043-.068-.155-.065-.2-.131-.051-.082-.008-.18-.065-.261s-.208-.13-.261-.2c-.143-.176-.333-.531-.457-.653a7.425,7.425,0,0,0-.653-.458C37.738,1.1,35.273.4,31.258.1A21.088,21.088,0,0,0,28.382.031a36.119,36.119,0,0,0-4.836.653c-.378.078-.88.316-1.242.392-.106.02-.222-.028-.327,0l-.13.131c-.216.055-.312,0-.523.065-.051.014-.264.173-.327.2-.386.124-.68.129-1.046.261-.754.271-1.572.69-2.287.98A26.6,26.6,0,0,0,7.732,9.44c-.078.082-.247.114-.327.2v.13a3.708,3.708,0,0,0-.915.98c-.251.3-.6.549-.85.849s-.408.658-.653.98c-.055.071-.21.124-.261.2-.082.11-.055.212-.131.327-.127.19-.4.4-.523.588-.288.435-.435.864-.719,1.307l-.131.065A23.254,23.254,0,0,0,.086,28.587c.374,4.2,1.94,7.139,4.574,9.083.131.1.257.3.392.392.063.043.194.023.261.065s.063.153.131.2a17.611,17.611,0,0,0,1.9.915c.039.018.147.174.2.2A19.591,19.591,0,0,0,15.9,40.741c.621-.043,1.384-.227,1.96-.327a34.229,34.229,0,0,0,7.646-2.287c.159-.069.366-.257.523-.327.433-.2.8-.259,1.242-.457a37.167,37.167,0,0,0,3.4-1.764c.023.119.025.035.131.065a9.881,9.881,0,0,0,.392,3.856c.006.02.12.049.131.065.084.159.086.32.2.457.075.1.239.117.327.2v.13a6.752,6.752,0,0,0,.653.392c2.463.817,4.836-1.787,5.816-3.006q.345-.444.653-.915c.1-.164.145-.478.261-.588.018-.02.184-.049.2-.065a7.6,7.6,0,0,0,.719,1.764c.1.184.08.345.2.523.043.067.208.133.261.2.11.137.141.327.261.457.047.051.133.018.2.065.043.033.029.163.065.2.137.119.312.28.457.392a5.065,5.065,0,0,0,4.574.523,17.6,17.6,0,0,0,3.267-2.091c.956,2.832,3.633,3.594,6.077,1.634a9.48,9.48,0,0,0,1.83-2.287c.3-.462.711-.954.98-1.437a26.422,26.422,0,0,0,2.875-10.064,38.779,38.779,0,0,0,.065-5.228c-.028-.386-.13-.812-.13-1.307a17.666,17.666,0,0,0,3.463.2c.684-.053,1.378-.184,2.091-.261-.025.1.09.045.065.2-.01.049-.178.215-.2.262-.129.294-.135.488-.261.784-.017.037-.182.222-.2.261-.292.735-.447,1.382-.719,2.156-.035.1-.229.357-.261.457-.063.178-.008.259-.065.458-.143.475-.449,1.078-.588,1.568-1.086,3.786-3.051,12.136.458,14.638.047.033.08.167.13.2.069.037.12-.03.2,0,.117.045.321.276.458.327a3.566,3.566,0,0,0,2.679-.2,7.949,7.949,0,0,0,3.006-3.594,5.274,5.274,0,0,0,.457-.784c.012-.055-.027-.143,0-.2.092-.209.311-.494.392-.719.161-.449.337-.848.457-1.242.059-.2.03-.525.13-.653l.065-.065a15.6,15.6,0,0,0,1.7-.653,8.322,8.322,0,0,1,.719-.457h.131c.257.027-.074.7-.131.85-.539,1.38-1.256,3.89-.653,5.751a3.168,3.168,0,0,0,.457.653c.041.063-.029.124,0,.2h.065c.122.062.163.3.261.392,1.979,1.846,5.369-.789,6.535-1.9a4.269,4.269,0,0,0,1.307,1.9c.061.045.063.155.13.2a3.317,3.317,0,0,0,1.046.327,3.8,3.8,0,0,0,1.83-.261,6.37,6.37,0,0,0,1.372-1.046h.13c.165-.059.392-.462.523-.588a17.257,17.257,0,0,0,2.353-2.875c.182-.28.5-.555.653-.85.039-.078.018-.186.065-.261.084-.143.308-.317.392-.458s.049-.253.131-.392c.18-.312.476-.6.653-.915a10.452,10.452,0,0,1,1.307-2.222v-.065a4.011,4.011,0,0,1,.719,0c.3-.039.8-.388,1.176-.261.075.025.039.159.065.261a1.489,1.489,0,0,1,.261.065c.194-.115-.086.11-.131.13-.206.085-.314.018-.457.131a6.441,6.441,0,0,0-.719,1.372c-.98,1.957-2.45,5.485-.653,7.646a1.7,1.7,0,0,0,1.242.588,3.621,3.621,0,0,0,1.242,0,4.143,4.143,0,0,0,1.046-.457l.065-.131c.145-.082.243-.053.392-.13a8.519,8.519,0,0,0,.98-.784c.445-.343.9-.6,1.307-.98.019-.02.223-.359.262-.392h.13c.057-.02.69-.686.784-.784s.188-.331.261-.392c.055-.051.147-.01.2-.065a7.585,7.585,0,0,1,1.111-1.176,10.578,10.578,0,0,0-.2,2.745c.027.271.221.7.261.915.012.069-.028.194,0,.261s.159.141.2.2c.071.108.053.222.13.327.114.157.29.206.457.327a2.546,2.546,0,0,0,.523.392,4.259,4.259,0,0,0,2.81-.457,6.054,6.054,0,0,0,.719-.588c.182-.141.4-.184.588-.326v-.131a6.69,6.69,0,0,0,.98-.719c.194-.166.388-.349.588-.523.041-.039.008-.163.065-.2.112-.069.2,0,.327-.065a19.31,19.31,0,0,1-.85,1.764,6.8,6.8,0,0,1-.261.653l-.13.065c-.125.221-.125.439-.261.653l-.131.065c-.039.069.029.12,0,.2-.008.018-.123.051-.13.065-.139.212-.139.431-.262.653-.114.2-.345.447-.457.653-.388.7-.633,1.352-.98,2.091-.255.537-1,1.548-.85,2.418a4.535,4.535,0,0,0,1.046,1.7,7.9,7.9,0,0,0,.85,1.111,1.1,1.1,0,0,1,.261-.131,22.672,22.672,0,0,1,1.242-3.071c.233-.525.352-.978.588-1.5.147-.331.418-.678.588-.98s.225-.613.392-.915c.025-.047.176-.157.2-.2.061-.137,0-.2.065-.327l.13-.065c.237-.368.462-.886.653-1.242.057-.11.008-.206.065-.327l.131-.065c.321-.5.445-1.043.719-1.568a5.329,5.329,0,0,0,.523-.85c.008-.037-.019-.163,0-.2.006-.016.118-.047.13-.065.264-.411.353-.878.588-1.307.159-.3.439-.617.588-.915.169-.345.218-.656.392-.98.065-.129.294-.329.327-.457.012-.053-.029-.145,0-.2s.167-.151.2-.2a8.33,8.33,0,0,0,.523-1.046c.012-.053-.027-.145,0-.2.008-.02.12-.051.13-.065.118-.186.241-.484.327-.653.12-.245.133-.47.261-.719l.13-.065a9.889,9.889,0,0,0,.588-1.307,3.4,3.4,0,0,0-.2-2.875ZM42.235,25.385a14.866,14.866,0,0,1-1.242,2.875c-.421.884-.778,1.709-1.242,2.549q-.221.4-.457.784c-.033.049-.17.078-.2.131-.065.123,0,.208-.065.327-.124.218-.394.437-.523.653s-.127.374-.261.588c-.219.341-.557.643-.784.98-.043.062.026.125,0,.2s-.216.139-.261.2c-.2.243-.32.543-.523.784-.12.141-.351.239-.457.392-.014.018-.049.179-.065.2a1.178,1.178,0,0,1-.915.261c-.069-.019-.153-.139-.2-.2-.61-.807-.023-2.248.2-3.006a15.318,15.318,0,0,1,4.836-8.038,2.934,2.934,0,0,1,1.372-.849c.825-.086.915.588.784,1.176Zm14.246,7.58a10.96,10.96,0,0,1-.523,1.242c-.312.56-2,3.145-2.875,2.091a3.351,3.351,0,0,1-.261-2.353,8.773,8.773,0,0,1,3.137-5.881c.092-.08.163-.257.261-.327a6.35,6.35,0,0,1,.85-.392,4.978,4.978,0,0,1,.719-.392c.016.055.125.041.2.065A14.853,14.853,0,0,1,56.481,32.965Zm11.37,3.529a1.358,1.358,0,0,1-1.046-.2v-.131c-.02-.059-.227-.194-.261-.261a3.317,3.317,0,0,1-.261-1.176A11.3,11.3,0,0,1,67,29.241a4.193,4.193,0,0,1,.261-.719c.035-.059.157-.074.2-.13.29-.447.584-.982,1.242-1.046a1.882,1.882,0,0,1,1.046.327c.03.028-.018.151,0,.2.008.02.178.157.2.2a2.665,2.665,0,0,1,.065.719c.02.21.13.757.13.98C70.128,31.615,69.093,36.2,67.851,36.494Z" transform="translate(-0.001 -0.004)" fill="#313c93"/>
</svg>
