<svg xmlns="http://www.w3.org/2000/svg" width="107.041" height="49.392" viewBox="0 0 107.041 49.392">
  <g id="dove-1" transform="translate(-10.318 -55.609)">
    <path id="Path_11775" data-name="Path 11775" d="M19.939,73.528a22.1,22.1,0,0,0-5.972,4.2c-2.322,2.488-3.649,5.308-3.649,7.852a9.9,9.9,0,0,0,.111,1.327,8.439,8.439,0,0,0,2.6,5.032,8.823,8.823,0,0,0,5.142,2.322.625.625,0,0,0,.664-.608.563.563,0,0,0-.5-.609,5.671,5.671,0,0,1-3.207-2.488,8.053,8.053,0,0,1-1.549-4.534c-.553-4.147,2.544-8.957,7.243-11.445a20.338,20.338,0,0,1,12.44-1.825c4.423.774,6.635,1.825,9.344,4.534a17.219,17.219,0,0,1,4.312,11.5,2.1,2.1,0,0,1-.055.609,18.223,18.223,0,0,1-3.484,10.45c-3.373,4.534-9.012,6.8-16.642,6.8-3.207,0-6.248.055-8.238.111,5.916-3.041,9.676-11.722,12.551-18.246a51.944,51.944,0,0,1,2.156-4.755c3.1-5.861,6.634-6.082,6.745-6.082a.535.535,0,0,0,.5-.5.546.546,0,0,0-.5-.553c-.332,0-4.7-.442-9.344,3.925a20.287,20.287,0,0,0-4.479,7.133c-2.211,5.418-4.036,9.62-5.529,12.5-1.161,2.322-2.6,4.755-4.368,5.639a9.292,9.292,0,0,1-4.258.94.89.89,0,0,0-.608.221.736.736,0,0,0-.221.553.937.937,0,0,0,.221.664.863.863,0,0,0,.553.166c.055,0,4.313.111,15.15.111,9.178,0,15.979-2.156,20.181-6.358A16.374,16.374,0,0,0,52.005,90.17a18.694,18.694,0,0,0-5.253-12.993c-3.815-3.815-7.354-5.363-13.38-6.026a25.711,25.711,0,0,0-13.434,2.378ZM66.271,83.867h.056c-5.916,0-12.108,5.473-13.878,12.164-.94,3.594-.442,7.077,1.382,9.4a7.681,7.681,0,0,0,6.248,2.986c5.86,0,12.108-5.474,13.877-12.164.94-3.649.443-7.077-1.381-9.454a7.824,7.824,0,0,0-6.3-2.93Zm-8.238,22.614a2.884,2.884,0,0,1-1.493-1.935c-.885-2.654-.111-6.911,1.879-10.837,2.764-5.529,7.519-9.233,10.062-7.907a3.05,3.05,0,0,1,1.438,1.88c.83,2.654.055,6.911-1.935,10.892C65.111,104.159,60.576,107.808,58.034,106.481Zm51.033-22.338c-3.538.111-10.394,2.488-13.822,11.113-1.826,4.589-1,7.575.055,9.344a8.14,8.14,0,0,0,5.806,3.759c6.91.774,12.329-7.852,12.5-8.128a.835.835,0,0,0-1.438-.829c0,.055-4.7,7.409-10.172,7.3-2.156-.055-3.207-1.438-3.373-4.423v-.387a12.669,12.669,0,0,1,.83-4.258c1.825.111,11.169.442,14.375-6.192a4.972,4.972,0,0,0-.111-4.976A5.38,5.38,0,0,0,109.066,84.143Zm-1.216,1.769a2.885,2.885,0,0,1,2.708.221,1.7,1.7,0,0,1,.83,1.271c.167.885-.111,2.488-2.267,5.253-2.875,3.593-7.52,3.483-9.013,3.373,2.323-6.3,5.53-9.4,7.741-10.118Z" transform="translate(0 -3.47)" fill="#28539c" fill-rule="evenodd"/>
    <path id="Path_11776" data-name="Path 11776" d="M128.376,92.381a1.831,1.831,0,0,0-.277.885,1.667,1.667,0,0,0,.277.884,1.324,1.324,0,0,0,1.05.387.822.822,0,0,1,.331.055c1.272.442,1.714,2.267,1.77,3.981a18.7,18.7,0,0,1-.886,5.307c-2.986,6.524-7.63,11-11,10.506a1.567,1.567,0,0,1-1.272-.83c-.774-1.493.221-4.92,2.6-9.454.664-1.216,3.815-7.409,1.936-10.671a3.821,3.821,0,0,0-3.429-1.879,6.98,6.98,0,0,0-6.689,3.317.8.8,0,0,0,.221.94.726.726,0,0,0,1-.055c.056-.055,2.433-2.93,4.7-2.433.221.055.331.111.387.331.774,1.825-2.157,7.852-3.1,9.786-.886,1.879-3.207,7.409-1.217,10.45.886,1.438,2.489,2.157,4.755,2.212,8.183.221,13.436-12.5,14.155-15.923,0-.166,1.105-4.81-.553-7.188a3.274,3.274,0,0,0-2.267-1.438c-1.6-.221-2.266.442-2.487.828Zm25.71,17.583h.222c.331,0,.663,0,.663.387a.487.487,0,0,1-.5.442h-.387v-.829Zm-.221,1.935h.221v-.94h.333l.663.94h.275l-.663-.94a.661.661,0,0,0,.5-.608.519.519,0,0,0-.277-.5c-.111-.111-.331-.111-.608-.111h-.443V111.9Zm.608-2.82a1.778,1.778,0,1,0,1.6,1.769A1.691,1.691,0,0,0,154.473,109.079Zm0,.165a1.613,1.613,0,0,1,0,3.207,1.613,1.613,0,0,1,0-3.207Z" transform="translate(-38.717 -11.21)" fill="#28539c" fill-rule="evenodd"/>
    <path id="Path_11777" data-name="Path 11777" d="M89.888,69.335a80.89,80.89,0,0,1,8.791,4.146c7.685,4.313,14.044,4.258,17.638-.829,2.377-3.317,4.258-7.188,7.464-8.46a6.068,6.068,0,0,1-.774-.719,4.382,4.382,0,0,0-2.6-1.438c-3.1-.276-5.584,3.815-6.468,3.318-1.217-.664,2.542-3.871-1.494-6.911C107.8,54.9,98.072,63.86,92.266,62.589c0,0,2.654,3.207,8.957,3.7,3.152.221,3.1.94,3.1,1.216.056,3.152-14.431,1.825-14.431,1.825Z" transform="translate(-30.085 -2)" fill="#c8ae65" fill-rule="evenodd"/>
  </g>
</svg>
