<svg xmlns="http://www.w3.org/2000/svg" width="35.275" height="40.08" viewBox="0 0 35.275 40.08">
  <g id="Group_12975" data-name="Group 12975" transform="translate(-187.557 -659.518)">
    <g id="Group_12975-2" data-name="Group 12975" transform="translate(190.577 669.163)">
      <path id="Path_11935" data-name="Path 11935" d="M242.38,767.913a.856.856,0,0,1-.886-.823V756.8l-.695-.817a.792.792,0,0,1-.184-.407l-.886-6.534a.794.794,0,0,1,.291-.718l.485-.4-.59-2.207H217.38l-.59,2.207.485.4a.794.794,0,0,1,.291.718l-.886,6.534a.792.792,0,0,1-.184.407l-.695.817V767.09a.888.888,0,0,1-1.772,0V756.518a.787.787,0,0,1,.191-.51l.733-.861.8-5.876-.537-.443a.787.787,0,0,1-.272-.814l.886-3.315a.876.876,0,0,1,.86-.624h23.921a.876.876,0,0,1,.86.624l.886,3.315a.787.787,0,0,1-.272.814l-.537.443.8,5.876.733.861a.788.788,0,0,1,.191.51V767.09A.856.856,0,0,1,242.38,767.913Z" transform="translate(-214.03 -744.074)" fill="#2acbd2"/>
    </g>
    <g id="Group_12976" data-name="Group 12976" transform="translate(190.577 694.05)">
      <path id="Path_11936" data-name="Path 11936" d="M242.38,963.893H214.916a.825.825,0,1,1,0-1.646H242.38a.825.825,0,1,1,0,1.646Z" transform="translate(-214.03 -962.247)" fill="#2acbd2"/>
    </g>
    <g id="Group_12977" data-name="Group 12977" transform="translate(191.457 679.661)">
      <path id="Path_11937" data-name="Path 11937" d="M225.857,838.352a14.429,14.429,0,0,1-3.218-.567l-.235-.059a.817.817,0,0,1-.625-1.01.9.9,0,0,1,1.093-.578l.24.061a11.241,11.241,0,0,0,2.973.493,98.3,98.3,0,0,1,18.866-.018,11.776,11.776,0,0,0,2.954-.488l.2-.049a.9.9,0,0,1,1.091.581.819.819,0,0,1-.629,1.009l-.192.048a11.126,11.126,0,0,1-3.71.522,97.532,97.532,0,0,0-18.267.015A3.3,3.3,0,0,1,225.857,838.352Z" transform="translate(-221.747 -836.109)" fill="#2acbd2"/>
    </g>
    <g id="Group_12978" data-name="Group 12978" transform="translate(191.4 672.655)">
      <path id="Path_11938" data-name="Path 11938" d="M247.944,776.328H222.133a.825.825,0,1,1,0-1.646h25.811a.825.825,0,1,1,0,1.646Z" transform="translate(-221.243 -774.682)" fill="#2acbd2"/>
    </g>
    <g id="Group_12981" data-name="Group 12981" transform="translate(190.987 689.387)">
      <g id="Group_12979" data-name="Group 12979" transform="translate(0)">
        <path id="Path_11939" data-name="Path 11939" d="M222.155,923.837h-3.291a1.234,1.234,0,1,1,0-2.469h3.291a1.234,1.234,0,0,1,0,2.469Z" transform="translate(-217.629 -921.368)" fill="#2acbd2"/>
      </g>
      <g id="Group_12980" data-name="Group 12980" transform="translate(22.655)">
        <path id="Path_11940" data-name="Path 11940" d="M402.533,923.837h-3.291a1.234,1.234,0,0,1,0-2.469h3.291a1.234,1.234,0,0,1,0,2.469Z" transform="translate(-398.007 -921.368)" fill="#2acbd2"/>
      </g>
    </g>
    <g id="Group_12982" data-name="Group 12982" transform="translate(199.009 687.155)">
      <path id="Path_11941" data-name="Path 11941" d="M290.381,903.452H279.655a.823.823,0,0,1,0-1.646h10.726a.823.823,0,1,1,0,1.646Z" transform="translate(-278.832 -901.806)" fill="#2acbd2"/>
    </g>
    <g id="Group_12983" data-name="Group 12983" transform="translate(201.222 690.603)">
      <path id="Path_11942" data-name="Path 11942" d="M305.356,933.673h-6.3a.823.823,0,1,1,0-1.646h6.3a.823.823,0,1,1,0,1.646Z" transform="translate(-298.232 -932.027)" fill="#2acbd2"/>
    </g>
    <g id="Group_12986" data-name="Group 12986" transform="translate(192.509 696.413)">
      <g id="Group_12984" data-name="Group 12984" transform="translate(0 0.055)">
        <path id="Path_11943" data-name="Path 11943" d="M236.608,986.575h-4.813a.822.822,0,0,1-.823-.823v-1.485a.823.823,0,0,1,1.646,0v.662h3.168v-.218a.823.823,0,0,1,1.646,0v1.041A.822.822,0,0,1,236.608,986.575Z" transform="translate(-230.972 -983.444)" fill="#2acbd2"/>
      </g>
      <g id="Group_12985" data-name="Group 12985" transform="translate(18.912)">
        <path id="Path_11944" data-name="Path 11944" d="M384.166,986.15h-4.814a.822.822,0,0,1-.823-.823v-1.1a.823.823,0,0,1,1.646,0v.272h3.168v-.717a.823.823,0,0,1,1.646,0v1.54A.822.822,0,0,1,384.166,986.15Z" transform="translate(-378.529 -982.965)" fill="#2acbd2"/>
      </g>
    </g>
    <g id="Group_12989" data-name="Group 12989" transform="translate(187.557 672.243)">
      <g id="Group_12987" data-name="Group 12987" transform="translate(0)">
        <path id="Path_11945" data-name="Path 11945" d="M188.791,778.588a1.235,1.235,0,0,1-1.234-1.234v-5.045a1.234,1.234,0,1,1,2.468,0v5.045A1.235,1.235,0,0,1,188.791,778.588Z" transform="translate(-187.557 -771.075)" fill="#2acbd2"/>
      </g>
      <g id="Group_12988" data-name="Group 12988" transform="translate(32.806)">
        <path id="Path_11946" data-name="Path 11946" d="M458.16,778.588a1.235,1.235,0,0,1-1.234-1.234v-5.045a1.234,1.234,0,0,1,2.469,0v5.045A1.235,1.235,0,0,1,458.16,778.588Z" transform="translate(-456.926 -771.075)" fill="#2acbd2"/>
      </g>
    </g>
    <g id="Group_12990" data-name="Group 12990" transform="translate(188.792 659.518)">
      <path id="Path_11947" data-name="Path 11947" d="M230.309,670.809a.852.852,0,0,1-.879-.823v-8.822H200.138v8.822a.88.88,0,0,1-1.757,0v-9.645a.851.851,0,0,1,.878-.823h31.05a.851.851,0,0,1,.878.823v9.645A.852.852,0,0,1,230.309,670.809Z" transform="translate(-198.381 -659.518)" fill="#2acbd2"/>
    </g>
  </g>
</svg>
