<svg xmlns="http://www.w3.org/2000/svg" width="142.36" height="35.112" viewBox="0 0 142.36 35.112">
  <g id="Group_12982" data-name="Group 12982" transform="translate(-336.351 -404.08)">
    <path id="Path_11937" data-name="Path 11937" d="M336.5,404.233h142l-11.188,34.8H336.5v-34.8Z" transform="translate(0 0)" fill="#d9000d" stroke="#d9000d" stroke-miterlimit="2.613" stroke-width="0.307" fill-rule="evenodd"/>
    <path id="Path_11938" data-name="Path 11938" d="M363.551,429.682c-.259-2.516-.173-1.445-.431-3.295-20.939,5.55-10.067-19.571,4.429-13.3a24.913,24.913,0,0,1,2.675-2.862c-22.895-9.395-38.167,26.681-6.673,19.454Z" transform="translate(-1.766 -0.849)" fill="#fff" fill-rule="evenodd"/>
    <path id="Path_11939" data-name="Path 11939" d="M368.284,425.3c.461-4.684,5.81-8.614,10.527-8.614,6.644,0,9.319,3.064,8.628,6.793-.92,4.942-5.436,8.671-11.361,8.585-4.717-.057-8.226-2.167-7.794-6.763Z" transform="translate(-6.096 -2.391)" fill="#fff" fill-rule="evenodd"/>
    <path id="Path_11940" data-name="Path 11940" d="M375.148,424.633c.748-2.948,3.738-5,5.752-4.769,2.358,0,3.193,1.908,2.1,5.84-.633,2.6-3.509,4.827-5.925,4.365-2.387-1.041-2.675-2.139-1.927-5.435Z" transform="translate(-7.351 -2.998)" fill="#d9000d" fill-rule="evenodd"/>
    <path id="Path_11941" data-name="Path 11941" d="M416.639,416.607l-.431.9c-14.64-7.4-25.8,21.622-4.2,12.864.058.317-4.86,7.775-14.466,3.613l-1.554,3.035c20.824,4.22,20.853-7.314,25.6-20.322-3.882,0-4.946-.086-4.946-.086Z" transform="translate(-11.424 -2.314)" fill="#fff" fill-rule="evenodd"/>
    <path id="Path_11942" data-name="Path 11942" d="M407.487,427.133c.2-2.861,3.48-6.359,5.091-6.706,1.639-.347,3.738-.78,4.832.52-1.381,6.5-4.947,8.962-7.42,8.875-1.7,0-2.33-.493-2.5-2.69Z" transform="translate(-13.632 -3.041)" fill="#d9000d" fill-rule="evenodd"/>
    <path id="Path_11943" data-name="Path 11943" d="M429.644,420.162l1.265-3.353c14.467-2.775,18.177.289,13,9.915-.863,2.284-1.063,2.948-.8,5.116-3.25,0-5.58.029-5.58.029v-1.1s-12.655,4.942-11.822-3.325c.835-8.093,12.627-5.318,15.3-6.157.374-4.365-11.36-1.127-11.36-1.127Z" transform="translate(-17.123 -2.227)" fill="#fff" fill-rule="evenodd"/>
    <path id="Path_11944" data-name="Path 11944" d="M440.73,426.389c-13.289-1.214-9.52,7.92-1.007,3.267.747-2.053.776-2.689,1.007-3.267Z" transform="translate(-18.343 -4.233)" fill="#d9000d" fill-rule="evenodd"/>
    <path id="Path_11945" data-name="Path 11945" d="M453.263,417.642h-2.3l.864-2.515h2.444l1.411-3.613,5.579-.983-1.639,4.567h5.522l-.95,2.515-5.522.029s-3.249,7.659-3.249,7.92-1.727,3.931,3.825,1.793a16.9,16.9,0,0,0,.2,2.572s-13.028,4.424-9.031-5.29c2.56-6.216,2.848-7,2.848-7Z" transform="translate(-21.73 -1.209)" fill="#fff" fill-rule="evenodd"/>
    <path id="Path_11946" data-name="Path 11946" d="M471.248,424.171c4.371,0,8.657-.087,11.706-.087.4-1.329,2.99-9.943-8.17-8.614-11.878,1.445-14.007,22.519,6.9,14.627-1.093-2.255-1.265-2.6-1.265-2.6s-9.175,4.567-9.175-3.325Z" transform="translate(-24.845 -2.131)" fill="#fff" fill-rule="evenodd"/>
    <path id="Path_11947" data-name="Path 11947" d="M480.113,422.085c1.726-2.948-3.566-6.041-6.414,0Z" transform="translate(-26.348 -2.763)" fill="#d9000d" fill-rule="evenodd"/>
    <path id="Path_11948" data-name="Path 11948" d="M397.941,410.279h5.091l-7.478,20.611h-4.976l7.363-20.611Z" transform="translate(-10.385 -1.161)" fill="#fff" fill-rule="evenodd"/>
    <path id="Path_11949" data-name="Path 11949" d="M492.734,413.428a2.946,2.946,0,0,1,1.294.318,2.474,2.474,0,0,1,.978.983,2.674,2.674,0,0,1,0,2.631,2.4,2.4,0,0,1-.978.954,2.562,2.562,0,0,1-1.294.347,2.723,2.723,0,0,1-1.294-.347,2.512,2.512,0,0,1-.95-.954,2.674,2.674,0,0,1,0-2.631,2.3,2.3,0,0,1,.978-.983,2.83,2.83,0,0,1,1.266-.318Zm0,.433a2.119,2.119,0,0,0-1.066.289,1.83,1.83,0,0,0-.8.81,2.073,2.073,0,0,0-.287,1.07,2.1,2.1,0,0,0,.287,1.1,1.976,1.976,0,0,0,.8.81,2.038,2.038,0,0,0,1.066.289,2.136,2.136,0,0,0,1.093-.289,2.173,2.173,0,0,0,.8-.81,2.1,2.1,0,0,0,.288-1.1,2.074,2.074,0,0,0-.288-1.07,1.752,1.752,0,0,0-.835-.81,2.036,2.036,0,0,0-1.063-.289Zm-1.151,3.643v-2.833h.978a2.077,2.077,0,0,1,.717.087.786.786,0,0,1,.346.26.768.768,0,0,1,.144.4.743.743,0,0,1-.23.549.967.967,0,0,1-.574.261.641.641,0,0,1,.23.144,3.709,3.709,0,0,1,.431.549l.316.579H493.4l-.23-.463a3.239,3.239,0,0,0-.488-.665.658.658,0,0,0-.376-.086h-.259V417.5Zm.459-1.59h.548a1.022,1.022,0,0,0,.546-.116.466.466,0,0,0,.143-.318.556.556,0,0,0-.057-.231.52.52,0,0,0-.2-.145,1.459,1.459,0,0,0-.459-.057h-.52v.867Z" transform="translate(-29.506 -1.766)" fill="#fff" fill-rule="evenodd"/>
  </g>
</svg>
