<svg xmlns="http://www.w3.org/2000/svg" width="107.044" height="34.459" viewBox="0 0 107.044 34.459">
  <g id="Group_12981" data-name="Group 12981" transform="translate(-18.076 -13.852)">
    <path id="Path_11928" data-name="Path 11928" d="M177.873,18.672l-8.921-1.727-1.437,6.906,1.437-.287,3.166.287,6.33,1.439L162.91,38.527l1.439,5.755c6.9,1.439,12.371,2.589,16.4,3.74l2.014-6.906h-1.439l-3.166-.288-5.755-1.439,14.963-12.949-1.439-5.468-8.056-2.3Zm-35.97-4.6.577,1.438v3.166l-1.152,18.416a21.448,21.448,0,0,1-.575,3.166l-.576,1.439,8.058.288-.287-1.151a5.815,5.815,0,0,1,0-3.165l.575-9.208,6.042,14.1,6.906,1.151-.287-1.439a5.813,5.813,0,0,1,0-3.165l2.589-18.7a16.372,16.372,0,0,1,.577-2.877l.575-1.439-8.059-.863.29,1.15v3.166L156,28.455l-6.042-14.1-8.059-.288Zm-4.315,1.151.287-1.151a43.156,43.156,0,0,0-8.632,0l.576,1.151a8.96,8.96,0,0,1,.287,3.165v18.7a9.857,9.857,0,0,1-.287,3.166l-.576,1.439h8.92l-.575-1.439a9.856,9.856,0,0,1-.287-3.166v-18.7a8.96,8.96,0,0,1,.287-3.165Z" transform="translate(-62.248 0)" fill="#d9000d" fill-rule="evenodd"/>
    <path id="Path_11929" data-name="Path 11929" d="M44.837,17.219a15.286,15.286,0,0,1,.863,3.166L47.427,38.8a5.675,5.675,0,0,1,0,3.165l-.288,1.727,9.5-1.152,8.633-.576.288-7.194-1.439.576a21.657,21.657,0,0,1-3.165.576l-6.618.575-.576-4.892,3.166-.289h3.165l1.439.576-.576-7.769L59.8,24.7l-3.165.575-3.453.288-.288-4.317,6.33-.288H62.39l1.439.288-.288-6.906-10.071.576-9.208.862.576,1.439Zm-4.6-.576L31.6,18.083l.863,1.151a23.412,23.412,0,0,1,.863,3.166l1.151,5.755-6.043,1.439L27,23.838a18.83,18.83,0,0,1-.575-3.166l.288-1.439-8.633,2.59.863,1.151a7.074,7.074,0,0,1,1.151,2.877l4.317,18.128a24.2,24.2,0,0,1,.576,2.877v1.727l4.028-1.152,4.317-1.151-.863-1.151a15.244,15.244,0,0,1-.863-3.166l-1.727-6.331,5.755-1.15,1.439,6.33c.287,1.438.575,2.3.287,3.165V45.42L45.7,43.693l-.575-1.152a12.443,12.443,0,0,1-1.151-3.165L40.233,20.96a13.227,13.227,0,0,1-.287-2.877l.287-1.439Z" transform="translate(0 -0.275)" fill="#d9000d" fill-rule="evenodd"/>
  </g>
</svg>
