<svg xmlns="http://www.w3.org/2000/svg" width="109.404" height="33.052" viewBox="0 0 109.404 33.052">
  <g id="huggies-2" transform="translate(0)">
    <path id="Path_11740" data-name="Path 11740" d="M87.057,74.249l8.485.075.476.177,1.95,2.651a6.54,6.54,0,0,1,4.132-2.729,11.125,11.125,0,0,1,5.069,0,1.98,1.98,0,0,1,1.013.468v5.38a.81.81,0,0,1-1.247,0l-.7-.39-.625-.312a2.346,2.346,0,0,0-2.105.312,1.527,1.527,0,0,0-.389,1.4,3.812,3.812,0,0,0,1.871,1.56l2.027,1.014a10.243,10.243,0,0,1,3.041,3.041,7.6,7.6,0,0,1,.78,3.977,5.778,5.778,0,0,1-.78,2.729,7.233,7.233,0,0,1-2.105,2.261,9.8,9.8,0,0,1-4.523,1.247,8.677,8.677,0,0,1-4.679-1.17l-1.325-.858L96.8,96.335c-.391.546-.7.779-.78.7l-9.358.078a2.36,2.36,0,0,1-1.716-1.247l-.234-.78V75.826c.178-.888,1.529-1.546,2.347-1.577Zm9.351,14.025c-.118.316-.29.965-.7.965H91.418v1.95h5.77l.78-1.17a1.307,1.307,0,0,1,1.013-.7l2.106,1.481a10.638,10.638,0,0,0,2.182.78,1.4,1.4,0,0,0,1.326-.936,1.628,1.628,0,0,0-.936-1.794l-1.014-.389-.936-.546C98.2,85.417,96.642,83,96.8,80.5H91.573l-.156,2.339h4.289c.44.1.571.422.658.781l.044,4.65ZM2.834,69.588V96.647c0,.389.234.467.624.467h7.408a.573.573,0,0,0,.624-.623V86.354h4.835V96.49l.156.391.468.233,6.94.313a.8.8,0,0,0,.624-.391l.156-.546V69.822c0-.468,0-.858-.156-1.013-.156-.39-.234-.624-.624-.624-2.651-.156-5.068,0-7.33.078-.234,0-.39.39-.39,1.326v8.187l-.078.156h-4.6l-.078-.156V70.212c0-.624,0-1.17-.156-1.248-.156-.546-.233-.779-.623-.779-2.651-.156-5.068,0-7.33.078-.234,0-.391.39-.469,1.326ZM77.3,74.423a32.762,32.762,0,0,1,5.536,0l.391.078.156.546.157,21.444a2.119,2.119,0,0,1-.7.623H77.3a1,1,0,0,1-.78-.779v-18.4l-1.481,2.339Q74.3,81.308,73.484,82.3c-.234.156-.625,0-1.014-.39l-1.014-.624a4.358,4.358,0,0,0-2.651-.39,4.757,4.757,0,0,0-2.339,1.17,4.248,4.248,0,0,0-1.559,4.289A3.659,3.659,0,0,0,66,88.535a4.1,4.1,0,0,0,1.95,1.482l.468.233c.312,0,.389-.156.546-.233V85.728a1.337,1.337,0,0,1,1.325-.7H74.42l.78.157a.793.793,0,0,1,.389.623v9.669a8.8,8.8,0,0,1-2.105,1.013,10.073,10.073,0,0,1-7.1.157,17.1,17.1,0,0,1-6.238-3.665l-.7-.78-.467-.78v3.9a10.717,10.717,0,0,1-6.551,1.793,13.3,13.3,0,0,1-6.472-1.793,9.611,9.611,0,0,1-3.743-3.509,9.863,9.863,0,0,1-3.041,3.665,7.624,7.624,0,0,1-4.289,1.793,8.172,8.172,0,0,1-4.523-.936,8.449,8.449,0,0,1-3.275-2.964,8.872,8.872,0,0,1-1.248-3.743V75.2a1.035,1.035,0,0,1,.234-.546l.546-.234a29.781,29.781,0,0,1,5.3,0l.39.234.234.546V89.628c0,.391.312.623.78.858H34.5a1.112,1.112,0,0,0,.78-1.013V75.2c0-.156.156-.312.312-.546l.468-.234a18.34,18.34,0,0,1,5.848,0q.468,0,.7,1.17v3.9a12.733,12.733,0,0,1,5.3-4.445,11.845,11.845,0,0,1,6.785-.623A8.948,8.948,0,0,1,59.6,77c.156.156.156.234,0,.546-.546.858-1.56,2.417-3.119,4.757-.156.312-.234.39-.39.312a4.394,4.394,0,0,0-2.105-1.326,4.249,4.249,0,0,0-2.417,0A4.081,4.081,0,0,0,49.467,82.3a4.832,4.832,0,0,0-1.326,1.95,4.757,4.757,0,0,0-.078,2.339,3.47,3.47,0,0,0,.858,2.106,3.778,3.778,0,0,0,3.041,1.716l.078-.157V85.808c0-.391.312-.623.78-.78h5.224a10.831,10.831,0,0,1,1.716-5.848A10.155,10.155,0,0,1,64.283,75.2a10.948,10.948,0,0,1,6.238-1.092,10.529,10.529,0,0,1,5.692,2.339h.312v-1.4A.757.757,0,0,1,77.3,74.423ZM93.757,97.894h.78a1.781,1.781,0,0,1,1.325.391,1.706,1.706,0,0,1,.546,1.325,1.228,1.228,0,0,1-.546,1.17,1.779,1.779,0,0,1-1.325.391h-.78Zm.78,2.652a1.683,1.683,0,0,0,.936-.157l.234-.78a.974.974,0,0,0-.391-.936,2.2,2.2,0,0,0-.858-.078v1.95h.079Zm2.105-2.652h.623v3.276h-.623Zm.623,3.276,1.481-3.276h.391l1.247,3.276h-.623l-.234-.937h-1.17l-.389.937h-.7Zm1.95-1.4-.389-.937-.234.937Zm1.326,1.4V97.894h.779a1.489,1.489,0,0,1,.937.312.782.782,0,0,1,.389.78.865.865,0,0,1-.389.78,2.317,2.317,0,0,1-.937.234h-.156v1.17h-.623Zm.779-1.795h.391a.714.714,0,0,0,.234-.389l-.234-.389h-.546v.779ZM104.6,98.6h-1.17v.624h1.17v.623h-1.17v.7h1.17v.624H102.88V97.894H104.6Zm2.027-.391c.312.079.389.391.389.78a.886.886,0,0,1-.233.623,4.409,4.409,0,0,1-.625.391l.858,1.17h-.779l-.78-1.326v1.326h-.623V97.893h.936a1.109,1.109,0,0,1,.857.312Zm-.389.468-.468-.078h-.312v.858h.312c.234,0,.389,0,.468-.079a.5.5,0,0,0,.156-.389C106.389,98.83,106.389,98.674,106.233,98.674Zm1.325-.468.623-.312a.992.992,0,0,1,.7.312l.234.623h-.623a.369.369,0,0,0-.391-.389.357.357,0,0,0-.312.389c0,.157.157.234.389.391.391.156.546.156.7.234a.859.859,0,0,1,.389.779.818.818,0,0,1-.389.7,1.484,1.484,0,0,1-.7.234,1.535,1.535,0,0,1-.779-.234,1.484,1.484,0,0,1-.234-.7h.546c0,.313.078.391.467.391.313,0,.391-.078.391-.391,0-.233-.078-.389-.468-.467l-.7-.312-.078-.625Zm3.119-23.549a1.136,1.136,0,0,1,1.014.546,1.525,1.525,0,0,1,0,2.339,1.482,1.482,0,0,1-1.014.39,1.554,1.554,0,0,1-1.17-2.729A1.23,1.23,0,0,1,110.678,74.657Zm0,.234a1.479,1.479,0,0,0-1.013.39,1.461,1.461,0,0,0-.391,1.092.915.915,0,0,0,.391.858,1.134,1.134,0,0,0,1.013.546,1.107,1.107,0,0,0,.937-.546,1.121,1.121,0,0,0,.389-.858,1.872,1.872,0,0,0-.389-1.092A1.44,1.44,0,0,0,110.678,74.891Z" transform="translate(-2.834 -68.118)" fill="#d91f33" fill-rule="evenodd"/>
    <path id="Path_11741" data-name="Path 11741" d="M186.856,80.633c.389,0,.623.156.623.546,0,.234-.157.39-.234.39.078.078.078.234.078.468l.157.39h-.389l-.157-.39a.249.249,0,0,0-.234-.234h-.389v.624h-.391V80.634h.936Zm-.546.39v.39h.389c.234,0,.391-.156.391-.234l-.234-.156Z" transform="translate(-78.857 -73.314)" fill="#d91f33" fill-rule="evenodd"/>
  </g>
</svg>
