<svg xmlns="http://www.w3.org/2000/svg" width="62.533" height="38.545" viewBox="0 0 62.533 38.545">
  <g id="pampers-1" transform="translate(-13.82)">
    <path id="Path_11817" data-name="Path 11817" d="M22.294,81.08C20.568,70.66,24.019,91.5,22.294,81.08Z" transform="translate(-7.975 -52.268)" fill="#666" fill-rule="evenodd"/>
    <path id="Path_11819" data-name="Path 11819" d="M74.579,68.725a4.7,4.7,0,0,0-2.811-1.676c-1.922-.394-4.484-.543-9.662.246-2.17.331-4.976,1.135-5.173.444-.238-.828.1-1.2,1.775-1.873,2.463-.986,7.2-1.232,9.708-1.232,3.8,0,5.775,1.571,6.163,2.267A2.077,2.077,0,0,1,74.579,68.725Zm8.922.265s.148.985-2.367.247a13.61,13.61,0,0,1-6.554-5.175c-.839-1.579-1.775-6.754,3.35-6.7,1.881.017,3.7,2.415,3.7,2.415s.541-5.373,3.6-5.816c3.729-.542,4.422,5.072,3.6,7.983-2.317,8.183-4.88,7.987-4.88,7.987a31.125,31.125,0,0,0,2.12-4.977c.592-2.122,1.466-6.557-.295-7.838-1.085-.789-1.725.147-2.12,1.379a25.145,25.145,0,0,0-.347,4.88l-1.231.4A30.379,30.379,0,0,0,79.211,61.1c-1.277-1-2.512-1.923-2.859-.887s1.169,4.421,2.417,5.668A15.516,15.516,0,0,0,83.5,68.991Zm5.678-.64a1.8,1.8,0,0,1,.148-1.923c2.167-2.366,7.656-1.713,10.055-1.281,3.007.543,5.52,1.676,5.323,2.366s-1.182.74-3.7,0a21.872,21.872,0,0,0-9.265-.69,4.394,4.394,0,0,0-2.563,1.528Z" transform="translate(-29.229 -49.226)" fill="#666" fill-rule="evenodd"/>
    <path id="Path_11820" data-name="Path 11820" d="M103.311,43.833s1.083.147.788,1.921c-.188,1.123-.494,2.515-1.183,2.515-1.2,0-.789-1.479-.789-1.479l1.184-2.957Zm-10.874,5.4c.345.345,1.284-.4,1.284-.4a4.076,4.076,0,0,0-.741-2.612c-.406-.665-1.43-1.331-2.12-.887-.528.34.485,1.2.788,1.972.445,1.134.445,1.576.789,1.922ZM81.218,51.422c.2-.74,1.528-.639,2.465-.247s1.726.987,1.726,1.48a.984.984,0,0,1-.985.838A14.941,14.941,0,0,1,82.55,52.31Z" transform="translate(-42.248 -43.833)" fill="#666" fill-rule="evenodd"/>
    <path id="Path_11821" data-name="Path 11821" d="M36.718,88.08s-.071,1.717-.108,3.007a33.41,33.41,0,0,1-.492,4.288s-.2.248-1.823-.2c-.491-.133-.841-.936-.841-.936s-.146-5.669-.146-8.28c0-2.121.1-7.3.1-7.3s1.034-2.12,4.386-1.823a4.663,4.663,0,0,1,4.225,6.177C40.7,86.668,36.718,88.08,36.718,88.08Zm-.108-2.858a4.517,4.517,0,0,0,2.713-2.859c.46-1.1.641-3.116-1.035-3.3A1.414,1.414,0,0,0,36.659,80l-.05,5.226Zm13.659-3.377a2.04,2.04,0,0,1,1.059-.394,6.158,6.158,0,0,1,1.331.074l-.026,2.914a15.618,15.618,0,0,1,1.406-2.126,1.135,1.135,0,0,1,1.75.123,7.065,7.065,0,0,1,.813,1.8s.986-2.119,2.489-2.267c2.047-.148,3.031,2.537,2.884,6.775v5.744a2.507,2.507,0,0,1-.937-.049,1.956,1.956,0,0,1-1.134-.714l-.222-4.216s.065-2.02.04-2.586c.052-1.372-.447-2.432-1-2.416-.789.05-1.245,1.273-1.258,5.127-.021.615-.072,4.855-.072,4.855a1.958,1.958,0,0,1-1.086-.148,4.472,4.472,0,0,1-.836-.788l-.246-6.8s-.026-1.874-.838-2.071c-.763-.1-1.5.887-1.574,5.669,0,1.206-.077,3.2-.1,4.163-2.195-.295-2.464-1.5-2.514-2.142s-.049-4.782-.049-6.506C50.194,84.236,50.268,81.844,50.268,81.844Zm16.8.125a3.53,3.53,0,0,1,3.649,2.513,8.416,8.416,0,0,1-1.184,7.147,5.707,5.707,0,0,1-3.746,2.119l-.1,6.063a4.719,4.719,0,0,1-1.134.2c-.494,0-1.083-.69-1.083-.69s-.246-5.521-.2-7.541.1-8.084.1-8.084,1.946-1.8,3.7-1.725Zm-1.184,2.563-.054,6.7a3.3,3.3,0,0,0,2.076-1.774c.592-1.184.911-3.426.419-4.387A1.823,1.823,0,0,0,65.888,84.533Zm9.75-.593c1.577.05,1.331,2.638,1.331,2.638s-2.415,1.005-2.783,1.179C74.185,87.757,73.831,84.086,75.638,83.94ZM74.16,89.756c.212-.1,4.608-2.292,4.608-2.292s.713-3.425-1.155-4.955a3.171,3.171,0,0,0-4.587.888,10.773,10.773,0,0,0-.789,9.39,2.89,2.89,0,0,0,2.663,1.75c3.054-.027,4.412-3.573,4.412-3.573s.283-.505-.529-.851c-.839-.443-.961-.257-1.169.062-.175.271-1.224,1.886-2.331,1.811C74,91.975,74.126,90.134,74.16,89.756Zm5.776-7.164s.182,4.076.278,5.751.3,4.978.315,5.306.246.888.787.888c.3,0,1.233-.082,1.233-.082s.016-2.464-.017-3.6c-.2-6.21,2.761-6.686,3.122-6.934a1.058,1.058,0,0,0,.181-1.841c-.953-.492-2.563.214-3.582,2.137-.016-.114,0-1.643,0-1.643s.067-.559-.378-.59A6.333,6.333,0,0,0,80.4,82C79.9,81.952,79.935,82.592,79.935,82.592ZM91.3,85.583c.247-.116.774-1.5-.327-1.873-1.282-.346-2.349.888-1.382,2.4.74,1.167,4.11,3.385,3.256,5.865-.724,2.792-2.959,2.76-4.439,2.514a3.3,3.3,0,0,1-3.006-3.237c.05-.9.4-1.4.69-1.247s.543,1.165,1.15,1.625A1.913,1.913,0,0,0,89.58,91.5a1.564,1.564,0,0,0-.114-2.545c-1.134-1.035-2.547-2.663-2.744-3.927-.444-2.366,2.234-4.207,4.617-3.105a2.746,2.746,0,0,1,1.626,2.464c.049.164-.362,1.989-1.661,1.2Zm-46.232-2.07a5.252,5.252,0,0,0-1.15,1.02c-.823.559-1.579-.067-1.446-.987a2.548,2.548,0,0,1,1.873-1.708,4.1,4.1,0,0,1,3.023.229c1.675,1.347,1.561,3.994,1.609,6.013s-.329,5.718-.329,5.718a2.665,2.665,0,0,1-1.3.691c-.64.245-.6-.246-.6-.246l.083-3.451a25.863,25.863,0,0,1-2.268,2.786c-.811.835-3.08,1.6-4.017-.223-.409-.969-.9-3.467,1.628-5.964a6.523,6.523,0,0,1,4.583-1.971s.641-3.253-1.692-1.906Zm-2.177,7.353c-.245,1.675.91.961,1.453.419,1.061-1.208,1.922-3.4,1.645-3.928C44.126,87.613,43.142,89.731,42.895,90.866Z" transform="translate(-16.636 -61.464)" fill="#666" fill-rule="evenodd"/>
  </g>
</svg>
