<svg xmlns="http://www.w3.org/2000/svg" width="83.229" height="15.271" viewBox="0 0 83.229 15.271">
  <g id="listerine-logo-1" transform="translate(0)">
    <path id="Path_11814" data-name="Path 11814" d="M32.582,6.625l-9.074,0V9.946h2.349l-.007,11.005H30.09l0-11,2.5,0Zm-24.317,0L8.251,20.943l4.139.007,0-14.335Zm51.617,0-.007,14.319,3.832,0,0-6.414,3.262,6.417,4.67,0,0-14.331-4.146,0v7.139L63.838,6.615Zm-59.376,0L.5,20.943H7.784l0-3.026H4.292l0-11.291Zm72.314,0,0,14.331h8.823l.007-3.279-4.513,0,0-2.273,3.727,0,0-3.3-3.727,0,0-2.153,4.515,0V6.62Zm-39.656,0,0,14.331H42l-.007-3.279-4.513,0,0-2.273,3.736-.007V12.105H37.48l0-2.153,4.515,0V6.62Zm18.469,8.385a4.465,4.465,0,0,0,2.4-3.935A4.53,4.53,0,0,0,49.48,6.62l-6.884,0-.014,14.326,4.1,0v-7.24s3.379,7.049,3.41,7.24H58.7l0-14.333-4.1,0-.007,14.067Zm-3.31-4.937a1.561,1.561,0,1,1,.017,3.121v0l-1.656-.007-.007-3.119,1.639.007Z" transform="translate(-0.5 -6.145)" fill="#666"/>
    <path id="Path_11815" data-name="Path 11815" d="M149.376,11.243l3.784,0,0,.587a1.53,1.53,0,0,0,1.577,1.422,1.4,1.4,0,0,0,1.544-1.422c0-1.151-1.065-1.3-2.2-1.674a8.808,8.808,0,0,1-3.26-1.715A4.044,4.044,0,0,1,149.4,5.2c0-2.4,2.445-4.16,5.33-4.16,2.788,0,5.309,1.862,5.283,4.16l0,.587-3.784,0,.019-.583A1.4,1.4,0,0,0,154.7,3.964a1.2,1.2,0,0,0-1.349,1.25c0,.991.748,1.209,1.663,1.461A14.776,14.776,0,0,1,158.545,8.2a3.9,3.9,0,0,1,1.854,3.5c0,2.614-2.614,4.609-5.816,4.609-3.081,0-5.223-1.922-5.223-4.477Zm70.049-8.429a2.929,2.929,0,0,1-.408-.491l.023-.039a.489.489,0,0,0,.149,0,.168.168,0,0,0,.168-.167.193.193,0,0,0-.168-.169.574.574,0,0,0-.166-.008v.73a.266.266,0,0,0,.031.151h-.2a.315.315,0,0,0,.028-.151V2a.328.328,0,0,0-.028-.155h.2a.6.6,0,0,1,.361.067.244.244,0,0,1,.095.2.287.287,0,0,1-.288.263,1.836,1.836,0,0,0,.469.447Zm-.211-1.161a.7.7,0,1,0,.7.7.7.7,0,0,0-.7-.7m0,1.518a.816.816,0,1,1,.832-.816.827.827,0,0,1-.832.816" transform="translate(-136.817 -1.038)" fill="#666"/>
  </g>
</svg>
