<svg xmlns="http://www.w3.org/2000/svg" width="58.902" height="15.767" viewBox="0 0 58.902 15.767">
  <g id="nivea-1" transform="translate(0)" opacity="0.306">
    <path id="Path_11723" data-name="Path 11723" d="M28.5,78.207l-3.118-5.975H21.065L28.5,86.407l7.414-14.175h-4.3Zm27.172-2.813L61.736,86.08H57.069L56.328,84.6H51.05l-.719,1.483H45.664l8.025-14.2,1.985,3.511Zm0-2.159a.55.55,0,0,0,.436-.2.628.628,0,0,0,.2-.458.58.58,0,0,0-.2-.436.549.549,0,0,0-.436-.2.627.627,0,0,0-.458.2.56.56,0,0,0-.175.436.705.705,0,0,0,.175.458A.628.628,0,0,0,55.674,73.236Zm0-1.418a.676.676,0,0,0-.523.218.643.643,0,0,0-.241.545.692.692,0,0,0,.218.545.743.743,0,0,0,.545.24.858.858,0,0,0,.545-.218.77.77,0,0,0,.218-.567.755.755,0,0,0-.218-.545.722.722,0,0,0-.544-.218Zm0,.894c.021,0,.044.022.065.022s.044.022.044.065c.022.022.022.043.022.109a.165.165,0,0,0,.021.109h.2v-.152a.211.211,0,0,0-.087-.2c-.021-.022-.065-.022-.109-.044a.234.234,0,0,0,.152-.065.207.207,0,0,0,.044-.153.191.191,0,0,0-.109-.2.412.412,0,0,0-.175-.044h-.415v.851h.24v-.305Zm0-.392h-.11v.24h.109c.044,0,.065-.022.087-.022.044-.022.044-.065.044-.109s-.022-.087-.066-.087A.078.078,0,0,0,55.674,72.32Zm-1.985,7.109L52.359,82H55.02l-1.331-2.573ZM20.215,86.08V72.232H16.181V86.08ZM45.293,75.94V72.232H36.766V86.08h8.527V82.395h-4.47v-1.81h4.47v-2.9h-4.47V75.94ZM13.782,72.232H9.747v5.386L2.834,71.338V86.08H6.868V80.933l6.913,6.172V72.232h0Z" transform="translate(-2.834 -71.338)" fill="#fff" fill-rule="evenodd"/>
  </g>
</svg>
