<svg xmlns="http://www.w3.org/2000/svg" width="80.94" height="80.941" viewBox="0 0 80.94 80.941">
  <g id="Group_12965" data-name="Group 12965" transform="translate(-508.951 -724.53)">
    <g id="Group_12966" data-name="Group 12966">
      <circle id="Ellipse_2904" data-name="Ellipse 2904" cx="31" cy="31" r="31" transform="translate(518.951 734.066)" fill="#2acbd2"/>
      <path id="Path_11930" data-name="Path 11930" d="M.7,30H17.728V25.552H8.192V25.52c1.536-1.632,3.9-2.976,5.856-4.576C16,19.44,17.7,17.68,17.7,14.64c0-3.872-2.848-7.008-8.128-7.008-3.424,0-5.792,1.216-7.04,3.008a8.613,8.613,0,0,0-1.5,5.568H6.08a4.808,4.808,0,0,1,.992-3.232,2.872,2.872,0,0,1,2.368-.992,2.623,2.623,0,0,1,2.848,2.848,3.576,3.576,0,0,1-1.44,2.72C9.12,19.088,6.56,20.688,4.576,22.384A9.414,9.414,0,0,0,.7,30Z" transform="translate(540.951 744.066)" fill="#fff"/>
      <g id="Group_12795" data-name="Group 12795" transform="translate(508.951 724.53)">
        <g id="AdobeStock_210990152_2_" data-name="AdobeStock_210990152 (2)" transform="translate(0)" fill="none" stroke="#2acbd2" stroke-width="1">
          <ellipse cx="40.47" cy="40.47" rx="40.47" ry="40.47" stroke="none"/>
          <ellipse cx="40.47" cy="40.47" rx="39.97" ry="39.97" fill="none"/>
        </g>
      </g>
    </g>
  </g>
</svg>
