<svg xmlns="http://www.w3.org/2000/svg" width="110.839" height="17.568" viewBox="0 0 110.839 17.568">
  <g id="head-shoulders-1" transform="translate(-2.834 -81.553)">
    <path id="Path_11834" data-name="Path 11834" d="M135.506,93.011l.482-2.29a2.214,2.214,0,0,0-2.251.919l.216-1.033-2.363.008-.216-.01-.4,2.059-1.848,9.677,2.59-.031,1.621-8.611a1.843,1.843,0,0,1,2.164-.689ZM74.12,96.655c-1.011.137-2.056.081-2.864,1.011L70.9,99.591a3.339,3.339,0,0,1,2.763-1.407,3.343,3.343,0,0,0,2.411-.78l.338-2.114A2.951,2.951,0,0,1,74.12,96.655Zm65.463-4.86a2.407,2.407,0,0,1,1.53,1.189l.3-1.557c-1.837-1.757-4.833-1.1-5.349,1.183-.469,2.057.817,3.575,1.8,5.663.686,1.193.893,2.463-.425,3.075-1.2.338-2.148-.714-2.841-1.946l-.437,1.956a4.133,4.133,0,0,0,4.532,1.061,3.509,3.509,0,0,0,2.008-2.8c.025-1.493-1.386-4.056-2.305-5.575C137.828,92.405,138.523,91.606,139.583,91.8Z" transform="translate(-27.741 -3.617)" fill="#666" fill-rule="evenodd"/>
    <path id="Path_11835" data-name="Path 11835" d="M45.057,95.26A3.382,3.382,0,0,1,42.874,97.3a2.223,2.223,0,0,1-1.777-.6,1.874,1.874,0,0,1-.3-1.882,2.486,2.486,0,0,1,1.326-1.562,3.024,3.024,0,0,1,1.4-.166l.289-1.213a1.689,1.689,0,0,1-1.161-.4,1.6,1.6,0,0,1-.165-2.081,1.429,1.429,0,0,1,.963-.591,2.155,2.155,0,0,1,2.015.913l.4-1.655a5,5,0,0,0-2.006-.636,4.056,4.056,0,0,0-1.972.289c-1.774,1.1-2.26,2.729-1.126,4.385-2.4.986-3.647,3.084-2.127,5.715a3.208,3.208,0,0,0,1.778,1.152,5.8,5.8,0,0,0,3.236-.3,7.1,7.1,0,0,0,1.3-.857,5.23,5.23,0,0,0,1.648-2.82l-.85.149-.695.123Zm56.692-3.984c1.444-1.71.9-4.362-1.845-4.358-.094.008-.165.005-.221.007a5.1,5.1,0,0,0-4.89,3.444c-1.134,2.571-1.28,4.833-.107,6.849A3.249,3.249,0,0,0,96.2,98.585a4.3,4.3,0,0,0,4.333-.48c.1-.081.19-.145.309-.237.146-.67.279-1.363.43-2.049a.789.789,0,0,1-.086.1A4.062,4.062,0,0,1,98.4,97.54a1.511,1.511,0,0,1-1.54-1.156,5.646,5.646,0,0,1-.288-1.916c.345-.171.666-.332,1-.47a11.275,11.275,0,0,0,4.18-2.722Zm-5.04,1.806a8.553,8.553,0,0,1,1.854-4.369,1.183,1.183,0,0,1,.719-.444c.523-.1,1,.334.789,1.462a4.263,4.263,0,0,1-2.014,2.638,7.891,7.891,0,0,1-1.347.714ZM92.361,83.8l-.811,4.552a1.276,1.276,0,0,0-.463-.413,2.274,2.274,0,0,0-1.639-.086,1.911,1.911,0,0,0-.319.088,5.981,5.981,0,0,0-3.016,3.6c-.948,2.5-1.024,4.288-.183,6a3.394,3.394,0,0,0,.451.574,2.213,2.213,0,0,0,1.449.726,2.416,2.416,0,0,0,1.741-.743s-.082.4-.109.608H92.1l2.975-14.922-2.712.013Zm-2.4,12.258c-.391.817-1.05,1-1.489.634a1.449,1.449,0,0,1-.443-1.028c-.148-1.892.656-4.708,1.835-5.838a1.34,1.34,0,0,1,.79-.441c.287-.043.5.095.522.521l-1.215,6.152ZM35.017,83.843,34.1,88.621c-.013-.077-.042-.1-.022-.172a1.744,1.744,0,0,0-.377-.332,1.961,1.961,0,0,0-1.8-.116,5.94,5.94,0,0,0-3.19,3.512,10.578,10.578,0,0,0-.6,2.015,6.5,6.5,0,0,0,.368,4.283A2.359,2.359,0,0,0,30.451,99a2.732,2.732,0,0,0,1.781-.877.017.017,0,0,1,.022-.012l-.129.675.05.015,2.585-.015,2.963-14.943-1.081.007-1.626-.01ZM31.079,96.9a1.424,1.424,0,0,1-.517-1.088,8.823,8.823,0,0,1,1.954-5.931,1.258,1.258,0,0,1,.79-.441.563.563,0,0,1,.509.317c-.015.05.033.137.027.155l-1.222,6.3c-.015.05-.069.108-.079.141C32.09,96.95,31.5,97.2,31.079,96.9ZM86.63,83.814l-2.345.013-.345-.012-.608,3.2L81.12,98.711l1.11.02,1.559-.011L86.53,84.333l.1-.519Zm-4.831,3-2-.031-1.747,9.342c-.621,1.223-1.986,1.072-1.566-.761L78.071,86.8l-2.7.036-.017-.005L75.32,87l-1.652,9.022a2.265,2.265,0,0,0,1.61,2.822,2.72,2.72,0,0,0,2.343-.8l-.084.708.693.006,1.6-.017.332-.011.581-3.048,1.7-8.879ZM27.385,87.951a2.579,2.579,0,0,0-1.421-.571,1.99,1.99,0,0,1-.322-.024,6.254,6.254,0,0,0-3.5.765L21.813,90a6.1,6.1,0,0,1,2.852-1.216,1.138,1.138,0,0,1,.771.358c.244.347.11.856-.371,1.242a1.917,1.917,0,0,1-.315.2c-3.082,1.495-4.3,2.649-4.691,3.942-.654,1.945-.275,3.432,1.035,4.317a4.105,4.105,0,0,0,1.422.076,3.647,3.647,0,0,0,1.63-.739,4.107,4.107,0,0,0-.075.619l.072,0,2.392.02.039-.007.052-.3,1.44-7.822a2.875,2.875,0,0,0-.681-2.746ZM24.55,96.034a1.4,1.4,0,0,1-1.5,1.09c-.43-.092-.758-.465-.709-1.183a4.442,4.442,0,0,1,2.108-3.5,3.6,3.6,0,0,1,.809-.381C25.015,93.373,24.85,94.476,24.55,96.034Zm46.757-9.258a3.761,3.761,0,0,0-.858-.128,4.023,4.023,0,0,0-.736.073,4.767,4.767,0,0,0-3.373,2.963,9.493,9.493,0,0,0-.807,2.705,1.1,1.1,0,0,0-.045.334c-.261,2.1,0,3.971.92,5.07a2.633,2.633,0,0,0,1.342.895,3.343,3.343,0,0,0,.97.125,3.59,3.59,0,0,0,1.274-.223,5.306,5.306,0,0,0,2.858-3.319c.132-.382.252-.784.357-1.193.1-.447.171-.882.241-1.355a8.437,8.437,0,0,0-.384-4.415A2.673,2.673,0,0,0,71.307,86.776ZM68.683,97.521a.541.541,0,0,1-.5-.278c-.426-.658-.251-2.345.089-4.4.379-2.613,1.071-4.932,1.992-4.894.238,0,.427.164.553.476a10.175,10.175,0,0,1-.041,4.306C70.4,95.342,69.671,97.523,68.683,97.521Zm-50.8-4.578A7.292,7.292,0,0,0,19.9,91.331c1.085-1.3,1.026-3.189-.353-3.966A3.023,3.023,0,0,0,18.024,87a1.619,1.619,0,0,1-.238,0,5.209,5.209,0,0,0-2.389.585,5.492,5.492,0,0,0-2.363,2.826,7.523,7.523,0,0,0-.33.8,9.2,9.2,0,0,0-.487,1.629,6.4,6.4,0,0,0,.36,4.189,2.323,2.323,0,0,0,.2.37,3.151,3.151,0,0,0,1.506,1.328,4,4,0,0,0,1.774.31A4.985,4.985,0,0,0,18.922,97.9c.133-.692.268-1.328.412-2.055A4.353,4.353,0,0,1,16.5,97.562a.066.066,0,0,1-.056,0,1.419,1.419,0,0,1-1.488-1.084,5.3,5.3,0,0,1-.278-1.95c.344-.172.671-.348,1.011-.5.793-.385,1.515-.717,2.191-1.083Zm-1.212-4.15a1.38,1.38,0,0,1,.723-.462c.529-.116.957.286.749,1.414a4.3,4.3,0,0,1-1.953,2.619c-.408.262-.854.532-1.329.774A8.329,8.329,0,0,1,16.666,88.793Zm-4.315-4.729-1.693-.03L9.412,90.287l-2.264-.017L8.385,84.05,5.66,84.041,2.834,98.77l2.713-.014,1.31-6.836,2.235-.009-1.3,6.875.162.012,2.491-.007.021-.011.028-.156,2.831-14.563-.971,0Zm52.041,2.641a3.528,3.528,0,0,0-2.846.522l.929-4.645L60.2,82.6l-.383,0-.71,3.667-2.4,12.458,2.617-.006,1.851-9.566c.753-.928,2.023-.951,1.6.882L61.12,98.7l2.519.02.095-.008.152-.815,1.674-8.851a1.8,1.8,0,0,0-1.167-2.343Zm-7.477,6.9c-.193-2.052-1.851-4.523-2.7-7.121-.85-2.3.254-3.547,1.816-3.264a4.772,4.772,0,0,1,2.2,2.139l.449-2.3c-2.6-2.442-6.361-1.864-7.163,1.374-.506,2.8.642,4.895,2.035,7.891.757,2,1.046,3.789-.653,4.818-1.677.47-2.984-.488-3.991-2.2l-.476,2.512c1.979,1.524,3.931,2.034,5.99,1.021a5.856,5.856,0,0,0,1.419-1.26A5.248,5.248,0,0,0,56.932,94.1l-.016-.5Z" transform="translate(0 0)" fill="#666" fill-rule="evenodd"/>
  </g>
</svg>
