<svg xmlns="http://www.w3.org/2000/svg" width="143.847" height="25.664" viewBox="0 0 143.847 25.664">
  <g id="johnson-johnson" transform="translate(0.001)" opacity="0.409">
    <path id="Path_11725" data-name="Path 11725" d="M13.712,88.967a4.133,4.133,0,0,0-1.188,2.742c0,2.307,1.326,4.113,3.7,4.113C19.379,95.822,20,92.6,20,91.07a4.549,4.549,0,0,0-.028-.512,6.3,6.3,0,0,0,2.455-.99l0,0c.038,1.534.082,3.019.082,3.694-.022,2.125.137,2.377.8,2.377.708,0,1.1-1.44,1.76-2.811.777-1.714,1.6-3.428,2.1-3.428.937,0-.754,6.33,1.508,6.329,1.6,0,3.976-6.42,5-6.42.8,0-.823,6.422.96,6.42,1.3,0,3.519-6.535,4.273-6.535.777,0-.823,6.535,1.485,6.535,2.08,0,3.771-5.369,4.342-5.369.274,0,.789.719,1.156,1.7l0,.026A4.461,4.461,0,0,0,44.721,94.5,1.209,1.209,0,0,0,46,95.731a2.27,2.27,0,0,0,1.9-2.513,5.946,5.946,0,0,0-.375-2.086l0-.009a10.913,10.913,0,0,1,4.418-2.681c-.64.731-1.805,1.371-1.805,3.451a3.873,3.873,0,0,0,3.907,3.953c3.085,0,3.748-3.29,3.748-4.569a4.58,4.58,0,0,0-.167-1.26l0,0c1.048-.494,1.84-1.189,2.135-1.189.64,0,.389,1.942.389,3.954,0,1.508-.229,3.06.891,3.06.846,0,1.256-1.667,2.1-3.152.823-1.463,1.714-3.452,2.057-3.452.457,0,.274,3.062.274,3.657,0,.754-.138,3.129,1.416,3.129,1.051,0,3.016-2.948,3.016-3.335,0-.206,0-.252-.16-.252s-1.372,1.988-1.851,1.988c-.686,0-.251-2.537-.251-4.41,0-.823.114-2.65-1.257-2.65-1.737,0-3.428,4.89-3.954,4.89-.5,0,.731-4.707-1.439-4.707-.883,0-2.2,1.2-3.628,1.815l.008,0A2.717,2.717,0,0,0,54.98,87.8a1.12,1.12,0,0,0-1.166,1.028,1.749,1.749,0,0,0,1.9,1.668,3.9,3.9,0,0,0,1.057-.155l.015.006a3.838,3.838,0,0,1,.185,1.086,2.642,2.642,0,0,1-2.4,2.787,2.7,2.7,0,0,1-2.331-2.9c0-2.606,1.577-3.039,1.577-3.565,0-.228-.183-.274-.526-.274-1.762,0-4.185,1.457-6,3.136l-.007,0a3.808,3.808,0,0,0-.2-.324C45.315,87.779,46,87.23,45.544,87.23c-.571,0-3.131,6.97-4.137,6.97-1.326,0,1.1-6.719-1.485-6.719-2.034,0-3.2,5.278-3.976,5.278-.754,0,.754-5.278-1.44-5.278-1.576,0-3.931,6.307-4.959,6.307-.868,0,.8-6.215-1.211-6.215-1.92,0-3.428,4.867-3.907,4.867-.4,0-.315-1.52-.3-4.31l.007-.019a9.554,9.554,0,0,0,2.67-6.2c0-1.028-.5-1.828-1.462-1.828-1.874,0-2.971,2.97-2.971,6.238,0,.713.016,1.622.038,2.557l-.005.012a4.375,4.375,0,0,1-2.157.974l-.423,0h0a2.714,2.714,0,0,0-2.434-2.037A1.235,1.235,0,0,0,16.2,88.97c0,.775.688,1.595,2.857,1.642l0,0a4.075,4.075,0,0,1,.086.8c0,1.211-.891,2.857-2.467,2.857-1.372,0-2.4-1.554-2.4-3.269a3.814,3.814,0,0,1,1.462-3.039c0-.091-.023-.183-.068-.183-1.451,0-3.818,1.6-6.048,3.917h0a50.3,50.3,0,0,1-.553-6.84,12.46,12.46,0,0,1,.709-4.844c0-.228-.068-.321-.457-.321-.868,0-6.489,2.537-6.489,8.158a8.555,8.555,0,0,0,3.911,7.411c-1.643,2.44-2.814,5.122-2.814,7.465,0,1.325.526,2.628,1.508,2.628,1.554,0,4.524-3.292,4.525-10.032A24.8,24.8,0,0,0,9.7,92.286v0a19.969,19.969,0,0,1,4.007-3.315Zm119.539.684,0-.008c-.29-.56-.7-.994-1.2-.994a.464.464,0,0,0-.434.411c0,.411.389.663.982.663A3.139,3.139,0,0,0,133.251,89.651ZM83.82,94.8c.287-.407.587-.805.895-1.194l.016-.036a33.333,33.333,0,0,1-.775-5.335c0-4.044,1.76-6.924,1.76-7.541,0-.411.069-.48-.228-.48-.206,0-4.227,1.714-4.227,7.77A10.683,10.683,0,0,0,83.82,94.8Zm-.317.459c-.567-.431-1.095-1.173-1.9-1.722-.679-.465-2.469.039-4.021.32l0,0c-.135.895-.443,1.779-.751,1.779-.2,0-.29-.709-.542-1.532L76.27,94.1a11.182,11.182,0,0,1-1.637.216c-1.074,0-3.542-.481-3.542-2.1,0-.913,1.029-1.279,2.011-1.279A4.476,4.476,0,0,1,76.438,92.6a4.386,4.386,0,0,0-1.006-2.651c0-.251,1.212-.708,1.326-.708.481,0,.892,2.194.892,3.748,0,.074,0,.148-.006.227v0a12.3,12.3,0,0,1,3.411-.389,8.385,8.385,0,0,1-1.44-4.982c0-5.621,5.6-8.158,6.466-8.158.389,0,.481.091.481.321a12.129,12.129,0,0,0-.731,4.844,50.367,50.367,0,0,0,.553,6.845c2.231-2.321,4.6-3.921,6.052-3.921.045,0,.068.091.068.183A3.81,3.81,0,0,0,91.042,91c0,1.714,1.05,3.268,2.42,3.268,1.554,0,2.447-1.646,2.447-2.857a4.178,4.178,0,0,0-.087-.8l0,0c-2.171-.048-2.859-.867-2.859-1.643a1.24,1.24,0,0,1,1.21-1.143,2.708,2.708,0,0,1,2.412,2.036l.422,0a4.381,4.381,0,0,0,2.161-.976l0-.005q-.032-1.28-.038-2.56c0-3.268,1.1-6.238,2.97-6.239.96,0,1.462.8,1.462,1.828a9.551,9.551,0,0,1-2.669,6.2l-.008.016c-.015,2.792-.1,4.313.3,4.313.479,0,1.987-4.867,3.907-4.867,2.011,0,.365,6.215,1.21,6.215,1.029,0,3.382-6.307,4.959-6.307,2.194,0,.687,5.278,1.44,5.278.777,0,1.941-5.278,3.975-5.278,2.583,0,.161,6.719,1.487,6.719,1,0,3.564-6.97,4.136-6.97.457,0-.228.548,1.53,3.062a3.464,3.464,0,0,1,.2.324l.009,0c1.821-1.679,4.25-3.137,6.025-3.137.32,0,.5.046.5.275,0,.525-1.577.96-1.577,3.565a2.7,2.7,0,0,0,2.331,2.9,2.643,2.643,0,0,0,2.4-2.787,3.852,3.852,0,0,0-.185-1.084l-.011-.005a3.8,3.8,0,0,1-1.04.152,1.758,1.758,0,0,1-1.919-1.668,1.119,1.119,0,0,1,1.166-1.028,2.718,2.718,0,0,1,2.387,1.559h0c1.428-.617,2.736-1.811,3.618-1.811,2.171,0,.937,4.708,1.44,4.708.548,0,2.217-4.89,3.953-4.89,1.371,0,1.257,1.828,1.257,2.65,0,1.875-.434,4.41.252,4.41.479,0,1.691-1.988,1.85-1.988s.183.047.183.252c0,.388-1.966,3.335-3.039,3.335-1.554,0-1.416-2.376-1.416-3.129,0-.594.181-3.657-.274-3.657-.342,0-1.234,1.988-2.058,3.452-.844,1.485-1.256,3.152-2.1,3.152-1.12,0-.892-1.553-.892-3.06,0-2.011.251-3.954-.388-3.954-.3,0-1.089.7-2.13,1.189l0,0a4.587,4.587,0,0,1,.165,1.253c0,1.279-.662,4.569-3.748,4.569a3.874,3.874,0,0,1-3.907-3.953c0-2.08,1.166-2.72,1.829-3.451a10.9,10.9,0,0,0-4.437,2.68l0,.014a5.935,5.935,0,0,1,.374,2.083,2.269,2.269,0,0,1-1.9,2.513,1.208,1.208,0,0,1-1.279-1.233,4.469,4.469,0,0,1,1.182-2.413v-.008c-.367-.992-.883-1.715-1.159-1.715-.571,0-2.239,5.369-4.341,5.369-2.308,0-.709-6.535-1.486-6.535-.753,0-2.97,6.535-4.25,6.535-1.805,0-.183-6.42-.983-6.42-1.027,0-3.4,6.42-5,6.42-2.261,0-.572-6.329-1.508-6.329-.5,0-1.326,1.714-2.1,3.428-.664,1.371-1.051,2.811-1.76,2.811-.662,0-.8-.252-.8-2.377,0-.674-.044-2.159-.082-3.692l0,0a6.315,6.315,0,0,1-2.452.99l0,0a4.67,4.67,0,0,1,.028.508c0,1.531-.617,4.752-3.771,4.752-2.377,0-3.679-1.805-3.679-4.113a4.117,4.117,0,0,1,1.166-2.742,20.01,20.01,0,0,0-4,3.308l0,.019a24.932,24.932,0,0,1,.261,3.026c0,6.74-2.948,10.032-4.525,10.032-.983,0-1.509-1.3-1.509-2.628,0-2.342,1.17-5.025,2.813-7.464Zm39.362-2.545h-.006a2.941,2.941,0,0,0-.626,1.554c0,.457.092.731.367.731.251,0,.479-.321.479-.755a6,6,0,0,0-.214-1.53ZM100.888,87.2A8,8,0,0,0,102.6,82.25c0-.96-.069-1.509-.571-1.509-1.288,0-1.159,4.771-1.144,6.456Zm-5.307,2.646,0-.006c-.244-.574-.629-1.029-1.161-1.029a.327.327,0,0,0-.367.32C94.057,89.636,94.781,89.8,95.581,89.842ZM84.845,94.187l-.006,0c-1.765,2.319-3.077,5.015-3.077,7.577,0,.847,0,2.1,1.166,2.1,1.44,0,2.447-2.149,2.447-5.142a26.6,26.6,0,0,0-.529-4.537Zm-8.784-.677.009-.014a2.639,2.639,0,0,0-2.511-1.9c-.388,0-.594.343-.594.754,0,.754,1.188,1.233,2.286,1.233A5.651,5.651,0,0,0,76.062,93.51ZM56.493,89.651a3.089,3.089,0,0,1-.643.071c-.617,0-.983-.251-.983-.663a.465.465,0,0,1,.434-.411c.494,0,.9.435,1.195.994l0,.009ZM46.109,92.723a6.007,6.007,0,0,1,.212,1.522c0,.434-.228.755-.481.755-.274,0-.365-.274-.365-.731a2.936,2.936,0,0,1,.621-1.547h.012ZM24.131,87.189c-.015-1.692-.141-6.448,1.144-6.448.5,0,.571.548.571,1.509a8,8,0,0,1-1.712,4.942Zm-5.3,2.653c-.8-.048-1.528-.206-1.528-.715a.327.327,0,0,1,.366-.32c.534,0,.919.457,1.163,1.033ZM7.971,93.592c-.312.392-.616.8-.907,1.207h0A10.7,10.7,0,0,1,4.5,87.984c0-6.055,4.022-7.769,4.228-7.769.3,0,.206.068.206.48,0,.617-1.737,3.5-1.737,7.541a33.437,33.437,0,0,0,.774,5.337Zm.116.589a26.494,26.494,0,0,1,.529,4.544c0,2.993-1.006,5.142-2.445,5.142-1.166,0-1.166-1.257-1.166-2.1,0-2.565,1.314-5.264,3.079-7.584h0Z" transform="translate(-2.837 -79.69)" fill="#fff" fill-rule="evenodd"/>
  </g>
</svg>
