<svg xmlns="http://www.w3.org/2000/svg" width="80.94" height="80.941" viewBox="0 0 80.94 80.941">
  <g id="Group_12968" data-name="Group 12968" transform="translate(-508.951 -724.53)">
    <circle id="Ellipse_2904" data-name="Ellipse 2904" cx="31" cy="31" r="31" transform="translate(518.951 734.066)" fill="#2acbd2"/>
    <path id="Path_11932" data-name="Path 11932" d="M9.792,30.512c4.608,0,8.672-2.176,8.672-6.88A5.193,5.193,0,0,0,14.5,18.256v-.064c1.952-.768,3.328-2.144,3.328-4.384,0-3.872-3.3-6.176-8.128-6.176-5.44,0-8.48,3.04-8.576,7.392H6.144a3.243,3.243,0,0,1,3.488-3.36c1.824,0,2.88.992,2.88,2.5,0,1.664-1.344,2.56-3.392,2.56H7.936v3.744H9.248c2.4,0,3.744.96,3.744,2.88,0,1.824-1.216,3.04-3.424,3.04-2.752,0-3.9-1.632-4.032-3.968H.448A7.645,7.645,0,0,0,2.88,28.4C4.416,29.776,6.688,30.512,9.792,30.512Z" transform="translate(539.951 744.066)" fill="#fff"/>
    <g id="Group_12795" data-name="Group 12795" transform="translate(508.951 724.53)">
      <g id="AdobeStock_210990152_2_" data-name="AdobeStock_210990152 (2)" transform="translate(0)" fill="none" stroke="#2acbd2" stroke-width="1">
        <ellipse cx="40.47" cy="40.47" rx="40.47" ry="40.47" stroke="none"/>
        <ellipse cx="40.47" cy="40.47" rx="39.97" ry="39.97" fill="none"/>
      </g>
    </g>
  </g>
</svg>
