<svg xmlns="http://www.w3.org/2000/svg" width="69.855" height="17.413" viewBox="0 0 69.855 17.413">
  <path id="gillette" d="M19.379,5.5a2.478,2.478,0,0,1-2.508-2.75A3.059,3.059,0,0,1,19.861,0a2.477,2.477,0,0,1,2.508,2.748A3.059,3.059,0,0,1,19.379,5.5ZM16.563,6.3h4.786L19.521,16.669H14.77L16.563,6.3ZM23.608.456h4.784L25.5,16.669H20.75L23.608.456ZM10.65,6.967a2.738,2.738,0,0,0-1.927-1.3c-.664,0-2.6.085-3.156,3.323-.666,3.854,1.725,3.821,2.259,3.821a1.9,1.9,0,0,0,1.4-.4l.2-1.062H7.459l.6-3.455h6.977L13.739,15.14A11.868,11.868,0,0,1,7.292,17C.414,17-.483,11.618.181,7.9A8.534,8.534,0,0,1,8.589,1.186c4.452,0,6.113,2.259,6.777,3.953L10.65,6.967Zm59.062,5.252-7.229,0c.083,1.133.677,1.881,1.362,1.881a1.442,1.442,0,0,0,1.4-.951l3.909.741A6.579,6.579,0,0,1,63.2,17.411a5.35,5.35,0,0,1-5.155-7.117L57,10.29l-1.13,6.379H51.086l1.131-6.379H50.356l-1.13,6.379H44.443l1.163-6.379H44.313a8.476,8.476,0,0,1-.118,1.931l-7.229-.006c.082,1.133.677,1.883,1.362,1.883a1.442,1.442,0,0,0,1.4-.951l3.909.741a6.577,6.577,0,0,1-5.945,3.524,5.278,5.278,0,0,1-5.405-5.161l-.8,4.417H26.733L29.59.456h4.784L32.687,9.861a6.654,6.654,0,0,1,6.016-4.1c2.564,0,4.852,1.062,5.465,3.594L44.707,6.3h1.562L47.1,1.72h4.784L51.053,6.3h1.859l.831-4.584h4.784l-.8,4.584h1.6l-.417,2.278A6.628,6.628,0,0,1,64.219,5.76c4.547,0,6.152,3.057,5.492,6.459ZM37.289,10.286l2.764,0c.1-1.246-.53-1.491-1.26-1.477C38.242,8.817,37.648,9.426,37.289,10.286ZM62.8,10.3l2.766,0c.1-1.248-.526-1.506-1.256-1.494C63.757,8.817,63.16,9.432,62.8,10.3Z" transform="translate(0.001)" fill="#fff" opacity="0.306"/>
</svg>
