<svg xmlns="http://www.w3.org/2000/svg" width="96.623" height="17.496" viewBox="0 0 96.623 17.496">
  <g id="l-oreal-3" transform="translate(-2.834 -79.439)">
    <path id="Path_11837" data-name="Path 11837" d="M15.666,93.68v2.052H2.834V81.621h2.31V93.68Zm-1.8-6.928,2.566-4.875H14l-1.925,4.875h1.8Zm20.979-2.815a9.164,9.164,0,0,0-3.478-3.16,10.279,10.279,0,0,0-9.449,0,9.165,9.165,0,0,0-3.479,3.16,8,8,0,0,0,0,8.688,9.161,9.161,0,0,0,3.479,3.16,10.279,10.279,0,0,0,9.449,0,9.164,9.164,0,0,0,3.478-3.16,8,8,0,0,0,0-8.688Zm-2,7.8a7,7,0,0,1-2.6,2.484,7.383,7.383,0,0,1-7.087,0,7,7,0,0,1-2.6-2.484,6.541,6.541,0,0,1,0-6.806,7,7,0,0,1,2.6-2.484,7.38,7.38,0,0,1,7.087,0,6.994,6.994,0,0,1,2.6,2.484,6.538,6.538,0,0,1,0,6.806Zm19.386-4.031a3.878,3.878,0,0,1-1.826,1.772A2.937,2.937,0,0,1,48.9,89.9l4.491,5.837H50.824l-4.343-5.644H40.815v5.644h-2.31V81.621h9.238a5.513,5.513,0,0,1,2.717.654,3.987,3.987,0,0,1,1.9,2.195A4.749,4.749,0,0,1,52.238,87.706Zm-2.584-.1a2.232,2.232,0,0,0,.749-1.757,2.462,2.462,0,0,0-.846-1.74,2.5,2.5,0,0,0-1.685-.438H40.815v4.362h7.057a2.668,2.668,0,0,0,1.782-.426Zm15.926.041v1.924H57.753V93.68H68.275v2.052H55.443V81.621H68.275v2.052H57.753V87.65h7.827Zm.128-8.211H62.244l-1.411,1.8Zm7.09,12.7-1.83,3.592H68.66L75.845,81.62h2.31l7.186,14.112h-2.31L81.2,92.14ZM77,83.888l-3.287,6.456h6.575L77,83.888ZM99.327,93.68v2.052H86.5V81.621h2.309V93.68Zm-1-9.228-.02-.337a.608.608,0,0,0-.023-.194.615.615,0,0,0-.114-.2.222.222,0,0,0-.142-.08.449.449,0,0,0,.238-.194.674.674,0,0,0,.1-.361.743.743,0,0,0-.116-.392.731.731,0,0,0-.678-.259H96.546V84.8h.4v-.968h.593a.4.4,0,0,1,.28.075c.143.169.08.391.1.579a.73.73,0,0,0,.059.313h.446v-.073c-.081-.034-.088-.151-.1-.271Zm-.49-1.039a.577.577,0,0,1-.338.077h-.56v-.718c.244,0,.49-.01.732.009a.328.328,0,0,1,.261.186.379.379,0,0,1-.1.445Z" fill="#666" fill-rule="evenodd"/>
    <path id="Path_11838" data-name="Path 11838" d="M185.927,84.656a1.982,1.982,0,1,0,.268.995A2,2,0,0,0,185.927,84.656Zm-.238,1.86a1.693,1.693,0,0,1-2.929,0,1.689,1.689,0,0,1,2.31-2.305,1.686,1.686,0,0,1,.619,2.305Z" transform="translate(-86.738 -2.042)" fill="#666" fill-rule="evenodd"/>
  </g>
</svg>
