<svg xmlns="http://www.w3.org/2000/svg" width="98.575" height="19.057" viewBox="0 0 98.575 19.057">
  <g id="aquafresh" transform="translate(-2.834 -78.295)">
    <path id="Path_11832" data-name="Path 11832" d="M76.375,82.983a6.394,6.394,0,0,0-1.165.073,6.158,6.158,0,0,0-5.124,7.9c.509,1.514,1.921,1.878,3.144,2.184a11.826,11.826,0,0,0,1.98-.161,5,5,0,0,0,3.858-2.533,22.649,22.649,0,0,0-2.693-.2,5.546,5.546,0,0,0-.728.611A1.671,1.671,0,0,1,75.21,91a2.065,2.065,0,0,1-1.587-.335,2.12,2.12,0,0,1-.349-1.994l1.936-.014,4.527-.073A5.137,5.137,0,0,0,79.4,84.7,3.784,3.784,0,0,0,76.375,82.983ZM75.21,87.1c-.611.015-1.222.015-1.63.015A2.658,2.658,0,0,1,74.7,85.122a1.465,1.465,0,0,1,.51-.218,1.427,1.427,0,0,1,1.558.728c.029.495.057.975.087,1.456C76.462,87.074,75.836,87.088,75.21,87.1Zm9.739-2.227a1.985,1.985,0,0,1,2.33.393,20.961,20.961,0,0,0,2.416-.6,1.83,1.83,0,0,0-1.208-1.252,6.522,6.522,0,0,0-5.663.538,3.443,3.443,0,0,0-1.514,3.334c.829,2.62,3.551,1.558,5.153,2.46.495.654.058,1.135-1,1.572a2.374,2.374,0,0,1-2.533-.758c-.917.116-1.7.291-2.533.364a3.768,3.768,0,0,0,3.129,2.227,9.407,9.407,0,0,0,4.659-1.106c.9-.728,1.819-2.242,1.412-3.435-.655-2.461-3.581-1.543-5.357-2.519l-.1-.408c.2-.508.393-.712.815-.814ZM100.9,83.42c-1.8-1.121-4.09-.073-5.181,1.3l.844-5.051h-3.29L90.786,92.91l3.376.03.582-3.392c.379-2.213.6-3.683,1.644-4.149a1.025,1.025,0,0,1,1.442,1.077L96.71,92.909,100,92.9l.758-4.075c.422-2.154,1.15-4.25.145-5.4ZM65.966,85.283l-.51.014.422-2.1h-3.3l-1.208,6.71-.538,3h.538L64.22,92.9l.8-4.032c.8-2.941,2.969-2.809,3.988-2.809l.641-2.912C67.509,82.633,66.315,84.7,65.966,85.283Zm-4.6-3.653a1.794,1.794,0,0,0,.277,0c.1-.7.2-1.266.277-1.994-.189-.015-.379-.015-.554-.029a16.008,16.008,0,0,0-3.814.1c-1.543.276-2.125,2.344-2.533,3.8l-1.3.073-.393,1.893h1.412l-1.412,7.482,3.319-.044,1.4-7.438,2.373.029.393-1.994H58.44C58.557,81.134,60.407,81.542,61.367,81.629ZM46.228,82.983c-.538.058-1.049.145-1.529.233-1.019.495-1.747.844-1.936,2.023l2.838.219.306-.524c.1-.029.2-.058.32-.087a1.977,1.977,0,0,1,1.3-.015,1.326,1.326,0,0,1,.713,1.368l-.145.524c-.6.058-1.238.116-1.863.189a6.9,6.9,0,0,0-4.454,1.7,3.188,3.188,0,0,0-.684,3.391c.277.554,1.921,1.136,3.028,1.092a4.02,4.02,0,0,0,2.111-.9c.466-.335.873-.684,1.237-.917.014.743-.087,1.077-.073,1.63,1.019,0,2.125-.029,3.028-.029,0-3.042,2.213-7.439.743-8.967a7.328,7.328,0,0,0-4.936-.931Zm.6,7.919a2.121,2.121,0,0,1-.6.218,2.624,2.624,0,0,1-1.369-.188,1.425,1.425,0,0,1-.1-1.413,2.583,2.583,0,0,1,1.471-1.047,5.049,5.049,0,0,1,1.6-.291A4.356,4.356,0,0,1,46.825,90.9ZM27.959,83.187c-.408.495-.51,1.092-.917,1.47a2.2,2.2,0,0,0-1.354-1.572,4.854,4.854,0,0,0-1.514-.2,4.435,4.435,0,0,0-2.737.888,7.671,7.671,0,0,0-2.4,7.045A3.034,3.034,0,0,0,21.118,93.1a3.975,3.975,0,0,0,3.057-1.047c.058-.073.131-.132.2-.218l.393.131-.6,2.984-.481,2.4c.145-.029.306-.073.481-.1a18.926,18.926,0,0,0,3.1-.6l2.533-13.494a15.164,15.164,0,0,0-1.849.028Zm-3,7.03a2.162,2.162,0,0,1-.786.743,1.18,1.18,0,0,1-.815.189,1.615,1.615,0,0,1-.8-.815c0-1.645,0-3.64,1.281-5.154a.581.581,0,0,1,.335-.277,1.6,1.6,0,0,1,1.121.087c1.165,1.369-.043,3.523-.335,5.226Zm12.4-7.06c-.32,1.805-.7,3.741-1.092,5.5a3.725,3.725,0,0,1-.67,1.63c-.51.51-2.242.641-2.009-.654L34.8,83.142c-1.208.015-2.4,0-3.348.044L30.113,90.6c-.014,1-.029,2.3,1.761,2.387a3.813,3.813,0,0,0,3.741-1.761,1.12,1.12,0,0,1,.378.014c-.073.465-.2,1.033-.291,1.557h3.144l1.82-9.651C39.561,83.2,38.352,83.143,37.362,83.157ZM11.088,78.31l-.073-.015L2.834,94.876l3.552.029L7.9,91.644h4.95l.51,3.231,4.556-.087L15.789,78.31h-4.7Zm0,10.059L9.5,88.34l1.586-3.494L12.151,82.5l.524,5.866H11.088Z" fill="#666" fill-rule="evenodd"/>
  </g>
</svg>
