<svg xmlns="http://www.w3.org/2000/svg" width="65.504" height="19.789" viewBox="0 0 65.504 19.789">
  <g id="huggies-2" opacity="0.301">
    <path id="Path_11740" data-name="Path 11740" d="M53.262,71.789l5.08.045.285.106,1.167,1.587a3.916,3.916,0,0,1,2.474-1.634,6.661,6.661,0,0,1,3.035,0,1.185,1.185,0,0,1,.606.28v3.222a.485.485,0,0,1-.747,0l-.42-.234-.374-.187a1.4,1.4,0,0,0-1.26.187.914.914,0,0,0-.233.84,2.283,2.283,0,0,0,1.12.934l1.214.607a6.133,6.133,0,0,1,1.821,1.821,4.552,4.552,0,0,1,.467,2.381,3.459,3.459,0,0,1-.467,1.634,4.33,4.33,0,0,1-1.26,1.354,5.865,5.865,0,0,1-2.708.747,5.2,5.2,0,0,1-2.8-.7l-.793-.514-.373.748c-.234.327-.42.466-.467.42l-5.6.047A1.413,1.413,0,0,1,52,84.732l-.14-.467V72.733c.106-.532.916-.926,1.405-.944Zm5.6,8.4c-.07.189-.174.578-.42.578H55.873v1.167h3.455l.467-.7a.783.783,0,0,1,.606-.421l1.261.887a6.37,6.37,0,0,0,1.307.467.839.839,0,0,0,.794-.56.975.975,0,0,0-.56-1.074L62.6,80.3l-.56-.327c-2.1-1.494-3.035-2.941-2.941-4.435H55.966l-.093,1.4H58.44c.263.057.342.253.394.467l.026,2.784ZM2.834,69V85.2c0,.233.14.28.374.28H7.643a.343.343,0,0,0,.374-.373V79.036h2.895v6.069l.093.234.28.139,4.155.187a.477.477,0,0,0,.374-.234l.093-.327V69.138c0-.28,0-.514-.093-.607-.093-.234-.14-.374-.374-.374-1.587-.093-3.035,0-4.389.047-.14,0-.234.234-.234.794v4.9l-.047.093H8.017L7.97,73.9V69.372c0-.374,0-.7-.093-.747-.093-.327-.14-.467-.373-.467-1.587-.093-3.035,0-4.388.047-.14,0-.234.234-.281.794Zm44.588,2.895a19.616,19.616,0,0,1,3.315,0l.234.047.093.327.094,12.839a1.269,1.269,0,0,1-.421.373H47.422a.6.6,0,0,1-.467-.466V73.994l-.887,1.4q-.448.621-.933,1.214c-.14.093-.374,0-.607-.234L43.921,76a2.609,2.609,0,0,0-1.587-.234,2.848,2.848,0,0,0-1.4.7A2.543,2.543,0,0,0,40,79.035a2.191,2.191,0,0,0,.653,1.307,2.457,2.457,0,0,0,1.167.888l.28.139c.187,0,.233-.093.327-.139V78.662a.8.8,0,0,1,.793-.42H45.7l.467.094a.475.475,0,0,1,.233.373V84.5a5.267,5.267,0,0,1-1.26.606,6.031,6.031,0,0,1-4.249.094A10.237,10.237,0,0,1,37.151,83l-.42-.467-.28-.467V84.4a6.417,6.417,0,0,1-3.922,1.073A7.965,7.965,0,0,1,28.654,84.4a5.754,5.754,0,0,1-2.241-2.1A5.905,5.905,0,0,1,24.592,84.5a4.565,4.565,0,0,1-2.568,1.073,4.893,4.893,0,0,1-2.708-.56,5.059,5.059,0,0,1-1.961-1.774A5.312,5.312,0,0,1,16.608,81V72.36a.62.62,0,0,1,.14-.327l.327-.14a17.83,17.83,0,0,1,3.175,0l.234.14.14.327V81c0,.234.187.373.467.514h.7a.666.666,0,0,0,.467-.606V72.36c0-.093.093-.187.187-.327l.28-.14a10.981,10.981,0,0,1,3.5,0q.28,0,.42.7v2.334a7.624,7.624,0,0,1,3.175-2.661,7.092,7.092,0,0,1,4.062-.373,5.358,5.358,0,0,1,2.941,1.541c.093.093.093.14,0,.327-.327.514-.934,1.447-1.868,2.848-.093.187-.14.234-.234.187A2.631,2.631,0,0,0,33.463,76a2.544,2.544,0,0,0-1.447,0,2.444,2.444,0,0,0-1.261.607,2.894,2.894,0,0,0-.794,1.167,2.848,2.848,0,0,0-.047,1.4,2.077,2.077,0,0,0,.514,1.261,2.262,2.262,0,0,0,1.821,1.027l.047-.094V78.709c0-.234.187-.373.467-.467h3.128a6.485,6.485,0,0,1,1.027-3.5,6.08,6.08,0,0,1,2.708-2.381,6.555,6.555,0,0,1,3.735-.654,6.3,6.3,0,0,1,3.408,1.4h.187v-.841A.453.453,0,0,1,47.422,71.893Zm9.851,14.053h.467a1.067,1.067,0,0,1,.793.234,1.021,1.021,0,0,1,.327.793.735.735,0,0,1-.327.7,1.065,1.065,0,0,1-.793.234h-.467Zm.467,1.588a1.008,1.008,0,0,0,.56-.094l.14-.467a.583.583,0,0,0-.234-.56,1.316,1.316,0,0,0-.514-.047v1.167h.047ZM59,85.946h.373v1.961H59Zm.373,1.961.887-1.961h.234l.747,1.961h-.373l-.14-.561h-.7l-.233.561h-.421Zm1.167-.841-.233-.561-.14.561Zm.794.841V85.946H61.8a.891.891,0,0,1,.561.187.468.468,0,0,1,.233.467.518.518,0,0,1-.233.467,1.387,1.387,0,0,1-.561.14h-.093v.7h-.373Zm.466-1.075h.234a.427.427,0,0,0,.14-.233l-.14-.233h-.327v.466Zm1.961-.466h-.7v.374h.7v.373h-.7v.421h.7v.374H62.736V85.946h1.027Zm1.214-.234c.187.047.233.234.233.467a.531.531,0,0,1-.139.373,2.64,2.64,0,0,1-.374.234l.514.7h-.466l-.467-.794v.794H63.9V85.945h.56a.664.664,0,0,1,.513.187Zm-.233.28-.28-.047h-.187v.514h.187c.14,0,.233,0,.28-.047a.3.3,0,0,0,.093-.233C64.836,86.506,64.836,86.413,64.743,86.413Zm.793-.28.373-.187a.594.594,0,0,1,.42.187l.14.373H66.1a.221.221,0,0,0-.234-.233.214.214,0,0,0-.187.233c0,.094.094.14.233.234.234.093.327.093.42.14a.514.514,0,0,1,.233.466.49.49,0,0,1-.233.421.888.888,0,0,1-.42.14.919.919,0,0,1-.466-.14.888.888,0,0,1-.14-.421h.327c0,.187.047.234.28.234.187,0,.234-.047.234-.234,0-.139-.047-.233-.28-.28l-.42-.187-.047-.374Zm1.868-14.1a.68.68,0,0,1,.607.327.913.913,0,0,1,0,1.4.887.887,0,0,1-.607.234.931.931,0,0,1-.7-1.634A.737.737,0,0,1,67.4,72.033Zm0,.14a.886.886,0,0,0-.606.234.875.875,0,0,0-.234.654.548.548,0,0,0,.234.514.679.679,0,0,0,.606.327.663.663,0,0,0,.561-.327.671.671,0,0,0,.233-.514,1.121,1.121,0,0,0-.233-.654A.862.862,0,0,0,67.4,72.173Z" transform="translate(-2.834 -68.118)" fill="#fff" fill-rule="evenodd"/>
    <path id="Path_11741" data-name="Path 11741" d="M186.481,80.633c.233,0,.373.093.373.327,0,.14-.094.234-.14.234.047.047.047.14.047.28l.094.234h-.233l-.094-.234a.149.149,0,0,0-.14-.14h-.233v.374h-.234V80.633h.561Zm-.327.234V81.1h.233c.14,0,.234-.093.234-.14l-.14-.093Z" transform="translate(-121.817 -76.251)" fill="#fff" fill-rule="evenodd"/>
  </g>
</svg>
