<svg xmlns="http://www.w3.org/2000/svg" width="61.08" height="20.187" viewBox="0 0 61.08 20.187">
  <g id="oral-b-2" transform="translate(0.4 0.4)" opacity="0.306">
    <path id="Path_11727" data-name="Path 11727" d="M34.388,81.939c-.03,3.018-1.811,7.944-7.276,7.923-4.076,0-5.775-2.672-5.8-5.626-.025-4.293,2.725-7.976,7.278-7.966C32.57,76.281,34.42,78.859,34.388,81.939Zm-9.107,2.513c0,1.335.665,2.212,1.991,2.213,2.384,0,3.089-3.492,3.093-4.927a1.994,1.994,0,0,0-2.015-2.2C26.7,79.538,25.279,81.29,25.281,84.452ZM45,83.246h-4.86c-.721,0-1.65.368-2.037,2.278l-.838,4.062H33.707l1.928-9.322h3.077v.959a2.833,2.833,0,0,1,3.26-1.083l-.386,1.874c1.133-1.658,2.8-2,4.715-2.011,2.439-.005,4.858,1,4.373,3.358l-1.022,4.923a1.774,1.774,0,0,0,.141,1.3H45.941v-.6c-2.235,1.671-5.739.9-5.735-1.963A3.128,3.128,0,0,1,43,84.026c2.449-.462,4.129-.415,4.288-1.127C47.486,82.02,45.166,81.935,45,83.246Zm-1.237,3.464c0,1.128,2.342,1.184,2.926-1.4C45.281,85.754,43.757,85.841,43.759,86.709ZM56.866,76.639,54.174,89.585H50.542l2.69-12.947Zm13.122,6.308a3.464,3.464,0,0,0,2-3.312c-.019-3.272-3.632-2.992-5.209-2.992H61.9L60.87,81.6H57.883l-.529,2.533h2.993l-1.127,5.45H66.4c4.08,0,4.934-2.921,4.936-4.046A2.811,2.811,0,0,0,69.988,82.946ZM66.5,86.279H63.7l.446-2.143h2.72C68.1,84.137,67.947,86.279,66.5,86.279ZM67.11,81.6H64.674l.4-1.927h2.374C68.935,79.676,68.646,81.6,67.11,81.6Z" transform="translate(-16.916 -73.474)" fill="#fff" fill-rule="evenodd"/>
    <path id="Path_11728" data-name="Path 11728" d="M59.066,87.5a9.694,9.694,0,1,0,0-19.387H18.22A9.716,9.716,0,0,0,8.5,77.811,9.706,9.706,0,0,0,18.22,87.5Z" transform="translate(-8.503 -68.117)" fill="none" stroke="#fff" stroke-width="0.8"/>
  </g>
</svg>
