<svg xmlns="http://www.w3.org/2000/svg" width="78.342" height="20" viewBox="0 0 78.342 20">
  <path id="Path_11840" data-name="Path 11840" d="M716.742,541.655V559.6h2.133V541.676l1.171-.078,1.214.165v-.992h-7.017V541.8l1.472-.2,1.027.057Zm12.6,6.069a4.713,4.713,0,0,1-2.1,1.814l4.534,10.036h-2.252l-3.879-10.127a4.755,4.755,0,0,0,2.2-4.453c0-2.1-.984-3.2-2.93-3.319v17.863H722.9v-18.8h1.961c2.119.065,3.62.769,4.488,2.147a4.322,4.322,0,0,1,0,4.834Zm3.5-7.132v18.744h5.619v-1l-2.227.23H734.89v-8.941H738v-.876h-3.166v-7.257h1.852l1.781.18v-1.083Zm10.4-.7.711,1.055q-3.016.592-2.9,3.986a8.567,8.567,0,0,0,1.867,4.044,7.7,7.7,0,0,1,1.76,4.4,7.337,7.337,0,0,1-1.193,4.106,6.051,6.051,0,0,1-1.939,1.846l-1,.56-.905-.913a3,3,0,0,0,2.665-2.083,6.905,6.905,0,0,0,.61-2.931,7.449,7.449,0,0,0-2.047-4,6.183,6.183,0,0,1-1.638-4.892,5.5,5.5,0,0,1,1.4-3.224,9.8,9.8,0,0,1,2.609-1.957Zm12.676,7.124h-1.652v12.073h1.719v-9.609c.309-1.206.859-1.814,1.659-1.814.783,0,1.214.545,1.271,1.638v9.825H760.7v-9.419c.446-1.392,1.035-2.075,1.739-2.046s1.146.582,1.279,1.638v9.825h1.759v-9.5a3.305,3.305,0,0,0-.488-1.723A2.213,2.213,0,0,0,762.7,546.7a3.019,3.019,0,0,0-2.328,1.638l-.237-.466a2.2,2.2,0,0,0-2.284-1.113,2.553,2.553,0,0,0-1.932,1.146v-.883h0Zm21.058,2.284v9.825h1.759v-9.5a3.413,3.413,0,0,0-.467-1.723,2.314,2.314,0,0,0-2.319-1.206,3,3,0,0,0-2.292,1.638l-.259-.466a2.19,2.19,0,0,0-2.292-1.113,2.464,2.464,0,0,0-1.9,1.146v-.883h-1.67v12.074h1.723v-9.609c.3-1.206.847-1.814,1.652-1.814s1.221.545,1.279,1.638v9.825h1.76v-9.419c.459-1.392,1.041-2.075,1.759-2.046.733.034,1.146.581,1.272,1.637Zm-27.242-1.7c1.113,0,1.587,1.509,1.432,4.517h-3.291c-.13-3.01.481-4.517,1.86-4.517Zm2.668,9.624a2.843,2.843,0,0,1-2.32,1.379,1.566,1.566,0,0,1-1.432-.912l-.553-1.853a11.873,11.873,0,0,1-.216-2.751h4.956q.56-6.356-2.873-6.334-4.159.022-4.1,6.952a7.257,7.257,0,0,0,1.113,4.165,3.392,3.392,0,0,0,2.908,1.523,3.122,3.122,0,0,0,2.549-.79l-.029-1.379Zm37.771-1.207c.33,0,.5.1.5.3s-.136.323-.409.323h-.477v-.624h.384Zm-.934-.445v2.586h.545v-1.085h.265l.589,1.086h.646l-.646-1.113a.6.6,0,0,0,.622-.575.611.611,0,0,0,0-.094c0-.538-.345-.8-1.05-.8Zm-.732-.467a2.308,2.308,0,0,0-.739,1.76,2.331,2.331,0,0,0,.739,1.8,2.589,2.589,0,0,0,3.342,0,2.329,2.329,0,0,0,.732-1.8,2.3,2.3,0,0,0-.732-1.76A2.591,2.591,0,0,0,788.507,555.107Zm1.667-.057a1.638,1.638,0,0,1,1.228.5,1.811,1.811,0,0,1,.5,1.315,1.881,1.881,0,0,1-.507,1.354,1.662,1.662,0,0,1-1.228.5,1.568,1.568,0,0,1-1.2-.5,1.875,1.875,0,0,1-.5-1.358,1.813,1.813,0,0,1,.5-1.316,1.6,1.6,0,0,1,1.2-.5Zm-6.1-7.562q1.67,0,1.432,4.525h-3.288c-.108-3.018.5-4.526,1.852-4.526Zm3.1,5.482c.4-4.238-.56-6.342-2.872-6.334q-4.128.043-4.072,6.96a7.346,7.346,0,0,0,1.077,4.166,3.439,3.439,0,0,0,2.937,1.511,3.159,3.159,0,0,0,2.557-.79l-.036-1.372a2.918,2.918,0,0,1-2.341,1.372,1.544,1.544,0,0,1-1.415-.905,8.7,8.7,0,0,1-.553-1.846,10.922,10.922,0,0,1-.237-2.769h4.955Zm-5.566-8.639.286.61,4.849-1.846-.5-1.146Z" transform="translate(-714.242 -539.895)" fill="#666" fill-rule="evenodd"/>
</svg>
