<?xml version="1.0" encoding="utf-8"?>
<!-- Generator: Adobe Illustrator 25.3.1, SVG Export Plug-In . SVG Version: 6.00 Build 0)  -->
<svg version="1.1" id="Layer_1" xmlns="http://www.w3.org/2000/svg" xmlns:xlink="http://www.w3.org/1999/xlink" x="0px" y="0px"
	 viewBox="0 0 74.5 16.4" style="enable-background:new 0 0 74.5 16.4;" xml:space="preserve">
<style type="text/css">
	.st0{opacity:0.413;}
	.st1{fill:#FFFFFF;}
	.st2{fill:none;stroke:#000000;stroke-width:0.359;}
	.st3{fill:#FFFFFF;stroke:#FFFFFF;stroke-width:0.359;stroke-miterlimit:2.613;}
	.st4{fill:none;stroke:#FFFFFF;}
</style>
<g id="colgate" transform="translate(-0.001)" class="st0">
	<path id="Path_11732" class="st1" d="M26,4.5C26,4.5,26,4.5,26,4.5c-1.6-2-4.4-2.1-6.6-2c0,0-0.1,0-0.1,0c-2.2,0.1-4.2,1-5.6,2.6
		c-0.2,0.2-0.3,0.4-0.4,0.6c-1,1.7-1,3.9,0.1,5.6c0.1,0.1,0.2,0.3,0.3,0.4c1.1,1.1,3.1,1.3,4.5,1.4c0.4,0,0.7,0,1.1,0
		c2.6-0.2,5.5-1.7,6.3-3.4c0.1-0.3,0.3-0.6,0.4-1C26.6,7.1,26.8,5.9,26,4.5z M19.3,10.5c-0.3,0-0.6,0-0.9,0
		c-2.8-0.2-3.5-2.9-1.2-4.6c0.6-0.5,1.3-0.8,2.1-0.9c1.7-0.3,3.3,0.5,3.5,1.8C22.8,8.7,21.3,10.4,19.3,10.5z M74.2,3.9
		c-1.2-1.5-3.4-1.8-5-1.7c-0.2,0-0.3,0-0.5,0c-2.3,0.2-4.3,1.5-5.5,3.4C63.1,5.7,63.1,5.9,63,6c-0.6,1.6-1.1,3.6,0,5
		c0,0.1,0.1,0.2,0.2,0.3c1.2,1.5,3.7,1.7,5.4,1.7h0.1c1.2,0,2.4-0.2,3.6-0.4c0.2-0.5,0.8-2.2,0.5-2.6c-1.6,0.1-2.7,0.4-4,0.4
		c-0.5,0-1,0-1.5-0.1c-1-0.5-1.6-1.1-1.3-1.9l2.8,0l4.9-0.1C74.8,8.2,74.6,4.7,74.2,3.9L74.2,3.9z M71,6.1l-2.3,0l-2.3,0
		c0.6-0.7,1.4-1.3,2.3-1.5c0.5-0.1,1-0.1,1.6,0C70.8,4.9,71.1,5.5,71,6.1z M55.9,4L55.9,4c-0.2-0.3-0.4-0.6-0.7-0.7
		c-1.9-0.7-3.9-0.9-5.9-0.8c-1,0-2.1,0.1-3.1,0.2c-0.4,0.7-0.6,1.6-0.5,2.4c1.2-0.1,2.4-0.3,3.6-0.3c1.1-0.1,2.3,0.1,3.3,0.6
		c0,0.4,0.2,0.6-0.2,0.8c-1-0.1-2.1-0.2-3.1-0.2c-1.8-0.2-3.6,0.3-5,1.4c-0.2,0.2-0.4,0.4-0.5,0.6c-0.8,1-0.9,2.4-0.4,3.5
		c0.1,0.2,0.2,0.3,0.4,0.4c0.8,0.6,1.8,0.9,2.8,0.9c0.8,0.1,1.8,0.1,2.7,0.1c1.4,0,2.7,0,3.6,0c1.2,0.1,1.1-0.7,1.2-0.7L55.9,6V6
		l0.2-0.6C56.2,4.9,56.1,4.5,55.9,4z M51.4,10.5c-0.7,0.1-1.4,0.2-2.1,0.1c-0.5,0-1,0-1.5,0c-0.6,0-1.2-0.3-1.1-1s0.7-0.8,1.4-1.1
		l1.1,0l2.6,0L51.4,10.5L51.4,10.5z"/>
	<path id="Path_11733" class="st1" d="M13.7,0.2c-2.6-0.4-5.3-0.3-7.9,0.2C3.4,1.1,1.4,2.9,0.4,5.2c-0.7,1.7-0.5,3.7,0.5,5.2
		c1.4,2.1,4.4,2.5,6.6,2.6l3.9-0.2c0.4-1,0.7-2.1,0.7-3.1c-1.9,0.5-4,0.6-6,0.3C5.3,9.7,4.4,9.3,4.3,8.5C3.8,7.2,4.4,5.8,5.2,4.6
		c2.2-2.5,5.7-1.7,8.5-1.1c0.1,0,0.1,0,0.2,0l0.9-3.1C14.5,0.4,14.1,0.3,13.7,0.2z"/>
	<path id="Path_11734" class="st2" d="M66.4,6.1c0.9-1.2,2.4-1.8,3.8-1.5c0.5,0.3,0.8,0.9,0.7,1.5 M71,6.1l-4.6,0"/>
	<path id="Path_11735" class="st1" d="M32.2,1H31c-0.7,0-1.4,0-1.9,0c-1,0-1.1,0.1-0.6,0.9C28,3.8,26.9,7.5,26,10.8v0
		c-0.2,0.7-0.4,1.4-0.6,2c0.2,0,0.4,0,0.6,0c0.9,0,1.8,0,2.7,0c0.6,0,0.9-0.2,0.5-0.7c0.6-2.2,1.2-4.5,1.8-6.7
		C31.4,4,31.8,2.5,32.2,1z"/>
	<path id="Path_11736" class="st3" d="M58.5,13c-1.4-0.2-3.2-0.3-2.8-2.7l2.4-8.4c0-0.3-0.3-0.5,0.1-1l3,0l0.4,0.2
		c0.1,0.5-0.4,1.1-0.3,1.6h2.7L63.3,5l-2.8,0l-1.2,4.7l0.3,0.6c0.9,0.1,1.4-0.2,2.3-0.2c0,1-0.2,1.9-0.7,2.7
		C60.7,12.9,59.1,13,58.5,13L58.5,13z"/>
	<path id="Path_11737" class="st4" d="M38.8,5c-0.5,0.1-0.9,0.1-1.4,0.2c-1.3,0.2-2.3,1.1-2.9,2.2c-0.2,0.8-0.2,2,0.4,2.6
		c0.8,0.4,1.6,0.6,2.5,0.5c0.5,0,1,0,1.5-0.2l1.6-5.3C39.9,5,39.4,4.9,38.8,5z M38.8,5c-0.5,0.1-0.9,0.1-1.4,0.2
		c-1.3,0.2-2.3,1.1-2.9,2.2c-0.2,0.8-0.2,2,0.4,2.6c0.8,0.4,1.6,0.6,2.5,0.5c0.5,0,1,0,1.5-0.2l1.6-5.3C39.9,5,39.4,4.9,38.8,5z"/>
	<path id="Path_11738" class="st1" d="M43.8,2.7L39,2.6c-0.5,0-1,0.1-1.5,0.1c-3,0.4-5.3,2-6.1,3.5c-0.1,0.3-0.2,0.5-0.3,0.8V7
		c-0.5,1.2-0.5,2.6,0,3.8c0.1,0.1,0.1,0.2,0.2,0.3c1.5,1.9,4.1,1.8,6.2,1.8c0.2,0,0.4,0,0.6,0l0,0.4c-0.2,0.1-0.4,0.2-0.6,0.3v0
		c-1.7,0.5-4.7,0-6.5-0.2v0c-0.1,0-0.2,0-0.4-0.1L29.8,16c0.4,0.1,0.8,0.1,1.2,0.2v0c2.2,0.3,4.4,0.3,6.5,0v0
		c0.8-0.1,1.6-0.4,2.4-0.7c1.8-1.1,2.8-7.4,3.9-11c0.2-0.6,0.4-1.2,0.7-1.7L43.8,2.7L43.8,2.7z M38.9,10.3c-0.5,0.1-1,0.2-1.5,0.2
		c-0.9,0-1.7-0.2-2.5-0.5c-0.6-0.5-0.6-1.8-0.4-2.6c0.6-1.2,1.6-2,2.9-2.2C37.9,5.1,38.4,5,38.8,5c0.5,0,1.1,0,1.6,0.1L38.9,10.3z"
		/>
</g>
</svg>
