<svg xmlns="http://www.w3.org/2000/svg" width="63.122" height="17.183" viewBox="0 0 63.122 17.183">
  <g id="Group_12875" data-name="Group 12875" transform="translate(-685.7 -411.14)">
    <path id="Path_11843" data-name="Path 11843" d="M733.537,412.331a.957.957,0,0,0-.954-.959h-1.417a.957.957,0,0,0-.955.957h0v14.8a.956.956,0,0,0,.954.959h1.417a.955.955,0,0,0,.955-.957h0Zm1.8.394v.7a.529.529,0,0,0,.529.524h9.768a.81.81,0,0,0,.81-.81v-1.19a.78.78,0,0,0-.749-.81h-.062s-9.443.926-9.745.959a.614.614,0,0,0-.548.615m-7.909,15.374a3.835,3.835,0,0,1-3.957-3.709c0-.063,0-.124,0-.186v-5.922h-.695a.667.667,0,0,1-.669-.667v-.993a.672.672,0,0,1,.674-.669h.695V412.3a.927.927,0,0,1,.92-.932h1.386a.935.935,0,0,1,.932.937h0v3.638h2.153a.672.672,0,0,1,.674.669h0v.991a.667.667,0,0,1-.667.669h-2.156v5.478a1.677,1.677,0,0,0,1.813,1.821h.194a.729.729,0,0,1,.728.728h0v1.077a.728.728,0,0,1-.728.728h-1.3m-22.748-10.04a2.769,2.769,0,0,1,2.828,2.425H701.88a2.743,2.743,0,0,1,2.805-2.425V415.52a6.033,6.033,0,0,0-6.142,5.923c0,.13,0,.259.006.388a6.162,6.162,0,0,0,5.821,6.484c.112.006.225.009.337.008,2.6,0,5.162-1.371,5.642-3.619a.579.579,0,0,0-.443-.688.558.558,0,0,0-.123-.014H707.93a.916.916,0,0,0-.778.407,2.744,2.744,0,0,1-2.461,1.195,2.83,2.83,0,0,1-2.836-2.7h7.895a.944.944,0,0,0,1.055-1.068c0-3.158-1.869-6.311-6.116-6.311v2.529m35.981,0a2.771,2.771,0,0,1,2.827,2.425h-5.632a2.743,2.743,0,0,1,2.805-2.425V415.52a6.033,6.033,0,0,0-6.142,5.923c0,.13,0,.259.006.388a6.163,6.163,0,0,0,5.826,6.484c.111.006.221.008.332.008,2.6,0,5.158-1.371,5.642-3.619a.579.579,0,0,0-.443-.688.549.549,0,0,0-.123-.014h-1.852a.928.928,0,0,0-.778.407,2.736,2.736,0,0,1-2.461,1.195,2.842,2.842,0,0,1-2.841-2.7h7.9a.943.943,0,0,0,1.055-1.068c0-3.158-1.869-6.311-6.116-6.311v2.529" transform="translate(2.025 0)" fill="#666"/>
    <path id="Path_11844" data-name="Path 11844" d="M722.846,411.524H697.274a1.049,1.049,0,0,0-1.05,1.048v.007l.086,10.043s-5.511-9.957-5.8-10.465a1.885,1.885,0,0,0-1.651-.918h-2.1a1.055,1.055,0,0,0-1.055,1.055h0v14.731a1.054,1.054,0,0,0,1.055,1.055H688.1a1.054,1.054,0,0,0,1.055-1.055h0l-.086-10.329s5.565,10.057,5.8,10.451a1.85,1.85,0,0,0,1.651.932h1.932a1.054,1.054,0,0,0,1.055-1.055h0V414.018h23.346a.719.719,0,0,0,.719-.719v-1.063a.724.724,0,0,0-.724-.711" transform="translate(0 0.016)" fill="#666"/>
    <path id="Path_11845" data-name="Path 11845" d="M717.994,418.838h1.532a.556.556,0,0,0,.543-.548c0-1.778-2.117-3.366-5.122-3.366-3.111,0-5.146,1.478-5.146,3.836,0,1.8,1.425,2.877,3.176,3.334.8.208,2.163.548,2.823.719.714.19,1.357.408,1.357,1.018,0,.968-1.018,1.3-2.136,1.3a2.569,2.569,0,0,1-2.407-1.221c-.176-.434-.479-.5-.946-.5h-1.551a.6.6,0,0,0-.579.588v.2c0,1.719,2.307,3.524,5.492,3.524,2.258,0,5.4-.937,5.4-3.968a3.564,3.564,0,0,0-3.084-3.448l-2.931-.747c-.695-.181-1.344-.408-1.344-1,0-.909.832-1.217,1.873-1.217" transform="translate(3.76 0.597)" fill="#666"/>
  </g>
</svg>
