<svg xmlns="http://www.w3.org/2000/svg" xmlns:xlink="http://www.w3.org/1999/xlink" width="90" height="84" viewBox="0 0 90 84">
  <defs>
    <clipPath id="clip-path">
      <rect id="Rectangle_3822" data-name="Rectangle 3822" width="90" height="84" transform="translate(635.734 965.926)" fill="#fff" stroke="#707070" stroke-width="1"/>
    </clipPath>
  </defs>
  <g id="Mask_Group_252" data-name="Mask Group 252" transform="translate(-635.734 -965.926)" clip-path="url(#clip-path)">
    <g id="Group_12937" data-name="Group 12937" transform="translate(239.734 764.225)">
      <circle id="Ellipse_2915" data-name="Ellipse 2915" cx="33" cy="33" r="33" transform="translate(399 202.775)" fill="#e9eaeb"/>
      <path id="Path_11858" data-name="Path 11858" d="M450.261,228H413.041c-4.1,0-12.041,2.147-12.041,6.478V247.7a4.256,4.256,0,0,0,4.379,4.424l1.095-.045v15.326h50.355V252.083l1.095.045A4.256,4.256,0,0,0,462.3,247.7V234.478C462.3,230.147,454.36,228,450.261,228Z" transform="translate(0.189 2.367)" fill="#fff"/>
      <path id="Path_11859" data-name="Path 11859" d="M430.041,224c-4.1,0-12.041,2.236-12.041,6.568v13.226a4.148,4.148,0,0,0,4.379,4.289h1.095v19.7H436.61v-19.7H437.7a4.148,4.148,0,0,0,4.379-4.289V230.568C442.083,226.236,434.141,224,430.041,224Z" transform="translate(1.799 1.988)" fill="#2acbd2" stroke="#02022b" stroke-width="1.5"/>
      <path id="Path_11860" data-name="Path 11860" d="M437.7,248.173a4.22,4.22,0,0,0,4.379-4.379V230.568c0-4.332-7.942-6.568-12.041-6.568S418,226.236,418,230.568v13.226a4.22,4.22,0,0,0,4.379,4.379" transform="translate(1.799 1.988)" fill="none" stroke="#02022b" stroke-miterlimit="10" stroke-width="1.5"/>
      <path id="Path_11861" data-name="Path 11861" d="M429.473,222.114a5.509,5.509,0,0,0,5.473-5.585v-1.862a5.475,5.475,0,1,0-10.947,0v1.862A5.509,5.509,0,0,0,429.473,222.114Z" transform="translate(2.367 0.576)" fill="#fff" stroke="#02022b" stroke-miterlimit="10" stroke-width="1.5"/>
      <path id="Path_11862" data-name="Path 11862" d="M454.041,252.128a4.256,4.256,0,0,0,4.379-4.424V234.478c0-4.332-7.942-6.478-12.041-6.478H442" transform="translate(4.071 2.367)" fill="none" stroke="#02022b" stroke-miterlimit="10" stroke-width="1.5"/>
      <line id="Line_926" data-name="Line 926" y1="28" transform="translate(457 241.775)" fill="none" stroke="#02022b" stroke-miterlimit="10" stroke-width="1.5"/>
      <path id="Path_11863" data-name="Path 11863" d="M446.473,226.033a5.509,5.509,0,0,0,5.473-5.585v-1.863a5.475,5.475,0,1,0-10.947,0v1.863A5.509,5.509,0,0,0,446.473,226.033Z" transform="translate(3.977 0.947)" fill="#fff" stroke="#02022b" stroke-miterlimit="10" stroke-width="1.5"/>
      <path id="Path_11864" data-name="Path 11864" d="M405.379,252.128A4.256,4.256,0,0,1,401,247.7V234.478c0-4.332,7.942-6.478,12.041-6.478h4.379" transform="translate(0.189 2.367)" fill="none" stroke="#02022b" stroke-miterlimit="10" stroke-width="1.5"/>
      <line id="Line_927" data-name="Line 927" y1="28" transform="translate(407 241.775)" fill="none" stroke="#02022b" stroke-miterlimit="10" stroke-width="1.5"/>
      <path id="Path_11865" data-name="Path 11865" d="M412.473,226.033A5.509,5.509,0,0,1,407,220.448v-1.863a5.475,5.475,0,1,1,10.947,0v1.863A5.509,5.509,0,0,1,412.473,226.033Z" transform="translate(0.757 0.947)" fill="#fff" stroke="#02022b" stroke-miterlimit="10" stroke-width="1.5"/>
      <line id="Line_928" data-name="Line 928" y1="33" transform="translate(438 236.775)" fill="none" stroke="#02022b" stroke-miterlimit="10" stroke-width="1.5"/>
      <line id="Line_929" data-name="Line 929" y2="33" transform="translate(425 236.775)" fill="none" stroke="#02022b" stroke-miterlimit="10" stroke-width="1.5"/>
      <line id="Line_930" data-name="Line 930" y2="21" transform="translate(432 248.775)" fill="none" stroke="#02022b" stroke-miterlimit="10" stroke-width="1.5"/>
    </g>
  </g>
</svg>
