<svg xmlns="http://www.w3.org/2000/svg" width="80.492" height="33.726" viewBox="0 0 80.492 33.726">
  <path id="cadbury-logo" d="M80.211,18.412h-.089c-.039-.014-.127-.157-.178-.178A1.316,1.316,0,0,0,78.7,18.5a2.967,2.967,0,0,0-.579.846c-.047.074-.284.281-.312.356-.019.047.028.089,0,.134-.075.114-.238.237-.312.356-.089.142-.088.253-.178.4-.047.075-.171.146-.222.223-.1.143-.125.3-.223.445-.045.065-.335.342-.356.4s.028.089,0,.134h-.089c-.024.012-.029.152-.045.178s-.11.057-.134.089c-.131.171-.185.361-.312.534-.363.49-2.254,2.758-3.117,2.36-.27-.125-.219-.625-.178-.935a5.164,5.164,0,0,1,.4-1.514c.035-.078.148-.191.178-.267.042-.113,0-.128.045-.223l.089-.044c.024-.038.177-.312.178-.312.019-.051-.027-.086,0-.134s.113-.054.134-.089c.038-.067.168-.29.178-.312.018-.05-.028-.089,0-.134s.106-.053.134-.089c.1-.131.089-.256.178-.4.047-.081.174-.148.222-.223.057-.093.036-.171.089-.267s.214-.219.267-.312a1.765,1.765,0,0,0,.178-1.425.714.714,0,0,0-.534-.4,1.758,1.758,0,0,0-1.2.356c-.019.014-.068.125-.089.134H73c-.04.034-.045.141-.089.178A11.049,11.049,0,0,0,71.572,20.1a30.247,30.247,0,0,1-4.186,4.5c-.262.2-.9.758-1.336.356v-.089l-.089-.045a1.568,1.568,0,0,1,0-.668,5.733,5.733,0,0,1,.712-2.182c.057-.1.212-.253.267-.356s.029-.173.089-.267c.073-.118.23-.2.312-.312.043-.061.045-.163.089-.223.167-.228.43-.429.579-.668.089-.148.1-.294.178-.445.01-.019.129-.124.134-.134a.993.993,0,0,0-.267-1.2.9.9,0,0,0-.757-.178c-.052.008-.217.115-.267.134a9.27,9.27,0,0,1-1.158.356,1.6,1.6,0,0,1-.534,0,5.956,5.956,0,0,0,.534-1.247c.124-.714-.167-1.332-.668-1.425-1.419-.266-2.335,1.465-2.449,2.583-.061.594.138,1.219-.044,1.648-.007.012-.083.033-.089.045-.049.074-.006.138-.045.223-.067.139-.235.309-.312.445-.028.046.018.082,0,.134-.011.027-.116.058-.134.089-.091.143-.089.256-.178.4-.032.05-.1.037-.134.089-.11.163-.152.331-.267.49-.227.306-.5.632-.757.935-.083.1-.239.161-.312.267-.005.006-.04.131-.044.134h-.089c-.1.118-.409.579-.534.623h-.089V24.2s-.686.479-.712.49a1.416,1.416,0,0,1-.8,0c-.242-.113-.274-.417-.312-.757-.027.04-.027-.093,0-.134.073-.122.264-.238.356-.356.039-.053.049-.127.089-.178s.1-.095.134-.134c.046-.056.086-.117.134-.178s.085-.12.134-.178c.164-.2.38-.37.534-.579.554-.753,1.844-2.856,1.425-4.186a.8.8,0,0,0-.534-.623c-1.892-.4-3.484,3.089-3.874,4.453-.142.492-.132.979-.312,1.469s-1.6,2.154-2.449,1.6c-.255-.166-.258-.555-.223-.891a6.789,6.789,0,0,1,1.2-2.983c.124-.216.182-.412.312-.623.167-.278.445-.536.623-.8.049-.075.036-.153.089-.223.036-.05.139-.088.178-.134a4.468,4.468,0,0,0,.579-.891,1.407,1.407,0,0,0-.045-1.024,1.383,1.383,0,0,0-1.648-.312,2.676,2.676,0,0,0-.668.712c-.174.2-.4.331-.579.534A8.37,8.37,0,0,1,52.336,19.3a5.78,5.78,0,0,1-2.271,1.069c-.124-1.574-.273-2.895-1.247-3.607a1.891,1.891,0,0,0-.8-.4,2.8,2.8,0,0,0-.935.044c-.053.01-.31.136-.356.134-.081-.007-.054-.083-.134-.089.177-.582.356-1.133.579-1.692.037-.1.246-.413.267-.49.013-.049-.022-.134,0-.178,0-.011.081-.032.089-.045a2.612,2.612,0,0,0,.134-.356h.089c.078-.145.057-.266.134-.4s.236-.273.312-.4c.027-.047-.019-.085,0-.134.043-.113.239-.256.312-.356.094-.134.124-.274.222-.4.047-.064.217-.166.267-.223v-.089c.054-.161.434-.285.49-.445v-.089c.043-.043.138-.046.178-.089.079-.092.1-.22.178-.312a5.623,5.623,0,0,0,.49-.534c.037-.063.005-.116.044-.178a2.32,2.32,0,0,0,.223-.312A1.183,1.183,0,0,0,50.154,8.3c-.971-.462-1.883.522-2.271.98-.073.083-.245.18-.312.267a5.131,5.131,0,0,1-.445.668,3.543,3.543,0,0,1-1.291.623,8.212,8.212,0,0,1-3.384.089A5.622,5.622,0,0,1,40.669,10c-.4-.335-.678-.775-1.069-1.113V8.794l-.356-.222a1.323,1.323,0,0,0-.757,0,1.709,1.709,0,0,0-.134.134c-.049.018-.09-.029-.134,0s-.085.16-.134.178H38a1.359,1.359,0,0,0-.356,1.247,2.592,2.592,0,0,0,.223.4c.2.427.41.806.623,1.2.046.088,0,.124.045.222s.179.216.223.312a8.344,8.344,0,0,1,.757,3.7,8.471,8.471,0,0,0-5.121,4.943c-.081.189-.241.426-.312.623a7,7,0,0,0-.267,1.158c-.018.086-.12.306-.134.4-.04.246.011.405-.089.579l-.312.356h-.089v.089c-.024.067-.21.127-.267.178-.134.116-.217.292-.356.4a2.483,2.483,0,0,1-1.826.534,1.226,1.226,0,0,1-.891-.98c-.562-1.933.206-4.24.668-5.744.118-.39.145-.682.267-1.069l.089-.089a11.45,11.45,0,0,0,.4-1.648,1.757,1.757,0,0,0-.534-1.514,2.284,2.284,0,0,0-1.469-.223,4.782,4.782,0,0,0-2.538,1.113c-.164.12-.337.181-.49.312v.089a1.637,1.637,0,0,0-.312.267c-.116.1-.242.125-.356.223-.088.072-.207.319-.312.356h-.089c-.036.032-.057.14-.089.178H25c-.015.008-.167.292-.223.312h-.089V16.9c-.038.106-.282.223-.356.312V17.3c-.038.1-.369.345-.445.445-.177.228-.278.476-.445.712-.125.175-.328.353-.445.534-.033.049-.017.124-.045.178s-.143.121-.178.178c-.1.161-.127.321-.223.49-.171.294-.417.628-.579.935a7.047,7.047,0,0,0-.356.712c-.006.019.012.116,0,.134h-.089c-.058.019-.164.183-.223.223-.135.088-.256.093-.4.178s-.292.271-.445.356c-.022.011-.11-.007-.134,0-.11.026-.289.21-.4.267-.248.122-.466.188-.712.312a2.691,2.691,0,0,1-.356.223c-.038.008-.1-.018-.134,0s-.1.116-.134.134A25.3,25.3,0,0,1,15.6,24.424a14.523,14.523,0,0,1-6.724.267,8.009,8.009,0,0,1-2.761-1.425c-.184-.155-.319-.37-.49-.534a4.27,4.27,0,0,1-.4-.356c-.068-.085-.071-.18-.134-.267a7.886,7.886,0,0,1-.49-.623,7.948,7.948,0,0,1-.757-4.675,11.322,11.322,0,0,1,.8-3.251,11.768,11.768,0,0,1,.712-1.781l.089-.044c.077-.12.065-.234.134-.356.075-.138.234-.267.312-.4A15.879,15.879,0,0,1,9.5,6.656c.111-.1.2-.262.312-.356.095-.081.216-.1.312-.178.078-.067.139-.207.223-.267s.152-.035.223-.089.11-.17.178-.223c.111-.09.235-.093.356-.178.06-.045.072-.135.134-.178.27-.2.553-.313.846-.49.175-.107.355-.3.534-.4.046-.028.082.018.134,0l.045-.089c.091-.06.17-.038.267-.089.072-.039.193-.185.267-.223.168-.088.334-.078.49-.178.013-.008.033-.085.045-.089s.109.005.134,0c.11-.028.248-.182.356-.223s.161-.006.267-.045.276-.18.4-.223c.049-.018.127.012.178,0,.134-.037.353-.178.49-.223.387-.129.682-.165,1.113-.267.384-.092.889-.282,1.291-.356a14.431,14.431,0,0,1,3.785-.178,8.878,8.878,0,0,1,2.672.534c.083.035.184.141.267.178.155.068.266.046.4.134l.045.089c.081.04.143-.006.223.045.16.1.26.252.445.356V3.54a2.673,2.673,0,0,1,.267.178,4.986,4.986,0,0,1,1.158,3.3A5.776,5.776,0,0,1,27.044,8.3a9.779,9.779,0,0,1-1.6,3.3c-.138.178-.346.319-.49.49v.089c-.053.152-.394.248-.445.4v.089h-.089a7.566,7.566,0,0,1-.668.668c-.068.049-.156.039-.223.089-.213.156-.4.394-.623.534-.046.028-.135.014-.178.045-.064.043-.15.194-.223.223-.05.018-.088-.028-.134,0s-.056.111-.089.134c-.2.122-.4.253-.579.356a16.541,16.541,0,0,1-3.384,1.425,16.232,16.232,0,0,1-1.737.312,5.561,5.561,0,0,1-3.874-.534,3.506,3.506,0,0,1-1.38-3.473c.386-3.343,3.874-5.57,6.813-6.412.224-.065.342-.034.579-.089a15.043,15.043,0,0,1,1.692-.356,5.248,5.248,0,0,0,1.336-.178.866.866,0,0,0,.267-1.2c-.263-.377-1.241-.265-1.781-.223a15.892,15.892,0,0,0-2.048.223c-.2.039-.477.17-.668.222a15.4,15.4,0,0,0-1.6.49c-.026.01-.019.078-.045.089-.139.058-.221.028-.356.089-.075.033-.16.146-.223.178-.3.15-.561.2-.846.356-.138.075-.309.235-.445.312-.12.065-.241.064-.356.134-.047.027-.045.1-.089.134-.16.1-.282.13-.445.223v.089a10.74,10.74,0,0,0-4.1,4.987c-.079.209-.243.486-.312.712a7.061,7.061,0,0,0,0,4.186,5.237,5.237,0,0,0,.356.712c.024.039.106.049.134.089a4.775,4.775,0,0,0,3.74,2.182,11.977,11.977,0,0,0,4.854-.445c.434-.125.889-.319,1.336-.49l.045-.089c.158-.064.253-.028.4-.089s.3-.2.445-.267c.036-.018.1.008.134,0a3.431,3.431,0,0,0,.445-.267c.362-.182.675-.3,1.024-.49.072-.04.193-.183.267-.222A19.21,19.21,0,0,0,23.7,15.919c.191-.136.345-.352.534-.49.067-.05.156-.038.223-.089.051-.042.042-.135.089-.178.068-.065.273-.153.356-.223.264-.224.466-.515.712-.757.2-.195.445-.369.623-.579.155-.183.249-.392.4-.579.081-.1.238-.2.312-.312.049-.075.036-.153.089-.223.032-.046.145-.089.178-.134A13.253,13.253,0,0,0,29,8.929a8.359,8.359,0,0,0-.089-4.809,7.121,7.121,0,0,0-.445-.891c-.029-.046-.106-.045-.134-.089s-.006-.122-.045-.178-.142-.089-.178-.134c-.1-.12-.227-.362-.312-.445a5.059,5.059,0,0,0-.445-.312c-1.641-1.318-3.32-1.8-6.056-2A14.37,14.37,0,0,0,19.341.023a24.612,24.612,0,0,0-3.3.445c-.257.053-.6.216-.846.267-.072.014-.152-.019-.223,0l-.089.089c-.148.037-.213,0-.356.045-.035.01-.18.118-.223.134-.263.085-.463.088-.712.178-.514.185-1.071.47-1.559.668A18.126,18.126,0,0,0,5.269,6.434c-.053.056-.168.078-.223.134v.089a2.527,2.527,0,0,0-.623.668c-.171.2-.408.374-.579.579s-.278.448-.445.668c-.037.049-.143.085-.178.134-.056.075-.038.145-.089.223-.086.129-.273.271-.356.4-.2.3-.3.589-.49.891l-.089.044A15.846,15.846,0,0,0,.059,19.481,8.1,8.1,0,0,0,3.176,25.67c.089.066.175.2.267.267.043.029.132.015.178.045s.043.1.089.134A12,12,0,0,0,5,26.739c.027.012.1.118.134.134a13.349,13.349,0,0,0,5.7.891c.423-.029.943-.154,1.336-.223a23.324,23.324,0,0,0,5.21-1.558c.109-.047.249-.175.356-.223.3-.134.544-.177.846-.312a25.326,25.326,0,0,0,2.316-1.2c.015.081.017.024.089.045a6.733,6.733,0,0,0,.267,2.627c0,.014.082.033.089.045.057.109.058.218.134.312.051.065.163.079.223.134V27.5a4.6,4.6,0,0,0,.445.267c1.678.557,3.3-1.218,3.963-2.048q.235-.3.445-.623c.07-.112.1-.326.178-.4.012-.014.125-.033.134-.045a5.181,5.181,0,0,0,.49,1.2c.067.125.054.235.134.356.029.046.142.09.178.134.075.093.1.223.178.312.032.035.09.012.134.045s.019.111.045.134c.093.081.213.191.312.267a3.452,3.452,0,0,0,3.117.356,11.991,11.991,0,0,0,2.226-1.425c.651,1.93,2.476,2.449,4.141,1.113a6.46,6.46,0,0,0,1.247-1.559c.2-.314.484-.65.668-.979a18,18,0,0,0,1.959-6.857,26.425,26.425,0,0,0,.045-3.562c-.019-.263-.089-.554-.089-.891a12.038,12.038,0,0,0,2.36.134c.466-.036.939-.125,1.425-.178-.017.068.061.031.045.134-.007.034-.121.146-.134.178-.088.2-.092.332-.178.534-.011.025-.124.152-.134.178-.2.5-.3.942-.49,1.469-.024.067-.156.243-.178.312-.043.121-.006.177-.045.312-.1.324-.306.735-.4,1.069-.74,2.58-2.079,8.27.312,9.975.032.022.054.114.089.134s.082-.021.134,0c.079.031.219.188.312.223a2.43,2.43,0,0,0,1.826-.134,5.417,5.417,0,0,0,2.048-2.449,3.594,3.594,0,0,0,.312-.534c.008-.037-.018-.1,0-.134.063-.142.212-.337.267-.49.11-.306.23-.578.312-.846.04-.136.021-.358.089-.445l.045-.045a10.633,10.633,0,0,0,1.158-.445,5.671,5.671,0,0,1,.49-.312H51.4c.175.018-.05.477-.089.579a6.542,6.542,0,0,0-.445,3.919,2.159,2.159,0,0,0,.312.445c.028.043-.019.085,0,.134h.045c.083.042.111.2.178.267,1.348,1.258,3.658-.537,4.453-1.291a2.909,2.909,0,0,0,.891,1.291c.042.031.043.106.089.134a2.26,2.26,0,0,0,.713.223,2.592,2.592,0,0,0,1.247-.178,4.34,4.34,0,0,0,.935-.712h.089c.113-.04.267-.314.356-.4a11.759,11.759,0,0,0,1.6-1.959c.124-.191.34-.378.445-.579.027-.053.012-.127.045-.178.057-.1.21-.216.267-.312s.034-.173.089-.267c.122-.213.324-.408.445-.623a7.122,7.122,0,0,1,.891-1.514v-.045a2.733,2.733,0,0,1,.49,0c.206-.027.544-.264.8-.178.051.017.027.109.045.178a1.014,1.014,0,0,1,.178.045c.132-.078-.058.075-.089.089-.141.058-.214.012-.312.089a4.389,4.389,0,0,0-.49.935c-.668,1.333-1.67,3.738-.445,5.21a1.16,1.16,0,0,0,.846.4,2.467,2.467,0,0,0,.846,0,2.823,2.823,0,0,0,.712-.312l.044-.089c.1-.056.166-.036.267-.089a5.8,5.8,0,0,0,.668-.534c.3-.234.615-.411.891-.668.013-.014.152-.245.178-.267h.089c.039-.014.47-.468.534-.534s.128-.226.178-.267.1-.007.134-.045a5.169,5.169,0,0,1,.757-.8,7.208,7.208,0,0,0-.134,1.87c.018.185.15.476.178.623.008.047-.019.132,0,.178s.109.1.134.134c.049.074.036.152.089.223.078.107.2.141.312.223a1.735,1.735,0,0,0,.356.267,2.9,2.9,0,0,0,1.915-.312,4.125,4.125,0,0,0,.49-.4c.124-.1.276-.125.4-.222v-.089a4.559,4.559,0,0,0,.668-.49c.132-.113.264-.238.4-.356.028-.027.006-.111.045-.134.077-.047.136,0,.223-.044a13.159,13.159,0,0,1-.579,1.2,4.631,4.631,0,0,1-.178.445l-.089.044c-.085.15-.085.3-.178.445l-.089.045c-.027.047.019.082,0,.134-.006.012-.084.035-.089.045-.095.145-.095.294-.178.445s-.235.3-.312.445c-.264.476-.431.921-.668,1.425-.174.366-.682,1.055-.579,1.648a3.09,3.09,0,0,0,.712,1.158,5.386,5.386,0,0,0,.579.757.75.75,0,0,1,.178-.089,15.449,15.449,0,0,1,.846-2.093c.159-.358.24-.666.4-1.024.1-.225.285-.462.4-.668s.153-.417.267-.623c.017-.032.12-.107.134-.134.042-.093,0-.139.045-.223l.089-.045c.161-.25.314-.6.445-.846.039-.075.006-.141.044-.223l.089-.045c.219-.339.3-.711.49-1.069a3.631,3.631,0,0,0,.356-.579c.005-.025-.013-.111,0-.134s.081-.032.089-.044c.18-.28.241-.6.4-.891.109-.2.3-.42.4-.623.115-.235.149-.447.267-.668.045-.088.2-.224.223-.312.008-.036-.019-.1,0-.134s.114-.1.134-.134a5.676,5.676,0,0,0,.356-.712c.008-.036-.018-.1,0-.134.005-.014.082-.035.089-.045.081-.127.164-.33.223-.445.082-.167.09-.32.178-.49l.089-.044a6.738,6.738,0,0,0,.4-.891,2.315,2.315,0,0,0-.133-1.959ZM28.78,17.3a10.13,10.13,0,0,1-.846,1.959c-.287.6-.53,1.165-.846,1.737q-.151.27-.312.534c-.022.034-.116.053-.134.089-.045.083,0,.142-.045.223-.085.149-.268.3-.356.445s-.086.255-.178.4c-.149.232-.38.438-.534.668-.029.042.018.085,0,.134s-.148.095-.178.134c-.136.166-.218.37-.356.534-.082.1-.239.163-.312.267-.01.012-.033.122-.045.134a.8.8,0,0,1-.623.178c-.047-.013-.1-.095-.134-.134-.416-.55-.015-1.532.134-2.048a10.438,10.438,0,0,1,3.3-5.477,2,2,0,0,1,.935-.579c.562-.058.623.4.534.8Zm9.707,5.165a7.468,7.468,0,0,1-.356.846c-.213.381-1.364,2.143-1.959,1.425a2.284,2.284,0,0,1-.178-1.6,5.978,5.978,0,0,1,2.137-4.008c.063-.054.111-.175.178-.223a4.327,4.327,0,0,1,.579-.267,3.392,3.392,0,0,1,.49-.267c.011.038.085.028.134.045A10.121,10.121,0,0,1,38.488,22.464Zm7.748,2.4a.925.925,0,0,1-.712-.134v-.089c-.014-.04-.155-.132-.178-.178a2.26,2.26,0,0,1-.178-.8,7.7,7.7,0,0,1,.49-3.74,2.857,2.857,0,0,1,.178-.49c.024-.04.107-.05.134-.089.2-.3.4-.669.846-.712a1.282,1.282,0,0,1,.712.223c.021.019-.012.1,0,.134.005.014.121.107.134.134a1.816,1.816,0,0,1,.045.49c.014.143.089.516.089.668C47.787,21.545,47.081,24.668,46.235,24.869Z" transform="translate(-0.001 -0.004)" fill="#313c93"/>
</svg>
