<svg xmlns="http://www.w3.org/2000/svg" width="78.507" height="17.314" viewBox="0 0 78.507 17.314">
  <g id="Group_12947" data-name="Group 12947" transform="translate(-1111.106 -3792.151)">
    <path id="Path_11732" data-name="Path 11732" d="M150.814,26.944Zm-42.578-8.4a.045.045,0,0,1-.042-.042c-1.642-2.063-4.63-2.147-6.946-2.105a.16.16,0,0,1-.084.021A8.064,8.064,0,0,0,95.271,19.2a3.259,3.259,0,0,0-.421.673,5.563,5.563,0,0,0,.105,5.893,1.908,1.908,0,0,0,.316.4c1.158,1.2,3.22,1.347,4.715,1.431a7.284,7.284,0,0,0,1.179,0c2.694-.253,5.788-1.747,6.609-3.62q.218-.5.421-1.011C108.826,21.325,109.036,20.02,108.236,18.546Zm-7.072,6.293a4.986,4.986,0,0,1-.968.021c-2.926-.189-3.683-3.073-1.263-4.883a4.786,4.786,0,0,1,2.231-.926c1.789-.273,3.452.547,3.641,1.894C105.016,22.65,103.521,24.545,101.164,24.84Zm57.859-6.967c-1.242-1.558-3.557-1.894-5.283-1.789-.19.021-.358.021-.526.042a7.521,7.521,0,0,0-5.767,3.578c-.084.147-.168.294-.231.421-.61,1.726-1.137,3.747.042,5.22a.8.8,0,0,0,.189.274c1.284,1.579,3.936,1.768,5.641,1.768h.126a19.771,19.771,0,0,0,3.742-.441c.255-.526.828-2.294.509-2.715-1.641.125-2.844.416-4.251.4a7.949,7.949,0,0,1-1.536-.126c-1.074-.547-1.663-1.157-1.389-2l2.926-.042,5.115-.127C159.633,22.44,159.444,18.778,159.023,17.873Zm-3.41,2.336-2.4.021-2.4.021a4.163,4.163,0,0,1,2.4-1.558,3.608,3.608,0,0,1,1.642-.021A1.5,1.5,0,0,1,155.613,20.209Zm-15.89-2.161V18a1.548,1.548,0,0,0-.779-.674,15.87,15.87,0,0,0-6.167-.842c-1.094.042-2.168.148-3.241.253a4.747,4.747,0,0,0-.568,2.5c1.263-.105,2.547-.316,3.81-.358a7.529,7.529,0,0,1,3.473.589c0,.421.168.653-.232.863-1.073-.063-2.168-.169-3.241-.19a7.435,7.435,0,0,0-5.261,1.494,7.75,7.75,0,0,0-.548.674,3.684,3.684,0,0,0-.407,3.7,2.09,2.09,0,0,0,.407.421,5.507,5.507,0,0,0,2.968.947c.842.063,1.852.084,2.842.105,1.431.021,2.862,0,3.831,0,1.242.105,1.2-.695,1.263-.695l1.852-6.63v-.08l.177-.594A2.545,2.545,0,0,0,139.723,18.048Zm-4.778,6.792a6.111,6.111,0,0,1-2.168.063,13.46,13.46,0,0,0-1.558-.021c-.611-.042-1.242-.337-1.115-1.074s.758-.842,1.473-1.115l1.2.021,2.694.021-.526,2.1Z" transform="translate(1030.275 3778.344)" fill="#13649f"/>
    <path id="Path_11733" data-name="Path 11733" d="M14.44.235A24.559,24.559,0,0,0,6.106.488,8.642,8.642,0,0,0,.423,5.434,6.033,6.033,0,0,0,.97,10.948C2.423,13.137,5.58,13.6,7.916,13.684l4.125-.252a8.44,8.44,0,0,0,.715-3.3,14.781,14.781,0,0,1-6.293.294c-.884-.211-1.873-.673-1.936-1.494-.547-1.368.147-2.821.947-4.041,2.273-2.61,6.02-1.768,8.966-1.136a.626.626,0,0,0,.211.042L15.64.572a4.466,4.466,0,0,0-1.2-.337Z" transform="translate(1111.105 3792.152)" fill="#13649f"/>
    <path id="Path_11735" data-name="Path 11735" d="M197.474,7.534h-1.242c-.737,0-1.473-.021-1.957-.021-1.01,0-1.179.147-.673.947-.543,2.005-1.625,5.938-2.629,9.413v-.01c-.219.721-.442,1.456-.617,2.112.19,0,.374.009.594.018.947,0,1.915.021,2.862.021.59,0,.989-.253.505-.736.61-2.358,1.263-4.715,1.915-7.072C196.653,10.67,197.053,9.112,197.474,7.534Z" transform="translate(947.52 3785.695)" fill="#13649f"/>
    <path id="Path_11736" data-name="Path 11736" d="M420.271,19.2c-1.431-.21-3.367-.274-2.925-2.862l2.484-8.819c.021-.337-.295-.505.063-1.031l3.2-.021.4.211c.147.569-.442,1.116-.274,1.726H426.1l-.758,2.441-2.989-.021-1.3,4.988.358.61c.926.147,1.494-.253,2.442-.168a5.45,5.45,0,0,1-.779,2.862c-.547,0-2.168.084-2.8.084Z" transform="translate(752.504 3786.597)" fill="#13649f" stroke="#fff" stroke-miterlimit="2.613" stroke-width="0.359"/>
    <path id="Path_11737" data-name="Path 11737" d="M262.717,37.116a12.852,12.852,0,0,0-1.452.253,4.331,4.331,0,0,0-3.052,2.336c-.168.821-.252,2.147.421,2.694a5.421,5.421,0,0,0,2.631.568,4.635,4.635,0,0,0,1.536-.189l1.642-5.535A6.509,6.509,0,0,0,262.717,37.116Zm0,0a12.852,12.852,0,0,0-1.452.253,4.331,4.331,0,0,0-3.052,2.336c-.168.821-.252,2.147.421,2.694a5.421,5.421,0,0,0,2.631.568,4.635,4.635,0,0,0,1.536-.189l1.642-5.535A6.509,6.509,0,0,0,262.717,37.116Z" transform="translate(889.307 3760.259)" fill="none" stroke="#fff" stroke-width="1"/>
    <path id="Path_11738" data-name="Path 11738" d="M238.049,19.761l-5.093-.126q-.821.031-1.578.126c-3.2.442-5.577,2.147-6.4,3.725a6.937,6.937,0,0,0-.339.865v-.065a5.672,5.672,0,0,0,0,3.971,1.7,1.7,0,0,0,.212.323c1.621,2.021,4.357,1.915,6.525,1.894.189,0,.4-.021.61-.021l-.021.42a2.553,2.553,0,0,1-.589.3v.007c-1.759.558-4.931.039-6.819-.192v.007q-.188-.024-.375-.055l-.867,2.8c.4.08.821.122,1.242.18v.023a24.107,24.107,0,0,0,6.89,0v-.028a11.929,11.929,0,0,0,2.54-.744c1.915-1.179,2.9-7.83,4.062-11.576a10.268,10.268,0,0,1,.716-1.831h-.716Zm-5.135,8a4.634,4.634,0,0,1-1.536.189,5.421,5.421,0,0,1-2.631-.568c-.673-.547-.589-1.873-.421-2.694a4.33,4.33,0,0,1,3.052-2.336,12.86,12.86,0,0,1,1.452-.253,6.513,6.513,0,0,1,1.726.126Z" transform="translate(919.193 3775.278)" fill="#13649f"/>
  </g>
</svg>
