<?xml version="1.0" encoding="utf-8"?>
<!-- Generator: Adobe Illustrator 25.3.1, SVG Export Plug-In . SVG Version: 6.00 Build 0)  -->
<svg version="1.1" id="Layer_1" xmlns="http://www.w3.org/2000/svg" xmlns:xlink="http://www.w3.org/1999/xlink" x="0px" y="0px"
	 viewBox="0 0 89.1 94.2" style="enable-background:new 0 0 89.1 94.2;" xml:space="preserve">
<style type="text/css">
	.st0{fill:#E9EAEB;}
	.st1{fill:#48BCC8;}
	.st2{fill:none;stroke:#010202;stroke-width:2;stroke-miterlimit:10;}
	.st3{fill:#FFFFFF;stroke:#010202;stroke-width:2;stroke-miterlimit:10;}
</style>
<g id="Group_12839" transform="translate(-390.609 -402.609)">
	<circle id="Ellipse_2906" class="st0" cx="436.6" cy="456" r="39.8"/>
	<path id="Path_11809" class="st1" d="M473.5,445.2h-15.9V464c0,2.4-1.9,4.3-4.3,4.3c0,0,0,0,0,0h-24.6v8.7c0,2.4,1.9,4.3,4.3,4.3
		c0,0,0,0,0,0h26.2l7.4,11c0.4,0.7,1.3,0.8,2,0.4c0.4-0.3,0.6-0.7,0.6-1.2v-10.2h4.3c2.4,0,4.3-1.9,4.3-4.3c0,0,0,0,0,0v-27.5
		C477.9,447.1,476,445.2,473.5,445.2C473.5,445.2,473.5,445.2,473.5,445.2z"/>
	<path id="Path_11810" class="st2" d="M459.1,445.2h14.5c2.4,0,4.3,1.9,4.3,4.3c0,0,0,0,0,0V477c0,2.4-1.9,4.3-4.3,4.3c0,0,0,0,0,0
		h-4.3v10.2c0,0.8-0.6,1.4-1.4,1.4c-0.5,0-0.9-0.2-1.2-0.6l-7.4-11H433c-2.4,0-4.3-1.9-4.3-4.3c0,0,0,0,0,0v-8.7"/>
	<path id="Path_11811" class="st3" d="M392.5,430.7V464c0,2.4,1.9,4.3,4.3,4.3c0,0,0,0,0,0h5.8V484c0,0.8,0.6,1.4,1.4,1.4
		c0.4,0,0.8-0.2,1.1-0.5l13.7-16.6h34.4c2.4,0,4.3-1.9,4.3-4.3c0,0,0,0,0,0v-33.3c0-2.4-1.9-4.3-4.3-4.3c0,0,0,0,0,0h-56.5
		C394.4,426.4,392.5,428.3,392.5,430.7C392.5,430.7,392.5,430.7,392.5,430.7z"/>
	<path id="Path_11812" class="st2" d="M453.3,445.2H433c-2.4,0-4.3,1.9-4.3,4.3c0,0,0,0,0,0V464"/>
</g>
</svg>
