<?xml version="1.0" encoding="utf-8"?>
<!-- Generator: Adobe Illustrator 25.3.1, SVG Export Plug-In . SVG Version: 6.00 Build 0)  -->
<svg version="1.1" id="Layer_1" xmlns="http://www.w3.org/2000/svg" xmlns:xlink="http://www.w3.org/1999/xlink" x="0px" y="0px"
	 viewBox="0 0 89.1 94.2" style="enable-background:new 0 0 89.1 94.2;" xml:space="preserve">
<style type="text/css">
	.st0{fill:#E9EAEB;}
	.st1{fill:#FFFFFF;stroke:#010202;stroke-width:2;stroke-miterlimit:10;}
	.st2{fill:none;stroke:#010202;stroke-width:2;stroke-miterlimit:10;}
	.st3{fill:#48BCC8;stroke:#010202;stroke-width:2;stroke-miterlimit:10;}
	.st4{fill:none;stroke:#2A5083;stroke-width:2;stroke-miterlimit:10;}
</style>
<g id="Group_12835" transform="translate(-290 -98.972)">
	<path id="Path_11789" class="st0" d="M304.7,138.5v38c0,2.5,2,4.6,4.6,4.6c0,0,0,0,0,0h45.6l15.2,12.2v-12.2h4.6
		c2.5,0,4.6-2,4.6-4.6c0,0,0,0,0,0v-38c0-2.5-2-4.6-4.6-4.6c0,0,0,0,0,0h-65.3C306.7,133.9,304.7,136,304.7,138.5
		C304.7,138.5,304.7,138.5,304.7,138.5z"/>
	<path id="Rectangle_3745" class="st1" d="M301.4,120.1h67.1c1.7,0,3,1.3,3,3v42.7c0,1.7-1.3,3-3,3h-67.1c-1.7,0-3-1.3-3-3v-42.7
		C298.4,121.5,299.8,120.1,301.4,120.1z"/>
	<line id="Line_889" class="st2" x1="312.6" y1="106" x2="312.4" y2="99"/>
	<line id="Line_890" class="st2" x1="304.1" y1="108.3" x2="300.5" y2="102.2"/>
	<line id="Line_891" class="st2" x1="297.9" y1="114.5" x2="291.8" y2="110.9"/>
	<line id="Line_892" class="st2" x1="321.1" y1="108.3" x2="324.3" y2="102.2"/>
	<line id="Line_893" class="st2" x1="327.3" y1="114.5" x2="333" y2="110.9"/>
	<rect id="Rectangle_3746" x="330.3" y="127.6" class="st3" width="27.8" height="9.5"/>
	<path id="Rectangle_3747" class="st3" d="M307.5,114h10.9c1.7,0,3,1.3,3,3v42.7c0,1.7-1.3,3-3,3h-10.9c-1.7,0-3-1.3-3-3V117
		C304.5,115.4,305.9,114,307.5,114z"/>
	<line id="Line_894" class="st2" x1="332.3" y1="144.5" x2="338.4" y2="144.5"/>
	<line id="Line_895" class="st2" x1="341.1" y1="144.5" x2="347.2" y2="144.5"/>
	<line id="Line_896" class="st2" x1="350.6" y1="144.5" x2="356.7" y2="144.5"/>
	<line id="Line_897" class="st4" x1="332.3" y1="150.6" x2="338.4" y2="150.6"/>
	<line id="Line_898" class="st4" x1="341.1" y1="150.6" x2="347.2" y2="150.6"/>
	<line id="Line_899" class="st2" x1="350.6" y1="150.6" x2="356.7" y2="150.6"/>
	<line id="Line_900" class="st2" x1="332.3" y1="156.7" x2="338.4" y2="156.7"/>
	<line id="Line_901" class="st2" x1="341.1" y1="156.7" x2="347.2" y2="156.7"/>
	<line id="Line_902" class="st2" x1="350.6" y1="156.7" x2="356.7" y2="156.7"/>
	<path id="Path_11790" class="st2" d="M312.3,162.8v13.7c0,2.5-2,4.6-4.6,4.6c0,0,0,0,0,0h-12.2c-2.5,0-4.6-2-4.6-4.6c0,0,0,0,0,0
		v-18.2c0-2.5,2-4.6,4.6-4.6c0,0,0,0,0,0h3"/>
</g>
</svg>
