<?xml version="1.0" encoding="utf-8"?>
<!-- Generator: Adobe Illustrator 25.3.1, SVG Export Plug-In . SVG Version: 6.00 Build 0)  -->
<svg version="1.1" id="Layer_1" xmlns="http://www.w3.org/2000/svg" xmlns:xlink="http://www.w3.org/1999/xlink" x="0px" y="0px"
	 viewBox="0 0 89.1 94.2" style="enable-background:new 0 0 89.1 94.2;" xml:space="preserve">
<style type="text/css">
	.st0{fill:none;stroke:#BCC0C4;stroke-width:2;stroke-miterlimit:10;}
	.st1{fill:#E9EAEB;stroke:#010202;}
	.st2{fill:#E9EAEB;}
	.st3{fill:none;stroke:#010202;stroke-width:2;stroke-miterlimit:10;}
	.st4{fill:#48BCC8;stroke:#010202;stroke-width:2;stroke-miterlimit:10;}
	.st5{fill:#FFFFFF;stroke:#010202;stroke-width:2;stroke-miterlimit:10;}
</style>
<g id="Group_12836" transform="translate(-178.767 -204.826)">
	<path id="Path_11791" class="st0" d="M193.8,226.7c1-1.2,2-2.4,3.1-3.5"/>
	<path id="Path_11792" class="st0" d="M189.9,232.8c0.7-1.3,1.4-2.5,2.2-3.7"/>
	<path id="Path_11793" class="st0" d="M187.4,238.9c0.4-1.2,0.8-2.5,1.4-3.7"/>
	<path id="Path_11794" class="st0" d="M191,270.3c-5.1-8.7-6.7-19.1-4.3-29"/>
	<path id="Path_11795" class="st0" d="M192.7,242.6c0.3-1.2,0.8-2.5,1.3-3.7"/>
	<path id="Path_11796" class="st0" d="M194.5,264.6c-2.8-6.1-3.6-12.9-2.4-19.5"/>
	<path id="Path_11797" class="st0" d="M260.8,259.5c-0.4,1.5-0.9,3-1.5,4.5"/>
	<path id="Path_11798" class="st0" d="M262,252.3c-0.1,1.4-0.3,2.8-0.5,4.2"/>
	<path id="Path_11799" class="st0" d="M262,245.7c0.1,1.3,0.2,2.6,0.2,3.9"/>
	<path id="Path_11800" class="st0" d="M246.3,218.2c8.2,6,13.7,14.9,15.3,24.9"/>
	<path id="Path_11801" class="st0" d="M255.6,244.4c0.2,1.3,0.3,2.6,0.3,3.9"/>
	<path id="Path_11802" class="st0" d="M245.3,224.6c5,4.5,8.4,10.5,9.9,17"/>
	<path id="Path_11803" class="st1" d="M214,289.1l11.6,8.4l41.3-17.7l-11.8-8.6"/>
	<path id="Path_11804" class="st2" d="M234.4,269l-13.3-7.7L179.8,279l13.5,7.8"/>
	<path id="Path_11805" class="st2" d="M223.3,225.4c-14.3,0-25.9,11.6-25.9,25.9c0,6.4,2.3,12.5,6.6,17.3l17-7.3l13.3,7.7l7.2,0.8
		c10.2-10.1,10.3-26.5,0.2-36.7C236.9,228.2,230.2,225.4,223.3,225.4L223.3,225.4z"/>
	<path id="Path_11806" class="st3" d="M255.1,271.2l-20.7-2.2l-13.3-7.7L179.8,279l13.5,7.8L214,289l11.6,8.4l41.3-17.7L255.1,271.2
		z"/>
	<path id="Path_11807" class="st4" d="M224.1,279.5c0.5-13.7,13.6-17.1,13.6-28.3c-0.1-8-6.5-14.4-14.5-14.3
		c-8,0.1-14.4,6.5-14.3,14.5c0,0.3,0,0.6,0,0.8c0.8,10.4,13.1,14,13.6,27.3"/>
	<path id="Path_11808" class="st5" d="M227.7,251.3c0,2.4-2,4.4-4.4,4.4s-4.4-2-4.4-4.4c0-2.4,2-4.4,4.4-4.4c0,0,0,0,0,0
		C225.7,247,227.7,248.9,227.7,251.3z"/>
	<line id="Line_903" class="st3" x1="193.3" y1="286.8" x2="217.8" y2="276"/>
	<line id="Line_904" class="st3" x1="254.7" y1="271" x2="227" y2="283.5"/>
</g>
</svg>
