<svg xmlns="http://www.w3.org/2000/svg" width="159.595" height="62.265" viewBox="0 0 159.595 62.265">
  <g id="Group_12966" data-name="Group 12966" transform="translate(-448.344 -2379.808)">
    <g id="Group_12694" data-name="Group 12694" transform="translate(449.051 2380.515)">
      <line id="Line_714" data-name="Line 714" y2="40.528" transform="translate(29.617 8.863)" fill="none" stroke="#161615" stroke-miterlimit="10" stroke-width="2"/>
      <path id="Path_11601" data-name="Path 11601" d="M102.256,358.513A20.256,20.256,0,1,0,82,338.256,20.258,20.258,0,0,0,102.256,358.513Z" transform="translate(-72.885 -308.885)" fill="#2acbd2" stroke="#161615" stroke-miterlimit="10" stroke-width="2"/>
      <path id="Path_11602" data-name="Path 11602" d="M102.141,318C95.988,318,91,327.07,91,338.256s4.988,20.256,11.141,20.256,11.142-9.069,11.142-20.256S108.295,318,102.141,318Z" transform="translate(-72.769 -308.885)" fill="none" stroke="#161615" stroke-miterlimit="10" stroke-width="2"/>
      <line id="Line_715" data-name="Line 715" x1="38.893" transform="translate(9.926 29.372)" fill="none" stroke="#161615" stroke-miterlimit="10" stroke-width="2"/>
      <line id="Line_716" data-name="Line 716" y2="40.528" transform="translate(29.617 8.863)" fill="none" stroke="#161615" stroke-miterlimit="10" stroke-width="2"/>
      <line id="Line_717" data-name="Line 717" x1="31.955" transform="translate(13.25 18.215)" fill="none" stroke="#161615" stroke-miterlimit="10" stroke-width="2"/>
      <line id="Line_718" data-name="Line 718" x1="31.955" transform="translate(13.25 40.818)" fill="none" stroke="#161615" stroke-miterlimit="10" stroke-width="2"/>
      <path id="Path_11603" data-name="Path 11603" d="M101.039,309,98,312.039l3.038,3.038" transform="translate(-72.679 -309)" fill="none" stroke="#161615" stroke-miterlimit="10" stroke-width="2"/>
      <path id="Path_11604" data-name="Path 11604" d="M127.116,330.233A26.346,26.346,0,0,0,102.051,312H98" transform="translate(-72.679 -308.962)" fill="none" stroke="#161615" stroke-miterlimit="10" stroke-width="2"/>
      <path id="Path_11605" data-name="Path 11605" d="M109,363.432a26.345,26.345,0,0,0,19.244-25.368V333" transform="translate(-72.538 -308.692)" fill="none" stroke="#161615" stroke-miterlimit="10" stroke-width="2"/>
      <path id="Path_11606" data-name="Path 11606" d="M76.954,345a26.345,26.345,0,0,0,25.367,19.242h4.051" transform="translate(-72.949 -308.538)" fill="none" stroke="#161615" stroke-miterlimit="10" stroke-width="2"/>
      <path id="Path_11607" data-name="Path 11607" d="M95.077,313A26.345,26.345,0,0,0,76,338.321v4.051" transform="translate(-72.962 -308.949)" fill="none" stroke="#161615" stroke-miterlimit="10" stroke-width="2"/>
      <path id="Path_11608" data-name="Path 11608" d="M103,367.077l3.038-3.039L103,361" transform="translate(-72.615 -308.333)" fill="none" stroke="#161615" stroke-miterlimit="10" stroke-width="2"/>
      <path id="Path_11609" data-name="Path 11609" d="M79.077,339l-3.038,3.038L73,339" transform="translate(-73 -308.615)" fill="none" stroke="#161615" stroke-miterlimit="10" stroke-width="2"/>
      <path id="Path_11610" data-name="Path 11610" d="M131.077,336.038,128.038,333,125,336.038" transform="translate(-72.333 -308.692)" fill="none" stroke="#161615" stroke-miterlimit="10" stroke-width="2"/>
    </g>
    <path id="Path_11932" data-name="Path 11932" d="M37.156,42.72c7.695,0,13.005-4.32,13.005-11.07,0-6.7-5.31-10.89-11.475-10.89a9.457,9.457,0,0,0-6.93,2.655h-.09c.45-4.41,2.475-6.75,5.535-6.75a3.322,3.322,0,0,1,3.555,2.43H49.4c-1.17-5.4-5.535-8.55-12.195-8.55-4.59,0-8.235,1.62-10.665,4.41-2.52,2.88-3.69,7.065-3.69,11.7C22.846,36.645,27.886,42.72,37.156,42.72Zm-.315-6.435a4.637,4.637,0,1,1,0-9.27,4.637,4.637,0,1,1,0,9.27ZM66,42.72c8.325,0,14.445-6.255,14.445-16.065,0-9.765-5.805-16.11-14.445-16.11-8.325,0-14.355,6.345-14.355,16.11C51.646,36.465,57.856,42.72,66,42.72Zm.045-6.66c-3.735,0-5.175-3.87-5.175-9.405,0-5.49,1.44-9.54,5.175-9.54s5.175,4.05,5.175,9.54C71.221,32.19,69.781,36.06,66.046,36.06ZM83.236,30.8h6.705v7.47h7.875V30.8h6.705V23.46H97.816V16.08H89.941v7.38H83.236Z" transform="translate(503.418 2376.789)"/>
    <path id="Path_11933" data-name="Path 11933" d="M5.52,14.225a4.534,4.534,0,0,0,3.255-1.14A3.8,3.8,0,0,0,9.96,10.55H7.83a2.161,2.161,0,0,1-2.31,1.89c-1.8,0-2.94-1.575-2.94-3.765,0-2.13.945-3.78,2.925-3.78A2.119,2.119,0,0,1,7.77,6.68H9.93C9.7,4.64,8.145,3.065,5.505,3.065,2.34,3.065.36,5.5.36,8.675.36,11.9,2.5,14.225,5.52,14.225Zm9.99,0a3.912,3.912,0,0,0,4.02-4.065,3.912,3.912,0,0,0-4.02-4.065,3.912,3.912,0,0,0-4.02,4.065A3.912,3.912,0,0,0,15.51,14.225Zm0-1.56c-1.26,0-1.95-1.005-1.95-2.505s.69-2.52,1.95-2.52,1.95,1.02,1.95,2.52S16.755,12.665,15.51,12.665ZM28.17,14V6.3H26.13v4.44a1.554,1.554,0,0,1-1.545,1.74c-.87,0-1.275-.495-1.275-1.395V6.3H21.285v5.13a2.512,2.512,0,0,0,2.67,2.775,2.469,2.469,0,0,0,2.2-1.11H26.2V14Zm4.185-7.7H30.36V14H32.4V9.635a1.608,1.608,0,0,1,1.56-1.77A1.281,1.281,0,0,1,35.3,9.275V14h2.04V8.975a2.648,2.648,0,0,0-2.655-2.88,2.5,2.5,0,0,0-2.28,1.26h-.045Zm6.51,1.35H39.93V12.17c0,1.455,1.095,1.845,2.085,1.845.81,0,1.275-.03,1.275-.03v-1.5s-.345.015-.6.015a.675.675,0,0,1-.765-.765V7.655h1.32V6.3h-1.32v-2.4H39.93V6.3H38.865ZM47.13,6.3H45.165V14h2.04V10.25A1.939,1.939,0,0,1,49.5,8.06h.045V6.275a1.332,1.332,0,0,0-.48-.06,2.018,2.018,0,0,0-1.89,1.32H47.13ZM51.3,14h2.04V6.3H51.3Zm0-8.895h2.04V3.275H51.3Zm7.845,9.12a3.3,3.3,0,0,0,3.48-2.52h-2.01a1.436,1.436,0,0,1-1.485.945,1.913,1.913,0,0,1-1.965-1.92h5.58c0-2.745-1.32-4.635-3.795-4.635a3.808,3.808,0,0,0-3.8,4.05A3.809,3.809,0,0,0,59.145,14.225ZM58.98,7.67a1.623,1.623,0,0,1,1.635,1.65h-3.42A1.713,1.713,0,0,1,58.98,7.67Zm8.7,6.555c1.92,0,3.24-.93,3.24-2.475,0-1.8-1.425-2.16-2.715-2.43-1.1-.225-2.115-.285-2.115-.945,0-.555.525-.855,1.32-.855.87,0,1.395.3,1.485,1.125H70.74c-.15-1.545-1.275-2.55-3.3-2.55-1.755,0-3.135.8-3.135,2.46s1.35,2.055,2.73,2.325c1.05.21,2.025.285,2.025,1.02,0,.54-.51.885-1.41.885a1.48,1.48,0,0,1-1.68-1.275H64.08C64.2,13.145,65.445,14.225,67.68,14.225Z" transform="translate(529.008 2427.848)"/>
  </g>
</svg>
