<svg xmlns="http://www.w3.org/2000/svg" width="82.355" height="167.8" viewBox="0 0 82.355 167.8">
  <g id="Group_12723" data-name="Group 12723" transform="translate(-489.523 -1164.711)">
    <g id="Group_12972" data-name="Group 12972">
      <path id="Path_11946" data-name="Path 11946" d="M79.619,42.72c7.695,0,13-4.32,13-11.07,0-6.7-5.31-10.89-11.475-10.89a9.457,9.457,0,0,0-6.93,2.655h-.09c.45-4.41,2.475-6.75,5.535-6.75a3.322,3.322,0,0,1,3.555,2.43h8.64c-1.17-5.4-5.535-8.55-12.195-8.55-4.59,0-8.235,1.62-10.665,4.41-2.52,2.88-3.69,7.065-3.69,11.7C65.309,36.645,70.349,42.72,79.619,42.72ZM79.3,36.285a4.637,4.637,0,1,1,4.77-4.635A4.527,4.527,0,0,1,79.3,36.285Zm29.16,6.435c8.325,0,14.445-6.255,14.445-16.065,0-9.765-5.805-16.11-14.445-16.11-8.325,0-14.355,6.345-14.355,16.11C94.109,36.465,100.319,42.72,108.464,42.72Zm.045-6.66c-3.735,0-5.175-3.87-5.175-9.405,0-5.49,1.44-9.54,5.175-9.54s5.175,4.05,5.175,9.54C113.684,32.19,112.244,36.06,108.509,36.06ZM125.7,30.8h6.7v7.47h7.875V30.8h6.705V23.46h-6.705V16.08H132.4v7.38h-6.7Z" transform="translate(424.895 1263.108)"/>
      <path id="Path_11945" data-name="Path 11945" d="M57.03,16.255a5.138,5.138,0,0,0,3.689-1.292,4.3,4.3,0,0,0,1.343-2.873H59.648a2.449,2.449,0,0,1-2.618,2.142c-2.04,0-3.332-1.785-3.332-4.267,0-2.414,1.071-4.284,3.315-4.284A2.4,2.4,0,0,1,59.58,7.7h2.448c-.255-2.312-2.023-4.1-5.015-4.1-3.587,0-5.831,2.754-5.831,6.358C51.182,13.62,53.613,16.255,57.03,16.255Zm11.033,0a4.434,4.434,0,0,0,4.556-4.607,4.556,4.556,0,1,0-9.112,0A4.434,4.434,0,0,0,68.063,16.255Zm0-1.768c-1.428,0-2.21-1.139-2.21-2.839s.782-2.856,2.21-2.856c1.411,0,2.21,1.156,2.21,2.856S69.474,14.487,68.063,14.487ZM82.122,16V7.279H79.81v5.032a1.761,1.761,0,0,1-1.751,1.972c-.986,0-1.445-.561-1.445-1.581V7.279H74.319v5.814a2.846,2.846,0,0,0,3.026,3.145,2.8,2.8,0,0,0,2.5-1.258h.051V16Zm4.454-8.721H84.315V16h2.312V11.053a1.823,1.823,0,0,1,1.768-2.006,1.451,1.451,0,0,1,1.513,1.6V16H92.22V10.305a3,3,0,0,0-3.009-3.264,2.833,2.833,0,0,0-2.584,1.428h-.051Zm7.089,1.53h1.207v5.117c0,1.649,1.241,2.091,2.363,2.091.918,0,1.445-.034,1.445-.034v-1.7s-.391.017-.68.017a.765.765,0,0,1-.867-.867V8.809h1.5V7.279h-1.5V4.559H94.872v2.72H93.665Zm9.078-1.53h-2.227V16h2.312V11.75a2.2,2.2,0,0,1,2.6-2.482h.051V7.245a1.51,1.51,0,0,0-.544-.068,2.287,2.287,0,0,0-2.142,1.5h-.051ZM107.18,16h2.312V7.279H107.18Zm0-10.081h2.312V3.845H107.18Zm8.6,10.336a3.742,3.742,0,0,0,3.944-2.856h-2.278a1.628,1.628,0,0,1-1.683,1.071,2.168,2.168,0,0,1-2.227-2.176h6.324c0-3.111-1.5-5.253-4.3-5.253a4.315,4.315,0,0,0-4.3,4.59A4.317,4.317,0,0,0,115.782,16.255Zm-.187-7.429a1.839,1.839,0,0,1,1.853,1.87h-3.876A1.941,1.941,0,0,1,115.595,8.826Zm9.571,7.429c2.176,0,3.672-1.054,3.672-2.8,0-2.04-1.615-2.448-3.077-2.754-1.241-.255-2.4-.323-2.4-1.071,0-.629.6-.969,1.5-.969.986,0,1.581.34,1.683,1.275h2.091c-.17-1.751-1.445-2.89-3.74-2.89-1.989,0-3.553.9-3.553,2.788,0,1.9,1.53,2.329,3.094,2.635,1.19.238,2.295.323,2.295,1.156,0,.612-.578,1-1.6,1a1.677,1.677,0,0,1-1.9-1.445h-2.142C121.222,15.031,122.633,16.255,125.166,16.255Z" transform="translate(440.508 1316.256)" fill="#818181"/>
      <g id="Group_12649" data-name="Group 12649" transform="translate(417.23 856.419)">
        <line id="Line_714" data-name="Line 714" y2="53.88" transform="translate(112.374 320.782)" fill="none" stroke="#161615" stroke-miterlimit="10" stroke-width="2"/>
        <path id="Path_11601" data-name="Path 11601" d="M108.93,371.86A26.93,26.93,0,1,0,82,344.93,26.931,26.931,0,0,0,108.93,371.86Z" transform="translate(3.118 3.118)" fill="#2acbd2" stroke="#161615" stroke-miterlimit="10" stroke-width="2"/>
        <path id="Path_11602" data-name="Path 11602" d="M105.811,318C97.631,318,91,330.058,91,344.93s6.631,26.93,14.811,26.93,14.813-12.056,14.813-26.93S113.993,318,105.811,318Z" transform="translate(6.237 3.118)" fill="none" stroke="#161615" stroke-miterlimit="10" stroke-width="2"/>
        <line id="Line_715" data-name="Line 715" x1="51.706" transform="translate(86.196 348.048)" fill="none" stroke="#161615" stroke-miterlimit="10" stroke-width="2"/>
        <line id="Line_716" data-name="Line 716" y2="53.88" transform="translate(112.374 320.782)" fill="none" stroke="#161615" stroke-miterlimit="10" stroke-width="2"/>
        <line id="Line_717" data-name="Line 717" x1="42.482" transform="translate(90.615 333.216)" fill="none" stroke="#161615" stroke-miterlimit="10" stroke-width="2"/>
        <line id="Line_718" data-name="Line 718" x1="42.482" transform="translate(90.615 363.265)" fill="none" stroke="#161615" stroke-miterlimit="10" stroke-width="2"/>
        <path id="Path_11603" data-name="Path 11603" d="M102.04,309,98,313.04l4.039,4.039" transform="translate(8.662)" fill="none" stroke="#161615" stroke-miterlimit="10" stroke-width="2"/>
        <path id="Path_11604" data-name="Path 11604" d="M136.707,336.24A35.025,35.025,0,0,0,103.386,312H98" transform="translate(8.662 1.039)" fill="none" stroke="#161615" stroke-miterlimit="10" stroke-width="2"/>
        <path id="Path_11605" data-name="Path 11605" d="M109,373.458a35.025,35.025,0,0,0,25.583-33.725V333" transform="translate(12.474 8.316)" fill="none" stroke="#161615" stroke-miterlimit="10" stroke-width="2"/>
        <path id="Path_11606" data-name="Path 11606" d="M76.954,345a35.024,35.024,0,0,0,33.724,25.581h5.386" transform="translate(1.37 12.474)" fill="none" stroke="#161615" stroke-miterlimit="10" stroke-width="2"/>
        <path id="Path_11607" data-name="Path 11607" d="M101.362,313A35.024,35.024,0,0,0,76,346.662v5.386" transform="translate(1.039 1.386)" fill="none" stroke="#161615" stroke-miterlimit="10" stroke-width="2"/>
        <path id="Path_11608" data-name="Path 11608" d="M103,369.079l4.039-4.04L103,361" transform="translate(10.395 18.017)" fill="none" stroke="#161615" stroke-miterlimit="10" stroke-width="2"/>
        <path id="Path_11609" data-name="Path 11609" d="M81.079,339l-4.039,4.039L73,339" transform="translate(0 10.395)" fill="none" stroke="#161615" stroke-miterlimit="10" stroke-width="2"/>
        <path id="Path_11610" data-name="Path 11610" d="M133.079,337.039,129.039,333,125,337.039" transform="translate(18.017 8.316)" fill="none" stroke="#161615" stroke-miterlimit="10" stroke-width="2"/>
      </g>
    </g>
  </g>
</svg>
