<svg xmlns="http://www.w3.org/2000/svg" width="103.204" height="47.621" viewBox="0 0 103.204 47.621">
  <g id="dove-1" transform="translate(0)">
    <path id="Path_11775" data-name="Path 11775" d="M19.594,73.439a21.309,21.309,0,0,0-5.757,4.051,11.632,11.632,0,0,0-3.519,7.57,9.542,9.542,0,0,0,.107,1.28,8.136,8.136,0,0,0,2.506,4.851,8.507,8.507,0,0,0,4.958,2.238.6.6,0,0,0,.64-.586.543.543,0,0,0-.48-.587,5.468,5.468,0,0,1-3.092-2.4,7.765,7.765,0,0,1-1.493-4.372c-.533-4,2.452-8.636,6.983-11.035a19.609,19.609,0,0,1,11.994-1.759c4.264.747,6.4,1.759,9.009,4.371a16.6,16.6,0,0,1,4.158,11.088,2.025,2.025,0,0,1-.053.587A17.57,17.57,0,0,1,42.2,98.813c-3.252,4.371-8.689,6.557-16.046,6.557-3.092,0-6.024.053-7.943.107,5.7-2.932,9.329-11.3,12.1-17.592A50.083,50.083,0,0,1,32.387,83.3c2.985-5.651,6.4-5.864,6.5-5.864a.516.516,0,0,0,.48-.48.527.527,0,0,0-.48-.533c-.32,0-4.531-.426-9.009,3.785a19.56,19.56,0,0,0-4.318,6.877c-2.132,5.224-3.891,9.275-5.331,12.047-1.119,2.239-2.505,4.585-4.211,5.437a8.959,8.959,0,0,1-4.1.907.858.858,0,0,0-.586.213.71.71,0,0,0-.213.533.9.9,0,0,0,.213.64.832.832,0,0,0,.533.16c.053,0,4.158.107,14.607.107,8.849,0,15.406-2.079,19.457-6.13a15.787,15.787,0,0,0,4.585-11.515,18.024,18.024,0,0,0-5.064-12.528c-3.678-3.678-7.09-5.171-12.9-5.81a24.789,24.789,0,0,0-12.952,2.293Zm44.672,9.969h.054c-5.7,0-11.674,5.277-13.38,11.728-.906,3.465-.426,6.824,1.333,9.063a7.406,7.406,0,0,0,6.024,2.879c5.65,0,11.674-5.278,13.38-11.728.907-3.518.428-6.823-1.332-9.115a7.543,7.543,0,0,0-6.078-2.825Zm-7.942,21.8a2.78,2.78,0,0,1-1.439-1.866c-.853-2.559-.107-6.663,1.812-10.448,2.665-5.331,7.249-8.9,9.7-7.623a2.94,2.94,0,0,1,1.386,1.813c.8,2.559.053,6.663-1.865,10.5C63.147,102.972,58.775,106.49,56.323,105.211Zm49.2-21.537c-3.411.107-10.021,2.4-13.326,10.715-1.76,4.425-.961,7.3.053,9.009a7.848,7.848,0,0,0,5.6,3.625c6.662.746,11.887-7.57,12.047-7.836a.8.8,0,0,0-1.386-.8c0,.053-4.531,7.143-9.808,7.036-2.079-.053-3.092-1.386-3.252-4.264v-.373a12.214,12.214,0,0,1,.8-4.106c1.759.107,10.768.426,13.86-5.97a4.794,4.794,0,0,0-.107-4.8A5.187,5.187,0,0,0,105.527,83.674Zm-1.173,1.706a2.782,2.782,0,0,1,2.611.213,1.644,1.644,0,0,1,.8,1.226c.161.853-.107,2.4-2.186,5.064-2.772,3.465-7.251,3.358-8.69,3.252,2.24-6.076,5.332-9.063,7.464-9.755Z" transform="translate(-10.318 -59.508)" fill="#28539c" fill-rule="evenodd"/>
    <path id="Path_11776" data-name="Path 11776" d="M127.815,92.349a1.765,1.765,0,0,0-.267.853,1.607,1.607,0,0,0,.267.853,1.277,1.277,0,0,0,1.013.374.792.792,0,0,1,.32.053c1.226.426,1.653,2.186,1.707,3.838a18.033,18.033,0,0,1-.854,5.117c-2.879,6.291-7.356,10.608-10.608,10.129a1.511,1.511,0,0,1-1.226-.8c-.746-1.439.213-4.744,2.505-9.115.64-1.173,3.679-7.143,1.867-10.289a3.684,3.684,0,0,0-3.306-1.812,6.73,6.73,0,0,0-6.449,3.2.768.768,0,0,0,.213.907.7.7,0,0,0,.959-.053c.054-.053,2.346-2.825,4.531-2.346.213.053.32.107.374.32.746,1.759-2.08,7.57-2.985,9.435-.854,1.812-3.092,7.143-1.173,10.075.854,1.386,2.4,2.079,4.585,2.133,7.89.213,12.954-12.048,13.647-15.352,0-.16,1.066-4.638-.533-6.93a3.157,3.157,0,0,0-2.186-1.386c-1.545-.213-2.184.426-2.4.8ZM152.6,109.3h.214c.32,0,.639,0,.639.373a.47.47,0,0,1-.48.426H152.6v-.8Zm-.213,1.865h.213v-.907h.321l.639.907h.266l-.639-.907a.637.637,0,0,0,.48-.586.5.5,0,0,0-.267-.48c-.107-.107-.32-.107-.586-.107h-.428v2.08Zm.586-2.719a1.715,1.715,0,1,0,1.546,1.706A1.63,1.63,0,0,0,152.976,108.449Zm0,.159a1.555,1.555,0,0,1,0,3.092,1.555,1.555,0,0,1,0-3.092Z" transform="translate(-51.317 -67.704)" fill="#28539c" fill-rule="evenodd"/>
    <path id="Path_11777" data-name="Path 11777" d="M89.888,68.915a77.99,77.99,0,0,1,8.476,4c7.409,4.158,13.54,4.1,17.006-.8,2.292-3.2,4.1-6.93,7.2-8.156a5.852,5.852,0,0,1-.746-.693,4.224,4.224,0,0,0-2.506-1.386c-2.985-.266-5.384,3.679-6.236,3.2-1.173-.64,2.451-3.732-1.44-6.663-4.477-3.412-13.859,5.224-19.457,4,0,0,2.559,3.092,8.636,3.572,3.039.213,2.985.907,2.985,1.173.054,3.039-13.913,1.76-13.913,1.76Z" transform="translate(-42.177 -57.609)" fill="#c8ae65" fill-rule="evenodd"/>
  </g>
</svg>
