<svg xmlns="http://www.w3.org/2000/svg" width="120.94" height="166.938" viewBox="0 0 120.94 166.938">
  <g id="Group_12970" data-name="Group 12970" transform="translate(-482.487 -1157.174)">
    <path id="Path_11941" data-name="Path 11941" d="M39.86,16.272c3.587,0,5.848-2.686,5.848-6.324S43.447,3.607,39.86,3.607s-5.865,2.7-5.865,6.341S36.273,16.272,39.86,16.272Zm.017-2.023c-2.227,0-3.366-1.887-3.366-4.3,0-2.431,1.139-4.318,3.366-4.318s3.315,1.887,3.315,4.318C43.192,12.362,42.1,14.249,39.877,14.249Zm7.174-5.372h1.19V16h2.312V8.877h1.564v-1.6H50.553V6.633c0-.9.476-1.037,1.564-.986V3.862c-2.227-.238-3.876.51-3.876,2.635v.782h-1.19Zm14.467,7.378A3.742,3.742,0,0,0,65.462,13.4H63.184A1.628,1.628,0,0,1,61.5,14.47a2.168,2.168,0,0,1-2.227-2.176H65.6c0-3.111-1.5-5.253-4.3-5.253a4.315,4.315,0,0,0-4.3,4.59A4.317,4.317,0,0,0,61.518,16.255Zm-.187-7.429a1.839,1.839,0,0,1,1.853,1.87H59.308A1.941,1.941,0,0,1,61.331,8.826ZM66.244,16h2.533l1.887-2.89H70.7L72.313,16h2.754l-3.111-4.641,2.7-4.08h-2.4L70.8,9.778h-.034l-1.547-2.5H66.584l2.839,4.1Zm10.4,2.856H78.96V15.014h.034a2.808,2.808,0,0,0,2.516,1.241c2.244,0,3.774-1.785,3.774-4.607,0-2.72-1.479-4.607-3.791-4.607a3.048,3.048,0,0,0-2.567,1.326h-.051V7.279H76.648Zm4.369-4.522c-1.377,0-2.108-1.037-2.108-2.618,0-1.564.578-2.8,2.023-2.8,1.428,0,2.006,1.156,2.006,2.8S82.19,14.334,81.017,14.334Zm10.132,1.921A3.742,3.742,0,0,0,95.093,13.4H92.815a1.628,1.628,0,0,1-1.683,1.071A2.168,2.168,0,0,1,88.9,12.294h6.324c0-3.111-1.5-5.253-4.3-5.253a4.315,4.315,0,0,0-4.3,4.59A4.317,4.317,0,0,0,91.149,16.255Zm-.187-7.429a1.839,1.839,0,0,1,1.853,1.87H88.939A1.941,1.941,0,0,1,90.962,8.826Zm8.262-1.547H97V16h2.312V11.75a2.2,2.2,0,0,1,2.6-2.482h.051V7.245a1.51,1.51,0,0,0-.544-.068,2.287,2.287,0,0,0-2.142,1.5h-.051ZM103.661,16h2.312V7.279h-2.312Zm0-10.081h2.312V3.845h-2.312Zm8.6,10.336a3.742,3.742,0,0,0,3.944-2.856h-2.278a1.628,1.628,0,0,1-1.683,1.071,2.168,2.168,0,0,1-2.227-2.176h6.324c0-3.111-1.5-5.253-4.3-5.253a4.315,4.315,0,0,0-4.3,4.59A4.317,4.317,0,0,0,112.263,16.255Zm-.187-7.429a1.839,1.839,0,0,1,1.853,1.87h-3.876A1.941,1.941,0,0,1,112.076,8.826Zm8.3-1.547h-2.261V16h2.312V11.053a1.823,1.823,0,0,1,1.768-2.006,1.451,1.451,0,0,1,1.513,1.6V16h2.312V10.305a3,3,0,0,0-3.009-3.264,2.833,2.833,0,0,0-2.584,1.428h-.051Zm11.815,8.976a3.653,3.653,0,0,0,3.927-3.332h-2.227a1.628,1.628,0,0,1-1.751,1.479c-1.411,0-2.074-1.105-2.074-2.754,0-1.683.714-2.754,2.108-2.754a1.6,1.6,0,0,1,1.6,1.343h2.261a3.7,3.7,0,0,0-3.961-3.2,4.3,4.3,0,0,0-4.352,4.607A4.337,4.337,0,0,0,132.187,16.255Zm9.724,0a3.742,3.742,0,0,0,3.944-2.856h-2.278a1.628,1.628,0,0,1-1.683,1.071,2.168,2.168,0,0,1-2.227-2.176h6.324c0-3.111-1.5-5.253-4.3-5.253a4.315,4.315,0,0,0-4.3,4.59A4.317,4.317,0,0,0,141.911,16.255Zm-.187-7.429a1.839,1.839,0,0,1,1.853,1.87H139.7A1.941,1.941,0,0,1,141.724,8.826Z" transform="translate(453.703 1305.256)" fill="#818181"/>
    <path id="Path_11942" data-name="Path 11942" d="M90.576,42h9V10.905h-6.7c-.9,4.365-4.14,6.84-8.6,7.02V24.09h6.3Zm25.74.765c8.055,0,13.05-4.32,13.05-11.565,0-6.345-4.455-10.4-10.845-10.4a8.3,8.3,0,0,0-5.58,1.755h-.09l.99-4.32H127.3V11.175h-20.07L103.941,28.5h8.325a4.562,4.562,0,0,1,3.78-1.845,4.134,4.134,0,0,1,4.365,4.455c0,2.925-1.665,4.725-4.32,4.725a4.428,4.428,0,0,1-4.635-3.33h-8.775C103.491,39.66,109.071,42.765,116.316,42.765Z" transform="translate(398.211 1250.154)"/>
    <path id="Path_11947" data-name="Path 11947" d="M13.872,19h4.18V13.98l4.92-9.28h-4.44l-1.52,3.18c-.52,1.08-.98,2.3-.98,2.3h-.04s-.44-1.22-.96-2.3L13.512,4.7H8.972l4.9,9.28Zm9.92,0h11.34V15.42h-7.16V13.18h5.82V10.04h-5.82V8.1h6.96V4.7H23.792Zm11.8,0h4.16l.7-2.1h4.84l.7,2.1h4.44l-5.3-14.3h-4.26Zm6.74-7.78c.24-.7.54-1.84.54-1.84h.04s.32,1.14.54,1.84l.9,2.8h-2.96ZM51.212,19h4.18V14.02h1.94c1.22,0,1.7.56,1.96,1.66.3,1.28.14,3.04.54,3.32h4.12v-.22c-.52-.14-.2-2.2-.58-3.92a3.008,3.008,0,0,0-2-2.36v-.06a3.626,3.626,0,0,0,2.34-3.48c0-2.92-2.48-4.26-5.4-4.26h-7.1Zm4.18-11.02h2.3c1.2,0,1.8.6,1.8,1.54,0,1-.66,1.52-1.86,1.52h-2.24Zm15.5,11.36c3.38,0,6.16-1.66,6.16-4.78,0-3.04-2.4-3.98-4.8-4.56-2.14-.52-3.36-.64-3.36-1.48,0-.58.64-1,1.56-1,1.14,0,1.7.5,1.82,1.28h4.14c-.06-3.12-2.78-4.36-5.74-4.36-3.22,0-5.9,1.24-5.9,4.52,0,3.04,2.9,3.86,5.3,4.46,1.76.44,2.72.66,2.72,1.52s-1,1.18-1.82,1.18c-1.38,0-2.26-.54-2.4-1.68h-4.28C64.352,17.74,67.172,19.34,70.892,19.34Z" transform="translate(526.375 1265.686)"/>
    <g id="Group_12724" data-name="Group 12724" transform="translate(427.422 844.882)">
      <circle id="Ellipse_2882" data-name="Ellipse 2882" cx="24.067" cy="24.067" r="24.067" transform="translate(78.244 348.93) rotate(-45)" fill="#e9eaeb"/>
      <g id="Group_12444" data-name="Group 12444" transform="translate(123.647 313.509)">
        <path id="Path_11611" data-name="Path 11611" d="M120.529,323.025A32.143,32.143,0,0,1,110.5,375.912" transform="translate(-110.501 -310.301)" fill="none" stroke="#161615" stroke-miterlimit="10" stroke-width="2"/>
        <path id="Path_11612" data-name="Path 11612" d="M123,355.484c5.034.767,10.883-.415,12.387-10.275C129.156,344.258,124.134,348.052,123,355.484Z" transform="translate(-106.288 -302.872)" fill="none" stroke="#161615" stroke-miterlimit="10" stroke-width="2"/>
        <path id="Path_11613" data-name="Path 11613" d="M115.422,361.839c4.069,3.063,9.779,4.795,15.78-3.178C126.167,354.871,119.944,355.832,115.422,361.839Z" transform="translate(-108.842 -299.047)" fill="none" stroke="#161615" stroke-miterlimit="10" stroke-width="2"/>
        <path id="Path_11614" data-name="Path 11614" d="M125.927,345.113c5.065-.529,10.424-3.154,9.386-13.081C129.044,332.689,125.145,337.633,125.927,345.113Z" transform="translate(-105.335 -307.265)" fill="none" stroke="#161615" stroke-miterlimit="10" stroke-width="2"/>
        <path id="Path_11615" data-name="Path 11615" d="M124.732,335.938c4.344-2.657,8.052-7.333,2.844-15.848C122.2,323.381,120.806,329.523,124.732,335.938Z" transform="translate(-106.461 -311.291)" fill="none" stroke="#161615" stroke-miterlimit="10" stroke-width="2"/>
        <path id="Path_11616" data-name="Path 11616" d="M121.206,326.864c1.26-4.937.657-10.876-9.02-13.355C110.627,319.617,113.915,324.995,121.206,326.864Z" transform="translate(-110.061 -313.509)" fill="none" stroke="#161615" stroke-miterlimit="10" stroke-width="2"/>
      </g>
      <g id="Group_12445" data-name="Group 12445" transform="translate(71.502 313.509)">
        <path id="Path_11617" data-name="Path 11617" d="M89.007,323.025a32.143,32.143,0,0,0,10.028,52.887" transform="translate(-68.926 -310.301)" fill="none" stroke="#161615" stroke-miterlimit="10" stroke-width="2"/>
        <path id="Path_11618" data-name="Path 11618" d="M84.644,355.484c-5.034.767-10.883-.415-12.387-10.275C78.488,344.258,83.51,348.052,84.644,355.484Z" transform="translate(-71.247 -302.872)" fill="none" stroke="#161615" stroke-miterlimit="10" stroke-width="2"/>
        <path id="Path_11619" data-name="Path 11619" d="M93.077,361.839c-4.069,3.063-9.779,4.795-15.78-3.178C82.332,354.871,88.555,355.832,93.077,361.839Z" transform="translate(-69.548 -299.047)" fill="none" stroke="#161615" stroke-miterlimit="10" stroke-width="2"/>
        <path id="Path_11620" data-name="Path 11620" d="M81.018,345.113c-5.065-.529-10.425-3.154-9.386-13.081C77.9,332.689,81.8,337.633,81.018,345.113Z" transform="translate(-71.502 -307.265)" fill="none" stroke="#161615" stroke-miterlimit="10" stroke-width="2"/>
        <path id="Path_11621" data-name="Path 11621" d="M81.714,335.938c-4.344-2.657-8.052-7.333-2.844-15.848C84.246,323.381,85.638,329.523,81.714,335.938Z" transform="translate(-69.876 -311.291)" fill="none" stroke="#161615" stroke-miterlimit="10" stroke-width="2"/>
        <path id="Path_11622" data-name="Path 11622" d="M85.807,326.864c-1.26-4.937-.657-10.876,9.02-13.355C96.387,319.617,93.1,324.995,85.807,326.864Z" transform="translate(-66.843 -313.509)" fill="none" stroke="#161615" stroke-miterlimit="10" stroke-width="2"/>
      </g>
      <g id="Group_12447" data-name="Group 12447" transform="translate(92.224 334.222)">
        <path id="Path_11623" data-name="Path 11623" d="M99,351v18.719l4.011-4.011,4.011,4.011V351Z" transform="translate(-82.955 -321.584)" fill="#a3d4ff" stroke="#161615" stroke-width="1"/>
        <g id="Group_12446" data-name="Group 12446">
          <rect id="Rectangle_3607" data-name="Rectangle 3607" width="40.113" height="30.753" fill="#fff" stroke="#161615" stroke-miterlimit="10" stroke-width="2"/>
        </g>
        <path id="Path_11624" data-name="Path 11624" d="M107.023,351v18.719l-4.011-4.011L99,369.719V351" transform="translate(-82.955 -321.584)" fill="#2acbd2" stroke="#161615" stroke-miterlimit="10" stroke-width="2"/>
        <circle id="Ellipse_2883" data-name="Ellipse 2883" cx="6.685" cy="6.685" r="6.685" transform="translate(13.371 21.393)" fill="#2acbd2" stroke="#161615" stroke-miterlimit="10" stroke-width="2"/>
        <line id="Line_719" data-name="Line 719" x2="21.393" transform="translate(9.36 9.36)" fill="none" stroke="#161615" stroke-miterlimit="10" stroke-width="2"/>
        <line id="Line_720" data-name="Line 720" x2="13.371" transform="translate(13.371 14.708)" fill="none" stroke="#161615" stroke-miterlimit="10" stroke-width="2"/>
      </g>
    </g>
  </g>
</svg>
