<svg xmlns="http://www.w3.org/2000/svg" width="202.911" height="65.797" viewBox="0 0 202.911 65.797">
  <g id="Group_12969" data-name="Group 12969" transform="translate(-946.117 -2380.364)">
    <path id="Path_11936" data-name="Path 11936" d="M4.876,19h4.18V13.98l4.92-9.28H9.536L8.016,7.88c-.52,1.08-.98,2.3-.98,2.3H7s-.44-1.22-.96-2.3L4.516,4.7H-.024l4.9,9.28Zm9.92,0h11.34V15.42h-7.16V13.18H24.8V10.04h-5.82V8.1h6.96V4.7H14.8Zm11.8,0h4.16l.7-2.1H36.3L37,19h4.44l-5.3-14.3h-4.26Zm6.74-7.78c.24-.7.54-1.84.54-1.84h.04s.32,1.14.54,1.84l.9,2.8H32.4ZM42.216,19H46.4V14.02h1.94c1.22,0,1.7.56,1.96,1.66.3,1.28.14,3.04.54,3.32h4.12v-.22c-.52-.14-.2-2.2-.58-3.92a3.008,3.008,0,0,0-2-2.36v-.06a3.626,3.626,0,0,0,2.34-3.48c0-2.92-2.48-4.26-5.4-4.26h-7.1ZM46.4,7.98h2.3c1.2,0,1.8.6,1.8,1.54,0,1-.66,1.52-1.86,1.52H46.4ZM61.9,19.34c3.38,0,6.16-1.66,6.16-4.78,0-3.04-2.4-3.98-4.8-4.56-2.14-.52-3.36-.64-3.36-1.48,0-.58.64-1,1.56-1,1.14,0,1.7.5,1.82,1.28h4.14c-.06-3.12-2.78-4.36-5.74-4.36-3.22,0-5.9,1.24-5.9,4.52,0,3.04,2.9,3.86,5.3,4.46,1.76.44,2.72.66,2.72,1.52s-1,1.18-1.82,1.18c-1.38,0-2.26-.54-2.4-1.68H55.3C55.356,17.74,58.176,19.34,61.9,19.34Z" transform="translate(1080.973 2391.58)"/>
    <g id="Group_12968" data-name="Group 12968">
      <path id="Path_11938" data-name="Path 11938" d="M5.535,14.24c3.165,0,5.16-2.37,5.16-5.58S8.7,3.065,5.535,3.065.36,5.45.36,8.66,2.37,14.24,5.535,14.24Zm.015-1.785c-1.965,0-2.97-1.665-2.97-3.8s1-3.81,2.97-3.81S8.475,6.515,8.475,8.66,7.515,12.455,5.55,12.455Zm6.585-4.74h1.05V14h2.04V7.715H16.6V6.3h-1.38v-.57c0-.795.42-.915,1.38-.87V3.29c-1.965-.21-3.42.45-3.42,2.325V6.3h-1.05Zm13.275,6.51a3.3,3.3,0,0,0,3.48-2.52H26.88a1.436,1.436,0,0,1-1.485.945,1.913,1.913,0,0,1-1.965-1.92h5.58c0-2.745-1.32-4.635-3.8-4.635a3.808,3.808,0,0,0-3.8,4.05A3.809,3.809,0,0,0,25.41,14.225ZM25.245,7.67A1.623,1.623,0,0,1,26.88,9.32H23.46A1.713,1.713,0,0,1,25.245,7.67ZM29.835,14H32.07l1.665-2.55h.03L35.19,14h2.43L34.875,9.9,37.26,6.3H35.145L33.855,8.51h-.03L32.46,6.3H30.135l2.5,3.615Zm9.435,2.52h2.04V13.13h.03a2.478,2.478,0,0,0,2.22,1.1c1.98,0,3.33-1.575,3.33-4.065,0-2.4-1.305-4.065-3.345-4.065a2.689,2.689,0,0,0-2.265,1.17h-.045V6.3H39.27Zm3.855-3.99c-1.215,0-1.86-.915-1.86-2.31s.51-2.475,1.785-2.475,1.77,1.02,1.77,2.475S44.16,12.53,43.125,12.53Zm9.195,1.7A3.3,3.3,0,0,0,55.8,11.7H53.79a1.436,1.436,0,0,1-1.485.945,1.913,1.913,0,0,1-1.965-1.92h5.58c0-2.745-1.32-4.635-3.795-4.635a3.808,3.808,0,0,0-3.8,4.05A3.809,3.809,0,0,0,52.32,14.225ZM52.155,7.67A1.623,1.623,0,0,1,53.79,9.32H50.37A1.713,1.713,0,0,1,52.155,7.67ZM59.7,6.3H57.735V14h2.04V10.25A1.939,1.939,0,0,1,62.07,8.06h.045V6.275a1.332,1.332,0,0,0-.48-.06,2.018,2.018,0,0,0-1.89,1.32H59.7ZM63.87,14h2.04V6.3H63.87Zm0-8.895h2.04V3.275H63.87Zm7.845,9.12a3.3,3.3,0,0,0,3.48-2.52h-2.01a1.436,1.436,0,0,1-1.485.945,1.913,1.913,0,0,1-1.965-1.92h5.58c0-2.745-1.32-4.635-3.795-4.635a3.808,3.808,0,0,0-3.795,4.05A3.809,3.809,0,0,0,71.715,14.225ZM71.55,7.67a1.623,1.623,0,0,1,1.635,1.65h-3.42A1.713,1.713,0,0,1,71.55,7.67ZM79.125,6.3H77.13V14h2.04V9.635a1.608,1.608,0,0,1,1.56-1.77,1.281,1.281,0,0,1,1.335,1.41V14h2.04V8.975a2.648,2.648,0,0,0-2.655-2.88,2.5,2.5,0,0,0-2.28,1.26h-.045Zm10.68,7.92a3.223,3.223,0,0,0,3.465-2.94H91.305A1.436,1.436,0,0,1,89.76,12.59c-1.245,0-1.83-.975-1.83-2.43,0-1.485.63-2.43,1.86-2.43A1.41,1.41,0,0,1,91.2,8.915h2a3.267,3.267,0,0,0-3.5-2.82,3.8,3.8,0,0,0-3.84,4.065A3.827,3.827,0,0,0,89.805,14.225Zm8.835,0a3.3,3.3,0,0,0,3.48-2.52h-2.01a1.436,1.436,0,0,1-1.485.945,1.913,1.913,0,0,1-1.965-1.92h5.58c0-2.745-1.32-4.635-3.795-4.635a3.808,3.808,0,0,0-3.795,4.05A3.809,3.809,0,0,0,98.64,14.225ZM98.475,7.67a1.623,1.623,0,0,1,1.635,1.65H96.69A1.713,1.713,0,0,1,98.475,7.67Z" transform="translate(1034.113 2429.64)"/>
      <path id="Path_11937" data-name="Path 11937" d="M7.38,42h9V10.905h-6.7c-.9,4.365-4.14,6.84-8.6,7.02V24.09h6.3Zm25.74.765c8.055,0,13.05-4.32,13.05-11.565,0-6.345-4.455-10.4-10.845-10.4a8.3,8.3,0,0,0-5.58,1.755h-.09l.99-4.32H44.1V11.175H24.03L20.745,28.5H29.07a4.562,4.562,0,0,1,3.78-1.845,4.134,4.134,0,0,1,4.365,4.455c0,2.925-1.665,4.725-4.32,4.725a4.428,4.428,0,0,1-4.635-3.33H19.485C20.3,39.66,25.875,42.765,33.12,42.765Z" transform="translate(1029.154 2379.285)"/>
      <g id="Group_12696" data-name="Group 12696" transform="translate(947.117 2381.581)">
        <circle id="Ellipse_2882" data-name="Ellipse 2882" cx="19.052" cy="19.052" r="19.052" transform="translate(5.337 28.04) rotate(-45)" fill="#fff"/>
        <g id="Group_12444" data-name="Group 12444" transform="translate(41.279)">
          <path id="Path_11611" data-name="Path 11611" d="M118.439,323.025a25.445,25.445,0,0,1-7.938,41.866" transform="translate(-110.501 -312.953)" fill="none" stroke="#161615" stroke-miterlimit="10" stroke-width="2"/>
          <path id="Path_11612" data-name="Path 11612" d="M123,353.313c3.985.608,8.615-.328,9.806-8.134C127.873,344.426,123.9,347.43,123,353.313Z" transform="translate(-109.77 -311.664)" fill="none" stroke="#161615" stroke-miterlimit="10" stroke-width="2"/>
          <path id="Path_11613" data-name="Path 11613" d="M115.422,360.708c3.221,2.425,7.742,3.8,12.492-2.516C123.928,355.192,119,355.953,115.422,360.708Z" transform="translate(-110.213 -311.001)" fill="none" stroke="#161615" stroke-miterlimit="10" stroke-width="2"/>
          <path id="Path_11614" data-name="Path 11614" d="M125.906,342.387c4.009-.419,8.252-2.5,7.43-10.355C128.374,332.552,125.287,336.466,125.906,342.387Z" transform="translate(-109.605 -312.426)" fill="none" stroke="#161615" stroke-miterlimit="10" stroke-width="2"/>
          <path id="Path_11615" data-name="Path 11615" d="M124.264,332.636c3.439-2.1,6.374-5.8,2.251-12.546C122.259,322.695,121.157,327.557,124.264,332.636Z" transform="translate(-109.8 -313.124)" fill="none" stroke="#161615" stroke-miterlimit="10" stroke-width="2"/>
          <path id="Path_11616" data-name="Path 11616" d="M119.247,324.081c1-3.908.52-8.609-7.14-10.572C110.872,318.344,113.475,322.6,119.247,324.081Z" transform="translate(-110.425 -313.509)" fill="none" stroke="#161615" stroke-miterlimit="10" stroke-width="2"/>
        </g>
        <g id="Group_12445" data-name="Group 12445">
          <path id="Path_11617" data-name="Path 11617" d="M86.951,323.025a25.445,25.445,0,0,0,7.938,41.866" transform="translate(-71.055 -312.953)" fill="none" stroke="#161615" stroke-miterlimit="10" stroke-width="2"/>
          <path id="Path_11618" data-name="Path 11618" d="M82.063,353.313c-3.985.608-8.615-.328-9.806-8.134C77.189,344.426,81.165,347.43,82.063,353.313Z" transform="translate(-71.457 -311.664)" fill="none" stroke="#161615" stroke-miterlimit="10" stroke-width="2"/>
          <path id="Path_11619" data-name="Path 11619" d="M89.789,360.708c-3.221,2.425-7.742,3.8-12.492-2.516C81.283,355.192,86.209,355.953,89.789,360.708Z" transform="translate(-71.163 -311.001)" fill="none" stroke="#161615" stroke-miterlimit="10" stroke-width="2"/>
          <path id="Path_11620" data-name="Path 11620" d="M79.035,342.387c-4.009-.419-8.253-2.5-7.43-10.355C76.567,332.552,79.654,336.466,79.035,342.387Z" transform="translate(-71.502 -312.426)" fill="none" stroke="#161615" stroke-miterlimit="10" stroke-width="2"/>
          <path id="Path_11621" data-name="Path 11621" d="M80.591,332.636c-3.439-2.1-6.374-5.8-2.251-12.546C82.6,322.695,83.7,327.557,80.591,332.636Z" transform="translate(-71.22 -313.124)" fill="none" stroke="#161615" stroke-miterlimit="10" stroke-width="2"/>
          <path id="Path_11622" data-name="Path 11622" d="M85.706,324.081c-1-3.908-.52-8.609,7.14-10.572C94.081,318.344,91.478,322.6,85.706,324.081Z" transform="translate(-70.694 -313.509)" fill="none" stroke="#161615" stroke-miterlimit="10" stroke-width="2"/>
        </g>
        <g id="Group_12447" data-name="Group 12447" transform="translate(16.405 16.397)">
          <path id="Path_11623" data-name="Path 11623" d="M99,351v14.818l3.175-3.175,3.175,3.175V351Z" transform="translate(-86.299 -327.714)" fill="#a3d4ff" stroke="#161615" stroke-width="1"/>
          <g id="Group_12446" data-name="Group 12446">
            <rect id="Rectangle_3607" data-name="Rectangle 3607" width="31.754" height="24.345" fill="#fff" stroke="#161615" stroke-miterlimit="10" stroke-width="2"/>
          </g>
          <path id="Path_11624" data-name="Path 11624" d="M105.351,351v14.818l-3.175-3.175L99,365.818V351" transform="translate(-86.299 -327.714)" fill="#2acbd2" stroke="#161615" stroke-miterlimit="10" stroke-width="2"/>
          <circle id="Ellipse_2883" data-name="Ellipse 2883" cx="5.292" cy="5.292" r="5.292" transform="translate(10.585 16.935)" fill="#2acbd2" stroke="#161615" stroke-miterlimit="10" stroke-width="2"/>
          <line id="Line_719" data-name="Line 719" x2="16.935" transform="translate(7.409 7.409)" fill="none" stroke="#161615" stroke-miterlimit="10" stroke-width="2"/>
          <line id="Line_720" data-name="Line 720" x2="10.585" transform="translate(10.585 11.643)" fill="none" stroke="#161615" stroke-miterlimit="10" stroke-width="2"/>
        </g>
      </g>
    </g>
  </g>
</svg>
