<svg xmlns="http://www.w3.org/2000/svg" width="125.867" height="31.375" viewBox="0 0 125.867 31.375">
  <path id="gillette" d="M34.919,9.907A4.466,4.466,0,0,1,30.4,4.952,5.512,5.512,0,0,1,35.786,0,4.464,4.464,0,0,1,40.3,4.952,5.513,5.513,0,0,1,34.919,9.907Zm-5.074,1.451h8.624L35.174,30.036H26.614l3.231-18.678ZM42.539.822h8.62L45.949,30.036H37.388L42.539.822ZM19.189,12.554c-1.137-1.5-2.388-2.336-3.473-2.336-1.2,0-4.682.154-5.686,5.987-1.2,6.945,3.109,6.886,4.071,6.886a3.417,3.417,0,0,0,2.514-.72l.357-1.913H13.44l1.077-6.225H27.089L24.757,27.28c-5.389,2.993-8.5,3.35-11.617,3.35-12.393,0-14.009-9.7-12.813-16.4S7.989,2.137,15.476,2.137c8.022,0,11.016,4.071,12.212,7.123l-8.5,3.294Zm106.421,9.463-13.026-.007c.15,2.042,1.22,3.389,2.455,3.389a2.6,2.6,0,0,0,2.514-1.714l7.043,1.336a11.855,11.855,0,0,1-10.711,6.351A9.64,9.64,0,0,1,104.6,18.548l-1.888-.007-2.035,11.495H92.05l2.039-11.495H90.735L88.7,30.036H80.08l2.095-11.495H79.845a15.272,15.272,0,0,1-.213,3.48l-13.026-.01c.147,2.042,1.22,3.392,2.455,3.392a2.6,2.6,0,0,0,2.514-1.714l7.043,1.336a11.851,11.851,0,0,1-10.711,6.351,9.511,9.511,0,0,1-9.739-9.3L56.73,30.036H48.169L53.317.822h8.62L58.9,17.768a11.99,11.99,0,0,1,10.841-7.393c4.62,0,8.743,1.913,9.848,6.476l.969-5.494H83.37l1.5-8.26h8.62l-1.5,8.26h3.35l1.5-8.26h8.62l-1.437,8.26h2.875l-.752,4.105a11.942,11.942,0,0,1,9.571-5.085c8.194,0,11.086,5.508,9.9,11.638ZM67.189,18.534l4.98,0c.189-2.245-.955-2.686-2.27-2.661C68.907,15.887,67.836,16.985,67.189,18.534Zm45.972.021,4.983.007c.189-2.249-.948-2.714-2.263-2.693C114.882,15.887,113.8,17,113.161,18.555Z" transform="translate(0.001)" fill="#1e428f"/>
</svg>
