<svg xmlns="http://www.w3.org/2000/svg" width="198.281" height="78.051" viewBox="0 0 198.281 78.051">
  <g id="Group_12967" data-name="Group 12967" transform="translate(-673.652 -2376.786)">
    <g id="Group_12695" data-name="Group 12695" transform="translate(673.652 2376.786)">
      <circle id="Ellipse_2880" data-name="Ellipse 2880" cx="27.618" cy="27.618" r="27.618" transform="matrix(0.736, -0.677, 0.677, 0.736, 0, 37.418)" fill="#fff"/>
      <rect id="Rectangle_3604" data-name="Rectangle 3604" width="40.568" height="30.7" transform="translate(23.18 6.867)" fill="#fff" stroke="#161615" stroke-miterlimit="10" stroke-width="2"/>
      <rect id="Rectangle_3605" data-name="Rectangle 3605" width="12.061" height="6.579" transform="translate(37.434 6.867)" fill="#2acbd2" stroke="#161615" stroke-miterlimit="10" stroke-width="2"/>
      <g id="Group_12439" data-name="Group 12439" transform="translate(14.437 28.677)">
        <path id="Path_11589" data-name="Path 11589" d="M130.2,228.18c-2.657.616-4.971,2.212-6.762,5.7l-5.91,3.347a3.989,3.989,0,0,0-3.347-1.539h-8.573c-1.251,0-3.852-3.289-5.836-3.289H92.73c-2.029,0-4.627,1.769-6.084,3.126-2.252,2.251-7.978,7.661-8.62,8.184,3.582,3.1,11.034,10.2,12.68,11.65,2.227-2.226,3.1-4.32,4.936-4.32h20.037c1.67,0,10.791-8.319,11.958-9.628,1.123-1.258,7.084-8.971,8.471-12.214C135.237,228.02,132.981,227.533,130.2,228.18Z" transform="translate(-78.026 -227.892)" fill="#fff" stroke="#161615" stroke-width="1"/>
        <path id="Path_11590" data-name="Path 11590" d="M102.119,243.36h12.061a3.847,3.847,0,1,0,0-7.675h-8.573c-1.251,0-3.852-3.289-5.836-3.289H92.73c-2.029,0-4.627,1.769-6.084,3.126-2.252,2.251-7.978,7.661-8.62,8.184,3.582,3.1,11.034,10.2,12.68,11.65,2.227-2.226,3.1-4.32,4.936-4.32h20.037c1.67,0,10.791-8.319,11.958-9.628,1.123-1.258,7.084-8.97,8.471-12.214-.871-1.173-3.127-1.66-5.91-1.013-2.657.616-4.971,2.212-6.762,5.7l-5.968,2.9" transform="translate(-78.026 -227.892)" fill="none" stroke="#161615" stroke-miterlimit="10" stroke-width="2"/>
      </g>
      <rect id="Rectangle_3606" data-name="Rectangle 3606" width="10.525" height="23.374" transform="matrix(0.707, -0.707, 0.707, 0.707, 7.842, 47.354)" fill="#2acbd2" stroke="#161615" stroke-miterlimit="10" stroke-width="2"/>
      <line id="Line_707" data-name="Line 707" x2="2.882" y2="2.882" transform="translate(13.965 46.319)" fill="none" stroke="#161615" stroke-miterlimit="10" stroke-width="2"/>
      <line id="Line_708" data-name="Line 708" x2="2.193" transform="translate(26.469 28.795)" fill="none" stroke="#161615" stroke-miterlimit="10" stroke-width="2"/>
      <line id="Line_709" data-name="Line 709" x2="2.193" transform="translate(30.855 28.795)" fill="none" stroke="#161615" stroke-miterlimit="10" stroke-width="2"/>
      <line id="Line_710" data-name="Line 710" x2="2.193" transform="translate(35.241 28.795)" fill="none" stroke="#161615" stroke-miterlimit="10" stroke-width="2"/>
    </g>
    <path id="Path_11934" data-name="Path 11934" d="M13.588,40.731c7.7,0,12.47-4.128,12.47-11.051,0-6.063-4.257-9.933-10.363-9.933a7.928,7.928,0,0,0-5.332,1.677h-.086l.946-4.128H24.08V10.545H4.9L1.763,27.1H9.718a4.359,4.359,0,0,1,3.612-1.763A3.951,3.951,0,0,1,17.5,29.594c0,2.8-1.591,4.515-4.128,4.515a4.231,4.231,0,0,1-4.429-3.182H.559C1.333,37.764,6.665,40.731,13.588,40.731Zm27.821-.043c7.955,0,13.8-5.977,13.8-15.351,0-9.331-5.547-15.394-13.8-15.394-7.955,0-13.717,6.063-13.717,15.394C27.692,34.711,33.626,40.688,41.409,40.688Zm.043-6.364c-3.569,0-4.945-3.7-4.945-8.987,0-5.246,1.376-9.116,4.945-9.116s4.945,3.87,4.945,9.116C46.4,30.626,45.021,34.324,41.452,34.324Zm28.939,6.364c7.955,0,13.8-5.977,13.8-15.351,0-9.331-5.547-15.394-13.8-15.394-7.955,0-13.717,6.063-13.717,15.394C56.674,34.711,62.608,40.688,70.391,40.688Zm.043-6.364c-3.569,0-4.945-3.7-4.945-8.987,0-5.246,1.376-9.116,4.945-9.116s4.945,3.87,4.945,9.116C75.379,30.626,74,34.324,70.434,34.324ZM86.86,29.293h6.407v7.138h7.525V29.293H107.2V22.284h-6.407V15.232H93.267v7.052H86.86Z" transform="translate(764.734 2376.702)"/>
    <path id="Path_11935" data-name="Path 11935" d="M8.685,14H10.32V8.3H5.8V9.98h2.58v.06a2.624,2.624,0,0,1-2.76,2.43c-1.845,0-3-1.605-3-3.8,0-2.13,1-3.81,3.03-3.81A2.266,2.266,0,0,1,8.07,6.65H10.2c-.345-2.1-1.89-3.585-4.59-3.585A4.919,4.919,0,0,0,2.16,4.3,5.847,5.847,0,0,0,.405,8.675,5.888,5.888,0,0,0,1.8,12.665a4.892,4.892,0,0,0,3.765,1.56A3.2,3.2,0,0,0,8.58,12.56h.03Zm3.885,0h2.04V3.275H12.57Zm7.905.225a3.912,3.912,0,0,0,4.02-4.065,3.912,3.912,0,0,0-4.02-4.065,3.912,3.912,0,0,0-4.02,4.065A3.912,3.912,0,0,0,20.475,14.225Zm0-1.56c-1.26,0-1.95-1.005-1.95-2.505s.69-2.52,1.95-2.52,1.95,1.02,1.95,2.52S21.72,12.665,20.475,12.665ZM30.6,14.225c1.935,0,3.255-1.575,3.255-4.065,0-2.4-1.38-4.065-3.315-4.065A2.4,2.4,0,0,0,28.4,7.235H28.35V3.275H26.31V14h1.965v-.96h.03A2.559,2.559,0,0,0,30.6,14.225Zm-.45-1.71c-1.14,0-1.845-.9-1.845-2.31s.48-2.46,1.77-2.46c1.14,0,1.71.99,1.71,2.415C31.785,11.645,31.2,12.515,30.15,12.515ZM40.515,14H42.48v-.075c-.18-.135-.27-.48-.27-1.065V8.945c0-1.8-.93-2.835-3.24-2.835-2.25,0-3.255,1.185-3.315,2.535H37.47c.06-.735.525-1.08,1.485-1.08.855,0,1.29.36,1.29.915,0,.585-.585.69-1.86.87-1.71.24-3.09.78-3.09,2.475,0,1.53,1.11,2.355,2.685,2.355a2.359,2.359,0,0,0,2.265-1.035h.03A2.087,2.087,0,0,0,40.515,14Zm-2.04-1.245c-.72,0-1.2-.255-1.2-.975s.525-.96,1.59-1.2a5.688,5.688,0,0,0,1.425-.45v1.155C40.29,12.035,39.645,12.755,38.475,12.755ZM44.4,14h2.04V3.275H44.4Zm7.815,0h4.92a4.068,4.068,0,0,0,2.7-.855,2.713,2.713,0,0,0,.945-2.235,2.685,2.685,0,0,0-1.995-2.655V8.21a2.209,2.209,0,0,0,1.68-2.145,2.527,2.527,0,0,0-.855-2.01,3.855,3.855,0,0,0-2.6-.78h-4.8ZM54.39,9.2h2.445a1.537,1.537,0,0,1,1.74,1.545c0,.87-.63,1.455-1.68,1.455H54.39Zm0-1.605V5.045h2.4c.96,0,1.545.465,1.545,1.26,0,.84-.645,1.29-1.59,1.29ZM64.725,6.3H62.76V14H64.8V10.25a1.939,1.939,0,0,1,2.3-2.19h.045V6.275a1.332,1.332,0,0,0-.48-.06,2.018,2.018,0,0,0-1.89,1.32h-.045Zm8.79,7.7H75.48v-.075c-.18-.135-.27-.48-.27-1.065V8.945c0-1.8-.93-2.835-3.24-2.835-2.25,0-3.255,1.185-3.315,2.535H70.47c.06-.735.525-1.08,1.485-1.08.855,0,1.29.36,1.29.915,0,.585-.585.69-1.86.87-1.71.24-3.09.78-3.09,2.475,0,1.53,1.11,2.355,2.685,2.355a2.359,2.359,0,0,0,2.265-1.035h.03A2.087,2.087,0,0,0,73.515,14Zm-2.04-1.245c-.72,0-1.2-.255-1.2-.975s.525-.96,1.59-1.2a5.688,5.688,0,0,0,1.425-.45v1.155C73.29,12.035,72.645,12.755,71.475,12.755Zm7.89-6.45H77.37V14h2.04V9.635a1.608,1.608,0,0,1,1.56-1.77,1.281,1.281,0,0,1,1.335,1.41V14h2.04V8.975a2.648,2.648,0,0,0-2.655-2.88,2.5,2.5,0,0,0-2.28,1.26h-.045Zm9.99,7.92a2.56,2.56,0,0,0,2.295-1.23h.03V14h1.965V3.275h-2.04v3.96H91.56a2.44,2.44,0,0,0-2.175-1.14c-1.92,0-3.285,1.665-3.285,4.065C86.1,12.65,87.42,14.225,89.355,14.225Zm.45-1.71c-1.05,0-1.635-.87-1.635-2.355,0-1.425.57-2.415,1.695-2.415,1.305,0,1.785.99,1.785,2.46C91.65,11.615,91.02,12.515,89.805,12.515Zm9.15,1.71c1.92,0,3.24-.93,3.24-2.475,0-1.8-1.425-2.16-2.715-2.43-1.1-.225-2.115-.285-2.115-.945,0-.555.525-.855,1.32-.855.87,0,1.395.3,1.485,1.125h1.845c-.15-1.545-1.275-2.55-3.3-2.55-1.755,0-3.135.8-3.135,2.46s1.35,2.055,2.73,2.325c1.05.21,2.025.285,2.025,1.02,0,.54-.51.885-1.41.885a1.48,1.48,0,0,1-1.68-1.275h-1.89C95.475,13.145,96.72,14.225,98.955,14.225Z" transform="translate(767.086 2427.649)"/>
  </g>
</svg>
