<svg xmlns="http://www.w3.org/2000/svg" width="110.364" height="170.29" viewBox="0 0 110.364 170.29">
  <g id="Group_12974" data-name="Group 12974" transform="translate(-207.869 -1433.832)">
    <path id="Path_11943" data-name="Path 11943" d="M65.775,40.731c7.7,0,12.47-4.128,12.47-11.051,0-6.063-4.257-9.933-10.363-9.933a7.928,7.928,0,0,0-5.332,1.677h-.086L63.41,17.3H76.267V10.545H57.089L53.95,27.1H61.9a4.359,4.359,0,0,1,3.612-1.763,3.951,3.951,0,0,1,4.171,4.257c0,2.8-1.591,4.515-4.128,4.515a4.231,4.231,0,0,1-4.429-3.182H52.746C53.52,37.764,58.852,40.731,65.775,40.731ZM93.6,40.688c7.955,0,13.8-5.977,13.8-15.351,0-9.331-5.547-15.394-13.8-15.394-7.955,0-13.717,6.063-13.717,15.394C79.879,34.711,85.813,40.688,93.6,40.688Zm.043-6.364c-3.569,0-4.945-3.7-4.945-8.987,0-5.246,1.376-9.116,4.945-9.116s4.945,3.87,4.945,9.116C98.584,30.626,97.208,34.324,93.639,34.324Zm28.939,6.364c7.955,0,13.8-5.977,13.8-15.351,0-9.331-5.547-15.394-13.8-15.394-7.955,0-13.717,6.063-13.717,15.394C108.861,34.711,114.795,40.688,122.578,40.688Zm.043-6.364c-3.569,0-4.945-3.7-4.945-8.987,0-5.246,1.376-9.116,4.945-9.116s4.945,3.87,4.945,9.116C127.566,30.626,126.19,34.324,122.621,34.324Zm16.426-5.031h6.407v7.138h7.525V29.293h6.407V22.284h-6.407V15.232h-7.525v7.052h-6.407Z" transform="translate(157.227 1534.841)"/>
    <path id="Path_11944" data-name="Path 11944" d="M44.237,16H46.09V9.54H40.973v1.9H43.9v.068a2.974,2.974,0,0,1-3.128,2.754c-2.091,0-3.4-1.819-3.4-4.3,0-2.414,1.139-4.318,3.434-4.318A2.568,2.568,0,0,1,43.54,7.67h2.414c-.391-2.38-2.142-4.063-5.2-4.063A5.575,5.575,0,0,0,36.842,5a6.626,6.626,0,0,0-1.989,4.964,6.673,6.673,0,0,0,1.581,4.522A5.544,5.544,0,0,0,40.7,16.255a3.632,3.632,0,0,0,3.417-1.887h.034Zm4.114,0h2.312V3.845H48.351Zm8.67.255a4.434,4.434,0,0,0,4.556-4.607,4.556,4.556,0,1,0-9.112,0A4.434,4.434,0,0,0,57.021,16.255Zm0-1.768c-1.428,0-2.21-1.139-2.21-2.839s.782-2.856,2.21-2.856c1.411,0,2.21,1.156,2.21,2.856S58.432,14.487,57.021,14.487Zm11.186,1.768c2.193,0,3.689-1.785,3.689-4.607,0-2.72-1.564-4.607-3.757-4.607a2.726,2.726,0,0,0-2.431,1.292h-.051V3.845H63.345V16h2.227V14.912h.034A2.9,2.9,0,0,0,68.207,16.255Zm-.51-1.938c-1.292,0-2.091-1.02-2.091-2.618,0-1.615.544-2.788,2.006-2.788,1.292,0,1.938,1.122,1.938,2.737C69.55,13.331,68.887,14.317,67.7,14.317ZM79.155,16h2.227v-.085c-.2-.153-.306-.544-.306-1.207V10.271c0-2.04-1.054-3.213-3.672-3.213-2.55,0-3.689,1.343-3.757,2.873H75.7c.068-.833.6-1.224,1.683-1.224.969,0,1.462.408,1.462,1.037,0,.663-.663.782-2.108.986-1.938.272-3.5.884-3.5,2.805,0,1.734,1.258,2.669,3.043,2.669a2.674,2.674,0,0,0,2.567-1.173h.034A2.365,2.365,0,0,0,79.155,16Zm-2.312-1.411c-.816,0-1.36-.289-1.36-1.1s.6-1.088,1.8-1.36a6.447,6.447,0,0,0,1.615-.51v1.309C78.9,13.773,78.169,14.589,76.843,14.589ZM83.269,16h2.312V3.845H83.269Zm12.954.255c2.193,0,3.689-1.785,3.689-4.607,0-2.72-1.564-4.607-3.757-4.607a2.726,2.726,0,0,0-2.431,1.292h-.051V3.845H91.361V16h2.227V14.912h.034A2.9,2.9,0,0,0,96.223,16.255Zm-.51-1.938c-1.292,0-2.091-1.02-2.091-2.618,0-1.615.544-2.788,2.006-2.788,1.292,0,1.938,1.122,1.938,2.737C97.566,13.331,96.9,14.317,95.713,14.317Zm8.194-7.038H101.68V16h2.312V11.75a2.2,2.2,0,0,1,2.6-2.482h.051V7.245a1.51,1.51,0,0,0-.544-.068,2.287,2.287,0,0,0-2.142,1.5h-.051ZM113.58,16h2.227v-.085c-.2-.153-.306-.544-.306-1.207V10.271c0-2.04-1.054-3.213-3.672-3.213-2.55,0-3.689,1.343-3.757,2.873h2.057c.068-.833.6-1.224,1.683-1.224.969,0,1.462.408,1.462,1.037,0,.663-.663.782-2.108.986-1.938.272-3.5.884-3.5,2.805,0,1.734,1.258,2.669,3.043,2.669a2.674,2.674,0,0,0,2.567-1.173h.034A2.365,2.365,0,0,0,113.58,16Zm-2.312-1.411c-.816,0-1.36-.289-1.36-1.1s.6-1.088,1.8-1.36a6.447,6.447,0,0,0,1.615-.51v1.309C113.325,13.773,112.594,14.589,111.268,14.589Zm8.653-7.31H117.66V16h2.312V11.053a1.823,1.823,0,0,1,1.768-2.006,1.451,1.451,0,0,1,1.513,1.6V16h2.312V10.305a3,3,0,0,0-3.009-3.264,2.833,2.833,0,0,0-2.584,1.428h-.051Zm11.033,8.976a2.9,2.9,0,0,0,2.6-1.394h.034V16h2.227V3.845H133.5V8.333h-.051a2.765,2.765,0,0,0-2.465-1.292c-2.176,0-3.723,1.887-3.723,4.607C127.265,14.47,128.761,16.255,130.954,16.255Zm.51-1.938c-1.19,0-1.853-.986-1.853-2.669,0-1.615.646-2.737,1.921-2.737,1.479,0,2.023,1.122,2.023,2.788C133.555,13.3,132.841,14.317,131.464,14.317Zm10.081,1.938c2.176,0,3.672-1.054,3.672-2.8,0-2.04-1.615-2.448-3.077-2.754-1.241-.255-2.4-.323-2.4-1.071,0-.629.6-.969,1.5-.969.986,0,1.581.34,1.683,1.275h2.091c-.17-1.751-1.445-2.89-3.74-2.89-1.989,0-3.553.9-3.553,2.788,0,1.9,1.53,2.329,3.094,2.635,1.19.238,2.3.323,2.3,1.156,0,.612-.578,1-1.6,1a1.677,1.677,0,0,1-1.9-1.445h-2.142C137.6,15.031,139.012,16.255,141.545,16.255Z" transform="translate(173.016 1587.867)" fill="#818181"/>
    <g id="Group_12648" data-name="Group 12648" transform="translate(149.242 1232.095)">
      <circle id="Ellipse_2880" data-name="Ellipse 2880" cx="34.889" cy="34.889" r="34.889" transform="matrix(0.736, -0.677, 0.677, 0.736, 64.858, 249.006)" fill="#fff"/>
      <rect id="Rectangle_3604" data-name="Rectangle 3604" width="51.247" height="38.781" transform="translate(94.14 210.411)" fill="#fff" stroke="#161615" stroke-miterlimit="10" stroke-width="2"/>
      <rect id="Rectangle_3605" data-name="Rectangle 3605" width="15.235" height="8.31" transform="translate(112.146 210.411)" fill="#2acbd2" stroke="#161615" stroke-miterlimit="10" stroke-width="2"/>
      <g id="Group_12439" data-name="Group 12439" transform="translate(83.096 237.963)">
        <path id="Path_11589" data-name="Path 11589" d="M143.932,228.256c-3.356.778-6.28,2.794-8.542,7.2l-7.465,4.229a5.04,5.04,0,0,0-4.229-1.945h-10.83c-1.58,0-4.866-4.155-7.373-4.155H96.6c-2.564,0-5.845,2.234-7.686,3.949-2.845,2.844-10.078,9.677-10.889,10.338,4.525,3.913,13.939,12.882,16.018,14.716,2.813-2.812,3.913-5.457,6.235-5.457h25.312c2.109,0,13.632-10.508,15.105-12.162,1.418-1.589,8.949-11.332,10.7-15.429C150.3,228.054,147.447,227.439,143.932,228.256Z" transform="translate(-78.026 -227.892)" fill="#fff" stroke="#161615" stroke-width="1"/>
        <path id="Path_11590" data-name="Path 11590" d="M108.461,247.432H123.7a4.859,4.859,0,1,0,0-9.7h-10.83c-1.58,0-4.866-4.155-7.373-4.155H96.6c-2.564,0-5.845,2.234-7.686,3.949-2.845,2.844-10.078,9.677-10.889,10.338,4.525,3.913,13.939,12.882,16.018,14.716,2.813-2.812,3.913-5.457,6.235-5.457h25.312c2.109,0,13.632-10.508,15.105-12.162,1.418-1.589,8.949-11.331,10.7-15.429-1.1-1.482-3.95-2.1-7.465-1.28-3.356.778-6.28,2.794-8.542,7.2l-7.539,3.669" transform="translate(-78.026 -227.892)" fill="none" stroke="#161615" stroke-miterlimit="10" stroke-width="2"/>
      </g>
      <rect id="Rectangle_3606" data-name="Rectangle 3606" width="13.295" height="29.526" transform="matrix(0.707, -0.707, 0.707, 0.707, 74.765, 261.557)" fill="#2acbd2" stroke="#161615" stroke-miterlimit="10" stroke-width="2"/>
      <line id="Line_707" data-name="Line 707" x2="3.641" y2="3.641" transform="translate(82.499 260.249)" fill="none" stroke="#161615" stroke-miterlimit="10" stroke-width="2"/>
      <line id="Line_708" data-name="Line 708" x2="2.77" transform="translate(98.296 238.112)" fill="none" stroke="#161615" stroke-miterlimit="10" stroke-width="2"/>
      <line id="Line_709" data-name="Line 709" x2="2.77" transform="translate(103.836 238.112)" fill="none" stroke="#161615" stroke-miterlimit="10" stroke-width="2"/>
      <line id="Line_710" data-name="Line 710" x2="2.77" transform="translate(109.376 238.112)" fill="none" stroke="#161615" stroke-miterlimit="10" stroke-width="2"/>
    </g>
  </g>
</svg>
