<svg id="haribo-4" xmlns="http://www.w3.org/2000/svg" width="68.424" height="18.621" viewBox="0 0 68.424 18.621">
  <path id="path5" d="M62.5,0l-.3.009-.3.018-.3.036-.288.045-.279.063h-.009l-.279.072-.27.09-.27.1-.261.117L59.7.674l-.252.135-.162.1-.072.045-.234.162-.225.171-.216.18-.207.189-.2.2-.189.216-.18.225-.171.234-.153.243-.144.252-.135.261-.117.261-.108.27-.1.279-.081.288-.054.225-.018.063-.054.3-.036.306-.027.306-.009.306v6.186l-.009-.18-.018-.171-.018-.171-.027-.162-.027-.162-.036-.162-.036-.153-.045-.153L56.3,10.6l-.054-.144-.054-.144-.063-.144-.063-.135L56,9.9l-.081-.126-.081-.126-.081-.126-.09-.117-.09-.117-.1-.117-.1-.108-.1-.108-.063-.063.063-.108.171-.342.144-.351.126-.36.1-.369.072-.378.018-.18H43.734v9.1l.009.144.018.144.027.144.027.144.036.135.045.135.054.126.063.126.063.117H54.7l.171-.144.2-.189.18-.2.171-.207.162-.216.144-.225.135-.225.045-.081.081-.153.108-.243.1-.252.09-.252.072-.261.063-.261.009-.054.045-.207.045-.27.027-.27.018-.279.009-.234.009.108.036.387.054.369.081.36.009.036.081.306.117.333.126.315.144.3.126.225.036.063.171.27.189.252.2.243.207.225.216.207.216.2.018.009h7.777l.045-.036.225-.2.216-.216.207-.225.2-.243.18-.261.171-.279.009-.018.153-.27.144-.306.126-.315.108-.333.063-.243.027-.1.072-.36.054-.378.036-.387.009-.387L68.4,6.788h-5.26v5.9l-.009.063-.009.063-.009.054-.009.045-.009.045-.009.036-.009.036-.018.036-.018.027-.018.027L63,13.136l-.018.018-.018.018-.018.018-.018.018-.018.009-.018.009-.018.009-.018.009-.018.009-.027.009-.027.009-.027.009-.036.009-.036.009-.045.009-.045.009-.045.009h-.279l-.036-.009-.036-.009-.036-.009-.027-.009-.027-.009-.027-.009-.018-.009-.018-.009-.018-.009-.018-.009L62,13.226l-.009-.009-.018-.009-.009-.018-.009-.018-.009-.018-.018-.018-.018-.027-.018-.027-.018-.036-.018-.036-.018-.045-.009-.045-.009-.054-.009-.054L61.8,12.75l-.009-.072V5.835l.009-.054.009-.045.009-.045.009-.036.009-.036.009-.027.009-.027.009-.018.009-.018.009-.018.009-.018.018-.018.018-.018.018-.018.018-.018.018-.018L62,5.386l.027-.018.027-.009.027-.009.027-.009.027-.009.027-.009.027-.009.027-.009.027-.009.027-.009h.252l.036.009.036.009.036.009.036.009.036.009.036.009.036.009.027.009.027.009.027.018.027.018.018.018.018.018.018.018.018.018.018.018.009.018.009.018.009.018L63,5.566l.009.027.009.027.009.036.009.036.009.045.009.054V6.824h5.26L68.307,5.9V5.6l-.018-.315-.036-.306-.054-.3L68.181,4.6l-.045-.216L68.055,4.1l-.09-.279-.108-.27-.117-.27-.135-.261-.144-.252-.153-.243-.171-.234-.18-.225-.189-.216-.2-.2-.207-.189-.216-.18-.225-.171L65.69.953,65.618.908l-.081-.1L65.286.674,65.034.548,64.773.432l-.27-.1-.27-.09L63.955.171h-.009L63.667.108,63.38.063,63.092.027,62.8.009,62.5,0ZM18.3.063l-.162.009L18.01.081,17.884.09l-.126.018-.126.027-.126.027L17.47.171,17.38.2l-.126.036-.117.045-.117.045L16.9.378l-.117.054-.108.063-.108.063-.1.072L16.364.7l-.1.081-.1.081-.045.045-.054.045-.09.09-.09.1-.081.1-.081.108-.072.108-.072.117-.063.117-.063.117-.054.126-.054.126-.045.126-.045.126-.036.126L14.6,4.595l-.638,2.212h8.722l-.656-2.212-.656-2.167L21.327,2.3l-.045-.135-.054-.126-.054-.126-.063-.126-.063-.117-.072-.117L20.9,1.439l-.072-.108-.081-.108-.081-.1-.09-.1-.09-.09L20.455.908,20.392.845l-.1-.081-.1-.081L20.087.611l-.1-.072L19.88.477,19.772.414,19.655.36,19.538.306,19.421.27,19.3.225,19.187.189,19.116.171,19.062.162,18.945.135,18.819.108,18.7.09,18.576.072,18.45.063Zm9.333,0h-.108l-.117.009-.117.009L27.172.1l-.117.018-.117.027-.09.027h5.476L32.108.135,31.775.09,31.452.063,31.137.054,27.63.063ZM26.83.171Zm0,0L26.8.18l-.117.036-.117.045-.117.045L26.345.36l-.108.063-.108.063-.108.072-.1.081-.1.09-.09.09-.081.09-.009.009-.081.1-.081.108-.072.117-.063.117-.063.126-.054.126-.045.126-.045.135-.036.135-.027.135-.018.144-.018.144-.009.144V14.638l-.135-.459L22.7,6.806H13.981L11.9,14.026V6.806H0v9.171l.009.153.018.153.027.144.036.144.036.144.045.135.054.135.063.126v.009h4.7l.018-.036.054-.126.054-.135.045-.135.036-.144.027-.144.027-.144.018-.144.009-.153V11.9H6.627V15.96l.009.153.018.153.027.144.027.144.036.144.045.135.054.135.063.126.009.018H11.59l.009-.018.054-.108.009.018.045.108h4.7l.045-.081.072-.162L16.6,16.7l.072-.18.072-.189.063-.2.162-.5.027-.072H19.6l.018.072.171.557.054.18.063.18.063.171.072.162.072.153.045.081h4.873l.018-.045.063-.144.054-.153.009.027.045.135.054.126.027.054h4.666l.009-.009.063-.126.054-.135.045-.135.036-.144.036-.144.027-.144.018-.153.009-.153V14.107l.045.063,1.016,1.475L32.261,17l.081.117h4.909l.108-.2.1-.243.072-.243.027.117.036.144.045.135.054.135.063.126.018.027h4.738l.009-.018.063-.126.054-.135.045-.135.036-.144.036-.144.027-.144.018-.153.009-.153V2.509L42.8,2.365l-.018-.144-.027-.144-.036-.135-.045-.135-.054-.126-.054-.126L42.5,1.43l-.072-.117L42.358,1.2,42.277,1.1,42.2,1l-.081-.09-.09-.09-.1-.081-.1-.081L41.72.584,41.612.521,41.5.459,41.4.4,41.288.351,41.18.306,41.072.261,40.964.225,40.856.189l-.1-.027H40.74L40.623.135,40.506.117,40.389.1,40.272.09h-.333L39.822.1l-.117.009-.117.018-.117.027-.054.009L39.355.18l-.117.036-.117.036L39,.3,38.878.36l-.108.054-.108.063-.108.072-.117.081-.1.081-.1.09-.09.1-.009.009L38.06,1l-.081.108-.081.108-.072.117-.063.126-.063.126-.054.135-.045.135-.036.135-.036.144-.027.144-.018.144-.009.153V15.006l-.09-.234-.135-.27-.153-.234-.063-.09-2.392-3.264.018-.009.162-.117.171-.126.171-.144.171-.153.171-.171.171-.18.171-.2L36.01,9.6l.162-.225.153-.243.144-.261L36.6,8.6l.126-.3.108-.306.1-.324.081-.342.063-.36L37.1,6.8l.027-.207.027-.387.009-.4-.009-.27-.018-.27L37.1,4.99l-.045-.27L37.026,4.6l-.036-.153-.072-.261-.09-.261-.1-.252-.117-.252-.126-.243-.135-.243L36.2,2.706l-.162-.225-.171-.216-.18-.216-.2-.207-.207-.2-.216-.189-.225-.18-.234-.171L34.365.953,34.284.908l-.18-.1L33.843.674l-.27-.126L33.295.441l-.3-.1L32.7.261,32.4.189,32.3.171H26.83ZM2.688.126H2.572L2.455.135,2.338.144,2.221.162l-.1.018H2.1L1.987.207,1.87.234,1.753.27,1.636.306,1.52.351,1.439.387,1.331.441,1.223.5,1.115.566,1.007.638l-.1.081L.809.8.71.89.692.908.62.989.53,1.1.45,1.2l-.072.117-.072.126-.063.126L.18,1.708l-.045.135L.09,1.978l-.036.144-.027.144-.018.153L0,2.572V6.815H11.887V2.6l-.009-.153L11.86,2.3l-.027-.144L11.8,2.014l-.036-.135-.045-.135-.054-.135L11.6,1.484l-.063-.126-.072-.117-.081-.108L11.3,1.025l-.09-.1L11.185.9,11.122.827l-.1-.09-.1-.081-.1-.072L10.718.512,10.61.468,10.5.414,10.394.36,10.286.315,10.169.27,10.052.234,9.935.207,9.827.18,9.783.171,9.711.162,9.594.144,9.477.135,9.36.126H9.126L9.009.135,8.892.144,8.776.162,8.686.18H8.668L8.551.207,8.434.234,8.317.27,8.2.306,8.092.351,7.984.4,7.9.45,7.8.512,7.688.584l-.1.072-.1.081-.1.09L7.3.917,7.292.926l-.09.1-.081.108-.081.108-.063.108-.063.126L6.851,1.6,6.8,1.735l-.045.135-.036.135-.027.144-.027.144-.018.135-.009.144V6.663H5.314V2.545L5.3,2.392l-.018-.144L5.26,2.1l-.036-.135-.036-.135L5.143,1.7l-.054-.126-.063-.126-.063-.117-.072-.117L4.81,1.106l-.081-.1-.09-.1L4.55.818l-.1-.081-.1-.081-.1-.072L4.145.521,4.037.459,3.929.4,3.821.351,3.713.306,3.6.27,3.489.234,3.372.207,3.255.18,3.21.171,3.147.162,3.03.144,2.913.135,2.8.126H2.688ZM46.359.252h-.108l-.117.009L46.026.27,45.91.288l-.117.018-.117.027L45.568.36,45.46.4l-.108.036-.108.045L45.136.53l-.108.054-.108.063L44.813.71l-.1.072-.1.081-.054.045-.045.036-.09.09-.09.1-.081.1-.081.108-.072.117-.063.117-.063.126-.054.126-.045.135-.036.135-.036.135-.027.144-.018.144-.009.144V6.806H55.917l.027-.207.027-.387V5.826l-.027-.387-.054-.387-.072-.387L55.8,4.595l-.081-.315L55.593,3.9l-.153-.369-.18-.36-.207-.351-.234-.342-.261-.324-.288-.306-.315-.288L53.615,1.3l-.369-.243L52.95.9l-.1-.054-.414-.18L52,.512,51.538.4l-.486-.09-.5-.054-.5-.018L46.359.252ZM30.274,5.314h.863l.1.009.063.009.045.018.036.018.036.018.027.018.027.027.027.036.027.036.027.045.027.054.027.063.018.072.018.072.009.081v.162l-.009.081-.018.072-.018.072-.027.063-.027.054-.027.045-.027.045-.027.036-.027.027-.027.018-.036.018-.036.018-.045.009-.054.009-.1.009h-.863V5.314Zm18.72,0h.557l.153.009.117.018.1.027.09.027.072.036.063.036L50.2,5.5l.045.045.045.045.036.045.027.054.027.054L50.4,5.8l.018.063.009.063v.126l-.009.063-.009.054-.018.054-.027.054-.027.045-.036.045-.036.045-.045.045-.054.036-.063.036-.072.036-.09.027-.108.027-.126.018-.162.009h-.557V5.314h.009Zm0,6.609h1.475l.1.009.063.009.045.018.036.018.036.018.027.018.027.027.027.036.027.036.027.045.027.054.018.063.018.072.009.072.009.072v.162l-.009.081-.018.072-.018.072-.027.063-.027.054-.027.054-.027.045-.027.036-.027.027-.027.018-.027.018-.027.009-.036.009-.045.009-.081.009H49l-.009-1.3ZM.3,17.137l.063.117.072.117.081.117L.6,17.6l.09.1L.7,17.7l.1.09.1.09.1.081.108.072.108.072.09.045.027.018.108.054.117.054.117.045.117.036.117.036.117.027.117.027.117.018.117.018.117.009.117.009h.225L2.94,18.5l.117-.009.117-.018.117-.018.117-.027.117-.027.117-.036.117-.036.108-.045.108-.054.108-.054.1-.063.108-.072.1-.081.1-.081.1-.09.072-.081.018-.018.09-.1.081-.108.072-.117.072-.117.045-.09L.3,17.137Zm6.627,0,.054.1.072.117.081.117.081.108.09.1.009.009.09.09.1.09.1.081.108.072.108.072.1.054.009.009.108.054.108.054.108.045.117.036.117.036.117.027.117.027.117.018.117.018.117.009.108.009h.216l.108-.009.117-.009.117-.018.117-.018.117-.027.117-.027.117-.036.117-.036.108-.045.108-.054.108-.054.009-.009.1-.054.108-.072.108-.072.1-.081.1-.09.09-.09.009-.009.09-.1.081-.108.081-.117.072-.117.054-.1H6.923Zm4.792,0,.009.027.063.126.072.117.081.117.081.108.054.063.036.036.09.09.1.09.1.081.1.072.108.072.027.009.081.045.108.054.108.054.108.045.108.036.117.036.117.027.117.018.162.018h.773l.108-.009.117-.009.117-.018.126-.027.126-.036.135-.045.135-.054.135-.063.126-.081.009-.009.117-.081.117-.1.117-.108.108-.117.045-.054.054-.072.09-.135.09-.135.081-.144.036-.072-4.7.027Zm8.443,0,.036.063.081.144.09.135.09.126.072.09.027.036.108.108.108.108.117.1.117.09.045.027.081.054.126.072.126.063.126.054.126.045.126.036.117.027.117.018.108.018.108.009.1.009h.683l.144-.018.135-.018L23.4,18.5l.135-.036.135-.045.126-.054.126-.063.126-.072.054-.036.072-.045.117-.081.117-.09.108-.1.1-.108.036-.036.063-.072.09-.117.081-.126.081-.135.045-.1-4.855-.054Zm5.143,0,.036.072.072.117.072.117.081.108.09.1.036.036.054.063.1.09.1.081.1.081.108.072.108.063.018.009.1.054.117.054.117.045.117.045.117.036.117.027.117.027.117.018.117.018.117.009.117.009h.225l.108-.009.108-.009.108-.018.108-.018.108-.027.117-.027.108-.036.108-.036.108-.045.108-.054.108-.054.009-.009.1-.054.108-.072.108-.072.1-.081.1-.09.09-.09.09-.1.081-.108.081-.117.072-.117.063-.108H25.3Zm7.04,0,.108.153.225.252.153.144.09.081.252.2.261.171.009.009.261.135.279.108.279.081.288.045.279.018.279-.009.27-.036.261-.063.252-.09.234-.108.117-.072.108-.063.207-.153.2-.171.072-.081.1-.108.162-.2.144-.216.018-.027h-4.9Zm5.431,0,.054.09.072.117.081.117.081.108.09.1.018.018.072.072.1.09.1.081.108.072.108.072.108.063h.009l.108.054.108.054.117.045.117.045.117.036.117.027.117.027.117.018.117.018.117.009.117.009h.234l.117-.009.117-.009.117-.018.117-.018.117-.027.117-.027.117-.036.117-.036.117-.045.117-.054.108-.054.108-.063.108-.072.108-.072.1-.081.1-.09.081-.081.009-.009.09-.1.09-.108.081-.117.072-.117.054-.108-4.774.009Zm6.312,0,.072.126.081.108.081.108.09.1.1.09.027.027.072.063.1.081.108.072.108.063.108.063.108.054.108.045.063.018.054.018.108.036.108.036.108.027.117.018.117.018.108.009.108.009.108.009h4.873l.315-.009.315-.027.306-.036.3-.054.279-.063h.009l.288-.081.279-.09.27-.108.261-.117.126-.072.117-.063.234-.144.225-.153.216-.162.036-.027-10.6.009Zm14.521,0,.207.171.234.171.234.153.1.063.135.081.234.126.243.117.243.108.054.018.18.072.234.081.234.072.234.063.225.054.225.045.216.036.216.027.207.018.207.009.216-.009.216-.018.225-.027.225-.036.234-.045.234-.054.234-.063.243-.072.243-.081.171-.063.072-.027.243-.108.243-.117.243-.135.117-.072.126-.072.234-.162.234-.171.18-.153H58.605Z" transform="translate(0 0)" fill="#fff"/>
  <path id="path25" d="M67.777,5.8l-.279.009-.27.018-.27.036-.261.045-.261.054-.252.072-.252.081-.243.09-.243.1-.207.1-.027.009-.225.126-.216.135-.216.144-.207.153-.2.162h7.229l-.2-.162-.207-.153-.216-.144-.216-.135-.225-.126L70.295,6.4l-.207-.1-.243-.1-.243-.09-.252-.081L69.1,5.962,68.847,5.9l-.261-.045-.27-.036-.27-.018h-.27Zm-44.2.063-.126.009-.108.009-.108.009-.108.018-.108.018-.108.027-.1.027-.1.027-.1.036-.1.036-.1.045-.1.045-.09.054-.09.054-.09.063-.09.063h-.009l-.081.063-.081.072-.081.072-.072.081-.072.081-.072.081-.063.09-.063.09-.063.1-.009.018h4.532l-.018-.036-.063-.1-.063-.09-.063-.09-.072-.081-.072-.081L25.4,6.591l-.081-.072-.081-.072L25.176,6.4l-.027-.018-.09-.063-.09-.054-.09-.054-.09-.054-.09-.045-.1-.045-.081-.036L24.421,6l-.1-.027-.1-.027-.1-.027-.108-.009-.108-.018L23.8,5.881l-.108-.009-.117-.009Zm9.342,0h-.1l-.1.009-.1.009-.1.009-.1.018-.1.018-.1.027-.1.027-.09.036-.09.036-.09.045-.09.045-.081.054-.081.054-.081.063-.081.063-.009.009-.063.063-.072.072-.063.081-.063.081-.054.09-.054.09-.045.1-.045.1-.018.054h9.036l-.207-.162L39.571,6.8l-.225-.144-.234-.135-.243-.126-.045-.018-.207-.09-.252-.1-.261-.09-.27-.072-.279-.063-.27-.036L37,5.89l-.3-.018-.3-.009H32.918Zm12.417.027h-.1l-.1.009-.1.009-.1.018-.1.018-.09.027L44.66,6l-.09.036-.09.036-.09.045-.09.045-.09.054-.081.054-.081.063-.081.063-.018.018-.063.054-.072.072-.072.081L43.68,6.7l-.063.09-.054.09-.054.1-.045.1-.027.072H47.43l-.036-.081-.054-.1-.054-.09-.063-.09-.063-.081-.072-.081-.072-.072-.072-.072-.072-.063L46.854,6.4l-.063-.045L46.71,6.3l-.081-.054L46.54,6.2l-.09-.045-.09-.045-.09-.036-.09-.036-.09-.027L46,5.989l-.09-.027-.1-.018-.1-.018-.09-.018-.1-.009-.1-.009h-.09ZM7.967,5.926h-.1l-.1.009-.1.009-.1.009-.1.018-.09.018-.09.027-.09.027-.09.027-.09.036-.09.036-.09.045-.09.045-.09.054-.081.054L6.5,6.4l-.081.063-.063.072-.072.072-.072.081-.063.09-.063.09-.054.1-.045.1-.027.072H9.918l-.027-.072-.045-.1-.054-.09-.054-.09-.063-.081L9.6,6.627l-.072-.072-.072-.072L9.388,6.42,9.37,6.4l-.063-.045-.072-.063-.09-.054L9.064,6.2l-.09-.045-.09-.036-.09-.036L8.7,6.043l-.09-.027-.09-.027-.09-.018-.09-.018-.09-.009-.09-.009-.09-.009H7.967Zm6.573,0h-.1l-.09.009-.09.009-.1.009-.09.018-.09.018-.09.027-.09.027-.09.036-.09.036-.09.036-.09.045-.081.045-.081.054-.081.054-.072.054-.027.009-.072.072-.072.072-.072.072-.063.081-.063.09-.054.09-.054.1-.045.09-.027.063h3.893L16.455,7.1,16.41,7l-.054-.1-.054-.09-.063-.09-.063-.081L16.1,6.564l-.072-.072L15.96,6.42l-.036-.027-.045-.036L15.8,6.295l-.081-.054-.081-.054-.09-.045-.09-.045-.09-.036-.09-.036L15.187,6l-.09-.027-.09-.018-.09-.018-.09-.009-.09-.009-.09-.009-.108.018Zm37.1.126h-.09l-.09.009-.09.009-.09.009-.09.018-.09.018-.09.027-.09.027-.09.036-.09.036-.09.036-.09.045-.081.045-.054.036L50.4,6.42l-.081.054-.081.063-.072.063-.072.072-.072.072-.063.081-.063.081L49.839,7l-.054.09-.018.045h9.009L58.615,7l-.333-.216L57.932,6.6l-.378-.171-.1-.036-.3-.1-.423-.108L56.3,6.106l-.468-.045-.477-.018ZM5.962,7.14l-.018.036-.036.108-.036.108-.027.117-.018.117-.018.117L5.8,7.868V20.411h4.244V16.679h2.392v3.74h4.208V7.895l-.009-.126-.018-.117L16.6,7.535l-.027-.117-.036-.108L16.5,7.2l-.027-.072H12.588l-.018.045-.036.108-.027.108-.027.117-.018.117-.018.117-.009.126v4.586H10.071V7.85l-.009-.117-.018-.126-.018-.117L10,7.382l-.036-.108-.036-.108-.018-.036L5.962,7.14ZM16.644,20.42H12.436v.818l.009.126.018.126.018.117.027.117.027.117.018.045.018.063.045.108.045.1.054.1.054.09.063.09.063.081.072.081.072.072.072.072.081.072.081.063.054.036.027.018.09.054.09.045.09.045.09.036.09.036.09.027.09.027.09.018.09.018.09.009.09.009.09.009h.18l.09-.009.09-.009.09-.009.09-.018.09-.018.09-.027.09-.027.09-.036.09-.036.09-.045.09-.045.09-.054.027-.018.054-.036.081-.063.081-.063.072-.072.072-.072.072-.081.063-.081.063-.09.054-.09.054-.1.045-.1.045-.108.018-.063.018-.045.027-.117.027-.117.018-.117.018-.126.009-.126v-.126l.036-.7Zm9.2-13.28H21.31l-.045.081-.054.1-.045.108-.045.108-.045.108-.036.117L21,7.868l-1.07,3.7L18.873,15.25l-1.061,3.686-.423,1.475h4.469l.027-.072h3.381l.018.072H29.9l-.009-.036-.432-1.439-1.1-3.686-1.1-3.686-1.106-3.7-.036-.117-.045-.117-.045-.108-.045-.108L25.932,7.3l-.054-.1-.036-.063Zm5.116,0-.018.045-.036.108-.027.108-.027.117-.018.117-.009.117-.009.126V20.411h4.208V17.722l.836,1.223,1.016,1.475h5.368l-.054-.153-.108-.216-.135-.2-.665-.908-2.122-2.9.072-.036.126-.072.135-.081.144-.09.144-.108.153-.117.153-.126.153-.135.018-.018.135-.126.153-.162.153-.18.153-.189.144-.207.135-.225.126-.234.126-.252.108-.27.1-.279.09-.3.072-.315.063-.333.045-.351.018-.261.009-.1.009-.387-.009-.243-.018-.243-.036-.243-.045-.243-.054-.243-.072-.234-.081-.234-.09-.234-.108-.225-.117-.225-.126-.216L41,8.309,40.857,8.1,40.7,7.9l-.171-.2-.18-.189-.189-.18-.189-.171L30.958,7.14Zm12.471,0-.018.036-.036.108-.027.108-.027.117-.018.117-.018.117-.009.126V20.411h4.307V7.814L47.574,7.7l-.018-.117-.018-.108-.027-.108-.036-.108-.036-.1L47.43,7.14h-4Zm4.154,13.28H43.276v.818l.009.126.018.126.018.117.027.117.027.117.018.054.018.054.045.108.045.1.054.1.054.09.063.09.009.018.054.072.072.081.072.072.081.072.081.063.081.063.072.045.018.009.09.054.09.045.09.045.09.036.09.036.09.027.09.027.1.018.1.018.1.009.1.009.1.009h.2l.1-.009.1-.009.1-.009.1-.018.1-.018.1-.027.09-.027.09-.036.09-.036.09-.045.09-.045.09-.054.018-.009.063-.045.081-.063.081-.063.081-.072.072-.072.072-.081.063-.072.009-.009.063-.09.063-.09.054-.1.045-.1.045-.108.018-.054.018-.054.036-.117.027-.117.018-.117.018-.126.009-.126v-.126l-.036-.7ZM49.749,7.14l-.027.054-.045.1-.036.108-.036.108-.027.108-.018.117-.018.117-.009.117V20.411h11.32l.036-.081.09-.225.081-.234.072-.234.063-.243.045-.243.036-.225V18.9l.027-.252.018-.252.009-.261V17.7l-.009-.171-.009-.171L61.3,17.2l-.009-.144-.018-.153-.018-.153-.027-.144-.027-.144-.036-.135-.036-.135-.045-.135-.045-.126-.054-.126-.054-.126-.063-.117-.063-.117-.063-.117-.045-.072-.018-.036-.072-.108-.081-.108-.081-.1-.09-.1-.09-.1-.09-.1-.1-.1-.1-.09-.1-.09-.072-.063.108-.153.18-.3.153-.306.135-.315.108-.333.09-.333.063-.342.045-.351.018-.27.009-.081v-.36l-.027-.36-.045-.36-.072-.351-.09-.351-.117-.342-.135-.342L60.072,8.7l-.189-.315-.207-.306-.234-.288-.261-.279L58.9,7.248l-.144-.108H49.749Zm14.4,0-.189.171-.18.18-.171.189-.162.2-.153.207-.144.216-.135.225-.117.234L62.8,9l-.1.252-.09.252-.072.261-.063.27-.045.27-.036.279-.027.288-.009.288v6.734l.018.369.036.351.045.315.009.027.072.324.09.315.1.3.117.288.108.216H72.6l.126-.261.117-.288.1-.306.081-.315.063-.3.009-.027.045-.342.027-.36.009-.369-.009-2.589-.018-3.686V10.88l-.018-.288-.036-.279-.045-.279-.063-.27L72.911,9.5l-.081-.252L72.731,9l-.108-.243-.117-.234L72.372,8.3l-.144-.216-.144-.2-.162-.2L71.751,7.5l-.18-.18-.189-.171Zm3.561,2.9h.153l.054.009.054.009.054.009.054.009.054.018.054.018.054.018.054.018.054.018.054.027.045.027.045.027.045.027.045.036.036.036.036.036.036.036.036.045.036.045.027.045.027.054.027.054.018.063.018.063.018.072.018.072.009.081.009.081v6.851l-.009.09-.009.081-.009.081-.009.072-.018.072-.018.072-.018.063-.018.063-.027.054-.027.054-.027.045-.027.045-.027.045-.036.036-.036.036-.036.036-.036.036-.036.027-.009.009-.045.027-.045.027-.045.027-.054.027-.054.018-.054.018-.054.018-.063.018-.063.009-.063.009-.072.009h-.3l-.063-.009-.063-.009-.063-.009-.054-.009-.054-.018-.054-.018-.054-.018-.045-.018-.045-.027-.045-.027-.045-.027-.036-.027h-.009l-.036-.027-.036-.036-.036-.036-.036-.036-.036-.045-.027-.045-.027-.054-.027-.054-.027-.054-.027-.063-.018-.063-.018-.072L66.6,18.3l-.009-.081-.009-.081-.009-.09-.009-.09V11.1l.009-.081.009-.081.018-.072.018-.063.018-.063.018-.054.027-.054.027-.054.027-.045.027-.045.036-.045.036-.036.036-.036.036-.036.036-.036.045-.027.063-.054.045-.027.045-.027.045-.018.045-.018.045-.018.054-.018.054-.018.054-.009.045-.009.045-.009.045-.009h.144Zm-32.683.027h1.4l.144.009.117.018.108.027.1.036.09.045.081.054.072.063.063.072.063.081.054.09.045.1.036.108.027.108.018.117.009.117v.117l-.009.117-.018.117-.018.081-.009.036-.027.108-.036.108-.045.1-.054.09-.063.081-.063.072-.072.063-.081.054-.09.045-.1.036-.108.027-.117.018-.144.009H35v-.863l.027-1.457Zm18.72,0h1.088l.189.009.162.018.153.036.135.045.126.054.108.063.1.072.09.081.081.081.063.09.054.1.045.1.036.108.027.108.018.108.009.108-.009.108-.018.108-.018.09v.018l-.036.108-.045.1-.054.1-.063.09-.072.081-.09.081-.1.072-.108.063-.126.054-.135.045-.153.036-.171.018-.2.009h-1.1v-.863l.009-1.493ZM23.5,14.315l.27.935.252.845H22.973l.252-.845.279-.935ZM53.751,16.67h2.014l.144.009.117.018.108.027.1.036.081.045.081.054.072.063.063.072.054.081.054.09.045.1.036.1.027.108.018.117.009.117v.117l-.009.117-.018.117-.027.117-.027.108-.036.108-.045.1-.054.09-.063.081-.063.072-.072.063-.072.054-.081.045-.063.027-.018.009-.1.027-.108.018-.126.009h-2.05v-.036l.009-2.275ZM5.8,20.42v.818l.009.126.018.126.018.126.027.117.036.117.018.045.027.063L6,22.065l.045.1.054.1.063.09.063.081.072.081.072.081.072.072.081.072L6.6,22.8l.081.063.045.027.036.027.09.045.09.045.09.036.09.036.09.027.09.027.1.027.1.018.1.018.1.009.1.009.1.009h.189l.09-.009.09-.009.09-.009.09-.018.09-.018.09-.027.09-.027.09-.036.09-.036.09-.045.09-.045.081-.054.027-.018.054-.036.081-.063.081-.063.072-.072.072-.072.072-.081.054-.072.009-.009.063-.09.054-.09.054-.1.045-.1.036-.108.018-.054.018-.054L9.99,21.7l.027-.117.018-.117.018-.126.009-.126v-.818L5.8,20.42Zm11.59,0-.045.144-.036.153-.027.144L17.264,21l-.009.135v.27l.009.126.018.126.027.117.027.117V21.9l.036.1.045.108.045.108.054.1.054.09.027.045.027.045.063.081.072.081.072.072.072.072.081.063.063.045.018.009.081.054.081.045.081.045.081.036.09.036.09.027.09.027.09.018.09.018.108.018h.728l.09-.009.09-.009.09-.009.1-.018.1-.027.1-.036.1-.036.1-.045.1-.054.09-.063.027-.018.063-.054.09-.081.081-.09.081-.1.081-.108.018-.027.054-.09.072-.126.072-.135.063-.144.027-.063.036-.09.063-.162.063-.171.063-.18.279-.863L17.39,20.42Zm7.894,0,.279.926.054.171.054.162.063.153.036.072.027.072.063.135.072.126.072.117.063.1.009.009.081.108.081.1.081.09.09.081.09.072.009.009.081.063.09.063.1.054.1.045.1.036.1.036.1.027.09.018.09.018.09.009.09.009.09.009h.638l.108-.009.108-.018.108-.027.108-.027.1-.036.1-.045.1-.045.1-.054.1-.063.063-.045.027-.018.09-.072.09-.081.081-.081.081-.09.072-.1.018-.027.054-.072.063-.108.054-.108.045-.117.045-.117.009-.027.027-.1.027-.126.018-.135.009-.135v-.144l-.009-.144L30.041,21l-.018-.144L30,20.7l-.036-.153-.036-.108-4.64-.018Zm5.53,0v.818l.009.126.009.126.018.117.027.117.027.108.018.063.018.045.036.108.045.1.045.1.054.09.063.09.018.027.045.063.063.081.072.072.072.072.081.063.081.063.072.045.009.009.081.054.09.045.09.045.09.036.09.036.09.027.1.027.1.018.1.018.1.009.1.009.1.009h.189l.09-.009.09-.009.09-.009.09-.018.09-.018.09-.027.09-.027.09-.036.09-.036.09-.036.09-.045.09-.045.027-.018.054-.036.081-.063.081-.063.072-.072.072-.072.072-.081.063-.081.063-.09.054-.09.054-.1.045-.1.045-.108.018-.063.018-.045.036-.117.027-.117.018-.126L35,21.373l.009-.126v-.818l-4.2-.009Zm6.069,0L37.9,21.894l.072.108.18.243.18.207.018.018.207.2.216.171.117.081.1.063.225.117.225.09.234.063.234.036.225.018.225-.009.216-.036.216-.054.207-.072.2-.09.18-.108.027-.018.144-.1.162-.135.144-.153.054-.072.072-.09.117-.171.1-.189.045-.1.036-.1.063-.207.036-.216.018-.216-.009-.225-.036-.225-.054-.225-.027-.072-5.377-.009Zm12.651,0v.755l.009.126.018.117.018.117.027.117.027.108.036.108.009.036.027.072.045.1.054.09.054.09.063.081.063.081.027.036.036.045.072.072.072.063.081.063.081.054.081.054.09.045.09.045.054.027.036.018.09.036.09.027.09.027.09.018.09.018.09.018.09.009.09.009.09.009h4.855l.3-.009.288-.018.279-.036L57.509,23l.27-.063.045-.009.216-.063.252-.081.243-.09.234-.108.225-.117L59,22.461l.207-.117.207-.135.189-.144.171-.144.009-.009.171-.162.162-.171.153-.18.144-.189.135-.2.117-.207.108-.216.063-.135-11.3-.036Zm13.424,0,.027.054.144.261.153.243.171.234.18.216.189.207.189.189.072.072.126.108.207.171.207.153.18.117.036.027.216.135.216.117.216.108.18.081.036.018.216.09.216.081.216.063.216.054.207.045.207.036.2.027.2.018.189.009h.369l.2-.009.2-.018.207-.027.207-.036.216-.045.216-.063.225-.072L69.62,23l.225-.09.018-.009.207-.09.225-.108.225-.126.216-.135.009-.009.207-.135.216-.153.207-.171.1-.09.1-.09.2-.2.189-.207.18-.225.171-.234.153-.252.144-.261.009-.009-9.657.009Z" transform="translate(-5.279 -5.279)"/>
  <path id="path45" d="M72.51,11a4.846,4.846,0,0,0-4.936,4.9v6.725A4.916,4.916,0,0,0,68.859,26a4.918,4.918,0,0,0,7.31,0,4.841,4.841,0,0,0,1.277-3.435l-.018-3.2L77.41,15.9A4.8,4.8,0,0,0,72.51,11Zm-44.2.063a2.167,2.167,0,0,0-2.131,1.663l-1.906,6.636L22.536,25.4a2.053,2.053,0,0,0-.072.593h3.363c.018-.045.027-.09.045-.135l.4-1.268h4.073l.4,1.331.018.072h3.534a2.486,2.486,0,0,0-.135-.755l-1.753-5.889-1.978-6.636a2.194,2.194,0,0,0-2.131-1.654Zm6,14.944H30.772c.521,1.654,1.349,1.564,2.1,1.529A1.484,1.484,0,0,0,34.305,26.006Zm-8.479,0H22.464a1.447,1.447,0,0,0,1.25,1.5c.845-.036,1.511.288,2.113-1.5ZM37.65,11.063a1.526,1.526,0,0,0-1.636,1.663V25.836a.977.977,0,0,0,.009.162h3.255c0-.054.009-.108.009-.162v-4.9l3.48,5.071.315.45c1.34,1.969,3.39.944,3.543-.45a1.592,1.592,0,0,0-.333-1.151L43.18,20.6a4.724,4.724,0,0,0,1.771-1.232,5.129,5.129,0,0,0,1.214-3.552,4.912,4.912,0,0,0-5.026-4.747l-3.489-.009Zm12.426.036a1.541,1.541,0,0,0-1.6,1.636V25.845a.977.977,0,0,0,.009.162h3.354c0-.054.009-.108.009-.162V12.672a1.624,1.624,0,0,0-1.7-1.573Zm1.762,14.908H48.485a1.554,1.554,0,0,0,1.663,1.5A1.587,1.587,0,0,0,51.839,26.006ZM12.7,11.126a1.554,1.554,0,0,0-1.7,1.6V25.836a.977.977,0,0,0,.009.162,1.564,1.564,0,0,0,1.69,1.5A1.5,1.5,0,0,0,14.3,26h0c0-.054.009-.108.009-.162v-4.9h3.336v4.9a.977.977,0,0,0,.009.162,1.526,1.526,0,0,0,1.627,1.5A1.526,1.526,0,0,0,20.908,26h0c0-.054.009-.108.009-.162V12.762a1.552,1.552,0,0,0-1.636-1.636,1.506,1.506,0,0,0-1.636,1.6v4.936H14.336V12.7A1.536,1.536,0,0,0,12.7,11.126Zm47.375.126h-3.7a1.536,1.536,0,0,0-1.636,1.573V25.782a1.806,1.806,0,0,0,.009.225,1.479,1.479,0,0,0,1.627,1.349h4.747a4.414,4.414,0,0,0,3.354-1.349h0A4.745,4.745,0,0,0,65.6,22.635a3.731,3.731,0,0,0-1.349-3.264c-.117-.1-.243-.207-.378-.315a4.751,4.751,0,0,0-3.767-7.8Zm12.372,3.057a1.563,1.563,0,0,1,1.7,1.6v6.663a1.579,1.579,0,0,1-1.663,1.789c-.953.027-1.636-.557-1.636-1.789V15.909A1.527,1.527,0,0,1,72.447,14.309Zm-33.16.027h1.879c2.005,0,1.978,3.3,0,3.3H39.287Zm18.72,0H59.58a1.661,1.661,0,1,1,0,3.3H58.007ZM28.245,17.393l.575,1.978.566,1.942H27.076l.584-1.942Zm29.761,3.543h2.5c2.005.027,1.879,3.273.027,3.273H58.007Zm-18.72,5.071H36.032a1.515,1.515,0,0,0,1.627,1.5A1.551,1.551,0,0,0,39.287,26.006Z" transform="translate(-10.011 -10.011)" fill="#e20015"/>
  <path id="path51" d="M16.3,18.179c.216-.135.495.081.306.324a1.814,1.814,0,0,0-.513.926.24.24,0,0,1-.45-.162,1.457,1.457,0,0,1,.656-1.088" transform="translate(-14.235 -16.507)" fill="#fff"/>
  <path id="path53" d="M659.433,21.083c.243-.027.4.279.135.414a3.3,3.3,0,0,0-1.1.872.236.236,0,0,1-.333-.333,2.438,2.438,0,0,1,1.295-.953" transform="translate(-598.913 -19.186)" fill="#fff"/>
  <path id="path55" d="M90,17.679c.216-.135.495.081.306.324a1.814,1.814,0,0,0-.513.926.24.24,0,0,1-.45-.162A1.49,1.49,0,0,1,90,17.679" transform="translate(-81.309 -16.052)" fill="#fff"/>
  <path id="path57" d="M186.811,18.251c.234-.081.468.189.225.387a1.773,1.773,0,0,0-.7.791.242.242,0,0,1-.4-.261,1.532,1.532,0,0,1,.881-.917" transform="translate(-169.188 -16.596)" fill="#fff"/>
  <path id="path59" d="M294.7,17.079c.216-.135.495.081.306.324a1.814,1.814,0,0,0-.513.926.24.24,0,0,1-.45-.162,1.458,1.458,0,0,1,.656-1.088" transform="translate(-267.604 -15.506)" fill="#fff"/>
  <path id="path61" d="M433.306,18.663c.189-.162.5.009.342.279a1.813,1.813,0,0,0-.387.98.24.24,0,0,1-.468-.1,1.533,1.533,0,0,1,.513-1.16" transform="translate(-393.879 -16.928)" fill="#fff"/>
  <path id="path63" d="M502.3,19.279c.216-.135.495.081.306.324a1.813,1.813,0,0,0-.512.926.24.24,0,0,1-.45-.162,1.474,1.474,0,0,1,.656-1.088" transform="translate(-456.538 -17.508)" fill="#fff"/>
</svg>
