<svg xmlns="http://www.w3.org/2000/svg" width="80.832" height="32.931" viewBox="0 0 80.832 32.931">
  <g id="heinz-1869" transform="translate(-0.857 -0.86)">
    <path id="Path_11907" data-name="Path 11907" d="M9.7,9.174A64.093,64.093,0,0,1,57.6,2.975,62.711,62.711,0,0,1,73.138,9.367a2.728,2.728,0,0,1,.795.929A2.8,2.8,0,0,1,74.1,12.52a52,52,0,0,0-2.737,7.557,1.871,1.871,0,0,0,.952,1.94,1.753,1.753,0,0,0,.653.2c2.386.2,4.971-.323,7.32.074a1.862,1.862,0,0,1,1.165.9,1.808,1.808,0,0,1,.216.658l.014.117,0,.117,0,.119-.01.117-.017.113-.025.115-2.285,9.244-76.154,0L.913,24.547l-.025-.115L.87,24.319.86,24.2l0-.119a1.772,1.772,0,0,1,.1-.571,1.841,1.841,0,0,1,.771-.987c2.065-1.149,7.2.717,8.878-.777a1.848,1.848,0,0,0,.577-1.671A51.194,51.194,0,0,0,8.446,12.52,2.789,2.789,0,0,1,9.7,9.174" transform="translate(-0.001)" fill="#fff"/>
    <path id="Path_11908" data-name="Path 11908" d="M9.7,9.174A64.092,64.092,0,0,1,57.6,2.975,62.709,62.709,0,0,1,73.137,9.367a2.73,2.73,0,0,1,.795.929,2.8,2.8,0,0,1,.171,2.224,51.993,51.993,0,0,0-2.737,7.557,1.871,1.871,0,0,0,.952,1.94,1.747,1.747,0,0,0,.653.2c2.386.2,4.971-.323,7.32.074a1.863,1.863,0,0,1,1.165.9,1.81,1.81,0,0,1,.216.658l.013.117,0,.117,0,.119-.01.117-.018.113-.025.115L79.35,33.792,3.2,33.79.912,24.548l-.025-.115L.869,24.32.859,24.2l0-.119a1.768,1.768,0,0,1,.1-.571,1.842,1.842,0,0,1,.772-.988c2.065-1.149,7.2.717,8.878-.777a1.849,1.849,0,0,0,.577-1.671,51.2,51.2,0,0,0-2.733-7.557A2.789,2.789,0,0,1,9.7,9.174Z" transform="translate(0 0)" fill="none"/>
    <path id="Path_11909" data-name="Path 11909" d="M182.277,99.1a4.414,4.414,0,0,1-.127-1.488c-.584.13-1.993.522-2.719.732a4.429,4.429,0,0,1,.6,1.41l.67,2.314-2.458.767-.83-2.394a3.737,3.737,0,0,1-.251-1.406c-.771.226-2.061.688-2.663.912a3.933,3.933,0,0,1,.75,1.379l2.351,6.864a3.678,3.678,0,0,1,.273,1.533c.688-.241,1.837-.672,2.663-.894a4.083,4.083,0,0,1-.684-1.278l-.962-2.855s2.341-.754,2.341-.752.814,2.77.814,2.772a4,4,0,0,1,.152,1.607c.726-.2,2-.53,2.7-.67a3.758,3.758,0,0,1-.643-1.5L182.277,99.1m10.685,5.956a4.205,4.205,0,0,1-.218,1.611c.364-.012.859-.041,1.367-.041s1.021.025,1.369.033a4.207,4.207,0,0,1-.226-1.611l0-7.405a4.459,4.459,0,0,1,.214-1.457c-.892-.039-1.961-.049-2.754-.006a5.128,5.128,0,0,1,.232,1.5l.012,7.374m-7.109.781a4.141,4.141,0,0,1,.008,1.6,53.515,53.515,0,0,1,5.8-.744l-.168-2.269a2.84,2.84,0,0,1-1.332.5l-2.242.279-.325-2.444,1.389-.162a2.667,2.667,0,0,1,1.147.154l-.281-2.474a1.863,1.863,0,0,1-1.077.317l-1.5.187-.319-2.156s1-.177,2.275-.325a3.549,3.549,0,0,1,1.529.088l-.14-2.09a62.614,62.614,0,0,0-6.367.876,3.861,3.861,0,0,1,.471,1.51l1.134,7.148m11.229-.616a4.28,4.28,0,0,1-.4,1.482c.684.055,1.805.123,2.491.224a3.585,3.585,0,0,1-.066-1.533l.434-4.675c.017.051,1.722,5.726,2.01,6.542.471.082,1.486.284,2.092.421a3.576,3.576,0,0,1,.012-1.41l0,0s1.507-7.333,1.506-7.331a3.08,3.08,0,0,1,.549-1.43c-.635-.134-1.868-.409-2.481-.516a3.29,3.29,0,0,1-.086,1.578l-.863,4.452-1.973-6.465c-.573-.076-1.706-.206-2.526-.255a3.917,3.917,0,0,1,.047,1.515l-.744,7.4m14.392,2.33a4.333,4.333,0,0,1-1.687-.144l-2.2-.711,6.069-5.1-.378-1.847c-1.533-.577-4.4-1.48-5.792-1.815l-.586,2.08a3.444,3.444,0,0,1,1.508.107s2.7.824,2.694.822l-6.166,5.142.131,1.934a53.157,53.157,0,0,1,5.578,1.765l.831-2.236" transform="translate(-152.95 -83.934)"/>
    <path id="Path_11910" data-name="Path 11910" d="M40.426,76.662h2.154c2.592,0,6.209,0,6.209,0,3.782,0,5.664-3.259,4.33-6.819l-3.432-9.248a62.44,62.44,0,0,1,23.585-5.1,62.61,62.61,0,0,1,23.614,5.1l-3.432,9.248c-1.334,3.56.547,6.819,4.33,6.819,0,0,3.619,0,6.209,0H108.7l.573-1.989L97.785,74.7c-1.983,0-3.368-1.463-2.493-4.079,0,0,2.836-7.651,4.141-11.1-4.526-2.08-14.705-6.038-26.172-6.038s-21.643,3.956-26.17,6.038c1.3,3.449,4.139,11.1,4.139,11.1.884,2.643-.592,4.053-2.493,4.053H37.24l.471,1.989h2.715" transform="translate(-32.047 -46.351)" fill="#00a84f"/>
    <path id="Path_11911" data-name="Path 11911" d="M32.5,54.847l-.639-2.633H42.511c1.241,0,1.634-.438,1.069-1.928l-4.5-11.91c2.879-1.5,15.023-7.4,29.467-7.4s26.588,5.9,29.467,7.4l-4.5,11.91c-.565,1.492-.173,1.928,1.069,1.928H105.23l-.7,2.632c-.793,0-1.574,0-2.75,0h.049l-8.782.025c-1.983,0-3.368-1.463-2.491-4.079,0,0,2.834-7.651,4.139-11.1-4.527-2.08-14.705-6.038-26.172-6.038S46.882,37.614,42.355,39.7c1.3,3.449,4.139,11.1,4.139,11.1.884,2.643-.592,4.053-2.493,4.053H35.219l-2.717,0" transform="translate(-27.311 -26.527)" fill="#c59952"/>
    <path id="Path_11912" data-name="Path 11912" d="M254.869,213c0-.207,0-.238-.119-.251l-.031,0c-.012-.007-.008-.043,0-.049.084,0,.15.006.23.006h.364a2.587,2.587,0,0,0,.261-.006,1.923,1.923,0,0,1,.031.267.038.038,0,0,1-.049,0c-.027-.1-.045-.164-.146-.193a.926.926,0,0,0-.189-.012h-.14c-.056,0-.056,0-.056.08v.4c0,.057.006.057.064.057h.111a.693.693,0,0,0,.164-.012c.025-.012.039-.021.049-.07l.016-.082c.008-.012.043-.012.049,0,0,.047-.006.125-.006.2s.006.146.006.193c-.006.014-.041.014-.049,0l-.018-.078a.083.083,0,0,0-.062-.076.632.632,0,0,0-.148-.01h-.111c-.058,0-.064,0-.064.053v.282c0,.105.006.173.037.2s.062.047.234.047a.505.505,0,0,0,.247-.033.5.5,0,0,0,.138-.193.036.036,0,0,1,.049.014,1.882,1.882,0,0,1-.088.281q-.26-.006-.52-.006h-.173c-.084,0-.15,0-.265.006-.012-.006-.014-.041,0-.051l.064-.006c.111-.01.121-.041.121-.249V213m1.383,1.05a.582.582,0,0,1-.3-.074.9.9,0,0,1-.058-.279c.01-.017.039-.019.047-.006a.364.364,0,0,0,.339.294.218.218,0,0,0,.238-.23.312.312,0,0,0-.166-.278l-.187-.123a.438.438,0,0,1-.216-.343.344.344,0,0,1,.388-.345.6.6,0,0,1,.181.027.38.38,0,0,0,.068.012.8.8,0,0,1,.039.243.03.03,0,0,1-.047,0,.262.262,0,0,0-.269-.222.2.2,0,0,0-.226.22.322.322,0,0,0,.169.245l.16.1a.461.461,0,0,1,.249.38.363.363,0,0,1-.405.372m1.214-.331c0,.206,0,.238.115.249l.062.006c.012.008.008.045,0,.051q-.127-.005-.253-.006c-.078,0-.146,0-.271.006a.036.036,0,0,1,0-.051l.07-.006c.111-.01.121-.041.121-.249v-.892c0-.062,0-.064-.058-.064h-.107a.388.388,0,0,0-.24.051.381.381,0,0,0-.086.136.035.035,0,0,1-.051-.016,2.03,2.03,0,0,0,.074-.294c.006,0,.031-.008.037,0,.012.06.074.06.166.06h.785c.105,0,.123,0,.15-.054.01,0,.035,0,.039.006a1.155,1.155,0,0,0-.033.3.033.033,0,0,1-.049.006.278.278,0,0,0-.049-.146.331.331,0,0,0-.226-.051h-.138c-.056,0-.054,0-.054.068v.888m.747-.861c0-.088-.006-.115-.056-.123l-.027,0c-.01-.008-.012-.029,0-.035.1-.006.2-.01.306-.01a.686.686,0,0,1,.271.041.372.372,0,0,1,.249.37.418.418,0,0,1-.214.376.6.6,0,0,1-.275.06c-.078,0-.158-.012-.2-.012s-.1,0-.154.006a.027.027,0,0,1,0-.033l.027,0c.072-.012.074-.025.074-.158v-.477m.1.452a.229.229,0,0,0,.025.136c.025.039.072.051.15.051.238,0,.345-.16.345-.4a.351.351,0,0,0-.386-.372.271.271,0,0,0-.123.018c-.01.008-.012.039-.012.1Zm.183.427a.149.149,0,1,0,.127.146.138.138,0,0,0-.127-.146M270.755,213c0-.207,0-.238-.117-.251l-.031,0c-.012-.007-.008-.043,0-.049.086,0,.15.006.23.006h.364a2.616,2.616,0,0,0,.263-.006,2.33,2.33,0,0,1,.031.267.038.038,0,0,1-.049,0c-.029-.1-.047-.164-.148-.193a.916.916,0,0,0-.187-.012h-.142c-.057,0-.057,0-.057.08v.4c0,.057.006.057.064.057h.113a.716.716,0,0,0,.164-.012c.023-.012.037-.021.047-.07l.017-.082a.036.036,0,0,1,.049,0c0,.047-.01.125-.01.2s.01.146.01.193a.036.036,0,0,1-.049,0l-.019-.078c-.008-.037-.021-.066-.058-.076a.686.686,0,0,0-.15-.01h-.113c-.058,0-.064,0-.064.053v.282c0,.105.006.173.035.2s.064.047.236.047a.521.521,0,0,0,.249-.033.5.5,0,0,0,.136-.193.035.035,0,0,1,.049.013,1.9,1.9,0,0,1-.086.281q-.261-.006-.522-.006h-.173c-.084,0-.15,0-.263.006a.04.04,0,0,1,0-.051l.064-.006c.109-.01.119-.041.119-.249V213m1.4,1.05a.59.59,0,0,1-.306-.074.909.909,0,0,1-.057-.279.028.028,0,0,1,.045-.006.365.365,0,0,0,.341.294.219.219,0,0,0,.238-.23.318.318,0,0,0-.168-.278l-.185-.123a.435.435,0,0,1-.218-.343.344.344,0,0,1,.388-.345.608.608,0,0,1,.183.027.365.365,0,0,0,.066.012.866.866,0,0,1,.041.243c-.006.014-.041.02-.049,0a.261.261,0,0,0-.269-.222.2.2,0,0,0-.226.22.324.324,0,0,0,.171.245l.158.1a.462.462,0,0,1,.249.38.361.361,0,0,1-.4.372m1.21-.331c0,.206.006.238.119.249l.06.006c.012.008.008.045,0,.051q-.127-.005-.253-.006c-.078,0-.146,0-.271.006-.01-.006-.016-.041,0-.051l.07-.006c.113-.01.123-.041.123-.249v-.892c0-.062,0-.064-.058-.064h-.105a.385.385,0,0,0-.24.051.332.332,0,0,0-.086.136.035.035,0,0,1-.051-.016,2.275,2.275,0,0,0,.072-.294c.006,0,.033-.008.037,0,.012.06.076.06.165.06h.785c.1,0,.123,0,.152-.054a.044.044,0,0,1,.039.006,1.244,1.244,0,0,0-.033.3c-.008.017-.039.017-.051.006a.279.279,0,0,0-.049-.146.328.328,0,0,0-.226-.051h-.138c-.057,0-.057,0-.057.068v.888m.748-.861c0-.088-.006-.115-.057-.123l-.029,0a.023.023,0,0,1,0-.035q.155-.009.31-.01a.677.677,0,0,1,.269.041.371.371,0,0,1,.251.37.419.419,0,0,1-.214.376.612.612,0,0,1-.277.06c-.078,0-.158-.012-.2-.012s-.1,0-.154.006a.024.024,0,0,1,0-.033l.027,0c.072-.012.074-.025.074-.158v-.477m.1.452a.249.249,0,0,0,.023.136c.029.039.076.051.154.051.238,0,.343-.16.343-.4a.351.351,0,0,0-.386-.372.272.272,0,0,0-.123.018c-.01.008-.012.039-.012.1Zm.183.427a.148.148,0,0,0,0,.294.148.148,0,0,0,0-.294m-13.56-1.893h.1v2.423c0,.358,0,.5.464.5v.08h-1.387v-.08c.429-.01.473-.055.473-.388v-1.771c0-.306-.045-.417-.218-.417a.744.744,0,0,0-.282.068l-.039-.068.894-.351m1.015.693c0-.436.491-.692.991-.692.648,0,1.005.327,1.005.639,0,.343-.432.575-.762.734.378.24.839.506.839.929,0,.475-.5.767-1.067.767-.84,0-1.056-.53-1.056-.721,0-.366.388-.631.734-.83-.341-.228-.686-.442-.686-.828m1.607-.084c0-.3-.228-.477-.606-.477-.3,0-.612.162-.612.421,0,.347.435.536.719.742C263.246,212.928,263.462,212.776,263.462,212.449Zm-1.239,1.71a.613.613,0,0,0,.684.613c.327,0,.635-.161.635-.442,0-.249-.224-.465-.88-.886a.87.87,0,0,0-.438.715Zm4.507-2.24a1.767,1.767,0,0,0-1.64,1.284,1.552,1.552,0,0,1,.777-.216.886.886,0,0,1,.935.874,1.108,1.108,0,0,1-1.151,1.046,1.184,1.184,0,0,1-1.173-1.225,2.07,2.07,0,0,1,2.135-1.843h.117v.08m-1.118,1.254a1.229,1.229,0,0,0-.561.185,2.089,2.089,0,0,0-.051.45c0,.32.179.964.7.964a.629.629,0,0,0,.623-.693C266.32,213.736,266.152,213.173,265.613,213.173Zm1.7,1.652a1.735,1.735,0,0,0,1.636-1.27,1.7,1.7,0,0,1-.777.216.887.887,0,0,1-.935-.878,1.1,1.1,0,0,1,1.151-1.054,1.191,1.191,0,0,1,1.173,1.231,2.075,2.075,0,0,1-2.158,1.837h-.09v-.082m1.73-1.876c0-.312-.177-.98-.7-.98a.63.63,0,0,0-.623.707c0,.325.15.9.672.9a1.154,1.154,0,0,0,.6-.187A2.121,2.121,0,0,0,269.045,212.949Z" transform="translate(-223.573 -185.837)" fill="#bf2f38"/>
  </g>
</svg>
