<svg id="huggies-2" xmlns="http://www.w3.org/2000/svg" width="68.768" height="20.776" viewBox="0 0 68.768 20.776">
  <path id="Path_11740" data-name="Path 11740" d="M55.774,71.972l5.333.047.3.111L62.632,73.8a4.111,4.111,0,0,1,2.6-1.715,6.993,6.993,0,0,1,3.186,0,1.245,1.245,0,0,1,.637.294v3.382a.509.509,0,0,1-.784,0l-.441-.245-.393-.2a1.474,1.474,0,0,0-1.323.2.96.96,0,0,0-.245.882,2.4,2.4,0,0,0,1.176.98l1.274.637a6.438,6.438,0,0,1,1.912,1.912,4.779,4.779,0,0,1,.49,2.5,3.632,3.632,0,0,1-.49,1.715,4.546,4.546,0,0,1-1.323,1.421,6.158,6.158,0,0,1-2.843.784,5.454,5.454,0,0,1-2.941-.735l-.833-.539-.392.785c-.246.343-.441.49-.49.441l-5.882.049a1.483,1.483,0,0,1-1.078-.784l-.147-.49V72.963c.112-.558.961-.972,1.475-.991Zm5.878,8.815c-.074.2-.182.606-.441.606h-2.7v1.225h3.627l.49-.735a.822.822,0,0,1,.637-.441l1.324.931a6.687,6.687,0,0,0,1.372.49.881.881,0,0,0,.834-.588,1.023,1.023,0,0,0-.588-1.128l-.637-.245-.588-.343C62.779,78.991,61.8,77.472,61.9,75.9H58.613l-.1,1.47h2.7c.276.06.359.265.414.491l.028,2.923ZM2.834,69.042V86.05c0,.245.147.294.392.294H7.883a.36.36,0,0,0,.392-.392V79.581h3.039v6.371l.1.246.294.146,4.362.2a.5.5,0,0,0,.392-.246l.1-.343V69.189c0-.294,0-.539-.1-.637-.1-.245-.147-.392-.392-.392-1.667-.1-3.186,0-4.608.049-.147,0-.245.245-.245.833v5.146l-.049.1H8.275l-.049-.1V69.434c0-.392,0-.735-.1-.784-.1-.343-.147-.49-.392-.49-1.667-.1-3.186,0-4.607.049-.147,0-.246.245-.295.833Zm46.81,3.039a20.594,20.594,0,0,1,3.48,0l.246.049.1.343.1,13.479a1.332,1.332,0,0,1-.441.392h-3.48a.631.631,0,0,1-.49-.49V74.286l-.931,1.47q-.47.652-.98,1.274c-.147.1-.393,0-.637-.245l-.637-.392a2.739,2.739,0,0,0-1.666-.245,2.99,2.99,0,0,0-1.47.735,2.67,2.67,0,0,0-.98,2.7,2.3,2.3,0,0,0,.686,1.372,2.579,2.579,0,0,0,1.225.932l.294.146c.2,0,.245-.1.343-.146v-2.7a.84.84,0,0,1,.833-.441h2.6l.49.1a.5.5,0,0,1,.245.392v6.078a5.529,5.529,0,0,1-1.323.637,6.332,6.332,0,0,1-4.46.1,10.747,10.747,0,0,1-3.921-2.3l-.441-.49-.294-.49v2.451a6.736,6.736,0,0,1-4.118,1.127,8.361,8.361,0,0,1-4.068-1.127,6.041,6.041,0,0,1-2.353-2.205,6.2,6.2,0,0,1-1.912,2.3,4.792,4.792,0,0,1-2.7,1.127,5.137,5.137,0,0,1-2.843-.588,5.311,5.311,0,0,1-2.058-1.863,5.577,5.577,0,0,1-.784-2.352V72.571a.651.651,0,0,1,.147-.343l.343-.147a18.72,18.72,0,0,1,3.333,0l.245.147.147.343v9.068c0,.246.2.392.49.539h.736a.7.7,0,0,0,.49-.637v-8.97c0-.1.1-.2.2-.343l.294-.147a11.528,11.528,0,0,1,3.676,0q.294,0,.441.735v2.451a8,8,0,0,1,3.333-2.794,7.445,7.445,0,0,1,4.265-.392A5.625,5.625,0,0,1,38.519,73.7c.1.1.1.147,0,.343-.343.539-.981,1.52-1.961,2.99-.1.2-.147.245-.245.2a2.762,2.762,0,0,0-1.323-.833,2.671,2.671,0,0,0-1.52,0,2.565,2.565,0,0,0-1.324.637,3.038,3.038,0,0,0-.833,1.225,2.99,2.99,0,0,0-.049,1.47,2.181,2.181,0,0,0,.539,1.324,2.375,2.375,0,0,0,1.912,1.078l.049-.1V79.237c0-.246.2-.392.49-.49h3.284a6.808,6.808,0,0,1,1.078-3.676,6.383,6.383,0,0,1,2.843-2.5,6.881,6.881,0,0,1,3.921-.686,6.619,6.619,0,0,1,3.578,1.47h.2v-.883A.476.476,0,0,1,49.644,72.081ZM59.986,86.834h.49a1.12,1.12,0,0,1,.833.246,1.072,1.072,0,0,1,.343.833.772.772,0,0,1-.343.735,1.118,1.118,0,0,1-.833.246h-.49Zm.49,1.667a1.058,1.058,0,0,0,.588-.1l.147-.49a.612.612,0,0,0-.246-.588,1.382,1.382,0,0,0-.539-.049V88.5h.05ZM61.8,86.834h.392v2.059H61.8Zm.392,2.059.931-2.059h.246l.784,2.059H63.76l-.147-.589h-.735l-.245.589h-.442Zm1.225-.883-.245-.589-.147.589Zm.834.883V86.834h.49a.936.936,0,0,1,.589.2.491.491,0,0,1,.245.49.543.543,0,0,1-.245.49,1.456,1.456,0,0,1-.589.147h-.1v.735H64.25Zm.49-1.128h.246a.449.449,0,0,0,.147-.245l-.147-.245h-.343v.49Zm2.059-.49h-.735v.392H66.8v.392h-.735V88.5H66.8v.392H65.72V86.834H66.8Zm1.274-.246c.2.05.245.246.245.49a.557.557,0,0,1-.146.392,2.771,2.771,0,0,1-.393.246l.539.735h-.49l-.49-.834v.834h-.392V86.834h.588a.7.7,0,0,1,.538.2Zm-.245.294-.294-.049h-.2v.539h.2c.147,0,.245,0,.294-.05a.317.317,0,0,0,.1-.245C67.926,87.422,67.926,87.325,67.828,87.325Zm.833-.294.392-.2a.624.624,0,0,1,.441.2l.147.392h-.392A.232.232,0,0,0,69,87.177a.225.225,0,0,0-.2.245c0,.1.1.147.245.246.246.1.343.1.441.147a.54.54,0,0,1,.245.49.514.514,0,0,1-.245.441.933.933,0,0,1-.441.147.965.965,0,0,1-.49-.147.933.933,0,0,1-.147-.441h.343c0,.2.049.246.294.246.2,0,.246-.049.246-.246,0-.146-.049-.245-.294-.294l-.441-.2-.049-.393Zm1.961-14.8a.714.714,0,0,1,.637.343.959.959,0,0,1,0,1.47.932.932,0,0,1-.637.245.977.977,0,0,1-.735-1.715A.773.773,0,0,1,70.622,72.228Zm0,.147a.93.93,0,0,0-.637.245.918.918,0,0,0-.246.686.575.575,0,0,0,.246.539.713.713,0,0,0,.637.343.7.7,0,0,0,.589-.343.7.7,0,0,0,.245-.539,1.176,1.176,0,0,0-.245-.686A.905.905,0,0,0,70.622,72.375Z" transform="translate(-2.834 -68.118)" fill="#d91f33" fill-rule="evenodd"/>
  <path id="Path_11741" data-name="Path 11741" d="M186.508,80.633c.245,0,.392.1.392.343,0,.147-.1.245-.147.245.049.049.049.147.049.294l.1.245h-.245l-.1-.245a.156.156,0,0,0-.147-.147h-.245v.392h-.246V80.633h.589Zm-.343.245v.245h.245c.147,0,.246-.1.246-.147l-.147-.1Z" transform="translate(-118.623 -76.033)" fill="#d91f33" fill-rule="evenodd"/>
</svg>
