<svg xmlns="http://www.w3.org/2000/svg" width="128.481" height="23.574" viewBox="0 0 128.481 23.574">
  <g id="listerine-logo-1" transform="translate(0)">
    <path id="Path_11814" data-name="Path 11814" d="M50.025,6.63l-14.007,0v5.13h3.627l-.011,16.989h6.544l0-16.979,3.859-.007Zm-37.538,0-.022,22.1,6.389.011,0-22.13Zm79.682,0-.011,22.1,5.915.007-.007-9.9,5.036,9.905,7.209,0,0-22.122-6.4.007V17.646L98.275,6.615ZM.51,6.632.5,28.734H11.744l0-4.671H6.353l0-17.431Zm111.632-.006,0,22.122h13.621l.011-5.062-6.967,0,0-3.508,5.753,0,0-5.091-5.753,0,0-3.324,6.97,0V6.622Zm-61.218,0,0,22.122H64.564l-.011-5.062-6.967,0,0-3.508,5.768-.011V15.09H57.586l0-3.324,6.97,0V6.622ZM79.436,19.569a6.893,6.893,0,0,0,3.708-6.075A6.993,6.993,0,0,0,76.11,6.623L65.484,6.63l-.022,22.115,6.334,0V17.573s5.216,10.882,5.264,11.176h13.29l0-22.126-6.334,0L84,28.335Zm-5.109-7.622a2.409,2.409,0,1,1,.026,4.818v0L71.8,16.758l-.011-4.815,2.531.011Z" transform="translate(-0.5 -5.89)"/>
    <path id="Path_11815" data-name="Path 11815" d="M149.385,16.792l5.841,0-.007.906a2.361,2.361,0,0,0,2.435,2.195,2.168,2.168,0,0,0,2.384-2.195c0-1.777-1.644-2.007-3.4-2.584a13.6,13.6,0,0,1-5.032-2.648,6.242,6.242,0,0,1-2.189-5c0-3.7,3.774-6.422,8.228-6.422,4.3,0,8.2,2.875,8.155,6.422l.007.906-5.841,0,.029-.9a2.166,2.166,0,0,0-2.387-1.908,1.849,1.849,0,0,0-2.082,1.929c0,1.529,1.155,1.866,2.567,2.255a22.811,22.811,0,0,1,5.444,2.354,6.022,6.022,0,0,1,2.862,5.4c0,4.036-4.035,7.116-8.979,7.116-4.756,0-8.063-2.967-8.063-6.91ZM257.52,3.78a4.523,4.523,0,0,1-.63-.758l.035-.061a.756.756,0,0,0,.229,0,.26.26,0,0,0,.259-.258.3.3,0,0,0-.259-.261.886.886,0,0,0-.257-.013V3.556a.411.411,0,0,0,.048.232h-.315a.486.486,0,0,0,.044-.232V2.522a.506.506,0,0,0-.044-.239h.3a.926.926,0,0,1,.557.1.376.376,0,0,1,.146.311.443.443,0,0,1-.444.406,2.835,2.835,0,0,0,.723.691Zm-.325-1.792a1.081,1.081,0,1,0,1.076,1.084,1.078,1.078,0,0,0-1.076-1.084m0,2.343a1.277,1.277,0,0,1-1.295-1.26,1.29,1.29,0,0,1,2.579,0,1.274,1.274,0,0,1-1.284,1.26" transform="translate(-129.999 -1.038)"/>
  </g>
</svg>
