<svg xmlns="http://www.w3.org/2000/svg" width="80.76" height="14.818" viewBox="0 0 80.76 14.818">
  <g id="listerine-logo-1" transform="translate(-0.5 -1.038)">
    <path id="Path_11814" data-name="Path 11814" d="M31.63,6.625l-8.8,0V9.847h2.28L25.1,20.526h4.113l0-10.672,2.425,0Zm-23.6,0L8.021,20.518l4.016.007,0-13.91Zm50.086,0-.007,13.894,3.718,0,0-6.224,3.165,6.226,4.532,0,0-13.906-4.023,0v6.927L61.959,6.615Zm-57.614,0L.5,20.518H7.568l0-2.936H4.179l0-10.956Zm70.169,0,0,13.906h8.562l.007-3.182-4.379,0,0-2.205,3.616,0,0-3.2-3.616,0,0-2.089,4.381,0V6.619Zm-38.48,0,0,13.906h8.576l-.007-3.182-4.379,0,0-2.205,3.625-.007V11.942H36.383l0-2.089,4.381,0V6.619Zm17.921,8.136a4.333,4.333,0,0,0,2.331-3.819A4.4,4.4,0,0,0,48.027,6.62l-6.68,0-.014,13.9,3.981,0V13.5s3.279,6.84,3.309,7.025h8.354l0-13.908-3.981,0-.007,13.65ZM46.905,9.967A1.515,1.515,0,1,1,46.921,13v0l-1.607-.007-.007-3.026,1.591.007Z" transform="translate(0 -5.121)"/>
    <path id="Path_11815" data-name="Path 11815" d="M149.375,10.94l3.672,0,0,.57a1.484,1.484,0,0,0,1.531,1.38,1.363,1.363,0,0,0,1.5-1.38c0-1.117-1.034-1.262-2.136-1.624a8.547,8.547,0,0,1-3.163-1.665A3.924,3.924,0,0,1,149.4,5.075c0-2.325,2.372-4.037,5.172-4.037,2.705,0,5.151,1.807,5.126,4.037l0,.57-3.672,0,.018-.565a1.362,1.362,0,0,0-1.5-1.2,1.162,1.162,0,0,0-1.309,1.213c0,.961.726,1.173,1.614,1.417a14.338,14.338,0,0,1,3.422,1.48,3.785,3.785,0,0,1,1.8,3.4c0,2.537-2.536,4.473-5.644,4.473-2.99,0-5.068-1.865-5.068-4.344Zm67.971-8.179a2.843,2.843,0,0,1-.4-.476l.022-.038a.475.475,0,0,0,.144,0,.163.163,0,0,0,.163-.162.187.187,0,0,0-.163-.164.557.557,0,0,0-.161-.008v.709a.258.258,0,0,0,.03.146h-.2a.306.306,0,0,0,.027-.146v-.65a.318.318,0,0,0-.027-.15h.191a.582.582,0,0,1,.35.065.236.236,0,0,1,.092.2.278.278,0,0,1-.279.255,1.782,1.782,0,0,0,.455.434Zm-.2-1.126a.679.679,0,1,0,.676.681.678.678,0,0,0-.676-.681m0,1.473a.791.791,0,1,1,.807-.792.8.8,0,0,1-.807.792" transform="translate(-136.689)"/>
  </g>
</svg>
