<svg xmlns="http://www.w3.org/2000/svg" width="94.14" height="23.689" viewBox="0 0 94.14 23.689">
  <g id="mcvities" transform="translate(-2.536 -72.934)">
    <path id="Path_11914" data-name="Path 11914" d="M2.834,84.982c2.428-3.62,4.632-7.057,7.105-10.47a3.822,3.822,0,0,1,2.786-1.333c.042,0,.662.008,72.965.008,1.6,0,1.88,0,2.895.859.523.442,7.794,10.545,7.794,10.545s-7.1,10.525-7.222,10.669a3.456,3.456,0,0,1-2.707,1.119H12.934a4.5,4.5,0,0,1-2.714-1.217Z" transform="translate(0 0)" fill="#fff22d" stroke="#ecb731" stroke-miterlimit="2.613" stroke-width="0.489" fill-rule="evenodd"/>
    <path id="Path_11915" data-name="Path 11915" d="M96.446,87.387,90.777,79.45a3.544,3.544,0,0,0-2.489-1.168H16.813A3.614,3.614,0,0,0,14.3,79.458L8.855,87.534q2.875,4.026,5.781,8.028a3.035,3.035,0,0,0,2.4,1.123c.8,0,70.824.007,71.714-.013A2.845,2.845,0,0,0,91.1,95.317l5.348-7.93Z" transform="translate(-3.01 -2.552)" fill="#33348e" stroke="#000" stroke-miterlimit="2.613" stroke-width="0.489" fill-rule="evenodd"/>
    <path id="Path_11916" data-name="Path 11916" d="M22.341,96.687c-.728-.439-.243-1.859-.243-1.859a3.675,3.675,0,0,1,1.7-1.174c1.7-.391,4.516-.391,5.245-1.516a1.538,1.538,0,0,1-1.409,2.2A16.573,16.573,0,0,0,22.341,96.687Zm2.525-3.522s-2.379-2.494,1.505-3.473c1.749-.44,1.8.049,4.03-1.516a2.16,2.16,0,0,1-1.166,2.4C25.594,91.6,24.866,93.165,24.866,93.165Zm1.651-5.576s-.874-1.271,1.117-2.25c3.5-.783,4.273-1.419,4.273-1.419a1.845,1.845,0,0,1-1.165,2.152,7.741,7.741,0,0,0-3.885,2.2l-.34-.685Zm-.243-2.006s-3.448-4.3,3.69-5.625c.389,1.761-.971,3.815-1.505,4.353a3.518,3.518,0,0,1-2.185,1.272Z" transform="translate(-9.553 -3.39)" fill="#f2ca30" stroke="#000" stroke-miterlimit="2.613" stroke-width="0.489" fill-rule="evenodd"/>
    <path id="Path_11917" data-name="Path 11917" d="M26.585,81.427c-4.224,3.522-1.748,10.711-1.748,10.711l2.573-2.2s1.02-.588.583-2.4C27.507,85.78,26.585,86.563,26.585,81.427Z" transform="translate(-10.641 -4.124)" fill="#f2ca30" stroke="#000" stroke-miterlimit="2.613" stroke-width="0.489" fill-rule="evenodd"/>
    <path id="Path_11918" data-name="Path 11918" d="M19.973,98.594a3.072,3.072,0,0,0,1.943-.587s1.36-.537.971-2.837a16.8,16.8,0,0,1-1.214-6.9s-3.544,3.277-2.816,6.554c.728,3.376.631,2.544,1.117,3.766Z" transform="translate(-7.962 -7.548)" fill="#f2ca30" stroke="#000" stroke-miterlimit="2.613" stroke-width="0.489" fill-rule="evenodd"/>
    <path id="Path_11919" data-name="Path 11919" d="M100.6,94.087l-.127,1.8c1.117.587,3.938,1.741,5.879-.754,1.7-2.787.195-3.864.1-3.913-.729-1.027-2.574-1.223-2.914-1.859-.291-.635,0-1.81.923-1.908a2.6,2.6,0,0,1,2.622,1.223l.1-.1V86.522a5.841,5.841,0,0,1-1.942-.2,3.148,3.148,0,0,0-3.642,2.348c-.389,2.3.825,2.788.825,2.788l2.33,1.419s.729,1.125-.242,1.81C103.146,95.865,101.376,94.674,100.6,94.087Zm.168-5.853c1.265-1.4.38-1.885.253-2.1s-1.078-.006-1.078-.006c-1.262,1.076.1,1.663.243,1.565.195.293-.485.93-.485.93s.352.289,1.067-.391ZM85.91,95.919l-.126.435h3.186l.048-.2a1.476,1.476,0,0,1-.387-.49c-.1-.2,1.116-8.021,1.214-8.315-.049-.343.582-.685.582-.685v-.343H87.318l-.1.245a.986.986,0,0,1,.339.734c.049.685-.971,7.825-1.02,8.119s-.39.4-.632.5Zm6.7-9.544a46.626,46.626,0,0,0,5.972-.2l-.242,2.152h-.146s.049-.636-1.067-.636a6.1,6.1,0,0,0-1.944.1,8.5,8.5,0,0,0-.437,2.3c.534.928,2.671-.2,2.671-.2l-.437,2.4s-.048-.538-.971-.538-.678-.1-1.214,0c-.583.587-.679,2.74-.679,2.74s-.049.439.243.391c3.593.342,3.835-.734,3.835-.734s.049,2.4-1.6,2.2a39.056,39.056,0,0,0-5.488,0v-.294s.777-.146.826-1.369c.195-.049.776-6.506.922-7.239.195-.783-.291-.881-.291-.881A.807.807,0,0,1,92.611,86.375Zm-6.532.016-.548.063a48.43,48.43,0,0,1-7.515-.03c0,.049-.506,1.908-.506,1.908l.146.049a4.15,4.15,0,0,1,2.817-.734l.194.342s-.68,6.945-1.117,7.581c-.387.636-.679.587-.679.587v.2l3.448.007.049-.2s-.34.041-.389-.839a44.393,44.393,0,0,1,.923-7.288c.195-.391.048-.342.34-.44.242-.1.388-.2,1.214-.049a1.52,1.52,0,0,1,1.165,1.027l.459-2.186ZM72.522,96l-.129.4H75.52l.1-.2s-.437-.342-.437-.49,1.117-8.07,1.263-8.364c-.048-.343.534-.636.534-.636l.049-.342H73.917l-.146.244a.822.822,0,0,1,.388.734c.1.685-1.021,7.777-1.069,8.119A1.988,1.988,0,0,1,72.522,96Zm.706-9.563-.074-.018H70.567l.049.489-.146.734s-2.816,6.016-2.865,5.625c-.34,0-1.359-4.842-1.359-5.625a1.288,1.288,0,0,1,.679-1.076l-.049-.146H63.139a.623.623,0,0,0,.146.391,3.5,3.5,0,0,1,.923,2.006c.534,2.005,1.408,5.332,1.408,5.332s.632,2.446,1.942,2.348c1.02-1.761,3.982-8.413,3.982-8.413s.946-1.215,1.479-1.264ZM62.41,94.4c.34,1.859-1.8,1.615-1.8,1.615s-1.6-.1-2.234-.2a2.652,2.652,0,0,0-1.407.293,1.758,1.758,0,0,1,2.378-1.321c2.039.49,3.108-.293,3.059-.391ZM41.192,96.255s.194.146.826-.734,2.185-6.6,2.428-7.777-.486-1.125-.486-1.125l.146-.244,3.108-.049s.388.245,1.262,6.6c.194.928,4.475-6.513,4.475-6.513h2.621l-.1.252-.437.489s-.7,7.984-.437,8.658c.292.756.389.427.389.427l-.048.294-3.4.013.1-.343a.749.749,0,0,0,.486-.439,34.023,34.023,0,0,0,.485-5.674c-.146-.2-4.224,6.407-4.467,6.456-.194,0-1.02.146-1.505-2.348a31.488,31.488,0,0,0-.971-4.6c-.146-.049-1.941,6.114-1.941,6.114a3.558,3.558,0,0,0,.4.448c.292.294.049.245.049.245L41.289,96.4l-.1-.146Zm21.024-7.875c-.049-.049-.437-1.712-.437-1.712s-3.739-1.321-5.1,2.348c-1.36,3.571,2.865,5.479,4.515,4.4s1.069-1.322,1.166-1.566c.146-.2-.195-.146-.195-.146a3.139,3.139,0,0,1-1.262.685,1.961,1.961,0,0,1-2.282-.685,2.934,2.934,0,0,1,.1-3.424c.68-.734,1.894-1.321,3.5.1Z" transform="translate(-19.179 -6.432)" fill="#fff" fill-rule="evenodd"/>
  </g>
</svg>
