<svg xmlns="http://www.w3.org/2000/svg" width="117.816" height="29.425" viewBox="0 0 117.816 29.425">
  <path id="Path_11778" data-name="Path 11778" d="M207.566,133.22l-15.258,27.647h8.718l1.319-2.811h10.382l1.377,2.811h8.661l-1.147-2.065Zm-102.616.229v27.418H113.1v-10.1l13.365,11.873V135.457h-8.145v9.751Zm29.253,2.008v25.41h8.26v-25.41Zm9.808,0,14.4,26.614,14.455-26.615h-8.719l-5.736,11.357-5.621-11.357h-8.776Zm30.228,0v25.41h16.118v-6.654H182.5v-3.958h7.858v-4.761H182.5V142h7.858v-6.539H174.24Zm33.268,11.759,3.155,6.6h-6.252Z" transform="translate(-104.95 -133.22)" fill="#00136f"/>
</svg>
