<svg xmlns="http://www.w3.org/2000/svg" width="118.375" height="38.943" viewBox="0 0 118.375 38.943">
  <g id="Group_12844" data-name="Group 12844" transform="translate(0)">
    <g id="oral-b" transform="translate(0)">
      <path id="Path_11782" data-name="Path 11782" d="M107.571,67.47a19.422,19.422,0,0,1,19.308,17.535V88.83a19.484,19.484,0,0,1-18.434,17.583H27.029A19.483,19.483,0,0,1,27.9,67.47Z" transform="translate(-8.504 -67.47)" fill="#fff" fill-rule="evenodd"/>
      <path id="Path_11783" data-name="Path 11783" d="M28.668,69.816h79.668a17.844,17.844,0,0,1,17.82,17.867v.069a17.845,17.845,0,0,1-17.82,17.869H28.668A17.844,17.844,0,0,1,10.849,87.751v-.069A17.844,17.844,0,0,1,28.668,69.816Z" transform="translate(-9.27 -68.236)" fill="#1879bf" fill-rule="evenodd"/>
      <path id="Path_11784" data-name="Path 11784" d="M62.113,84.7,58.156,102.27h7.349L67.27,93.2a4.122,4.122,0,0,1,2.939-2.835h9.9a2.653,2.653,0,0,1,2.827-1.792c1.967.113,1.4,1.792-.137,2.131-4.251.93-12.143.454-11.984,7.143.068,3.084,3.234,4.831,6.4,4.875a9.041,9.041,0,0,0,4.636-1.134l.2.68h7.418a2.16,2.16,0,0,1-.341-.68,2.1,2.1,0,0,1-.112-.793l1.943-9.184c.841-3.97.116-7.006-7.3-7.413-2.871-.159-8.48.952-10,3.83l1.018-3.218c-3.392-1.814-6.354,1.633-6.354,1.633L67.947,84.7H62.113Zm40.909-6.78H96.1L90.608,102.27h7.326Zm21.8-.023-12.121.023-1.968,9.047h-5.7l-.973,4.988H109.6l-2.372,10.316h14.134c9.95,0,11.53-9.137,7.122-12.313C132.962,88.1,133.595,77.879,124.821,77.9Z" transform="translate(-24.713 -70.874)" fill="#fff" fill-rule="evenodd"/>
      <path id="Path_11785" data-name="Path 11785" d="M145.02,99l-.88,4.149h3.616c4.7,0,4.658-4.149,1.155-4.149Z" transform="translate(-52.782 -77.764)" fill="#1879bf" stroke="#1879bf" stroke-miterlimit="2.613" stroke-width="0.146" fill-rule="evenodd"/>
      <path id="Path_11786" data-name="Path 11786" d="M147.694,86.379l-.771,3.853h3.37c4.364,0,4.342-3.853,1.085-3.853Z" transform="translate(-53.691 -73.643)" fill="#1879bf" stroke="#1879bf" stroke-miterlimit="2.613" stroke-width="0.132" fill-rule="evenodd"/>
      <path id="Path_11787" data-name="Path 11787" d="M92.782,102.3C82.493,103.321,91.131,110.08,92.782,102.3Z" transform="translate(-34.397 -78.841)" fill="#1879bf" stroke="#1879bf" stroke-linejoin="bevel" stroke-miterlimit="2.613" stroke-width="0.161" fill-rule="evenodd"/>
      <path id="Path_11788" data-name="Path 11788" d="M22.9,92.22c.362-9.5,7.011-15.079,13.954-14.875,5.993-.068,11.488,3.22,11.488,9.932-.135,9.275-5.811,15.216-13.908,15.216-5,.385-11.353-2.654-11.534-10.272Z" transform="translate(-13.204 -70.692)" fill="#fff" stroke="#fff" stroke-miterlimit="2.613" stroke-width="0.073" fill-rule="evenodd"/>
      <path id="Path_11789" data-name="Path 11789" d="M34.318,94.6c.135-6.075,3.89-8.524,5.834-8.524,2.329.045,4.433,1.406,4.183,5.123-.135,4.127-3.007,8.593-6.061,8.345-2.08.114-3.956-1.268-3.956-4.943Z" transform="translate(-16.931 -73.544)" fill="#1879bf" stroke="#1879bf" stroke-miterlimit="2.613" stroke-width="0.073" fill-rule="evenodd"/>
      <path id="Path_11790" data-name="Path 11790" d="M170.344,98.332A3.3,3.3,0,1,0,168,97.367,3.3,3.3,0,0,0,170.344,98.332Zm0-.785a2.533,2.533,0,1,1,2.524-2.524A2.445,2.445,0,0,1,170.344,97.547Z" transform="translate(-60.256 -75.378)" fill="#fff" fill-rule="evenodd"/>
      <path id="Path_11791" data-name="Path 11791" d="M171.806,96a1.015,1.015,0,0,0,1.082-.936c.146-.912-.375-1.054-1.169-1.054h-1.672l-.545,3.443h.768L170.5,96h.531l.542,1.454h.834Zm-1.221-.519.135-.87h.744c.335,0,.776,0,.722.351-.07.435-.3.519-.684.519Z" transform="translate(-61.062 -76.136)" fill="#fff" fill-rule="evenodd"/>
    </g>
  </g>
</svg>
