<svg xmlns="http://www.w3.org/2000/svg" width="139.499" height="83.914" viewBox="0 0 139.499 83.914">
  <g id="pampers-1" transform="translate(0)">
    <path id="Path_11817" data-name="Path 11817" d="M22.694,83.5C19.582,64.71,25.8,102.28,22.694,83.5Z" transform="translate(-7.975 -31.554)" fill="#00707b" fill-rule="evenodd"/>
    <path id="Path_11818" data-name="Path 11818" d="M10.708,66.9c1.217-2.658,13.253-11.849,38.943-16.035s41.995,1.047,60.52,5.708,29.928,2.637,36.348-1.555c.731-.511.883-.127.818.328s-3.385,18.86-3.789,22.468.669,13.3,3.535,19.439,4.771,9.97,1.093,13.072-15.111,12.492-41.793,10.509-25-1.544-33.792-1.768-25.375,2.206-35.065,6.262-13.791,4.553-15.866.5,2.613-14.64-.5-33.427-9.822-24.37-10.458-25.5Z" transform="translate(-10.708 -44.719)" fill="#fff" fill-rule="evenodd"/>
    <path id="Path_11819" data-name="Path 11819" d="M88.8,80.61a8.465,8.465,0,0,0-5.067-3.022c-3.464-.711-8.084-.978-17.418.443-3.912.6-8.97,2.046-9.327.8-.429-1.493.186-2.171,3.2-3.377,4.44-1.777,12.986-2.222,17.5-2.222,6.843,0,10.411,2.833,11.11,4.088A3.743,3.743,0,0,1,88.8,80.61Zm16.084.478s.267,1.775-4.267.445S90.408,75.235,88.8,72.2c-1.513-2.846-3.2-12.175,6.04-12.085,3.39.031,6.666,4.354,6.666,4.354s.975-9.687,6.486-10.485c6.722-.977,7.972,9.144,6.487,14.392-4.177,14.753-8.8,14.4-8.8,14.4A56.111,56.111,0,0,0,109.5,73.8c1.068-3.825,2.643-11.821-.531-14.13-1.957-1.422-3.11.264-3.822,2.485s-.626,8.8-.626,8.8l-2.22.712a54.764,54.764,0,0,0-5.154-4.8c-2.3-1.8-4.529-3.466-5.154-1.6s2.108,7.971,4.357,10.218a27.973,27.973,0,0,0,8.53,5.6Zm10.235-1.154s-1.057-2.023.267-3.467c3.906-4.265,13.8-3.088,18.126-2.31,5.421.979,9.952,3.021,9.6,4.265s-2.13,1.333-6.666,0a39.43,39.43,0,0,0-16.7-1.243,7.922,7.922,0,0,0-4.621,2.755Z" transform="translate(-18.139 -45.457)" fill="#f6d330" fill-rule="evenodd"/>
    <path id="Path_11820" data-name="Path 11820" d="M121.047,43.833s1.952.264,1.42,3.463c-.339,2.024-.89,4.533-2.132,4.533-2.161,0-1.422-2.666-1.422-2.666l2.134-5.33Zm-19.6,9.739c.623.623,2.314-.712,2.314-.712a7.348,7.348,0,0,0-1.336-4.709c-.732-1.2-2.577-2.4-3.822-1.6-.952.612.875,2.155,1.42,3.555.8,2.044.8,2.842,1.423,3.465ZM81.218,57.515c.355-1.334,2.755-1.153,4.443-.445s3.111,1.779,3.111,2.668A1.774,1.774,0,0,1,87,61.249a26.936,26.936,0,0,1-3.378-2.133C82.021,58.049,81.218,57.515,81.218,57.515Z" transform="translate(-22.059 -43.833)" fill="#e39b30" fill-rule="evenodd"/>
    <path id="Path_11821" data-name="Path 11821" d="M39.455,97.124s-.128,3.1-.195,5.421c-.086,3.112-.2,2.185-.887,7.73,0,0-.356.447-3.286-.354-.884-.239-1.516-1.688-1.516-1.688s-.263-10.219-.263-14.927c0-3.824.179-13.153.179-13.153s1.864-3.823,7.906-3.287c7.552.889,8.978,7.583,7.616,11.136C46.637,94.579,39.455,97.124,39.455,97.124Zm-.2-5.152s3.026-.714,4.891-5.155c.829-1.983,1.156-5.617-1.865-5.954a2.55,2.55,0,0,0-2.935,1.688l-.091,9.421Zm24.624-6.089a3.677,3.677,0,0,1,1.91-.71,11.1,11.1,0,0,1,2.4.134l-.046,5.254a28.157,28.157,0,0,1,2.534-3.833,2.047,2.047,0,0,1,3.155.222A12.737,12.737,0,0,1,75.3,90.2s1.778-3.821,4.488-4.087c3.691-.267,5.465,4.574,5.2,12.214v10.355a4.519,4.519,0,0,1-1.69-.088,3.527,3.527,0,0,1-2.044-1.288l-.4-7.6s.117-3.641.072-4.662c.093-2.474-.806-4.384-1.806-4.356-1.422.091-2.245,2.295-2.268,9.243-.039,1.109-.129,8.753-.129,8.753a3.53,3.53,0,0,1-1.958-.267,8.061,8.061,0,0,1-1.508-1.42l-.444-12.262S72.766,91.351,71.3,91c-1.375-.179-2.711,1.6-2.838,10.219-.006,2.175-.139,5.777-.184,7.505-3.957-.531-4.443-2.706-4.532-3.861s-.088-8.621-.088-11.73C63.75,90.195,63.884,85.883,63.884,85.883Zm30.292.225c4.443,0,6.042,2.843,6.578,4.531,1.688,4.442-.267,10.838-2.135,12.885a10.289,10.289,0,0,1-6.753,3.82l-.179,10.93a8.508,8.508,0,0,1-2.044.356c-.89,0-1.953-1.243-1.953-1.243s-.444-9.953-.359-13.595.18-14.574.18-14.574,3.509-3.244,6.665-3.109Zm-2.134,4.621-.1,12.084a5.951,5.951,0,0,0,3.743-3.2c1.066-2.134,1.642-6.177.755-7.909C94.84,89.172,92.042,90.729,92.042,90.729Zm17.577-1.069c2.843.091,2.4,4.756,2.4,4.756s-4.353,1.812-5.017,2.125C107,96.541,106.361,89.925,109.619,89.66Zm-2.665,10.486c.382-.179,8.306-4.131,8.306-4.131s1.286-6.175-2.082-8.932a5.717,5.717,0,0,0-8.269,1.6c-1.957,2.8-4.266,10.309-1.422,16.927.49,1.021,2.046,3.333,4.8,3.155,5.506-.048,7.953-6.442,7.953-6.442s.511-.911-.954-1.534c-1.513-.8-1.732-.464-2.108.112-.316.488-2.206,3.4-4.2,3.265-2.318-.021-2.083-3.339-2.023-4.02Zm10.412-12.915s.328,7.348.5,10.368.536,8.975.567,9.565.444,1.6,1.419,1.6c.534,0,2.223-.148,2.223-.148s.029-4.443-.031-6.487c-.356-11.2,4.977-12.053,5.629-12.5A1.907,1.907,0,0,0,128,86.311c-1.717-.887-4.621.386-6.458,3.852-.029-.206,0-2.962,0-2.962s.12-1.009-.681-1.063a11.416,11.416,0,0,0-2.665.026C117.311,86.077,117.366,87.231,117.366,87.231Zm20.5,5.392c.446-.21,1.394-2.7-.59-3.376-2.311-.623-4.235,1.6-2.491,4.325,1.334,2.1,7.409,6.1,5.87,10.573-1.3,5.034-5.334,4.975-8,4.532-3.551-.505-5.6-3.406-5.419-5.835.09-1.629.713-2.515,1.243-2.249s.978,2.1,2.073,2.93c.681.77,3.112.918,4.207-.239,1.1-1.093,1.836-2.723-.206-4.589s-4.592-4.8-4.946-7.08c-.8-4.266,4.026-7.584,8.323-5.6a4.951,4.951,0,0,1,2.932,4.443c.089.3-.652,3.585-2.994,2.162ZM54.516,88.891a9.469,9.469,0,0,0-2.073,1.838c-1.483,1.008-2.846-.12-2.608-1.779.356-1.54,1.631-2.458,3.376-3.079a7.388,7.388,0,0,1,5.45.414c3.02,2.429,2.815,7.2,2.9,10.84s-.592,10.307-.592,10.307a4.8,4.8,0,0,1-2.338,1.245c-1.154.442-1.082-.444-1.082-.444l.15-6.221a46.626,46.626,0,0,1-4.089,5.022c-1.462,1.506-5.553,2.885-7.242-.4-.738-1.747-1.629-6.25,2.935-10.751a11.759,11.759,0,0,1,8.263-3.554s1.155-5.865-3.05-3.437Zm-3.925,13.257c-.442,3.02,1.641,1.732,2.62.755,1.913-2.178,3.465-6.131,2.966-7.081C52.811,96.283,51.037,100.1,50.591,102.147Z" transform="translate(-14.346 -49.142)" fill="#00707b" fill-rule="evenodd"/>
  </g>
</svg>
