<svg xmlns="http://www.w3.org/2000/svg" width="184.552" height="175.414" viewBox="0 0 184.552 175.414">
  <g id="Group_12973" data-name="Group 12973" transform="translate(-177.767 -1147.698)">
    <g id="Group_12971" data-name="Group 12971">
      <path id="Path_11939" data-name="Path 11939" d="M38.491,40h24.6V32.9H51.047v-.086c3.139-2.494,6.88-4.214,9.8-7.052A8.394,8.394,0,0,0,63.259,19.4c0-5.375-4-9.46-11.825-9.46-5.633,0-9.374,2.193-11.008,5.117-1.118,1.978-1.462,3.483-1.462,6.966h8.084a5.973,5.973,0,0,1,1.118-4.042,3.557,3.557,0,0,1,3.1-1.29c2.322,0,3.526,1.2,3.526,3.053,0,1.591-.946,2.8-2.58,3.913a99.876,99.876,0,0,0-10.363,7.568C39.351,33.507,38.491,35.786,38.491,40Zm40.549.688c7.955,0,13.8-5.977,13.8-15.351,0-9.331-5.547-15.394-13.8-15.394-7.955,0-13.717,6.063-13.717,15.394C65.323,34.711,71.257,40.688,79.04,40.688Zm.043-6.364c-3.569,0-4.945-3.7-4.945-8.987,0-5.246,1.376-9.116,4.945-9.116s4.945,3.87,4.945,9.116C84.028,30.626,82.652,34.324,79.083,34.324Zm28.939,6.364c7.955,0,13.8-5.977,13.8-15.351,0-9.331-5.547-15.394-13.8-15.394-7.955,0-13.717,6.063-13.717,15.394C94.305,34.711,100.239,40.688,108.022,40.688Zm.043-6.364c-3.569,0-4.945-3.7-4.945-8.987,0-5.246,1.376-9.116,4.945-9.116s4.945,3.87,4.945,9.116C113.01,30.626,111.634,34.324,108.065,34.324ZM137,40.688c7.955,0,13.8-5.977,13.8-15.351,0-9.331-5.547-15.394-13.8-15.394-7.955,0-13.717,6.063-13.717,15.394C123.287,34.711,129.221,40.688,137,40.688Zm.043-6.364c-3.569,0-4.945-3.7-4.945-8.987,0-5.246,1.376-9.116,4.945-9.116s4.945,3.87,4.945,9.116C141.992,30.626,140.616,34.324,137.047,34.324Zm16.426-5.031h6.407v7.138h7.525V29.293h6.407V22.284h-6.407V15.232H159.88v7.052h-6.407Z" transform="translate(157.211 1248.591)"/>
      <path id="Path_11940" data-name="Path 11940" d="M9.08,16h2.465V3.845H9.08ZM16.2,7.279H13.942V16h2.312V11.053a1.823,1.823,0,0,1,1.768-2.006,1.451,1.451,0,0,1,1.513,1.6V16h2.312V10.305a3,3,0,0,0-3.009-3.264,2.833,2.833,0,0,0-2.584,1.428H16.2Zm11.033,8.976a2.9,2.9,0,0,0,2.6-1.394h.034V16H32.1V3.845H29.786V8.333h-.051A2.765,2.765,0,0,0,27.27,7.041c-2.176,0-3.723,1.887-3.723,4.607C23.547,14.47,25.043,16.255,27.236,16.255Zm.51-1.938c-1.19,0-1.853-.986-1.853-2.669,0-1.615.646-2.737,1.921-2.737,1.479,0,2.023,1.122,2.023,2.788C29.837,13.3,29.123,14.317,27.746,14.317ZM34.291,16H36.6V7.279H34.291Zm0-10.081H36.6V3.845H34.291ZM41.108,16h2.21l3.043-8.721H44.049L42.621,11.8c-.255.833-.374,1.394-.374,1.394h-.034s-.136-.561-.391-1.394L40.428,7.279H38.082Zm6.732,0h2.312V7.279H47.84Zm0-10.081h2.312V3.845H47.84Zm7.769,10.336a2.9,2.9,0,0,0,2.6-1.394h.034V16h2.227V3.845H58.159V8.333h-.051a2.765,2.765,0,0,0-2.465-1.292c-2.176,0-3.723,1.887-3.723,4.607C51.92,14.47,53.416,16.255,55.609,16.255Zm.51-1.938c-1.19,0-1.853-.986-1.853-2.669,0-1.615.646-2.737,1.921-2.737,1.479,0,2.023,1.122,2.023,2.788C58.21,13.3,57.5,14.317,56.119,14.317ZM70.4,16V7.279H68.087v5.032a1.761,1.761,0,0,1-1.751,1.972c-.986,0-1.445-.561-1.445-1.581V7.279H62.6v5.814a2.846,2.846,0,0,0,3.026,3.145,2.8,2.8,0,0,0,2.5-1.258h.051V16Zm7.684,0H80.31v-.085c-.2-.153-.306-.544-.306-1.207V10.271c0-2.04-1.054-3.213-3.672-3.213-2.55,0-3.689,1.343-3.757,2.873h2.057c.068-.833.6-1.224,1.683-1.224.969,0,1.462.408,1.462,1.037,0,.663-.663.782-2.108.986-1.938.272-3.5.884-3.5,2.805,0,1.734,1.258,2.669,3.043,2.669a2.674,2.674,0,0,0,2.567-1.173h.034A2.365,2.365,0,0,0,78.083,16Zm-2.312-1.411c-.816,0-1.36-.289-1.36-1.1s.6-1.088,1.8-1.36a6.447,6.447,0,0,0,1.615-.51v1.309C77.828,13.773,77.1,14.589,75.771,14.589ZM82.2,16h2.312V3.845H82.2Zm8.092,2.856H92.6V15.014h.034a2.808,2.808,0,0,0,2.516,1.241c2.244,0,3.774-1.785,3.774-4.607,0-2.72-1.479-4.607-3.791-4.607a3.048,3.048,0,0,0-2.567,1.326h-.051V7.279H90.289Zm4.369-4.522c-1.377,0-2.108-1.037-2.108-2.618,0-1.564.578-2.8,2.023-2.8,1.428,0,2.006,1.156,2.006,2.8S95.831,14.334,94.658,14.334Zm8.262-7.055h-2.227V16H103V11.75a2.2,2.2,0,0,1,2.6-2.482h.051V7.245a1.51,1.51,0,0,0-.544-.068,2.287,2.287,0,0,0-2.142,1.5h-.051Zm8.313,8.976a4.434,4.434,0,0,0,4.556-4.607,4.556,4.556,0,1,0-9.112,0A4.434,4.434,0,0,0,111.233,16.255Zm0-1.768c-1.428,0-2.21-1.139-2.21-2.839s.782-2.856,2.21-2.856c1.411,0,2.21,1.156,2.21,2.856S112.644,14.487,111.233,14.487Zm9.588,1.768a2.9,2.9,0,0,0,2.6-1.394h.034V16h2.227V3.845h-2.312V8.333h-.051a2.765,2.765,0,0,0-2.465-1.292c-2.176,0-3.723,1.887-3.723,4.607C117.132,14.47,118.628,16.255,120.821,16.255Zm.51-1.938c-1.19,0-1.853-.986-1.853-2.669,0-1.615.646-2.737,1.921-2.737,1.479,0,2.023,1.122,2.023,2.788C123.422,13.3,122.708,14.317,121.331,14.317ZM135.611,16V7.279H133.3v5.032a1.761,1.761,0,0,1-1.751,1.972c-.986,0-1.445-.561-1.445-1.581V7.279h-2.3v5.814a2.846,2.846,0,0,0,3.026,3.145,2.8,2.8,0,0,0,2.5-1.258h.051V16Zm6.239.255a3.653,3.653,0,0,0,3.927-3.332H143.55A1.628,1.628,0,0,1,141.8,14.4c-1.411,0-2.074-1.105-2.074-2.754,0-1.683.714-2.754,2.108-2.754a1.6,1.6,0,0,1,1.6,1.343h2.261a3.7,3.7,0,0,0-3.961-3.2,4.3,4.3,0,0,0-4.352,4.607A4.337,4.337,0,0,0,141.85,16.255Zm5.117-7.446h1.207v5.117c0,1.649,1.241,2.091,2.363,2.091.918,0,1.445-.034,1.445-.034v-1.7s-.391.017-.68.017a.765.765,0,0,1-.867-.867V8.809h1.5V7.279h-1.5V4.559h-2.261v2.72h-1.207ZM157.4,16h2.312V3.845H157.4Zm4.539,0h2.312V7.279h-2.312Zm0-10.081h2.312V3.845h-2.312Zm6.766,1.36h-2.261V16h2.312V11.053a1.823,1.823,0,0,1,1.768-2.006,1.451,1.451,0,0,1,1.513,1.6V16h2.312V10.305a3,3,0,0,0-3.009-3.264,2.833,2.833,0,0,0-2.584,1.428h-.051Zm11.866,8.976A3.742,3.742,0,0,0,184.52,13.4h-2.278a1.628,1.628,0,0,1-1.683,1.071,2.168,2.168,0,0,1-2.227-2.176h6.324c0-3.111-1.5-5.253-4.3-5.253a4.315,4.315,0,0,0-4.3,4.59A4.317,4.317,0,0,0,180.576,16.255Zm-.187-7.429a1.839,1.839,0,0,1,1.853,1.87h-3.876A1.941,1.941,0,0,1,180.389,8.826Zm9.571,7.429c2.176,0,3.672-1.054,3.672-2.8,0-2.04-1.615-2.448-3.077-2.754-1.241-.255-2.4-.323-2.4-1.071,0-.629.6-.969,1.5-.969.986,0,1.581.34,1.683,1.275h2.091c-.17-1.751-1.445-2.89-3.74-2.89-1.989,0-3.553.9-3.553,2.788,0,1.9,1.53,2.329,3.094,2.635,1.19.238,2.3.323,2.3,1.156,0,.612-.578,1-1.6,1a1.677,1.677,0,0,1-1.9-1.445H185.88C186.016,15.031,187.427,16.255,189.96,16.255Z" transform="translate(168.688 1304.256)" fill="#818181"/>
      <g id="Group_12650" data-name="Group 12650" transform="translate(-68.523 838.698)">
        <circle id="Ellipse_2881" data-name="Ellipse 2881" cx="33.198" cy="33.198" r="33.198" transform="translate(297.533 309)" fill="#fff"/>
        <path id="Path_11591" data-name="Path 11591" d="M357.065,339.868c-.094-1.625-1.376-11.034-2.643-14.2-1.4-.206-3.311.964-4.769,3.3-1.393,2.234-1.9,4.884-.748,8.485l-1.7,6.368a3.851,3.851,0,0,0-3.679,1.22c-1.093,1.094-2.839,2.84-5.689,5.691-.855.854-4.758.5-6.113,1.855-.6.6-3.368,3.421-4.753,4.805S325,361.762,325,363.685v10.863h15.8c0-2.766-.393-4.587,1.172-6.171,1.248-1.263,12.422-12.37,13.676-13.625A126.838,126.838,0,0,0,357.065,339.868Z" transform="translate(12.647 6.381)" fill="#fff" stroke="#161615" stroke-width="1"/>
        <path id="Path_11592" data-name="Path 11592" d="M340.972,358.437s6.617-6.617,7.97-7.972c3.693-3.692-1.519-9.309-5.414-5.414-1.093,1.094-2.839,2.84-5.689,5.691-.855.855-4.758.5-6.113,1.855-.6.6-3.368,3.421-4.753,4.805S325,361.762,325,363.685v10.863h15.8c0-2.766-.393-4.587,1.172-6.171,1.248-1.263,12.422-12.37,13.676-13.625a126.838,126.838,0,0,0,1.416-14.884c-.094-1.625-1.376-11.034-2.643-14.2-1.4-.206-3.311.964-4.769,3.3-1.393,2.234-1.9,4.884-.748,8.485l-1.772,6.653" transform="translate(12.647 6.381)" fill="none" stroke="#161615" stroke-miterlimit="10" stroke-width="2"/>
        <path id="Path_11593" data-name="Path 11593" d="M345.132,368.683V359H323v9.683" transform="translate(11.881 19.163)" fill="#e9eaeb" stroke="#161615" stroke-width="1"/>
        <path id="Path_11594" data-name="Path 11594" d="M345.132,368.683V359H323v9.683" transform="translate(11.881 19.163)" fill="none" stroke="#161615" stroke-miterlimit="10" stroke-width="2"/>
        <line id="Line_711" data-name="Line 711" x2="4.15" transform="translate(339.03 383.696)" fill="none" stroke="#161615" stroke-miterlimit="10" stroke-width="2"/>
        <path id="Path_11595" data-name="Path 11595" d="M321.969,357.4c-1.386-1.385-4.024-4.2-4.626-4.805-1.354-1.354-5.258-1-6.113-1.855-2.851-2.851-4.6-4.6-5.689-5.691a3.8,3.8,0,0,0-3.908-1.148l-1.466-6.44c1.156-3.6.643-6.251-.748-8.485-1.459-2.34-3.375-3.511-4.77-3.3-1.268,3.161-2.551,12.57-2.643,14.2a126.526,126.526,0,0,0,1.415,14.884c1.255,1.255,12.429,12.362,13.676,13.625,1.564,1.584,1.172,3.4,1.172,6.171h15.545V363.685C323.815,361.762,323.355,358.789,321.969,357.4Z" transform="translate(0 6.381)" fill="#fff" stroke="#161615" stroke-width="1"/>
        <path id="Path_11596" data-name="Path 11596" d="M308.1,358.437s-6.619-6.617-7.972-7.972c-3.693-3.692,1.519-9.309,5.414-5.414,1.093,1.094,2.839,2.84,5.689,5.691.855.855,4.758.5,6.113,1.855.6.6,3.24,3.421,4.626,4.805s1.845,4.36,1.845,6.283v10.863H308.27c0-2.766.393-4.587-1.172-6.171-1.248-1.263-12.42-12.37-13.676-13.625a126.526,126.526,0,0,1-1.415-14.884c.093-1.625,1.375-11.034,2.643-14.2,1.394-.206,3.31.964,4.77,3.3,1.392,2.234,1.9,4.884.748,8.485l1.515,6.653" transform="translate(0 6.381)" fill="none" stroke="#161615" stroke-miterlimit="10" stroke-width="2"/>
        <path id="Path_11597" data-name="Path 11597" d="M301,368.683V359h22.132v9.683" transform="translate(3.449 19.163)" fill="#e9eaeb" stroke="#161615" stroke-width="1"/>
        <path id="Path_11598" data-name="Path 11598" d="M301,368.683V359h22.132v9.683" transform="translate(3.449 19.163)" fill="none" stroke="#161615" stroke-miterlimit="10" stroke-width="2"/>
        <line id="Line_712" data-name="Line 712" x1="4.15" transform="translate(318.282 383.696)" fill="none" stroke="#161615" stroke-miterlimit="10" stroke-width="2"/>
        <path id="Path_11599" data-name="Path 11599" d="M324.6,352.731l16.6-9.61V324l-16.6-10L308,324v19.122Z" transform="translate(6.132 1.916)" fill="#2acbd2" stroke="#161615" stroke-miterlimit="10" stroke-width="2"/>
        <path id="Path_11600" data-name="Path 11600" d="M312.028,323l11.09,7.134L334.207,323" transform="translate(7.676 5.366)" fill="none" stroke="#161615" stroke-miterlimit="10" stroke-width="2"/>
        <line id="Line_713" data-name="Line 713" y2="12.449" transform="translate(330.731 336.665)" fill="none" stroke="#161615" stroke-miterlimit="10" stroke-width="2"/>
      </g>
    </g>
  </g>
</svg>
