<svg xmlns="http://www.w3.org/2000/svg" xmlns:xlink="http://www.w3.org/1999/xlink" width="78" height="81" viewBox="0 0 78 81">
  <defs>
    <clipPath id="clip-path">
      <rect id="Rectangle_3830" data-name="Rectangle 3830" width="78" height="81" transform="translate(1104.313 922.926)" fill="#fff" stroke="#707070" stroke-width="1"/>
    </clipPath>
  </defs>
  <g id="Mask_Group_259" data-name="Mask Group 259" transform="translate(-1104.313 -922.926)" clip-path="url(#clip-path)">
    <g id="Group_12942" data-name="Group 12942" transform="translate(923.734 824.623)">
      <path id="Path_11881" data-name="Path 11881" d="M213.247,109a28.247,28.247,0,1,0,28.247,28.247A28.247,28.247,0,0,0,213.247,109Zm0,49.126a20.878,20.878,0,1,1,20.878-20.878A20.878,20.878,0,0,1,213.247,158.126Z" transform="translate(0.913 0.851)" fill="#e9eaeb"/>
      <path id="Path_11884" data-name="Path 11884" d="M222.307,122.671a21.134,21.134,0,0,1,2.959,7.409" transform="translate(9.424 3.97)" fill="none" stroke="#000" stroke-miterlimit="10" stroke-width="1.5"/>
      <path id="Path_11885" data-name="Path 11885" d="M232.53,140a21.244,21.244,0,1,1-8.339-21.231" transform="translate(2.152 2.149)" fill="none" stroke="#000" stroke-miterlimit="10" stroke-width="1.5"/>
      <path id="Path_11886" data-name="Path 11886" d="M195.047,109.186a32.857,32.857,0,0,1,31.934.456" transform="translate(3.205 0)" fill="none" stroke="#000" stroke-miterlimit="10" stroke-width="1.5"/>
      <path id="Path_11887" data-name="Path 11887" d="M199.418,164.422a32.835,32.835,0,0,1-14.347-45.337" transform="translate(0 3.152)" fill="none" stroke="#000" stroke-miterlimit="10" stroke-width="1.5"/>
      <path id="Path_11888" data-name="Path 11888" d="M236.189,140.085A32.9,32.9,0,0,1,220,159.281" transform="translate(8.897 7.943)" fill="none" stroke="#000" stroke-miterlimit="10" stroke-width="1.5"/>
      <path id="Path_11889" data-name="Path 11889" d="M231.642,120.086a32.586,32.586,0,0,1,2.324,6.147" transform="translate(11.553 3.38)" fill="none" stroke="#000" stroke-miterlimit="10" stroke-width="1.5"/>
      <path id="Path_11890" data-name="Path 11890" d="M217.708,126.516a13.887,13.887,0,0,1,1.461,4.039" transform="translate(8.374 4.847)" fill="none" stroke="#000" stroke-miterlimit="10" stroke-width="1.5"/>
      <path id="Path_11891" data-name="Path 11891" d="M223.7,138.644a13.973,13.973,0,1,1-6.246-16.085" transform="translate(3.503 3.499)" fill="none" stroke="#000" stroke-miterlimit="10" stroke-width="1.5"/>
      <path id="Path_11892" data-name="Path 11892" d="M215.487,136a7,7,0,1,1-3.377-9.007" transform="translate(4.797 4.794)" fill="none" stroke="#000" stroke-miterlimit="10" stroke-width="1.5"/>
      <line id="Line_964" data-name="Line 964" x2="42.985" transform="translate(214.16 138.098)" fill="none" stroke="#000" stroke-miterlimit="10" stroke-width="1.5"/>
      <path id="Path_11893" data-name="Path 11893" d="M242.053,128h-7.311L231,131.666v2.456l3.742,3.7h7.311v-1.247l-2.456-3.684,2.456-3.684Z" transform="translate(11.407 5.186)" fill="#2acbd2" stroke="#000" stroke-miterlimit="10" stroke-width="1.5"/>
      <line id="Line_965" data-name="Line 965" y1="29.534" x2="29.905" transform="translate(214.037 108.86)" fill="none" stroke="#000" stroke-miterlimit="10" stroke-width="1.5"/>
      <path id="Path_11894" data-name="Path 11894" d="M228.245,107.485,223,112.7v5.211l.9.632.9.632h5.211l5.21-4.974-.868-.75-4.342-.809-.886-4.313Z" transform="translate(9.582 0.506)" fill="#2acbd2" stroke="#000" stroke-miterlimit="10" stroke-width="1.5"/>
    </g>
  </g>
</svg>
