<svg xmlns="http://www.w3.org/2000/svg" xmlns:xlink="http://www.w3.org/1999/xlink" width="78" height="81" viewBox="0 0 78 81">
  <defs>
    <clipPath id="clip-path">
      <rect id="Rectangle_3828" data-name="Rectangle 3828" width="78" height="81" transform="translate(635.313 922.926)" fill="#fff" stroke="#707070" stroke-width="1"/>
    </clipPath>
  </defs>
  <g id="Mask_Group_257" data-name="Mask Group 257" transform="translate(-635.313 -922.926)" clip-path="url(#clip-path)">
    <g id="Group_12944" data-name="Group 12944" transform="translate(344.468 618.571)">
      <circle id="Ellipse_2881" data-name="Ellipse 2881" cx="29.835" cy="29.835" r="29.835" transform="translate(296.972 309)" fill="#e9eaeb"/>
      <path id="Path_11591" data-name="Path 11591" d="M353.816,338.428c-.084-1.461-1.237-9.916-2.376-12.757-1.254-.185-2.976.866-4.286,2.97a8.547,8.547,0,0,0-.673,7.625l-1.524,5.723a3.461,3.461,0,0,0-3.307,1.1l-5.113,5.114c-.768.767-4.276.45-5.493,1.667-.541.541-3.027,3.074-4.271,4.319S325,358.1,325,359.832v9.762h14.2c0-2.486-.353-4.122,1.053-5.545,1.121-1.135,11.163-11.117,12.291-12.245A113.992,113.992,0,0,0,353.816,338.428Z" transform="translate(8.023 4.048)" fill="#fff" stroke="#161615" stroke-width="1.5"/>
      <path id="Path_11592" data-name="Path 11592" d="M339.354,355.115s5.947-5.947,7.163-7.164c3.319-3.318-1.365-8.366-4.866-4.865l-5.113,5.114c-.768.768-4.276.45-5.493,1.667-.541.541-3.027,3.074-4.271,4.319S325,358.1,325,359.832v9.762h14.2c0-2.486-.353-4.122,1.053-5.545,1.121-1.135,11.163-11.117,12.291-12.245a113.992,113.992,0,0,0,1.273-13.376c-.084-1.461-1.237-9.916-2.376-12.757-1.254-.185-2.976.866-4.286,2.97a8.547,8.547,0,0,0-.673,7.625l-1.592,5.979" transform="translate(8.023 4.048)" fill="none" stroke="#161615" stroke-miterlimit="10" stroke-width="1.5"/>
      <path id="Path_11593" data-name="Path 11593" d="M342.89,367.7V359H323v8.7" transform="translate(7.536 12.155)" fill="#e9eaeb" stroke="#161615" stroke-width="1.5"/>
      <path id="Path_11594" data-name="Path 11594" d="M342.89,367.7V359H323v8.7" transform="translate(7.536 12.155)" fill="none" stroke="#161615" stroke-miterlimit="10" stroke-width="1.5"/>
      <line id="Line_711" data-name="Line 711" x2="3.729" transform="translate(334.266 376.128)" fill="none" stroke="#161615" stroke-miterlimit="10" stroke-width="1.5"/>
      <path id="Path_11595" data-name="Path 11595" d="M318.933,354.186c-1.246-1.244-3.616-3.778-4.157-4.319-1.217-1.217-4.725-.9-5.493-1.667l-5.113-5.114a3.412,3.412,0,0,0-3.512-1.032l-1.318-5.788a8.551,8.551,0,0,0-.672-7.625c-1.312-2.1-3.033-3.155-4.286-2.97-1.14,2.841-2.292,11.3-2.376,12.757a113.707,113.707,0,0,0,1.272,13.376c1.127,1.128,11.169,11.11,12.291,12.245,1.406,1.423,1.053,3.059,1.053,5.545h13.97v-9.762C320.591,358.1,320.179,355.431,318.933,354.186Z" transform="translate(0 4.048)" fill="#fff" stroke="#161615" stroke-width="1.5"/>
      <path id="Path_11596" data-name="Path 11596" d="M306.468,355.115s-5.948-5.947-7.164-7.164c-3.319-3.318,1.365-8.366,4.865-4.865l5.113,5.114c.768.768,4.276.45,5.493,1.667.541.541,2.911,3.074,4.157,4.319s1.658,3.918,1.658,5.646v9.762h-13.97c0-2.486.353-4.122-1.053-5.545-1.121-1.135-11.162-11.117-12.291-12.245a113.707,113.707,0,0,1-1.272-13.376c.083-1.461,1.236-9.916,2.376-12.757,1.253-.185,2.975.866,4.286,2.97a8.551,8.551,0,0,1,.672,7.625l1.361,5.979" transform="translate(0 4.048)" fill="none" stroke="#161615" stroke-miterlimit="10" stroke-width="1.5"/>
      <path id="Path_11597" data-name="Path 11597" d="M301,367.7V359h19.89v8.7" transform="translate(2.188 12.155)" fill="#e9eaeb" stroke="#161615" stroke-width="1.5"/>
      <path id="Path_11598" data-name="Path 11598" d="M301,367.7V359h19.89v8.7" transform="translate(2.188 12.155)" fill="none" stroke="#161615" stroke-miterlimit="10" stroke-width="1.5"/>
      <line id="Line_712" data-name="Line 712" x1="3.729" transform="translate(315.619 376.128)" fill="none" stroke="#161615" stroke-miterlimit="10" stroke-width="1.5"/>
      <path id="Path_11599" data-name="Path 11599" d="M322.917,348.807l14.917-8.637V322.985L322.917,314,308,322.985V340.17Z" transform="translate(3.89 1.216)" fill="#2acbd2" stroke="#161615" stroke-miterlimit="10" stroke-width="1.5"/>
      <path id="Path_11600" data-name="Path 11600" d="M312.028,323l9.966,6.412L331.96,323" transform="translate(4.869 3.404)" fill="none" stroke="#161615" stroke-miterlimit="10" stroke-width="1.5"/>
      <line id="Line_713" data-name="Line 713" y2="11.188" transform="translate(326.807 333.862)" fill="none" stroke="#161615" stroke-miterlimit="10" stroke-width="1.5"/>
    </g>
  </g>
</svg>
