<svg id="Group_12870" data-name="Group 12870" xmlns="http://www.w3.org/2000/svg" width="60.934" height="60.934" viewBox="0 0 60.934 60.934">
  <g id="Group_7302" data-name="Group 7302">
    <g id="Path_2991" data-name="Path 2991" fill="none">
      <path d="M30.467,0A30.467,30.467,0,1,1,0,30.467,30.467,30.467,0,0,1,30.467,0Z" stroke="none"/>
      <path d="M 30.466796875 1.999996185302734 C 26.62291717529297 1.999996185302734 22.89508819580078 2.752376556396484 19.38684844970703 4.236236572265625 C 15.99727630615234 5.669906616210938 12.95271682739258 7.722747802734375 10.33772659301758 10.33772659301758 C 7.722747802734375 12.95271682739258 5.669906616210938 15.99727630615234 4.236236572265625 19.38684844970703 C 2.752376556396484 22.89508819580078 1.999996185302734 26.62291717529297 1.999996185302734 30.466796875 C 1.999996185302734 34.31067657470703 2.752376556396484 38.03850555419922 4.236236572265625 41.54674530029297 C 5.669906616210938 44.93631744384766 7.722747802734375 47.98087692260742 10.33772659301758 50.59586715698242 C 12.95271682739258 53.21084594726562 15.99727630615234 55.26368713378906 19.38684844970703 56.69735717773438 C 22.89508819580078 58.18121719360352 26.62291717529297 58.93359756469727 30.466796875 58.93359756469727 C 34.31067657470703 58.93359756469727 38.03850555419922 58.18121719360352 41.54674530029297 56.69735717773438 C 44.93631744384766 55.26368713378906 47.98087692260742 53.21084594726562 50.59586715698242 50.59586715698242 C 53.21084594726562 47.98087692260742 55.26368713378906 44.93631744384766 56.69735717773438 41.54674530029297 C 58.18121719360352 38.03850555419922 58.93359756469727 34.31067657470703 58.93359756469727 30.466796875 C 58.93359756469727 26.62291717529297 58.18121719360352 22.89508819580078 56.69735717773438 19.38684844970703 C 55.26368713378906 15.99727630615234 53.21084594726562 12.95271682739258 50.59586715698242 10.33772659301758 C 47.98087692260742 7.722747802734375 44.93631744384766 5.669906616210938 41.54674530029297 4.236236572265625 C 38.03850555419922 2.752376556396484 34.31067657470703 1.999996185302734 30.466796875 1.999996185302734 M 30.466796875 -3.814697265625e-06 C 47.29314804077148 -3.814697265625e-06 60.93359756469727 13.64044570922852 60.93359756469727 30.466796875 C 60.93359756469727 47.29314804077148 47.29314804077148 60.93359756469727 30.466796875 60.93359756469727 C 13.64044570922852 60.93359756469727 -3.814697265625e-06 47.29314804077148 -3.814697265625e-06 30.466796875 C -3.814697265625e-06 13.64044570922852 13.64044570922852 -3.814697265625e-06 30.466796875 -3.814697265625e-06 Z" stroke="none" fill="#2acbd2"/>
    </g>
  </g>
  <path id="Path_8897" data-name="Path 8897" d="M871.384,181.962a.9.9,0,0,0,1.27,0l6.4-6.4a.888.888,0,0,0,.113-.138c.014-.02.023-.043.035-.064a.934.934,0,0,0,.048-.091c.012-.029.018-.059.027-.088s.018-.052.024-.079a.911.911,0,0,0,0-.352c-.006-.028-.016-.053-.024-.08a.865.865,0,0,0-.027-.088.851.851,0,0,0-.048-.091c-.012-.021-.021-.043-.035-.064a.875.875,0,0,0-.113-.138l-6.4-6.4a.9.9,0,1,0-1.27,1.27l4.866,4.866H861.088a.9.9,0,0,0,0,1.8H876.25l-4.866,4.866A.9.9,0,0,0,871.384,181.962Z" transform="translate(-839.36 -144.374)" fill="#2acbd2" stroke="#2acbd2" stroke-width="0.5"/>
</svg>
