<svg xmlns="http://www.w3.org/2000/svg" width="39.199" height="39.198" viewBox="0 0 39.199 39.198">
  <g id="Group_12743" data-name="Group 12743" transform="translate(0.499 0.5)">
    <path id="Path_11784" data-name="Path 11784" d="M988.641,188.55a1.584,1.584,0,0,1-2.24,0l-8.422-8.422a1.584,1.584,0,0,1,0-2.241l8.422-8.422a1.584,1.584,0,1,1,2.24,2.241l-7.3,7.3,7.3,7.3A1.583,1.583,0,0,1,988.641,188.55Z" transform="translate(-965.732 -159.91)" fill="#2acbd2" stroke="#171717" stroke-width="1"/>
    <path id="Path_11785" data-name="Path 11785" d="M968.543,189.985a19.1,19.1,0,1,1,19.1-19.1A19.121,19.121,0,0,1,968.543,189.985Zm0-35.029a15.93,15.93,0,1,0,15.931,15.93A15.949,15.949,0,0,0,968.543,154.956Z" transform="translate(-949.444 -151.787)" fill="#2acbd2" stroke="#171717" stroke-width="1"/>
  </g>
</svg>
