<?xml version="1.0" encoding="utf-8"?>
<!-- Generator: Adobe Illustrator 25.3.1, SVG Export Plug-In . SVG Version: 6.00 Build 0)  -->
<svg version="1.1" id="Layer_1" xmlns="http://www.w3.org/2000/svg" xmlns:xlink="http://www.w3.org/1999/xlink" x="0px" y="0px"
	 viewBox="0 0 39.2 39.2" style="enable-background:new 0 0 39.2 39.2;" xml:space="preserve">
<style type="text/css">
	.st0{fill:#2ACBD2;stroke:#171717;}
</style>
<g id="Group_12743" transform="translate(0.499 0.5)">
	<path id="Path_11784" class="st0" d="M15.3,9.6c0.6-0.6,1.6-0.6,2.2,0L26,18c0.6,0.6,0.6,1.6,0,2.2c0,0,0,0,0,0l-8.4,8.4
		c-0.6,0.6-1.6,0.6-2.2,0c-0.6-0.6-0.6-1.6,0-2.2l0,0l7.3-7.3l-7.3-7.3C14.7,11.2,14.7,10.2,15.3,9.6C15.3,9.6,15.3,9.6,15.3,9.6z"
		/>
	<path id="Path_11785" class="st0" d="M19.1,0c10.5,0,19.1,8.6,19.1,19.1s-8.6,19.1-19.1,19.1S0,29.6,0,19.1v0C0,8.6,8.6,0,19.1,0z
		 M19.1,35C27.9,35,35,27.9,35,19.1S27.9,3.2,19.1,3.2c-8.8,0-15.9,7.1-15.9,15.9C3.2,27.9,10.3,35,19.1,35z"/>
</g>
</svg>
