<svg xmlns="http://www.w3.org/2000/svg" width="31.226" height="31.226" viewBox="0 0 31.226 31.226">
  <g id="Group_12721" data-name="Group 12721" transform="translate(182.513 -948.944) rotate(90)">
    <path id="Path_11784" data-name="Path 11784" d="M977.881,184.471a1.254,1.254,0,0,0,1.773,0l6.664-6.664a1.254,1.254,0,0,0,0-1.773l-6.664-6.664a1.254,1.254,0,0,0-1.773,1.773l5.778,5.778-5.778,5.777A1.253,1.253,0,0,0,977.881,184.471Z" transform="translate(-16.338 -10.02)" fill="#2acbd2" stroke="#fff" stroke-width="1"/>
    <path id="Path_11785" data-name="Path 11785" d="M964.557,182.013A15.113,15.113,0,1,0,949.444,166.9,15.13,15.13,0,0,0,964.557,182.013Zm0-27.719A12.606,12.606,0,1,1,951.952,166.9,12.62,12.62,0,0,1,964.557,154.295Z" transform="translate(0)" fill="#2acbd2" stroke="#fff" stroke-width="1"/>
  </g>
</svg>
