<svg xmlns="http://www.w3.org/2000/svg" width="21.864" height="15.72" viewBox="0 0 21.864 15.72">
  <g id="Group_12911" data-name="Group 12911" transform="translate(-5104.81 -1092.374)">
    <path id="Path_11839" data-name="Path 11839" d="M5126.582,1092.948a.982.982,0,0,0-.893-.574h-19.9a.984.984,0,0,0-.98,1.045v13.63a.984.984,0,0,0,.98,1.045h19.9a.983.983,0,0,0,.963-.79.917.917,0,0,0,.022-.2v-13.765A.89.89,0,0,0,5126.582,1092.948Zm-1.467.621-9.374,8.057-9.374-8.057Zm-19.108,1.266,6.282,5.4-6.282,5.4Zm.36,12.065,6.838-5.878,1.9,1.63a.979.979,0,0,0,1.28,0l1.9-1.63,6.838,5.878Zm19.112-1.262-6.286-5.4,6.286-5.4Z" fill="#2acbd2"/>
  </g>
</svg>
