<svg xmlns="http://www.w3.org/2000/svg" width="89.833" height="105.283" viewBox="0 0 89.833 105.283">
  <g id="Group_12707" data-name="Group 12707" transform="translate(0)">
    <rect id="Rectangle_3612" data-name="Rectangle 3612" width="89.834" height="105.283" transform="translate(0 0)" opacity="0.303"/>
    <path id="Path_11641" data-name="Path 11641" d="M874.4,193.3a1.608,1.608,0,0,1-2.275,0l-11.46-11.461a1.589,1.589,0,0,1-.2-.247c-.024-.037-.041-.077-.062-.115a1.692,1.692,0,0,1-.086-.162c-.021-.052-.033-.1-.049-.158s-.032-.093-.042-.142a1.623,1.623,0,0,1,0-.63c.01-.05.028-.1.043-.143s.028-.106.048-.157a1.524,1.524,0,0,1,.086-.163c.021-.038.037-.077.062-.114a1.565,1.565,0,0,1,.2-.248l11.46-11.461a1.609,1.609,0,0,1,2.275,2.274l-8.717,8.717h27.161a1.608,1.608,0,1,1,0,3.217H865.681l8.717,8.717A1.608,1.608,0,0,1,874.4,193.3Z" transform="translate(-834.983 -128.159)" fill="#fff" stroke="rgba(0,0,0,0)" stroke-width="1"/>
  </g>
</svg>
