<svg id="Group_12556" data-name="Group 12556" xmlns="http://www.w3.org/2000/svg" width="41.867" height="41.867" viewBox="0 0 41.867 41.867">
  <g id="Group_7302" data-name="Group 7302">
    <g id="Path_2991" data-name="Path 2991" fill="none">
      <path d="M20.934,0A20.934,20.934,0,1,1,0,20.934,20.934,20.934,0,0,1,20.934,0Z" stroke="none"/>
      <path d="M 20.93359375 2.000003814697266 C 15.87625312805176 2.000003814697266 11.12160301208496 3.969444274902344 7.545524597167969 7.545524597167969 C 3.969444274902344 11.12160301208496 2.000003814697266 15.87625312805176 2.000003814697266 20.93359375 C 2.000003814697266 25.99094390869141 3.969444274902344 30.74558258056641 7.545524597167969 34.32166290283203 C 11.12160301208496 37.89774322509766 15.87624359130859 39.86718368530273 20.93359375 39.86718368530273 C 25.99094390869141 39.86718368530273 30.74558258056641 37.89774322509766 34.32166290283203 34.32166290283203 C 37.89774322509766 30.74558258056641 39.86718368530273 25.99094390869141 39.86718368530273 20.93359375 C 39.86718368530273 15.87624359130859 37.89774322509766 11.12160301208496 34.32166290283203 7.545524597167969 C 30.74558258056641 3.969444274902344 25.99094390869141 2.000003814697266 20.93359375 2.000003814697266 M 20.93359375 3.814697265625e-06 C 32.49490356445312 3.814697265625e-06 41.86718368530273 9.372295379638672 41.86718368530273 20.93359375 C 41.86718368530273 32.49490356445312 32.49490356445312 41.86718368530273 20.93359375 41.86718368530273 C 9.372295379638672 41.86718368530273 3.814697265625e-06 32.49490356445312 3.814697265625e-06 20.93359375 C 3.814697265625e-06 9.372295379638672 9.372295379638672 3.814697265625e-06 20.93359375 3.814697265625e-06 Z" stroke="none" fill="#2acbd2"/>
    </g>
  </g>
  <path id="Path_8897" data-name="Path 8897" d="M867.882,177.478a.616.616,0,0,0,.873,0l4.4-4.4a.611.611,0,0,0,.078-.095c.009-.014.016-.029.024-.044a.643.643,0,0,0,.033-.062c.008-.02.013-.04.019-.06s.012-.036.016-.055a.626.626,0,0,0,0-.242.558.558,0,0,0-.016-.055.606.606,0,0,0-.018-.06.6.6,0,0,0-.033-.062c-.008-.015-.014-.03-.024-.044a.6.6,0,0,0-.078-.1l-4.4-4.4a.617.617,0,0,0-.873.872l3.343,3.343H860.807a.617.617,0,0,0,0,1.234h10.418l-3.343,3.343A.617.617,0,0,0,867.882,177.478Z" transform="translate(-845.878 -151.652)" stroke="#000" stroke-width="0.5"/>
</svg>
