<svg xmlns="http://www.w3.org/2000/svg" width="53" height="53" viewBox="0 0 53 53">
  <g id="Group_12735" data-name="Group 12735" transform="translate(-320 -2190)">
    <path id="people" d="M26.5,0A26.5,26.5,0,1,1,0,26.5,26.5,26.5,0,0,1,26.5,0Z" transform="translate(320 2190)" fill="#2acbd2"/>
    <path id="Path_2107" data-name="Path 2107" d="M354.971,344.316H345.6V334.94a.64.64,0,0,0-1.281,0v9.375h-9.375a.64.64,0,1,0,0,1.281h9.375v9.375a.64.64,0,0,0,1.281,0V345.6h9.375a.64.64,0,1,0,0-1.281Z" transform="translate(1.201 1871.2)" fill="#fff" stroke="#fff" stroke-width="1"/>
  </g>
</svg>
