<svg xmlns="http://www.w3.org/2000/svg" width="24.649" height="22.539" viewBox="0 0 24.649 22.539">
  <g id="Group_12568" data-name="Group 12568" transform="translate(-1490.976 -1147.982)">
    <path id="Path_11744" data-name="Path 11744" d="M1492.672,1167.439a.772.772,0,0,1-.771-.772V1155.5h19.613v2.8a6.883,6.883,0,0,1,.925.233v-7.357a1.7,1.7,0,0,0-1.7-1.7H1508.3v-.881a.616.616,0,1,0-1.232,0v.881h-10.721v-.881a.616.616,0,1,0-1.232,0v.881h-2.442a1.7,1.7,0,0,0-1.7,1.7v15.493a1.7,1.7,0,0,0,1.7,1.7h11.394a6.876,6.876,0,0,1-.4-.924Zm0-17.036h2.442v1.021a.616.616,0,0,0,1.232,0V1150.4h10.721v1.021a.616.616,0,0,0,1.232,0V1150.4h2.443a.772.772,0,0,1,.77.772v3.4H1491.9v-3.4A.772.772,0,0,1,1492.672,1150.4Z" transform="translate(0 0)" fill="#2acbd2"/>
    <path id="Path_11745" data-name="Path 11745" d="M2729.642,2193.291a5.35,5.35,0,0,0-7.01,7.164,5.252,5.252,0,0,0,.554.923,5.35,5.35,0,1,0,6.456-8.088Zm-2.164,9.322a4.427,4.427,0,1,1,4.428-4.428A4.408,4.408,0,0,1,2727.478,2202.613Z" transform="translate(-1217.204 -1033.015)" fill="#2acbd2"/>
    <path id="Path_11746" data-name="Path 11746" d="M3152.731,2414.923l-.923-.922-.821-.821v-2.221a.462.462,0,1,0-.924,0v2.413a.459.459,0,0,0,.135.326l1.528,1.528.556.557a.445.445,0,0,0,.128.09.462.462,0,0,0,.525-.744Z" transform="translate(-1640.295 -1248.213)" fill="#2acbd2"/>
  </g>
</svg>
