<svg xmlns="http://www.w3.org/2000/svg" width="84.288" height="105.283" viewBox="0 0 84.288 105.283">
  <g id="Group_12708" data-name="Group 12708" transform="translate(-0.001)">
    <rect id="Rectangle_3612" data-name="Rectangle 3612" width="84.288" height="105.283" transform="translate(0.001 0)" opacity="0.25"/>
    <path id="Path_11641" data-name="Path 11641" d="M880.243,193.3a1.608,1.608,0,0,0,2.275,0l11.46-11.461a1.589,1.589,0,0,0,.2-.247c.024-.037.041-.077.062-.115a1.721,1.721,0,0,0,.086-.162c.021-.052.033-.1.049-.158s.032-.093.042-.142a1.623,1.623,0,0,0,0-.63c-.01-.05-.028-.1-.042-.143s-.028-.106-.048-.157a1.548,1.548,0,0,0-.086-.163c-.021-.038-.037-.077-.062-.114a1.565,1.565,0,0,0-.2-.248L882.518,168.1a1.609,1.609,0,0,0-2.275,2.274l8.717,8.717H861.8a1.608,1.608,0,0,0,0,3.217H888.96l-8.717,8.717A1.608,1.608,0,0,0,880.243,193.3Z" transform="translate(-835.913 -128.159)" fill="#fff" stroke="rgba(0,0,0,0)" stroke-width="1"/>
  </g>
</svg>
