<svg xmlns="http://www.w3.org/2000/svg" width="25.259" height="19.609" viewBox="0 0 25.259 19.609">
  <path id="Path_11574" data-name="Path 11574" d="M874.388,185.808a1.138,1.138,0,0,0,1.611,0l8.114-8.115a1.127,1.127,0,0,0,.144-.175c.017-.026.029-.054.044-.081a1.2,1.2,0,0,0,.061-.115c.015-.036.023-.074.035-.112s.023-.066.03-.1a1.147,1.147,0,0,0,0-.446c-.007-.035-.02-.067-.03-.1s-.02-.075-.034-.111a1.086,1.086,0,0,0-.061-.115c-.015-.027-.027-.055-.044-.081a1.11,1.11,0,0,0-.144-.175L876,167.965a1.139,1.139,0,0,0-1.611,1.61l6.172,6.172H861.329a1.139,1.139,0,1,0,0,2.278H880.56l-6.172,6.172A1.139,1.139,0,0,0,874.388,185.808Z" transform="translate(-859.69 -167.033)" fill="#fff" stroke="#2acbd2" stroke-width="1"/>
</svg>
