<svg xmlns="http://www.w3.org/2000/svg" width="71.406" height="71.406" viewBox="0 0 71.406 71.406">
  <g id="Group_12527" data-name="Group 12527" transform="translate(-20)">
    <g id="Group_7302" data-name="Group 7302" transform="translate(20)">
      <path id="Path_2991" data-name="Path 2991" d="M35.7,0A35.7,35.7,0,1,1,0,35.7,35.7,35.7,0,0,1,35.7,0Z" fill="#fff"/>
    </g>
    <path id="Path_8897" data-name="Path 8897" d="M873.308,184.425a1.051,1.051,0,0,0,1.488,0l7.5-7.5a1.033,1.033,0,0,0,.133-.162c.016-.024.027-.05.041-.075a1.085,1.085,0,0,0,.056-.106c.014-.034.021-.069.032-.1s.021-.061.027-.093a1.064,1.064,0,0,0,0-.412.969.969,0,0,0-.028-.093,1.061,1.061,0,0,0-.031-.1,1,1,0,0,0-.056-.107c-.014-.025-.025-.05-.041-.074a1.019,1.019,0,0,0-.133-.162l-7.5-7.5a1.052,1.052,0,0,0-1.488,1.488l5.7,5.7H861.242a1.052,1.052,0,0,0,0,2.1h17.768l-5.7,5.7A1.052,1.052,0,0,0,873.308,184.425Z" transform="translate(-816.78 -140.377)"/>
  </g>
</svg>
