<?xml version="1.0" encoding="utf-8"?>
<!-- Generator: Adobe Illustrator 25.1.0, SVG Export Plug-In . SVG Version: 6.00 Build 0)  -->
<svg version="1.1" id="Layer_1" xmlns="http://www.w3.org/2000/svg" xmlns:xlink="http://www.w3.org/1999/xlink" x="0px" y="0px"
	 width="14.36px" height="10.95px" viewBox="0 0 14.36 10.95" style="enable-background:new 0 0 14.36 10.95;" xml:space="preserve"
	>
<style type="text/css">
	.st0{fill:#ACB6C6;}
</style>
<path id="Path_4466" class="st0" d="M8.41,10.76c0.26,0.26,0.69,0.26,0.95,0c0,0,0,0,0,0l4.8-4.8c0.03-0.03,0.06-0.06,0.09-0.1
	c0.01-0.01,0.02-0.03,0.03-0.05c0.01-0.02,0.03-0.04,0.04-0.07c0.01-0.02,0.01-0.04,0.02-0.07s0.01-0.04,0.02-0.06
	c0.02-0.09,0.02-0.18,0-0.26c-0.01-0.02-0.01-0.04-0.02-0.06c-0.01-0.02-0.01-0.04-0.02-0.07c-0.01-0.02-0.02-0.05-0.04-0.07
	c-0.01-0.02-0.02-0.03-0.03-0.05C14.23,5.07,14.2,5.03,14.17,5l-4.8-4.8c-0.26-0.26-0.69-0.26-0.95,0c-0.26,0.26-0.26,0.69,0,0.95
	l3.66,3.65H0.67C0.3,4.81,0,5.11,0,5.48s0.3,0.67,0.67,0.67h11.39L8.41,9.81C8.15,10.07,8.15,10.49,8.41,10.76z"/>
</svg>
