<svg xmlns="http://www.w3.org/2000/svg" xmlns:xlink="http://www.w3.org/1999/xlink" width="283" height="268" viewBox="0 0 283 268">
  <defs>
    <clipPath id="clip-path">
      <rect id="Rectangle_3706" data-name="Rectangle 3706" width="283" height="268" transform="translate(1157.422 5226)" fill="#fff" stroke="#707070" stroke-width="1"/>
    </clipPath>
    <clipPath id="clip-path-2">
      <rect id="Rectangle_3089" data-name="Rectangle 3089" width="407.249" height="556.155" transform="translate(-20 1)" fill="#030105"/>
    </clipPath>
  </defs>
  <g id="Mask_Group_246" data-name="Mask Group 246" transform="translate(-1157.422 -5226)" clip-path="url(#clip-path)">
    <g id="Group_75" transform="translate(1266.838 5357.835)" opacity="0.21">
      <ellipse id="Ellipse_8" cx="1.403" cy="2.104" rx="1.403" ry="2.104" transform="translate(0.701 114.766)" fill="#fff"/>
      <ellipse id="Ellipse_9" cx="1.824" cy="1.824" rx="1.824" ry="1.824" transform="translate(20.203 116.169)" fill="#fff"/>
      <ellipse id="Ellipse_10" cx="1.824" cy="1.824" rx="1.824" ry="1.824" transform="translate(40.406 116.169)" fill="#fff"/>
      <ellipse id="Ellipse_11" cx="1.824" cy="1.824" rx="1.824" ry="1.824" transform="translate(60.75 116.169)" fill="#fff"/>
      <ellipse id="Ellipse_12" cx="1.824" cy="1.824" rx="1.824" ry="1.824" transform="translate(80.953 116.169)" fill="#fff"/>
      <ellipse id="Ellipse_13" cx="1.824" cy="1.824" rx="1.824" ry="1.824" transform="translate(101.157 116.169)" fill="#fff"/>
      <ellipse id="Ellipse_14" cx="1.403" cy="2.104" rx="1.403" ry="2.104" transform="translate(122.763 114.766)" fill="#fff"/>
      <ellipse id="Ellipse_15" cx="1.824" cy="1.824" rx="1.824" ry="1.824" transform="translate(141.563 116.169)" fill="#fff"/>
      <ellipse id="Ellipse_16" cx="1.824" cy="1.824" rx="1.824" ry="1.824" transform="translate(161.907 116.169)" fill="#fff"/>
      <ellipse id="Ellipse_17" cx="1.824" cy="1.824" rx="1.824" ry="1.824" transform="translate(182.111 116.169)" fill="#fff"/>
      <ellipse id="Ellipse_18" cx="1.824" cy="1.824" rx="1.824" ry="1.824" transform="translate(202.314 116.169)" fill="#fff"/>
      <ellipse id="Ellipse_19" cx="1.824" cy="1.824" rx="1.824" ry="1.824" transform="translate(222.517 116.169)" fill="#fff"/>
      <ellipse id="Ellipse_20" cx="1.824" cy="1.824" rx="1.824" ry="1.824" transform="translate(0 97.649)" fill="#fff"/>
      <ellipse id="Ellipse_21" cx="1.824" cy="1.824" rx="1.824" ry="1.824" transform="translate(20.203 97.649)" fill="#fff"/>
      <ellipse id="Ellipse_22" cx="1.824" cy="1.824" rx="1.824" ry="1.824" transform="translate(40.406 97.649)" fill="#fff"/>
      <ellipse id="Ellipse_23" cx="1.824" cy="1.824" rx="1.824" ry="1.824" transform="translate(60.75 97.649)" fill="#fff"/>
      <ellipse id="Ellipse_24" cx="1.824" cy="1.824" rx="1.824" ry="1.824" transform="translate(80.953 97.649)" fill="#fff"/>
      <ellipse id="Ellipse_25" cx="1.824" cy="1.824" rx="1.824" ry="1.824" transform="translate(101.157 97.649)" fill="#fff"/>
      <ellipse id="Ellipse_26" cx="1.824" cy="1.824" rx="1.824" ry="1.824" transform="translate(121.36 97.649)" fill="#fff"/>
      <ellipse id="Ellipse_27" cx="1.824" cy="1.824" rx="1.824" ry="1.824" transform="translate(141.563 97.649)" fill="#fff"/>
      <ellipse id="Ellipse_28" cx="1.824" cy="1.824" rx="1.824" ry="1.824" transform="translate(161.907 97.649)" fill="#fff"/>
      <ellipse id="Ellipse_29" cx="1.824" cy="1.824" rx="1.824" ry="1.824" transform="translate(182.111 97.649)" fill="#fff"/>
      <ellipse id="Ellipse_30" cx="1.824" cy="1.824" rx="1.824" ry="1.824" transform="translate(202.314 97.649)" fill="#fff"/>
      <ellipse id="Ellipse_31" cx="1.824" cy="1.824" rx="1.824" ry="1.824" transform="translate(222.517 97.649)" fill="#fff"/>
      <ellipse id="Ellipse_32" cx="1.824" cy="1.824" rx="1.824" ry="1.824" transform="translate(0 83.057)" fill="#fff"/>
      <ellipse id="Ellipse_33" cx="1.824" cy="1.824" rx="1.824" ry="1.824" transform="translate(20.203 83.057)" fill="#fff"/>
      <ellipse id="Ellipse_34" cx="1.824" cy="1.824" rx="1.824" ry="1.824" transform="translate(40.406 83.057)" fill="#fff"/>
      <ellipse id="Ellipse_35" cx="1.824" cy="1.824" rx="1.824" ry="1.824" transform="translate(60.75 83.057)" fill="#fff"/>
      <ellipse id="Ellipse_36" cx="1.824" cy="1.824" rx="1.824" ry="1.824" transform="translate(80.953 83.057)" fill="#fff"/>
      <ellipse id="Ellipse_37" cx="1.824" cy="1.824" rx="1.824" ry="1.824" transform="translate(101.157 83.057)" fill="#fff"/>
      <ellipse id="Ellipse_38" cx="1.824" cy="1.824" rx="1.824" ry="1.824" transform="translate(121.36 83.057)" fill="#fff"/>
      <ellipse id="Ellipse_39" cx="1.824" cy="1.824" rx="1.824" ry="1.824" transform="translate(141.563 83.057)" fill="#fff"/>
      <ellipse id="Ellipse_40" cx="1.824" cy="1.824" rx="1.824" ry="1.824" transform="translate(161.907 83.057)" fill="#fff"/>
      <ellipse id="Ellipse_41" cx="1.824" cy="1.824" rx="1.824" ry="1.824" transform="translate(182.111 83.057)" fill="#fff"/>
      <ellipse id="Ellipse_42" cx="1.824" cy="1.824" rx="1.824" ry="1.824" transform="translate(202.314 83.057)" fill="#fff"/>
      <ellipse id="Ellipse_43" cx="1.824" cy="1.824" rx="1.824" ry="1.824" transform="translate(222.517 83.057)" fill="#fff"/>
      <ellipse id="Ellipse_44" cx="1.403" cy="1.403" rx="1.403" ry="1.403" transform="translate(0.701 68.468)" fill="#fff"/>
      <ellipse id="Ellipse_45" cx="1.824" cy="1.824" rx="1.824" ry="1.824" transform="translate(20.203 66.362)" fill="#fff"/>
      <ellipse id="Ellipse_46" cx="1.824" cy="1.824" rx="1.824" ry="1.824" transform="translate(40.406 66.362)" fill="#fff"/>
      <ellipse id="Ellipse_47" cx="1.824" cy="1.824" rx="1.824" ry="1.824" transform="translate(60.75 66.362)" fill="#fff"/>
      <ellipse id="Ellipse_48" cx="1.824" cy="1.824" rx="1.824" ry="1.824" transform="translate(80.953 66.362)" fill="#fff"/>
      <ellipse id="Ellipse_49" cx="1.824" cy="1.824" rx="1.824" ry="1.824" transform="translate(101.157 66.362)" fill="#fff"/>
      <ellipse id="Ellipse_50" cx="1.403" cy="1.403" rx="1.403" ry="1.403" transform="translate(122.763 68.468)" fill="#fff"/>
      <ellipse id="Ellipse_51" cx="1.824" cy="1.824" rx="1.824" ry="1.824" transform="translate(141.563 66.362)" fill="#fff"/>
      <ellipse id="Ellipse_52" cx="1.824" cy="1.824" rx="1.824" ry="1.824" transform="translate(161.907 66.362)" fill="#fff"/>
      <ellipse id="Ellipse_53" cx="1.824" cy="1.824" rx="1.824" ry="1.824" transform="translate(182.111 66.362)" fill="#fff"/>
      <ellipse id="Ellipse_54" cx="1.824" cy="1.824" rx="1.824" ry="1.824" transform="translate(202.314 66.362)" fill="#fff"/>
      <ellipse id="Ellipse_55" cx="1.824" cy="1.824" rx="1.824" ry="1.824" transform="translate(222.517 66.362)" fill="#fff"/>
      <ellipse id="Ellipse_56" cx="1.824" cy="1.824" rx="1.824" ry="1.824" transform="translate(0 49.807)" fill="#fff"/>
      <ellipse id="Ellipse_57" cx="1.824" cy="1.824" rx="1.824" ry="1.824" transform="translate(20.203 49.807)" fill="#fff"/>
      <ellipse id="Ellipse_58" cx="1.824" cy="1.824" rx="1.824" ry="1.824" transform="translate(40.406 49.807)" fill="#fff"/>
      <ellipse id="Ellipse_59" cx="1.824" cy="1.824" rx="1.824" ry="1.824" transform="translate(60.75 49.807)" fill="#fff"/>
      <ellipse id="Ellipse_60" cx="1.824" cy="1.824" rx="1.824" ry="1.824" transform="translate(80.953 49.807)" fill="#fff"/>
      <ellipse id="Ellipse_61" cx="1.824" cy="1.824" rx="1.824" ry="1.824" transform="translate(101.157 49.807)" fill="#fff"/>
      <ellipse id="Ellipse_62" cx="1.824" cy="1.824" rx="1.824" ry="1.824" transform="translate(121.36 49.807)" fill="#fff"/>
      <ellipse id="Ellipse_63" cx="1.824" cy="1.824" rx="1.824" ry="1.824" transform="translate(141.563 49.807)" fill="#fff"/>
      <ellipse id="Ellipse_64" cx="1.824" cy="1.824" rx="1.824" ry="1.824" transform="translate(161.907 49.807)" fill="#fff"/>
      <ellipse id="Ellipse_65" cx="1.824" cy="1.824" rx="1.824" ry="1.824" transform="translate(182.111 49.807)" fill="#fff"/>
      <ellipse id="Ellipse_66" cx="1.824" cy="1.824" rx="1.824" ry="1.824" transform="translate(202.314 49.807)" fill="#fff"/>
      <ellipse id="Ellipse_67" cx="1.824" cy="1.824" rx="1.824" ry="1.824" transform="translate(222.517 49.807)" fill="#fff"/>
      <ellipse id="Ellipse_68" cx="1.824" cy="1.824" rx="1.824" ry="1.824" transform="translate(0 33.251)" fill="#fff"/>
      <ellipse id="Ellipse_69" cx="1.824" cy="1.824" rx="1.824" ry="1.824" transform="translate(20.203 33.251)" fill="#fff"/>
      <ellipse id="Ellipse_70" cx="1.824" cy="1.824" rx="1.824" ry="1.824" transform="translate(40.406 33.251)" fill="#fff"/>
      <ellipse id="Ellipse_71" cx="1.824" cy="1.824" rx="1.824" ry="1.824" transform="translate(60.75 33.251)" fill="#fff"/>
      <ellipse id="Ellipse_72" cx="1.824" cy="1.824" rx="1.824" ry="1.824" transform="translate(80.953 33.251)" fill="#fff"/>
      <ellipse id="Ellipse_73" cx="1.824" cy="1.824" rx="1.824" ry="1.824" transform="translate(101.157 33.251)" fill="#fff"/>
      <ellipse id="Ellipse_74" cx="1.824" cy="1.824" rx="1.824" ry="1.824" transform="translate(121.36 33.251)" fill="#fff"/>
      <ellipse id="Ellipse_75" cx="1.824" cy="1.824" rx="1.824" ry="1.824" transform="translate(141.563 33.251)" fill="#fff"/>
      <ellipse id="Ellipse_76" cx="1.824" cy="1.824" rx="1.824" ry="1.824" transform="translate(161.907 33.251)" fill="#fff"/>
      <ellipse id="Ellipse_77" cx="1.824" cy="1.824" rx="1.824" ry="1.824" transform="translate(182.111 33.251)" fill="#fff"/>
      <ellipse id="Ellipse_78" cx="1.824" cy="1.824" rx="1.824" ry="1.824" transform="translate(202.314 33.251)" fill="#fff"/>
      <ellipse id="Ellipse_79" cx="1.824" cy="1.824" rx="1.824" ry="1.824" transform="translate(222.517 33.251)" fill="#fff"/>
      <ellipse id="Ellipse_80" cx="1.403" cy="1.403" rx="1.403" ry="1.403" transform="translate(0.701 17.958)" fill="#fff"/>
      <ellipse id="Ellipse_81" cx="1.824" cy="1.824" rx="1.824" ry="1.824" transform="translate(20.203 18.52)" fill="#fff"/>
      <ellipse id="Ellipse_82" cx="1.824" cy="1.824" rx="1.824" ry="1.824" transform="translate(40.406 18.52)" fill="#fff"/>
      <ellipse id="Ellipse_83" cx="1.824" cy="1.824" rx="1.824" ry="1.824" transform="translate(60.75 18.52)" fill="#fff"/>
      <ellipse id="Ellipse_84" cx="1.824" cy="1.824" rx="1.824" ry="1.824" transform="translate(80.953 18.52)" fill="#fff"/>
      <ellipse id="Ellipse_85" cx="1.824" cy="1.824" rx="1.824" ry="1.824" transform="translate(101.157 18.52)" fill="#fff"/>
      <ellipse id="Ellipse_86" cx="1.403" cy="1.403" rx="1.403" ry="1.403" transform="translate(122.763 17.958)" fill="#fff"/>
      <ellipse id="Ellipse_87" cx="1.824" cy="1.824" rx="1.824" ry="1.824" transform="translate(141.563 18.52)" fill="#fff"/>
      <ellipse id="Ellipse_88" cx="1.824" cy="1.824" rx="1.824" ry="1.824" transform="translate(161.907 18.52)" fill="#fff"/>
      <ellipse id="Ellipse_89" cx="1.824" cy="1.824" rx="1.824" ry="1.824" transform="translate(182.111 18.52)" fill="#fff"/>
      <ellipse id="Ellipse_90" cx="1.824" cy="1.824" rx="1.824" ry="1.824" transform="translate(202.314 18.52)" fill="#fff"/>
      <ellipse id="Ellipse_91" cx="1.824" cy="1.824" rx="1.824" ry="1.824" transform="translate(222.517 18.52)" fill="#fff"/>
      <ellipse id="Ellipse_92" cx="1.824" cy="1.824" rx="1.824" ry="1.824" transform="translate(0 0)" fill="#fff"/>
      <ellipse id="Ellipse_93" cx="1.824" cy="1.824" rx="1.824" ry="1.824" transform="translate(20.203 0)" fill="#fff"/>
      <ellipse id="Ellipse_94" cx="1.824" cy="1.824" rx="1.824" ry="1.824" transform="translate(40.406 0)" fill="#fff"/>
      <ellipse id="Ellipse_95" cx="1.824" cy="1.824" rx="1.824" ry="1.824" transform="translate(60.75 0)" fill="#fff"/>
      <ellipse id="Ellipse_96" cx="1.824" cy="1.824" rx="1.824" ry="1.824" transform="translate(80.953 0)" fill="#fff"/>
      <ellipse id="Ellipse_97" cx="1.824" cy="1.824" rx="1.824" ry="1.824" transform="translate(101.157 0)" fill="#fff"/>
      <ellipse id="Ellipse_98" cx="1.824" cy="1.824" rx="1.824" ry="1.824" transform="translate(121.36 0)" fill="#fff"/>
      <ellipse id="Ellipse_99" cx="1.824" cy="1.824" rx="1.824" ry="1.824" transform="translate(141.563 0)" fill="#fff"/>
      <ellipse id="Ellipse_100" cx="1.824" cy="1.824" rx="1.824" ry="1.824" transform="translate(161.907 0)" fill="#fff"/>
      <ellipse id="Ellipse_101" cx="1.824" cy="1.824" rx="1.824" ry="1.824" transform="translate(182.111 0)" fill="#fff"/>
      <ellipse id="Ellipse_102" cx="1.824" cy="1.824" rx="1.824" ry="1.824" transform="translate(202.314 0)" fill="#fff"/>
      <ellipse id="Ellipse_103" cx="1.824" cy="1.824" rx="1.824" ry="1.824" transform="translate(222.517 0)" fill="#fff"/>
    </g>
    <g id="Mask_Group_236" data-name="Mask Group 236" transform="translate(1450.463 5489.487) rotate(180)" opacity="0.014" clip-path="url(#clip-path-2)">
      <ellipse id="people" cx="241.3" cy="239.057" rx="241.3" ry="239.057" transform="translate(-193.175 -213.057)" fill="#030105" opacity="0.851"/>
    </g>
  </g>
</svg>
